<svg width="64.000000" height="64.000000" viewBox="0 0 64 64" fill="none" xmlns="http://www.w3.org/2000/svg" xmlns:xlink="http://www.w3.org/1999/xlink">
	<desc>
			Created with Pixso.
	</desc>
	<defs>
		<filter id="filter_3_1722_dd" x="-4.611328" y="-13.966309" width="74.958984" height="89.930176" filterUnits="userSpaceOnUse" color-interpolation-filters="sRGB">
			<feFlood flood-opacity="0" result="BackgroundImageFix"/>
			<feColorMatrix in="SourceAlpha" type="matrix" values="0 0 0 0 0 0 0 0 0 0 0 0 0 0 0 0 0 0 127 0" result="hardAlpha"/>
			<feOffset dx="0" dy="0"/>
			<feGaussianBlur stdDeviation="7.78333"/>
			<feComposite in2="hardAlpha" operator="out" k2="-1" k3="1"/>
			<feColorMatrix type="matrix" values="0 0 0 0 0.9451 0 0 0 0 0.19216 0 0 0 0 0.27451 0 0 0 1 0"/>
			<feBlend mode="normal" in2="BackgroundImageFix" result="effect_dropShadow_1"/>
			<feBlend mode="normal" in="SourceGraphic" in2="effect_dropShadow_1" result="shape"/>
		</filter>
		<filter id="filter_3_1728_dd" x="9.174316" y="48.846680" width="45.651367" height="7.979248" filterUnits="userSpaceOnUse" color-interpolation-filters="sRGB">
			<feFlood flood-opacity="0" result="BackgroundImageFix"/>
			<feBlend mode="normal" in="SourceGraphic" in2="BackgroundImageFix" result="shape"/>
			<feGaussianBlur stdDeviation="0.941889" result="effect_layerBlur_1"/>
		</filter>
		<clipPath id="clip3_5">
			<rect id="终端设备/摄像头" width="64.000000" height="64.000000" fill="white" fill-opacity="0"/>
		</clipPath>
		<linearGradient x1="17.460140" y1="28.700005" x2="46.497448" y2="28.700005" id="paint_linear_3_1722_0" gradientUnits="userSpaceOnUse">
			<stop stop-color="#DFDFDF"/>
			<stop offset="0.556694" stop-color="#FFFFFF"/>
			<stop offset="1.000000" stop-color="#CACACA"/>
		</linearGradient>
		<linearGradient x1="30.836868" y1="27.506191" x2="32.868107" y2="52.113800" id="paint_linear_3_1722_1" gradientUnits="userSpaceOnUse">
			<stop stop-color="#E2E2E2"/>
			<stop offset="1.000000" stop-color="#BCBBBB"/>
		</linearGradient>
		<radialGradient gradientTransform="translate(32.536 52.3117) rotate(90) scale(1.16392 17.4759)" cx="0.000000" cy="0.000000" r="1.000000" id="paint_radial_3_1728_0" gradientUnits="userSpaceOnUse">
			<stop stop-color="#73757F"/>
			<stop offset="1.000000" stop-color="#000000" stop-opacity="0.000000"/>
		</radialGradient>
		<linearGradient x1="17.459652" y1="28.700005" x2="46.496960" y2="28.700005" id="paint_linear_3_1729_0" gradientUnits="userSpaceOnUse">
			<stop stop-color="#DFDFDF"/>
			<stop offset="0.556694" stop-color="#FFFFFF"/>
			<stop offset="1.000000" stop-color="#CACACA"/>
		</linearGradient>
		<linearGradient x1="30.836380" y1="27.506191" x2="32.867619" y2="52.113800" id="paint_linear_3_1729_1" gradientUnits="userSpaceOnUse">
			<stop stop-color="#E2E2E2"/>
			<stop offset="1.000000" stop-color="#BCBBBB"/>
		</linearGradient>
		<linearGradient x1="14.439037" y1="34.449844" x2="50.351002" y2="34.405701" id="paint_linear_3_1737_0" gradientUnits="userSpaceOnUse">
			<stop stop-color="#AEAEAE"/>
			<stop offset="0.408832" stop-color="#FFFFFF"/>
			<stop offset="1.000000" stop-color="#B2B2B2"/>
		</linearGradient>
		<linearGradient x1="18.512939" y1="51.715393" x2="46.389030" y2="51.715393" id="paint_linear_3_1741_0" gradientUnits="userSpaceOnUse">
			<stop stop-color="#C7C7C7"/>
			<stop offset="0.487226" stop-color="#C5C5C5"/>
			<stop offset="1.000000" stop-color="#C7C7C7"/>
		</linearGradient>
		<linearGradient x1="20.516102" y1="49.497070" x2="46.512909" y2="49.497070" id="paint_linear_3_1742_0" gradientUnits="userSpaceOnUse">
			<stop stop-color="#B7B7B7" stop-opacity="0.000000"/>
			<stop offset="0.484954" stop-color="#C5C5C5"/>
			<stop offset="1.000000" stop-color="#D8D8D8" stop-opacity="0.149020"/>
		</linearGradient>
		<linearGradient x1="32.868565" y1="10.000000" x2="32.868565" y2="28.951618" id="paint_linear_3_1744_0" gradientUnits="userSpaceOnUse">
			<stop stop-color="#EEEEEE"/>
			<stop offset="0.741920" stop-color="#8F8F8F"/>
			<stop offset="1.000000" stop-color="#C2BEBE"/>
		</linearGradient>
		<radialGradient gradientTransform="translate(37.0927 27.0008) rotate(-117.92) scale(8.92067 9.11456)" cx="0.000000" cy="0.000000" r="1.000000" id="paint_radial_3_1748_0" gradientUnits="userSpaceOnUse">
			<stop stop-color="#FFFFFF"/>
			<stop offset="1.000000" stop-color="#FFFFFF" stop-opacity="0.000000"/>
			<stop offset="1.000000" stop-color="#FFFFFF" stop-opacity="0.000000"/>
		</radialGradient>
		<radialGradient gradientTransform="translate(24.3668 -9.06688) rotate(81.5528) scale(30.2171 30.2057)" cx="0.000000" cy="0.000000" r="1.000000" id="paint_radial_3_1749_0" gradientUnits="userSpaceOnUse">
			<stop stop-color="#FFFFFF"/>
			<stop offset="1.000000" stop-color="#FFFFFF" stop-opacity="0.000000"/>
		</radialGradient>
		<radialGradient gradientTransform="translate(66.6825 34.927) rotate(-156.868) scale(37.2397 37.2466)" cx="0.000000" cy="0.000000" r="1.000000" id="paint_radial_3_1752_0" gradientUnits="userSpaceOnUse">
			<stop stop-color="#FFFFFF" stop-opacity="0.901961"/>
			<stop offset="1.000000" stop-color="#FFFFFF" stop-opacity="0.000000"/>
		</radialGradient>
		<radialGradient gradientTransform="translate(22.451 6.13369) rotate(51.1489) scale(18.5272 18.5272)" cx="0.000000" cy="0.000000" r="1.000000" id="paint_radial_3_1757_0" gradientUnits="userSpaceOnUse">
			<stop stop-color="#FFFFFF" stop-opacity="0.901961"/>
			<stop offset="1.000000" stop-color="#FFFFFF" stop-opacity="0.000000"/>
		</radialGradient>
		<linearGradient x1="32.820847" y1="13.447510" x2="32.820847" y2="21.491692" id="paint_linear_3_1757_1" gradientUnits="userSpaceOnUse">
			<stop stop-color="#FFFFFF" stop-opacity="0.521569"/>
			<stop offset="1.000000" stop-color="#FFFFFF" stop-opacity="0.098039"/>
		</linearGradient>
		<linearGradient x1="32.820663" y1="14.384521" x2="32.820663" y2="20.554993" id="paint_linear_3_1758_0" gradientUnits="userSpaceOnUse">
			<stop stop-color="#FFFFFF" stop-opacity="0.549020"/>
			<stop offset="1.000000" stop-color="#FFFFFF" stop-opacity="0.098039"/>
		</linearGradient>
		<radialGradient gradientTransform="translate(28.7984 13.1844) rotate(51.1489) scale(7.10587 7.10587)" cx="0.000000" cy="0.000000" r="1.000000" id="paint_radial_3_1759_0" gradientUnits="userSpaceOnUse">
			<stop stop-color="#FFFFFF" stop-opacity="0.901961"/>
			<stop offset="1.000000" stop-color="#FFFFFF" stop-opacity="0.000000"/>
		</radialGradient>
		<linearGradient x1="32.775566" y1="15.989502" x2="32.775566" y2="19.074738" id="paint_linear_3_1759_1" gradientUnits="userSpaceOnUse">
			<stop stop-color="#FFFFFF" stop-opacity="0.301961"/>
			<stop offset="1.000000" stop-color="#FFFFFF" stop-opacity="0.098039"/>
		</linearGradient>
		<radialGradient gradientTransform="translate(29.747 13.8132) rotate(31.9196) scale(5.10043 5.10043)" cx="0.000000" cy="0.000000" r="1.000000" id="paint_radial_3_1761_0" gradientUnits="userSpaceOnUse">
			<stop stop-color="#FFFFFF"/>
			<stop offset="1.000000" stop-color="#000000"/>
		</radialGradient>
	</defs>
	<rect id="终端设备/摄像头" width="64.000000" height="64.000000" fill="#000000" fill-opacity="0"/>
	<g clip-path="url(#clip3_5)">
		<g opacity="0.000000">
			<rect id="矩形" x="8.000000" y="8.000000" width="48.000000" height="48.000000" fill="#D8D8D8" fill-opacity="1.000000"/>
			<rect id="矩形" x="8.500000" y="8.500000" width="47.000000" height="47.000000" stroke="#979797" stroke-opacity="0" stroke-width="1.000000"/>
		</g>
		<g filter="url(#filter_3_1722_dd)">
			<mask id="mask_3_1722" fill="white">
				<path id="形状结合" d="M45.2754 19.5728C45.2878 19.406 45.2939 19.2383 45.2939 19.0693C45.2939 14.001 39.687 9.88379 32.7842 9.88379C25.8816 9.88379 20.2744 14.001 20.2744 19.0693C20.2744 19.2449 20.2812 19.4192 20.2944 19.5925L19.2388 51.4331C19.2388 51.6768 19.4214 51.8887 19.665 51.8887C21.293 51.9404 27.1567 52.1138 32.6914 52.1138C38.2427 52.1138 44.3845 51.9736 46.0676 51.9324C46.3135 51.9324 46.4976 51.7202 46.4976 51.4744L45.2754 19.5728Z" clip-rule="evenodd" fill="" fill-opacity="1.000000" fill-rule="evenodd"/>
			</mask>
			<path id="形状结合" d="M45.2754 19.5728C45.2878 19.406 45.2939 19.2383 45.2939 19.0693C45.2939 14.001 39.687 9.88379 32.7842 9.88379C25.8816 9.88379 20.2744 14.001 20.2744 19.0693C20.2744 19.2449 20.2812 19.4192 20.2944 19.5925L19.2388 51.4331C19.2388 51.6768 19.4214 51.8887 19.665 51.8887C21.293 51.9404 27.1567 52.1138 32.6914 52.1138C38.2427 52.1138 44.3845 51.9736 46.0676 51.9324C46.3135 51.9324 46.4976 51.7202 46.4976 51.4744L45.2754 19.5728Z" clip-rule="evenodd" fill="url(#paint_linear_3_1722_0)" fill-opacity="1.000000" fill-rule="evenodd" mask="url(#mask_3_1722)"/>
			<path id="形状结合" d="M45.2754 19.5728C45.2878 19.406 45.2939 19.2383 45.2939 19.0693C45.2939 14.001 39.687 9.88379 32.7842 9.88379C25.8816 9.88379 20.2744 14.001 20.2744 19.0693C20.2744 19.2449 20.2812 19.4192 20.2944 19.5925L19.2388 51.4331C19.2388 51.6768 19.4214 51.8887 19.665 51.8887C21.293 51.9404 27.1567 52.1138 32.6914 52.1138C38.2427 52.1138 44.3845 51.9736 46.0676 51.9324C46.3135 51.9324 46.4976 51.7202 46.4976 51.4744L45.2754 19.5728ZM46.0798 52.4323L46.0798 52.4324Q43.5935 52.4932 40.8384 52.5386Q36.2676 52.6138 32.6914 52.6138Q29.124 52.6138 24.7026 52.5205Q22.0351 52.4642 19.6553 52.3886Q19.5561 52.3876 19.4617 52.3659Q19.372 52.3452 19.2866 52.3059Q19.2179 52.2742 19.1561 52.2324Q19.0664 52.1716 18.9912 52.0894Q18.9407 52.034 18.8999 51.9722Q18.843 51.8861 18.8049 51.7876Q18.774 51.7078 18.7575 51.6252Q18.7388 51.531 18.7388 51.4331L18.7388 51.4248L19.794 19.6048Q19.7896 19.5453 19.7862 19.4857Q19.7744 19.2779 19.7744 19.0693Q19.7744 18.4416 19.8779 17.8313Q20.1042 16.4968 20.8254 15.2461Q21.8281 13.5068 23.645 12.1729Q25.4446 10.8516 27.769 10.1289Q27.8638 10.0994 27.9589 10.0712Q30.2693 9.38379 32.7842 9.38379Q35.3042 9.38379 37.6184 10.0738Q37.709 10.1008 37.7993 10.1289Q40.1238 10.8516 41.9236 12.1729Q43.7405 13.5068 44.7432 15.2461Q45.4641 16.4965 45.6904 17.8308Q45.7939 18.4413 45.7939 19.0693Q45.7939 19.2973 45.7799 19.5244Q45.7782 19.5528 45.7762 19.5812L46.9976 51.4648L46.9976 51.4744Q46.9976 51.574 46.9782 51.6698Q46.9617 51.7513 46.9312 51.8301Q46.8927 51.9294 46.8351 52.0162Q46.7941 52.0779 46.7434 52.1333Q46.6687 52.2149 46.5796 52.2753Q46.5168 52.318 46.4468 52.3501Q46.3637 52.3881 46.2764 52.4086Q46.1806 52.431 46.0798 52.4323Z" clip-rule="evenodd" fill="#979797" fill-opacity="0.000000" fill-rule="evenodd"/>
			<path id="形状结合" d="M45.2754 19.5728C45.2878 19.406 45.2939 19.2383 45.2939 19.0693C45.2939 14.001 39.687 9.88379 32.7842 9.88379C25.8816 9.88379 20.2744 14.001 20.2744 19.0693C20.2744 19.2449 20.2812 19.4192 20.2944 19.5925L19.2388 51.4331C19.2388 51.6768 19.4214 51.8887 19.665 51.8887C21.293 51.9404 27.1567 52.1138 32.6914 52.1138C38.2427 52.1138 44.3845 51.9736 46.0676 51.9324C46.3135 51.9324 46.4976 51.7202 46.4976 51.4744L45.2754 19.5728ZM46.0798 52.4323L46.0798 52.4324Q43.5935 52.4932 40.8384 52.5386Q36.2676 52.6138 32.6914 52.6138Q29.124 52.6138 24.7026 52.5205Q22.0351 52.4642 19.6553 52.3886Q19.5561 52.3876 19.4617 52.3659Q19.372 52.3452 19.2866 52.3059Q19.2179 52.2742 19.1561 52.2324Q19.0664 52.1716 18.9912 52.0894Q18.9407 52.034 18.8999 51.9722Q18.843 51.8861 18.8049 51.7876Q18.774 51.7078 18.7575 51.6252Q18.7388 51.531 18.7388 51.4331L18.7388 51.4248L19.794 19.6048Q19.7896 19.5453 19.7862 19.4857Q19.7744 19.2779 19.7744 19.0693Q19.7744 18.4416 19.8779 17.8313Q20.1042 16.4968 20.8254 15.2461Q21.8281 13.5068 23.645 12.1729Q25.4446 10.8516 27.769 10.1289Q27.8638 10.0994 27.9589 10.0712Q30.2693 9.38379 32.7842 9.38379Q35.3042 9.38379 37.6184 10.0738Q37.709 10.1008 37.7993 10.1289Q40.1238 10.8516 41.9236 12.1729Q43.7405 13.5068 44.7432 15.2461Q45.4641 16.4965 45.6904 17.8308Q45.7939 18.4413 45.7939 19.0693Q45.7939 19.2973 45.7799 19.5244Q45.7782 19.5528 45.7762 19.5812L46.9976 51.4648L46.9976 51.4744Q46.9976 51.574 46.9782 51.6698Q46.9617 51.7513 46.9312 51.8301Q46.8927 51.9294 46.8351 52.0162Q46.7941 52.0779 46.7434 52.1333Q46.6687 52.2149 46.5796 52.2753Q46.5168 52.318 46.4468 52.3501Q46.3637 52.3881 46.2764 52.4086Q46.1806 52.431 46.0798 52.4323Z" clip-rule="evenodd" fill="url(#paint_linear_3_1722_1)" fill-opacity="1.000000" fill-rule="evenodd"/>
		</g>
		<g filter="url(#filter_3_1728_dd)">
			<ellipse id="椭圆形" cx="32.000000" cy="52.836182" rx="20.000000" ry="1.163916" fill="url(#paint_radial_3_1728_0)" fill-opacity="1.000000"/>
			<ellipse id="椭圆形" cx="32.000000" cy="52.836182" rx="19.500000" ry="0.663916" stroke="#979797" stroke-opacity="0" stroke-width="1.000000"/>
		</g>
		<mask id="mask_3_1729" fill="white">
			<path id="形状结合" d="M45.2749 19.5728C45.2874 19.406 45.2935 19.2383 45.2935 19.0693C45.2935 14.001 39.6865 9.88379 32.7837 9.88379C25.8811 9.88379 20.2739 14.001 20.2739 19.0693C20.2739 19.2449 20.2808 19.4192 20.2939 19.5925L19.2383 51.4331C19.2383 51.6768 19.4209 51.8887 19.6646 51.8887C21.2925 51.9404 27.1562 52.1138 32.6909 52.1138C38.2422 52.1138 44.384 51.9736 46.0671 51.9324C46.313 51.9324 46.4971 51.7202 46.4971 51.4744L45.2749 19.5728Z" clip-rule="evenodd" fill="" fill-opacity="1.000000" fill-rule="evenodd"/>
		</mask>
		<path id="形状结合" d="M45.2749 19.5728C45.2874 19.406 45.2935 19.2383 45.2935 19.0693C45.2935 14.001 39.6865 9.88379 32.7837 9.88379C25.8811 9.88379 20.2739 14.001 20.2739 19.0693C20.2739 19.2449 20.2808 19.4192 20.2939 19.5925L19.2383 51.4331C19.2383 51.6768 19.4209 51.8887 19.6646 51.8887C21.2925 51.9404 27.1562 52.1138 32.6909 52.1138C38.2422 52.1138 44.384 51.9736 46.0671 51.9324C46.313 51.9324 46.4971 51.7202 46.4971 51.4744L45.2749 19.5728Z" clip-rule="evenodd" fill="url(#paint_linear_3_1729_0)" fill-opacity="1.000000" fill-rule="evenodd" mask="url(#mask_3_1729)"/>
		<path id="形状结合" d="M45.2749 19.5728C45.2874 19.406 45.2935 19.2383 45.2935 19.0693C45.2935 14.001 39.6865 9.88379 32.7837 9.88379C25.8811 9.88379 20.2739 14.001 20.2739 19.0693C20.2739 19.2449 20.2808 19.4192 20.2939 19.5925L19.2383 51.4331C19.2383 51.6768 19.4209 51.8887 19.6646 51.8887C21.2925 51.9404 27.1562 52.1138 32.6909 52.1138C38.2422 52.1138 44.384 51.9736 46.0671 51.9324C46.313 51.9324 46.4971 51.7202 46.4971 51.4744L45.2749 19.5728ZM46.0793 52.4323L46.0793 52.4324Q43.593 52.4932 40.8379 52.5386Q36.2671 52.6138 32.6909 52.6138Q29.1235 52.6138 24.7021 52.5205Q22.0346 52.4642 19.6548 52.3886Q19.5556 52.3876 19.4612 52.3659Q19.3715 52.3452 19.2861 52.3059Q19.2174 52.2742 19.1556 52.2324Q19.0659 52.1716 18.9907 52.0894Q18.9403 52.034 18.8995 51.9722Q18.8425 51.8861 18.8044 51.7876Q18.7735 51.7078 18.757 51.6252Q18.7383 51.531 18.7383 51.4331L18.7383 51.4248L19.7935 19.6048Q19.7891 19.5453 19.7857 19.4857Q19.7739 19.2779 19.7739 19.0693Q19.7739 18.4416 19.8774 17.8313Q20.1037 16.4968 20.825 15.2461Q21.8276 13.5068 23.6445 12.1729Q25.4441 10.8516 27.7686 10.1289Q27.8633 10.0994 27.9584 10.0712Q30.2688 9.38379 32.7837 9.38379Q35.3037 9.38379 37.6179 10.0738Q37.7085 10.1008 37.7988 10.1289Q40.1233 10.8516 41.9231 12.1729Q43.74 13.5068 44.7427 15.2461Q45.4636 16.4965 45.6899 17.8308Q45.7935 18.4413 45.7935 19.0693Q45.7935 19.2973 45.7794 19.5244Q45.7777 19.5528 45.7757 19.5812L46.9971 51.4648L46.9971 51.4744Q46.9971 51.574 46.9777 51.6698Q46.9612 51.7513 46.9307 51.8301Q46.8922 51.9294 46.8346 52.0162Q46.7936 52.0779 46.7429 52.1333Q46.6682 52.2149 46.5791 52.2753Q46.5163 52.318 46.4463 52.3501Q46.3632 52.3881 46.2759 52.4086Q46.1801 52.431 46.0793 52.4323Z" clip-rule="evenodd" fill="#979797" fill-opacity="0.000000" fill-rule="evenodd"/>
		<path id="形状结合" d="M45.2749 19.5728C45.2874 19.406 45.2935 19.2383 45.2935 19.0693C45.2935 14.001 39.6865 9.88379 32.7837 9.88379C25.8811 9.88379 20.2739 14.001 20.2739 19.0693C20.2739 19.2449 20.2808 19.4192 20.2939 19.5925L19.2383 51.4331C19.2383 51.6768 19.4209 51.8887 19.6646 51.8887C21.2925 51.9404 27.1562 52.1138 32.6909 52.1138C38.2422 52.1138 44.384 51.9736 46.0671 51.9324C46.313 51.9324 46.4971 51.7202 46.4971 51.4744L45.2749 19.5728ZM46.0793 52.4323L46.0793 52.4324Q43.593 52.4932 40.8379 52.5386Q36.2671 52.6138 32.6909 52.6138Q29.1235 52.6138 24.7021 52.5205Q22.0346 52.4642 19.6548 52.3886Q19.5556 52.3876 19.4612 52.3659Q19.3715 52.3452 19.2861 52.3059Q19.2174 52.2742 19.1556 52.2324Q19.0659 52.1716 18.9907 52.0894Q18.9403 52.034 18.8995 51.9722Q18.8425 51.8861 18.8044 51.7876Q18.7735 51.7078 18.757 51.6252Q18.7383 51.531 18.7383 51.4331L18.7383 51.4248L19.7935 19.6048Q19.7891 19.5453 19.7857 19.4857Q19.7739 19.2779 19.7739 19.0693Q19.7739 18.4416 19.8774 17.8313Q20.1037 16.4968 20.825 15.2461Q21.8276 13.5068 23.6445 12.1729Q25.4441 10.8516 27.7686 10.1289Q27.8633 10.0994 27.9584 10.0712Q30.2688 9.38379 32.7837 9.38379Q35.3037 9.38379 37.6179 10.0738Q37.7085 10.1008 37.7988 10.1289Q40.1233 10.8516 41.9231 12.1729Q43.74 13.5068 44.7427 15.2461Q45.4636 16.4965 45.6899 17.8308Q45.7935 18.4413 45.7935 19.0693Q45.7935 19.2973 45.7794 19.5244Q45.7777 19.5528 45.7757 19.5812L46.9971 51.4648L46.9971 51.4744Q46.9971 51.574 46.9777 51.6698Q46.9612 51.7513 46.9307 51.8301Q46.8922 51.9294 46.8346 52.0162Q46.7936 52.0779 46.7429 52.1333Q46.6682 52.2149 46.5791 52.2753Q46.5163 52.318 46.4463 52.3501Q46.3632 52.3881 46.2759 52.4086Q46.1801 52.431 46.0793 52.4323Z" clip-rule="evenodd" fill="url(#paint_linear_3_1729_1)" fill-opacity="1.000000" fill-rule="evenodd"/>
		<mask id="mask3_1737" mask-type="alpha" maskUnits="userSpaceOnUse" x="19.222656" y="20.082275" width="27.291748" height="32.146729">
			<mask id="mask_3_1737" fill="white">
				<path id="形状结合" d="M45.345 20.4004C45.345 22.1562 39.7527 23.5823 32.8684 23.5823C25.9841 23.5823 20.3921 22.1562 20.3921 20.4004C20.3921 20.302 20.4097 20.2048 20.4438 20.1086C20.4265 20.0999 20.4094 20.0911 20.3921 20.0823L19.2231 51.3862C19.2124 51.6714 19.4333 51.9116 19.7183 51.9236C21.4575 51.9978 27.3135 52.229 32.7756 52.229C38.2502 52.229 44.252 51.9968 46.0181 51.9231C46.3032 51.9111 46.5247 51.6709 46.5139 51.3857L45.345 20.0823C45.3276 20.0911 45.3103 20.0999 45.293 20.1086C45.3274 20.2048 45.345 20.302 45.345 20.4004Z" clip-rule="evenodd" fill="" fill-opacity="1.000000" fill-rule="evenodd"/>
			</mask>
			<path id="形状结合" d="M45.345 20.4004C45.345 22.1562 39.7527 23.5823 32.8684 23.5823C25.9841 23.5823 20.3921 22.1562 20.3921 20.4004C20.3921 20.302 20.4097 20.2048 20.4438 20.1086C20.4265 20.0999 20.4094 20.0911 20.3921 20.0823L19.2231 51.3862C19.2124 51.6714 19.4333 51.9116 19.7183 51.9236C21.4575 51.9978 27.3135 52.229 32.7756 52.229C38.2502 52.229 44.252 51.9968 46.0181 51.9231C46.3032 51.9111 46.5247 51.6709 46.5139 51.3857L45.345 20.0823C45.3276 20.0911 45.3103 20.0999 45.293 20.1086C45.3274 20.2048 45.345 20.302 45.345 20.4004Z" clip-rule="evenodd" fill="url(#paint_linear_3_1737_0)" fill-opacity="1.000000" fill-rule="evenodd" mask="url(#mask_3_1737)"/>
			<path id="形状结合" d="" clip-rule="evenodd" fill="#979797" fill-opacity="0.000000" fill-rule="evenodd"/>
		</mask>
		<mask id="mask_3_1737" fill="white">
			<path id="形状结合" d="M45.345 20.4004C45.345 22.1562 39.7527 23.5823 32.8684 23.5823C25.9841 23.5823 20.3921 22.1562 20.3921 20.4004C20.3921 20.302 20.4097 20.2048 20.4438 20.1086C20.4265 20.0999 20.4094 20.0911 20.3921 20.0823L19.2231 51.3862C19.2124 51.6714 19.4333 51.9116 19.7183 51.9236C21.4575 51.9978 27.3135 52.229 32.7756 52.229C38.2502 52.229 44.252 51.9968 46.0181 51.9231C46.3032 51.9111 46.5247 51.6709 46.5139 51.3857L45.345 20.0823C45.3276 20.0911 45.3103 20.0999 45.293 20.1086C45.3274 20.2048 45.345 20.302 45.345 20.4004Z" clip-rule="evenodd" fill="" fill-opacity="1.000000" fill-rule="evenodd"/>
		</mask>
		<path id="形状结合" d="M45.345 20.4004C45.345 22.1562 39.7527 23.5823 32.8684 23.5823C25.9841 23.5823 20.3921 22.1562 20.3921 20.4004C20.3921 20.302 20.4097 20.2048 20.4438 20.1086C20.4265 20.0999 20.4094 20.0911 20.3921 20.0823L19.2231 51.3862C19.2124 51.6714 19.4333 51.9116 19.7183 51.9236C21.4575 51.9978 27.3135 52.229 32.7756 52.229C38.2502 52.229 44.252 51.9968 46.0181 51.9231C46.3032 51.9111 46.5247 51.6709 46.5139 51.3857L45.345 20.0823C45.3276 20.0911 45.3103 20.0999 45.293 20.1086C45.3274 20.2048 45.345 20.302 45.345 20.4004Z" clip-rule="evenodd" fill="url(#paint_linear_3_1737_0)" fill-opacity="1.000000" fill-rule="evenodd" mask="url(#mask_3_1737)"/>
		<path id="形状结合" d="" clip-rule="evenodd" fill="#979797" fill-opacity="0.000000" fill-rule="evenodd"/>
		<g mask="url(#mask3_1737)">
			<path id="矩形" d="M18.51 50.95L46.51 50.95L46.51 51.92C46.51 51.92 40.03 52.47 32.9 52.47C25.78 52.47 18.51 51.92 18.51 51.92L18.51 50.95Z" fill="url(#paint_linear_3_1741_0)" fill-opacity="1.000000" fill-rule="evenodd"/>
			<path id="矩形" d="" fill="#979797" fill-opacity="0" fill-rule="evenodd"/>
		</g>
		<g mask="url(#mask3_1737)">
			<g opacity="0.606126">
				<rect id="矩形" x="19.223877" y="49.497070" width="27.289030" height="1.028412" fill="url(#paint_linear_3_1742_0)" fill-opacity="1.000000"/>
				<rect id="矩形" x="19.723877" y="49.997070" width="26.289030" height="0.028412" stroke="#979797" stroke-opacity="0" stroke-width="1.000000"/>
			</g>
		</g>
		<ellipse id="椭圆形" cx="32.868652" cy="19.989990" rx="12.510657" ry="8.961604" fill="#D8D8D8" fill-opacity="1.000000"/>
		<ellipse id="椭圆形" cx="32.868652" cy="19.989990" rx="12.010657" ry="8.461604" stroke="#979797" stroke-opacity="0" stroke-width="1.000000"/>
		<ellipse id="椭圆形" cx="32.868652" cy="19.475830" rx="12.510657" ry="9.475810" fill="url(#paint_linear_3_1744_0)" fill-opacity="1.000000"/>
		<ellipse id="椭圆形" cx="32.868652" cy="19.475830" rx="12.010657" ry="8.975810" stroke="#979797" stroke-opacity="0" stroke-width="1.000000"/>
		<ellipse id="椭圆形" cx="32.888916" cy="19.182129" rx="11.528790" ry="8.961604" fill="#A2A2A2" fill-opacity="1.000000"/>
		<ellipse id="椭圆形" cx="32.888916" cy="19.182129" rx="11.028790" ry="8.461604" stroke="#979797" stroke-opacity="0" stroke-width="1.000000"/>
		<mask id="mask3_1746" mask-type="alpha" maskUnits="userSpaceOnUse" x="21.857910" y="10.614990" width="22.021240" height="17.134277">
			<ellipse id="椭圆形" cx="32.868652" cy="19.182129" rx="11.010632" ry="8.567080" fill="#000000" fill-opacity="1.000000"/>
			<ellipse id="椭圆形" cx="32.868652" cy="19.182129" rx="10.510632" ry="8.067080" stroke="#979797" stroke-opacity="0" stroke-width="1.000000"/>
		</mask>
		<ellipse id="椭圆形" cx="32.868652" cy="19.182129" rx="11.010632" ry="8.567080" fill="#000000" fill-opacity="1.000000"/>
		<ellipse id="椭圆形" cx="32.868652" cy="19.182129" rx="10.510632" ry="8.067080" stroke="#979797" stroke-opacity="0" stroke-width="1.000000"/>
		<g mask="url(#mask3_1746)">
			<ellipse id="椭圆形" cx="32.915771" cy="21.932129" rx="11.057818" ry="11.723497" fill="#191919" fill-opacity="1.000000"/>
			<ellipse id="椭圆形" cx="32.915771" cy="21.932129" rx="11.057818" ry="11.723497" fill="url(#paint_radial_3_1748_0)" fill-opacity="0.300000"/>
			<ellipse id="椭圆形" cx="32.915771" cy="21.932129" rx="10.557818" ry="11.223497" stroke="#979797" stroke-opacity="0" stroke-width="1.000000"/>
			<mask id="mask_3_1749" fill="white">
				<path id="形状结合" d="M31.6548 31.436C28.3625 29.7122 26.0881 26.0527 26.0881 21.8228C26.0881 15.9375 30.491 11.1567 35.9114 11.1567C37.0544 11.1567 38.1523 11.3694 39.1731 11.7603C37.4475 10.7759 35.4214 10.2087 33.2551 10.2087C26.9663 10.2087 21.8579 14.9895 21.8579 20.8748C21.8579 26.2517 26.1221 30.7068 31.6548 31.436Z" clip-rule="evenodd" fill="" fill-opacity="1.000000" fill-rule="evenodd"/>
			</mask>
			<path id="形状结合" d="M31.6548 31.436C28.3625 29.7122 26.0881 26.0527 26.0881 21.8228C26.0881 15.9375 30.491 11.1567 35.9114 11.1567C37.0544 11.1567 38.1523 11.3694 39.1731 11.7603C37.4475 10.7759 35.4214 10.2087 33.2551 10.2087C26.9663 10.2087 21.8579 14.9895 21.8579 20.8748C21.8579 26.2517 26.1221 30.7068 31.6548 31.436Z" clip-rule="evenodd" fill="#191919" fill-opacity="0.000000" fill-rule="evenodd" mask="url(#mask_3_1749)"/>
			<path id="形状结合" d="M31.6548 31.436C28.3625 29.7122 26.0881 26.0527 26.0881 21.8228C26.0881 15.9375 30.491 11.1567 35.9114 11.1567C37.0544 11.1567 38.1523 11.3694 39.1731 11.7603C37.4475 10.7759 35.4214 10.2087 33.2551 10.2087C26.9663 10.2087 21.8579 14.9895 21.8579 20.8748C21.8579 26.2517 26.1221 30.7068 31.6548 31.436Z" clip-rule="evenodd" fill="url(#paint_radial_3_1749_0)" fill-opacity="1.000000" fill-rule="evenodd" mask="url(#mask_3_1749)"/>
			<path id="形状结合" d="" clip-rule="evenodd" fill="#979797" fill-opacity="0.000000" fill-rule="evenodd"/>
			<g opacity="0.073626">
				<mask id="mask_3_1752" fill="white">
					<path id="形状结合" d="M24.5718 24.6306C24.6628 24.9431 24.7703 25.2539 24.8948 25.562C26.9246 30.5859 32.6975 33.0005 37.7747 30.9492C42.8518 28.8979 45.3271 23.1509 43.2974 18.127C42.426 15.9707 40.8652 14.2952 38.9661 13.2468C39.9521 14.207 40.7656 15.3931 41.3203 16.7659C43.3501 21.7898 41.1497 27.4258 36.4111 29.3403C31.9731 31.1333 26.8689 29.0317 24.5718 24.6306Z" clip-rule="evenodd" fill="" fill-opacity="1.000000" fill-rule="evenodd"/>
				</mask>
				<path id="形状结合" d="M24.5718 24.6306C24.6628 24.9431 24.7703 25.2539 24.8948 25.562C26.9246 30.5859 32.6975 33.0005 37.7747 30.9492C42.8518 28.8979 45.3271 23.1509 43.2974 18.127C42.426 15.9707 40.8652 14.2952 38.9661 13.2468C39.9521 14.207 40.7656 15.3931 41.3203 16.7659C43.3501 21.7898 41.1497 27.4258 36.4111 29.3403C31.9731 31.1333 26.8689 29.0317 24.5718 24.6306Z" clip-rule="evenodd" fill="#191919" fill-opacity="0.000000" fill-rule="evenodd" mask="url(#mask_3_1752)"/>
				<path id="形状结合" d="M24.5718 24.6306C24.6628 24.9431 24.7703 25.2539 24.8948 25.562C26.9246 30.5859 32.6975 33.0005 37.7747 30.9492C42.8518 28.8979 45.3271 23.1509 43.2974 18.127C42.426 15.9707 40.8652 14.2952 38.9661 13.2468C39.9521 14.207 40.7656 15.3931 41.3203 16.7659C43.3501 21.7898 41.1497 27.4258 36.4111 29.3403C31.9731 31.1333 26.8689 29.0317 24.5718 24.6306Z" clip-rule="evenodd" fill="url(#paint_radial_3_1752_0)" fill-opacity="1.000000" fill-rule="evenodd" mask="url(#mask_3_1752)"/>
				<path id="形状结合" d="" clip-rule="evenodd" fill="#979797" fill-opacity="0.000000" fill-rule="evenodd"/>
			</g>
			<ellipse id="椭圆形" cx="32.585938" cy="19.859375" rx="10.727947" ry="9.650727" fill="#191919" fill-opacity="0"/>
			<ellipse id="椭圆形" cx="32.585938" cy="19.859375" rx="10.433829" ry="9.356609" stroke="#000000" stroke-opacity="1.000000" stroke-width="0.588235"/>
			<ellipse id="椭圆形" cx="32.820801" cy="17.469482" rx="4.065477" ry="4.022091" fill="#000000" fill-opacity="1.000000"/>
			<ellipse id="椭圆形" cx="32.820801" cy="17.469482" rx="4.065477" ry="4.022091" fill="url(#paint_radial_3_1757_0)" fill-opacity="0"/>
			<ellipse id="椭圆形" cx="32.820801" cy="17.469482" rx="3.565477" ry="3.522091" stroke="url(#paint_linear_3_1757_1)" stroke-opacity="0" stroke-width="1.000000"/>
			<ellipse id="椭圆形" cx="32.820801" cy="17.469482" rx="3.565477" ry="3.522091" stroke="#373738" stroke-opacity="0" stroke-width="1.000000"/>
			<ellipse id="椭圆形" cx="32.820557" cy="17.469727" rx="3.412634" ry="3.379354" stroke="url(#paint_linear_3_1758_0)" stroke-opacity="1.000000" stroke-width="0.588235"/>
			<ellipse id="椭圆形" cx="32.820557" cy="17.469727" rx="3.412634" ry="3.379354" stroke="#464646" stroke-opacity="1.000000" stroke-width="0.588235"/>
			<ellipse id="椭圆形" cx="32.775635" cy="17.532227" rx="1.559258" ry="1.542618" fill="#000000" fill-opacity="1.000000"/>
			<ellipse id="椭圆形" cx="32.775635" cy="17.532227" rx="1.559258" ry="1.542618" fill="url(#paint_radial_3_1759_0)" fill-opacity="0"/>
			<ellipse id="椭圆形" cx="32.775635" cy="17.532227" rx="1.059258" ry="1.042618" stroke="url(#paint_linear_3_1759_1)" stroke-opacity="0" stroke-width="1.000000"/>
			<ellipse id="椭圆形" cx="32.775635" cy="17.532227" rx="1.059258" ry="1.042618" stroke="#272A2F" stroke-opacity="0" stroke-width="1.000000"/>
			<ellipse id="椭圆形" cx="34.493896" cy="15.556885" rx="1.105782" ry="1.172350" fill="#FFFFFF" fill-opacity="0.301961"/>
			<ellipse id="椭圆形" cx="34.493896" cy="15.556885" rx="0.605782" ry="0.672350" stroke="#979797" stroke-opacity="0" stroke-width="1.000000"/>
			<g opacity="0.175807">
				<ellipse id="椭圆形" cx="32.810791" cy="17.477295" rx="3.701212" ry="3.663955" fill="url(#paint_radial_3_1761_0)" fill-opacity="1.000000"/>
				<ellipse id="椭圆形" cx="32.810791" cy="17.477295" rx="3.201212" ry="3.163955" stroke="#979797" stroke-opacity="0" stroke-width="1.000000"/>
			</g>
			<ellipse id="椭圆形" cx="35.231201" cy="14.775146" rx="0.368594" ry="0.390783" fill="#FFFFFF" fill-opacity="0.600000"/>
			<ellipse id="椭圆形" cx="35.231201" cy="14.775146" rx="-0.131406" ry="-0.109217" stroke="#979797" stroke-opacity="0" stroke-width="1.000000"/>
		</g>
	</g>
</svg>
