<svg width="64.000000" height="64.000000" viewBox="0 0 64 64" fill="none" xmlns="http://www.w3.org/2000/svg" xmlns:xlink="http://www.w3.org/1999/xlink">
	<desc>
			Created with Pixso.
	</desc>
	<defs>
		<filter id="filter_3_1684_dd" x="9.174316" y="48.846680" width="45.651367" height="7.979248" filterUnits="userSpaceOnUse" color-interpolation-filters="sRGB">
			<feFlood flood-opacity="0" result="BackgroundImageFix"/>
			<feBlend mode="normal" in="SourceGraphic" in2="BackgroundImageFix" result="shape"/>
			<feGaussianBlur stdDeviation="0.941889" result="effect_layerBlur_1"/>
		</filter>
		<clipPath id="clip3_4">
			<rect id="终端设备/摄像头" width="64.000000" height="64.000000" fill="white" fill-opacity="0"/>
		</clipPath>
		<radialGradient gradientTransform="translate(32.536 52.3117) rotate(90) scale(1.16392 17.4759)" cx="0.000000" cy="0.000000" r="1.000000" id="paint_radial_3_1684_0" gradientUnits="userSpaceOnUse">
			<stop stop-color="#73757F"/>
			<stop offset="1.000000" stop-color="#000000" stop-opacity="0.000000"/>
		</radialGradient>
		<linearGradient x1="17.459652" y1="28.700005" x2="46.496960" y2="28.700005" id="paint_linear_3_1685_0" gradientUnits="userSpaceOnUse">
			<stop stop-color="#DFDFDF"/>
			<stop offset="0.556694" stop-color="#FFFFFF"/>
			<stop offset="1.000000" stop-color="#CACACA"/>
		</linearGradient>
		<linearGradient x1="30.836380" y1="27.506191" x2="32.867619" y2="52.113800" id="paint_linear_3_1685_1" gradientUnits="userSpaceOnUse">
			<stop stop-color="#E2E2E2"/>
			<stop offset="1.000000" stop-color="#BCBBBB"/>
		</linearGradient>
		<linearGradient x1="14.439037" y1="34.449844" x2="50.351002" y2="34.405701" id="paint_linear_3_1693_0" gradientUnits="userSpaceOnUse">
			<stop stop-color="#AEAEAE"/>
			<stop offset="0.408832" stop-color="#FFFFFF"/>
			<stop offset="1.000000" stop-color="#B2B2B2"/>
		</linearGradient>
		<linearGradient x1="18.513062" y1="51.715393" x2="46.389153" y2="51.715393" id="paint_linear_3_1697_0" gradientUnits="userSpaceOnUse">
			<stop stop-color="#C7C7C7"/>
			<stop offset="0.487226" stop-color="#C5C5C5"/>
			<stop offset="1.000000" stop-color="#C7C7C7"/>
		</linearGradient>
		<linearGradient x1="20.516224" y1="49.497070" x2="46.513031" y2="49.497070" id="paint_linear_3_1698_0" gradientUnits="userSpaceOnUse">
			<stop stop-color="#B7B7B7" stop-opacity="0.000000"/>
			<stop offset="0.484954" stop-color="#C5C5C5"/>
			<stop offset="1.000000" stop-color="#D8D8D8" stop-opacity="0.149020"/>
		</linearGradient>
		<linearGradient x1="32.868565" y1="10.000000" x2="32.868565" y2="28.951618" id="paint_linear_3_1700_0" gradientUnits="userSpaceOnUse">
			<stop stop-color="#EEEEEE"/>
			<stop offset="0.741920" stop-color="#8F8F8F"/>
			<stop offset="1.000000" stop-color="#C2BEBE"/>
		</linearGradient>
		<radialGradient gradientTransform="translate(37.0927 27.0008) rotate(-117.92) scale(8.92067 9.11456)" cx="0.000000" cy="0.000000" r="1.000000" id="paint_radial_3_1704_0" gradientUnits="userSpaceOnUse">
			<stop stop-color="#FFFFFF"/>
			<stop offset="1.000000" stop-color="#FFFFFF" stop-opacity="0.000000"/>
			<stop offset="1.000000" stop-color="#FFFFFF" stop-opacity="0.000000"/>
		</radialGradient>
		<radialGradient gradientTransform="translate(24.3668 -9.06688) rotate(81.5528) scale(30.2171 30.2057)" cx="0.000000" cy="0.000000" r="1.000000" id="paint_radial_3_1705_0" gradientUnits="userSpaceOnUse">
			<stop stop-color="#FFFFFF"/>
			<stop offset="1.000000" stop-color="#FFFFFF" stop-opacity="0.000000"/>
		</radialGradient>
		<radialGradient gradientTransform="translate(66.6825 34.927) rotate(-156.868) scale(37.2397 37.2466)" cx="0.000000" cy="0.000000" r="1.000000" id="paint_radial_3_1708_0" gradientUnits="userSpaceOnUse">
			<stop stop-color="#FFFFFF" stop-opacity="0.901961"/>
			<stop offset="1.000000" stop-color="#FFFFFF" stop-opacity="0.000000"/>
		</radialGradient>
		<radialGradient gradientTransform="translate(22.4509 6.13369) rotate(51.1489) scale(18.5272 18.5272)" cx="0.000000" cy="0.000000" r="1.000000" id="paint_radial_3_1713_0" gradientUnits="userSpaceOnUse">
			<stop stop-color="#FFFFFF" stop-opacity="0.901961"/>
			<stop offset="1.000000" stop-color="#FFFFFF" stop-opacity="0.000000"/>
		</radialGradient>
		<linearGradient x1="32.820724" y1="13.447510" x2="32.820724" y2="21.491692" id="paint_linear_3_1713_1" gradientUnits="userSpaceOnUse">
			<stop stop-color="#FFFFFF" stop-opacity="0.521569"/>
			<stop offset="1.000000" stop-color="#FFFFFF" stop-opacity="0.098039"/>
		</linearGradient>
		<linearGradient x1="32.820786" y1="14.384521" x2="32.820786" y2="20.554993" id="paint_linear_3_1714_0" gradientUnits="userSpaceOnUse">
			<stop stop-color="#FFFFFF" stop-opacity="0.549020"/>
			<stop offset="1.000000" stop-color="#FFFFFF" stop-opacity="0.098039"/>
		</linearGradient>
		<radialGradient gradientTransform="translate(28.7984 13.1844) rotate(51.1489) scale(7.10587 7.10587)" cx="0.000000" cy="0.000000" r="1.000000" id="paint_radial_3_1715_0" gradientUnits="userSpaceOnUse">
			<stop stop-color="#FFFFFF" stop-opacity="0.901961"/>
			<stop offset="1.000000" stop-color="#FFFFFF" stop-opacity="0.000000"/>
		</radialGradient>
		<linearGradient x1="32.775566" y1="15.989502" x2="32.775566" y2="19.074738" id="paint_linear_3_1715_1" gradientUnits="userSpaceOnUse">
			<stop stop-color="#FFFFFF" stop-opacity="0.301961"/>
			<stop offset="1.000000" stop-color="#FFFFFF" stop-opacity="0.098039"/>
		</linearGradient>
		<radialGradient gradientTransform="translate(29.7471 13.8132) rotate(31.9196) scale(5.10043 5.10043)" cx="0.000000" cy="0.000000" r="1.000000" id="paint_radial_3_1717_0" gradientUnits="userSpaceOnUse">
			<stop stop-color="#FFFFFF"/>
			<stop offset="1.000000" stop-color="#000000"/>
		</radialGradient>
	</defs>
	<rect id="终端设备/摄像头" width="64.000000" height="64.000000" fill="#000000" fill-opacity="0"/>
	<g clip-path="url(#clip3_4)">
		<g opacity="0.000000">
			<rect id="矩形" x="8.000000" y="8.000000" width="48.000000" height="48.000000" fill="#D8D8D8" fill-opacity="1.000000"/>
			<rect id="矩形" x="8.500000" y="8.500000" width="47.000000" height="47.000000" stroke="#979797" stroke-opacity="0" stroke-width="1.000000"/>
		</g>
		<g filter="url(#filter_3_1684_dd)">
			<ellipse id="椭圆形" cx="32.000000" cy="52.836182" rx="20.000000" ry="1.163916" fill="url(#paint_radial_3_1684_0)" fill-opacity="1.000000"/>
			<ellipse id="椭圆形" cx="32.000000" cy="52.836182" rx="19.500000" ry="0.663916" stroke="#979797" stroke-opacity="0" stroke-width="1.000000"/>
		</g>
		<mask id="mask_3_1685" fill="white">
			<path id="形状结合" d="M45.2749 19.5728C45.2872 19.406 45.2935 19.2383 45.2935 19.0693C45.2935 14.001 39.6864 9.88379 32.7838 9.88379C25.8811 9.88379 20.274 14.001 20.274 19.0693C20.274 19.2449 20.2808 19.4192 20.2941 19.5925L19.2383 51.4331C19.2383 51.6768 19.421 51.8887 19.6647 51.8887C21.2925 51.9404 27.1564 52.1138 32.6908 52.1138C38.2422 52.1138 44.3842 51.9736 46.0671 51.9324C46.3131 51.9324 46.4969 51.7202 46.4969 51.4744L45.2749 19.5728Z" clip-rule="evenodd" fill="" fill-opacity="1.000000" fill-rule="evenodd"/>
		</mask>
		<path id="形状结合" d="M45.2749 19.5728C45.2872 19.406 45.2935 19.2383 45.2935 19.0693C45.2935 14.001 39.6864 9.88379 32.7838 9.88379C25.8811 9.88379 20.274 14.001 20.274 19.0693C20.274 19.2449 20.2808 19.4192 20.2941 19.5925L19.2383 51.4331C19.2383 51.6768 19.421 51.8887 19.6647 51.8887C21.2925 51.9404 27.1564 52.1138 32.6908 52.1138C38.2422 52.1138 44.3842 51.9736 46.0671 51.9324C46.3131 51.9324 46.4969 51.7202 46.4969 51.4744L45.2749 19.5728Z" clip-rule="evenodd" fill="url(#paint_linear_3_1685_0)" fill-opacity="1.000000" fill-rule="evenodd" mask="url(#mask_3_1685)"/>
		<path id="形状结合" d="M45.2749 19.5728C45.2872 19.406 45.2935 19.2383 45.2935 19.0693C45.2935 14.001 39.6864 9.88379 32.7838 9.88379C25.8811 9.88379 20.274 14.001 20.274 19.0693C20.274 19.2449 20.2808 19.4192 20.2941 19.5925L19.2383 51.4331C19.2383 51.6768 19.421 51.8887 19.6647 51.8887C21.2925 51.9404 27.1564 52.1138 32.6908 52.1138C38.2422 52.1138 44.3842 51.9736 46.0671 51.9324C46.3131 51.9324 46.4969 51.7202 46.4969 51.4744L45.2749 19.5728ZM46.0793 52.4323L46.0793 52.4324Q43.5929 52.4932 40.8379 52.5386Q36.2672 52.6138 32.6908 52.6138Q29.1234 52.6138 24.7021 52.5205Q22.0345 52.4642 19.6549 52.3886Q19.555 52.3876 19.46 52.3656Q19.3709 52.345 19.2861 52.3059Q19.2169 52.274 19.1547 52.2318Q19.0656 52.1712 18.9908 52.0894Q18.9394 52.033 18.898 51.9701Q18.842 51.8849 18.8043 51.7876Q18.7736 51.7081 18.7571 51.6258Q18.7383 51.5314 18.7383 51.4331L18.7383 51.4248L19.7934 19.6025Q19.7892 19.5441 19.7859 19.4857Q19.774 19.2779 19.774 19.0693Q19.774 18.4413 19.8776 17.8308Q20.1039 16.4965 20.8248 15.2461Q21.8276 13.5068 23.6445 12.1729Q25.4441 10.8516 27.7687 10.1289Q27.859 10.1008 27.9496 10.0738Q30.2638 9.38379 32.7838 9.38379Q35.3024 9.38379 37.6156 10.0731Q37.7074 10.1005 37.7988 10.1289Q40.1234 10.8516 41.9231 12.1729Q43.7399 13.5068 44.7427 15.2461Q45.4636 16.4965 45.6899 17.8308Q45.7935 18.4413 45.7935 19.0693Q45.7935 19.2945 45.7797 19.5188Q45.7778 19.55 45.7756 19.5813L46.9969 51.4648L46.9969 51.4744Q46.9969 51.5744 46.9775 51.6704Q46.961 51.7517 46.9307 51.8301Q46.8924 51.9291 46.8351 52.0156Q46.794 52.0777 46.743 52.1333Q46.6684 52.2148 46.5794 52.2751Q46.5164 52.3179 46.4462 52.3501Q46.3624 52.3884 46.2746 52.4089Q46.1794 52.431 46.0793 52.4323Z" clip-rule="evenodd" fill="#979797" fill-opacity="0.000000" fill-rule="evenodd"/>
		<path id="形状结合" d="M45.2749 19.5728C45.2872 19.406 45.2935 19.2383 45.2935 19.0693C45.2935 14.001 39.6864 9.88379 32.7838 9.88379C25.8811 9.88379 20.274 14.001 20.274 19.0693C20.274 19.2449 20.2808 19.4192 20.2941 19.5925L19.2383 51.4331C19.2383 51.6768 19.421 51.8887 19.6647 51.8887C21.2925 51.9404 27.1564 52.1138 32.6908 52.1138C38.2422 52.1138 44.3842 51.9736 46.0671 51.9324C46.3131 51.9324 46.4969 51.7202 46.4969 51.4744L45.2749 19.5728ZM46.0793 52.4323L46.0793 52.4324Q43.5929 52.4932 40.8379 52.5386Q36.2672 52.6138 32.6908 52.6138Q29.1234 52.6138 24.7021 52.5205Q22.0345 52.4642 19.6549 52.3886Q19.555 52.3876 19.46 52.3656Q19.3709 52.345 19.2861 52.3059Q19.2169 52.274 19.1547 52.2318Q19.0656 52.1712 18.9908 52.0894Q18.9394 52.033 18.898 51.9701Q18.842 51.8849 18.8043 51.7876Q18.7736 51.7081 18.7571 51.6258Q18.7383 51.5314 18.7383 51.4331L18.7383 51.4248L19.7934 19.6025Q19.7892 19.5441 19.7859 19.4857Q19.774 19.2779 19.774 19.0693Q19.774 18.4413 19.8776 17.8308Q20.1039 16.4965 20.8248 15.2461Q21.8276 13.5068 23.6445 12.1729Q25.4441 10.8516 27.7687 10.1289Q27.859 10.1008 27.9496 10.0738Q30.2638 9.38379 32.7838 9.38379Q35.3024 9.38379 37.6156 10.0731Q37.7074 10.1005 37.7988 10.1289Q40.1234 10.8516 41.9231 12.1729Q43.7399 13.5068 44.7427 15.2461Q45.4636 16.4965 45.6899 17.8308Q45.7935 18.4413 45.7935 19.0693Q45.7935 19.2945 45.7797 19.5188Q45.7778 19.55 45.7756 19.5813L46.9969 51.4648L46.9969 51.4744Q46.9969 51.5744 46.9775 51.6704Q46.961 51.7517 46.9307 51.8301Q46.8924 51.9291 46.8351 52.0156Q46.794 52.0777 46.743 52.1333Q46.6684 52.2148 46.5794 52.2751Q46.5164 52.3179 46.4462 52.3501Q46.3624 52.3884 46.2746 52.4089Q46.1794 52.431 46.0793 52.4323Z" clip-rule="evenodd" fill="url(#paint_linear_3_1685_1)" fill-opacity="1.000000" fill-rule="evenodd"/>
		<mask id="mask3_1693" mask-type="alpha" maskUnits="userSpaceOnUse" x="19.222656" y="20.082275" width="27.291626" height="32.146729">
			<mask id="mask_3_1693" fill="white">
				<path id="形状结合" d="M45.345 20.4004C45.345 22.1562 39.7528 23.5823 32.8685 23.5823C25.9841 23.5823 20.3921 22.1562 20.3921 20.4004C20.3921 20.302 20.4095 20.2048 20.444 20.1086C20.4266 20.0999 20.4093 20.0911 20.3921 20.0823L19.223 51.3862C19.2124 51.6714 19.4335 51.9116 19.7184 51.9236C21.4575 51.9978 27.3134 52.229 32.7755 52.229C38.2502 52.229 44.2521 51.9968 46.0179 51.9231C46.3032 51.9111 46.5247 51.6709 46.5139 51.3857L45.345 20.0823C45.3276 20.0911 45.3103 20.0999 45.2931 20.1086C45.3274 20.2048 45.345 20.302 45.345 20.4004Z" clip-rule="evenodd" fill="" fill-opacity="1.000000" fill-rule="evenodd"/>
			</mask>
			<path id="形状结合" d="M45.345 20.4004C45.345 22.1562 39.7528 23.5823 32.8685 23.5823C25.9841 23.5823 20.3921 22.1562 20.3921 20.4004C20.3921 20.302 20.4095 20.2048 20.444 20.1086C20.4266 20.0999 20.4093 20.0911 20.3921 20.0823L19.223 51.3862C19.2124 51.6714 19.4335 51.9116 19.7184 51.9236C21.4575 51.9978 27.3134 52.229 32.7755 52.229C38.2502 52.229 44.2521 51.9968 46.0179 51.9231C46.3032 51.9111 46.5247 51.6709 46.5139 51.3857L45.345 20.0823C45.3276 20.0911 45.3103 20.0999 45.2931 20.1086C45.3274 20.2048 45.345 20.302 45.345 20.4004Z" clip-rule="evenodd" fill="url(#paint_linear_3_1693_0)" fill-opacity="1.000000" fill-rule="evenodd" mask="url(#mask_3_1693)"/>
			<path id="形状结合" d="" clip-rule="evenodd" fill="#979797" fill-opacity="0.000000" fill-rule="evenodd"/>
		</mask>
		<mask id="mask_3_1693" fill="white">
			<path id="形状结合" d="M45.345 20.4004C45.345 22.1562 39.7528 23.5823 32.8685 23.5823C25.9841 23.5823 20.3921 22.1562 20.3921 20.4004C20.3921 20.302 20.4095 20.2048 20.444 20.1086C20.4266 20.0999 20.4093 20.0911 20.3921 20.0823L19.223 51.3862C19.2124 51.6714 19.4335 51.9116 19.7184 51.9236C21.4575 51.9978 27.3134 52.229 32.7755 52.229C38.2502 52.229 44.2521 51.9968 46.0179 51.9231C46.3032 51.9111 46.5247 51.6709 46.5139 51.3857L45.345 20.0823C45.3276 20.0911 45.3103 20.0999 45.2931 20.1086C45.3274 20.2048 45.345 20.302 45.345 20.4004Z" clip-rule="evenodd" fill="" fill-opacity="1.000000" fill-rule="evenodd"/>
		</mask>
		<path id="形状结合" d="M45.345 20.4004C45.345 22.1562 39.7528 23.5823 32.8685 23.5823C25.9841 23.5823 20.3921 22.1562 20.3921 20.4004C20.3921 20.302 20.4095 20.2048 20.444 20.1086C20.4266 20.0999 20.4093 20.0911 20.3921 20.0823L19.223 51.3862C19.2124 51.6714 19.4335 51.9116 19.7184 51.9236C21.4575 51.9978 27.3134 52.229 32.7755 52.229C38.2502 52.229 44.2521 51.9968 46.0179 51.9231C46.3032 51.9111 46.5247 51.6709 46.5139 51.3857L45.345 20.0823C45.3276 20.0911 45.3103 20.0999 45.2931 20.1086C45.3274 20.2048 45.345 20.302 45.345 20.4004Z" clip-rule="evenodd" fill="url(#paint_linear_3_1693_0)" fill-opacity="1.000000" fill-rule="evenodd" mask="url(#mask_3_1693)"/>
		<path id="形状结合" d="" clip-rule="evenodd" fill="#979797" fill-opacity="0.000000" fill-rule="evenodd"/>
		<g mask="url(#mask3_1693)">
			<path id="矩形" d="M18.51 50.95L46.51 50.95L46.51 51.92C46.51 51.92 40.03 52.47 32.9 52.47C25.78 52.47 18.51 51.92 18.51 51.92L18.51 50.95Z" fill="url(#paint_linear_3_1697_0)" fill-opacity="1.000000" fill-rule="evenodd"/>
			<path id="矩形" d="" fill="#979797" fill-opacity="0" fill-rule="evenodd"/>
		</g>
		<g mask="url(#mask3_1693)">
			<g opacity="0.606126">
				<rect id="矩形" x="19.223999" y="49.497070" width="27.289030" height="1.028412" fill="url(#paint_linear_3_1698_0)" fill-opacity="1.000000"/>
				<rect id="矩形" x="19.723999" y="49.997070" width="26.289030" height="0.028412" stroke="#979797" stroke-opacity="0" stroke-width="1.000000"/>
			</g>
		</g>
		<ellipse id="椭圆形" cx="32.868530" cy="19.989990" rx="12.510657" ry="8.961604" fill="#D8D8D8" fill-opacity="1.000000"/>
		<ellipse id="椭圆形" cx="32.868530" cy="19.989990" rx="12.010657" ry="8.461604" stroke="#979797" stroke-opacity="0" stroke-width="1.000000"/>
		<ellipse id="椭圆形" cx="32.868530" cy="19.475830" rx="12.510657" ry="9.475810" fill="url(#paint_linear_3_1700_0)" fill-opacity="1.000000"/>
		<ellipse id="椭圆形" cx="32.868530" cy="19.475830" rx="12.010657" ry="8.975810" stroke="#979797" stroke-opacity="0" stroke-width="1.000000"/>
		<ellipse id="椭圆形" cx="32.888794" cy="19.182129" rx="11.528790" ry="8.961604" fill="#A2A2A2" fill-opacity="1.000000"/>
		<ellipse id="椭圆形" cx="32.888794" cy="19.182129" rx="11.028790" ry="8.461604" stroke="#979797" stroke-opacity="0" stroke-width="1.000000"/>
		<mask id="mask3_1702" mask-type="alpha" maskUnits="userSpaceOnUse" x="21.857910" y="10.614990" width="22.021240" height="17.134277">
			<ellipse id="椭圆形" cx="32.868530" cy="19.182129" rx="11.010632" ry="8.567080" fill="#000000" fill-opacity="1.000000"/>
			<ellipse id="椭圆形" cx="32.868530" cy="19.182129" rx="10.510632" ry="8.067080" stroke="#979797" stroke-opacity="0" stroke-width="1.000000"/>
		</mask>
		<ellipse id="椭圆形" cx="32.868530" cy="19.182129" rx="11.010632" ry="8.567080" fill="#000000" fill-opacity="1.000000"/>
		<ellipse id="椭圆形" cx="32.868530" cy="19.182129" rx="10.510632" ry="8.067080" stroke="#979797" stroke-opacity="0" stroke-width="1.000000"/>
		<g mask="url(#mask3_1702)">
			<ellipse id="椭圆形" cx="32.915771" cy="21.932129" rx="11.057818" ry="11.723497" fill="#191919" fill-opacity="1.000000"/>
			<ellipse id="椭圆形" cx="32.915771" cy="21.932129" rx="11.057818" ry="11.723497" fill="url(#paint_radial_3_1704_0)" fill-opacity="0.300000"/>
			<ellipse id="椭圆形" cx="32.915771" cy="21.932129" rx="10.557818" ry="11.223497" stroke="#979797" stroke-opacity="0" stroke-width="1.000000"/>
			<mask id="mask_3_1705" fill="white">
				<path id="形状结合" d="M31.6547 31.436C28.3627 29.7122 26.0881 26.0527 26.0881 21.8228C26.0881 15.9375 30.4911 11.1567 35.9114 11.1567C37.0544 11.1567 38.1523 11.3694 39.1731 11.7603C37.4475 10.7759 35.4214 10.2087 33.2551 10.2087C26.9663 10.2087 21.8579 14.9895 21.8579 20.8748C21.8579 26.2517 26.1221 30.7068 31.6547 31.436Z" clip-rule="evenodd" fill="" fill-opacity="1.000000" fill-rule="evenodd"/>
			</mask>
			<path id="形状结合" d="M31.6547 31.436C28.3627 29.7122 26.0881 26.0527 26.0881 21.8228C26.0881 15.9375 30.4911 11.1567 35.9114 11.1567C37.0544 11.1567 38.1523 11.3694 39.1731 11.7603C37.4475 10.7759 35.4214 10.2087 33.2551 10.2087C26.9663 10.2087 21.8579 14.9895 21.8579 20.8748C21.8579 26.2517 26.1221 30.7068 31.6547 31.436Z" clip-rule="evenodd" fill="#191919" fill-opacity="0.000000" fill-rule="evenodd" mask="url(#mask_3_1705)"/>
			<path id="形状结合" d="M31.6547 31.436C28.3627 29.7122 26.0881 26.0527 26.0881 21.8228C26.0881 15.9375 30.4911 11.1567 35.9114 11.1567C37.0544 11.1567 38.1523 11.3694 39.1731 11.7603C37.4475 10.7759 35.4214 10.2087 33.2551 10.2087C26.9663 10.2087 21.8579 14.9895 21.8579 20.8748C21.8579 26.2517 26.1221 30.7068 31.6547 31.436Z" clip-rule="evenodd" fill="url(#paint_radial_3_1705_0)" fill-opacity="1.000000" fill-rule="evenodd" mask="url(#mask_3_1705)"/>
			<path id="形状结合" d="" clip-rule="evenodd" fill="#979797" fill-opacity="0.000000" fill-rule="evenodd"/>
			<g opacity="0.073626">
				<mask id="mask_3_1708" fill="white">
					<path id="形状结合" d="M24.5718 24.6306C24.6628 24.9431 24.7704 25.2539 24.8949 25.562C26.9246 30.5859 32.6975 33.0005 37.7747 30.9492C42.8517 28.8979 45.327 23.1509 43.2972 18.127C42.426 15.9707 40.8654 14.2952 38.9661 13.2468C39.9523 14.207 40.7657 15.3931 41.3203 16.7659C43.3501 21.7898 41.1498 27.4258 36.4111 29.3403C31.9731 31.1333 26.869 29.0317 24.5718 24.6306Z" clip-rule="evenodd" fill="" fill-opacity="1.000000" fill-rule="evenodd"/>
				</mask>
				<path id="形状结合" d="M24.5718 24.6306C24.6628 24.9431 24.7704 25.2539 24.8949 25.562C26.9246 30.5859 32.6975 33.0005 37.7747 30.9492C42.8517 28.8979 45.327 23.1509 43.2972 18.127C42.426 15.9707 40.8654 14.2952 38.9661 13.2468C39.9523 14.207 40.7657 15.3931 41.3203 16.7659C43.3501 21.7898 41.1498 27.4258 36.4111 29.3403C31.9731 31.1333 26.869 29.0317 24.5718 24.6306Z" clip-rule="evenodd" fill="#191919" fill-opacity="0.000000" fill-rule="evenodd" mask="url(#mask_3_1708)"/>
				<path id="形状结合" d="M24.5718 24.6306C24.6628 24.9431 24.7704 25.2539 24.8949 25.562C26.9246 30.5859 32.6975 33.0005 37.7747 30.9492C42.8517 28.8979 45.327 23.1509 43.2972 18.127C42.426 15.9707 40.8654 14.2952 38.9661 13.2468C39.9523 14.207 40.7657 15.3931 41.3203 16.7659C43.3501 21.7898 41.1498 27.4258 36.4111 29.3403C31.9731 31.1333 26.869 29.0317 24.5718 24.6306Z" clip-rule="evenodd" fill="url(#paint_radial_3_1708_0)" fill-opacity="1.000000" fill-rule="evenodd" mask="url(#mask_3_1708)"/>
				<path id="形状结合" d="" clip-rule="evenodd" fill="#979797" fill-opacity="0.000000" fill-rule="evenodd"/>
			</g>
			<ellipse id="椭圆形" cx="32.585815" cy="19.859375" rx="10.727947" ry="9.650727" fill="#191919" fill-opacity="0"/>
			<ellipse id="椭圆形" cx="32.585815" cy="19.859375" rx="10.433829" ry="9.356609" stroke="#000000" stroke-opacity="1.000000" stroke-width="0.588235"/>
			<ellipse id="椭圆形" cx="32.820679" cy="17.469482" rx="4.065477" ry="4.022091" fill="#000000" fill-opacity="1.000000"/>
			<ellipse id="椭圆形" cx="32.820679" cy="17.469482" rx="4.065477" ry="4.022091" fill="url(#paint_radial_3_1713_0)" fill-opacity="0"/>
			<ellipse id="椭圆形" cx="32.820679" cy="17.469482" rx="3.565477" ry="3.522091" stroke="url(#paint_linear_3_1713_1)" stroke-opacity="0" stroke-width="1.000000"/>
			<ellipse id="椭圆形" cx="32.820679" cy="17.469482" rx="3.565477" ry="3.522091" stroke="#373738" stroke-opacity="0" stroke-width="1.000000"/>
			<ellipse id="椭圆形" cx="32.820801" cy="17.469727" rx="3.412634" ry="3.379354" stroke="url(#paint_linear_3_1714_0)" stroke-opacity="1.000000" stroke-width="0.588235"/>
			<ellipse id="椭圆形" cx="32.820801" cy="17.469727" rx="3.412634" ry="3.379354" stroke="#464646" stroke-opacity="1.000000" stroke-width="0.588235"/>
			<ellipse id="椭圆形" cx="32.775513" cy="17.532227" rx="1.559258" ry="1.542618" fill="#000000" fill-opacity="1.000000"/>
			<ellipse id="椭圆形" cx="32.775513" cy="17.532227" rx="1.559258" ry="1.542618" fill="url(#paint_radial_3_1715_0)" fill-opacity="0"/>
			<ellipse id="椭圆形" cx="32.775513" cy="17.532227" rx="1.059258" ry="1.042618" stroke="url(#paint_linear_3_1715_1)" stroke-opacity="0" stroke-width="1.000000"/>
			<ellipse id="椭圆形" cx="32.775513" cy="17.532227" rx="1.059258" ry="1.042618" stroke="#272A2F" stroke-opacity="0" stroke-width="1.000000"/>
			<ellipse id="椭圆形" cx="34.494019" cy="15.556885" rx="1.105782" ry="1.172350" fill="#FFFFFF" fill-opacity="0.301961"/>
			<ellipse id="椭圆形" cx="34.494019" cy="15.556885" rx="0.605782" ry="0.672350" stroke="#979797" stroke-opacity="0" stroke-width="1.000000"/>
			<g opacity="0.175807">
				<ellipse id="椭圆形" cx="32.810913" cy="17.477295" rx="3.701212" ry="3.663955" fill="url(#paint_radial_3_1717_0)" fill-opacity="1.000000"/>
				<ellipse id="椭圆形" cx="32.810913" cy="17.477295" rx="3.201212" ry="3.163955" stroke="#979797" stroke-opacity="0" stroke-width="1.000000"/>
			</g>
			<ellipse id="椭圆形" cx="35.231201" cy="14.775146" rx="0.368594" ry="0.390783" fill="#FFFFFF" fill-opacity="0.600000"/>
			<ellipse id="椭圆形" cx="35.231201" cy="14.775146" rx="-0.131406" ry="-0.109217" stroke="#979797" stroke-opacity="0" stroke-width="1.000000"/>
		</g>
	</g>
</svg>
