<svg xmlns="http://www.w3.org/2000/svg" xmlns:xlink="http://www.w3.org/1999/xlink" width="20px" height="20px" viewBox="0 0 20 20" version="1.1">
    <title>20230207_VpVpVh1QZg1l0AY45lZMZV0c1NYc4xU0ZMZt5QYw</title>
    <g id="页面-1" stroke="none" stroke-width="1" fill="none" fill-rule="evenodd">
        <g id="单用户详情-全网拓扑" transform="translate(-1878.000000, -922.000000)">
            <g id="编组-11" transform="translate(1872.000000, 880.000000)">
                <g id="20230207_VpVpVh1QZg1l0AY45lZMZV0c1NYc4xU0ZMZt5QYw" transform="translate(6.000000, 42.000000)">
                    <rect id="矩形" x="0" y="0" width="20" height="20"/>
                    <path d="M2.29166667,13.5416667 C2.63684463,13.5416667 2.91666667,13.8214887 2.91666667,14.1666667 L2.91666667,15.8333333 L2.91666667,15.8333333 C2.91666667,16.4830801 3.41240673,17.0170406 4.04628333,17.0776112 L4.16666667,17.0833333 L5.83333333,17.0833333 C6.1785113,17.0833333 6.45833333,17.3631553 6.45833333,17.7083333 C6.45833333,18.0535113 6.1785113,18.3333333 5.83333333,18.3333333 L4.16666667,18.3333333 L4.16666667,18.3333333 C2.78595479,18.3333333 1.66666667,17.2140452 1.66666667,15.8333333 L1.66666667,14.1666667 C1.66666667,13.8214887 1.9464887,13.5416667 2.29166667,13.5416667 Z M18.3333333,14.1666667 L18.3333333,15.8333333 L18.3333333,15.8333333 C18.3333333,17.2140452 17.2140452,18.3333333 15.8333333,18.3333333 L14.1666667,18.3333333 C13.8214887,18.3333333 13.5416667,18.0535113 13.5416667,17.7083333 C13.5416667,17.3631553 13.8214887,17.0833333 14.1666667,17.0833333 L15.8333333,17.0833333 L15.8333333,17.0833333 C16.4830801,17.0833333 17.0170406,16.5875933 17.0776112,15.9537167 L17.0833333,15.8333333 L17.0833333,14.1666667 C17.0833333,13.8214887 17.3631553,13.5416667 17.7083333,13.5416667 C18.0535113,13.5416667 18.3333333,13.8214887 18.3333333,14.1666667 Z M18.3333333,4.16666667 L18.3333333,5.83333333 C18.3333333,6.1785113 18.0535113,6.45833333 17.7083333,6.45833333 C17.3631553,6.45833333 17.0833333,6.1785113 17.0833333,5.83333333 L17.0833333,4.16666667 L17.0833333,4.16666667 C17.0833333,3.5169199 16.5875933,2.98295943 15.9537167,2.92238882 L15.8333333,2.91666667 L14.1666667,2.91666667 C13.8214887,2.91666667 13.5416667,2.63684463 13.5416667,2.29166667 C13.5416667,1.9464887 13.8214887,1.66666667 14.1666667,1.66666667 L15.8333333,1.66666667 L15.8333333,1.66666667 C17.2140452,1.66666667 18.3333333,2.78595479 18.3333333,4.16666667 Z M6.45833333,2.29166667 C6.45833333,2.63684463 6.1785113,2.91666667 5.83333333,2.91666667 L4.16666667,2.91666667 L4.16666667,2.91666667 C3.5169199,2.91666667 2.98295943,3.41240673 2.92238882,4.04628332 L2.91666667,4.16666667 L2.91666667,5.8325 C2.91666667,6.17767797 2.63684463,6.4575 2.29166667,6.4575 C1.9464887,6.4575 1.66666667,6.17767797 1.66666667,5.8325 L1.66666667,4.16666667 L1.66666667,4.16666667 C1.66666667,2.78595479 2.78595479,1.66666667 4.16666667,1.66666667 L5.83333333,1.66666667 C6.1785113,1.66666667 6.45833333,1.9464887 6.45833333,2.29166667 Z" id="形状" fill="#FFFFFF" fill-rule="nonzero"/>
                    <path d="M13.9583333,5 L6.04166667,5 C5.46637005,5 5,5.46637005 5,6.04166667 L5,13.9583333 C5,14.5336299 5.46637005,15 6.04166667,15 L13.9583333,15 C14.5336299,15 15,14.5336299 15,13.9583333 L15,6.04166667 C15,5.46637005 14.5336299,5 13.9583333,5 Z" id="路径" fill="#FFFFFF" fill-rule="nonzero"/>
                </g>
            </g>
        </g>
    </g>
</svg>