<?xml version="1.0" encoding="UTF-8"?>
<svg width="24px" height="24px" viewBox="0 0 24 24" version="1.1" xmlns="http://www.w3.org/2000/svg" xmlns:xlink="http://www.w3.org/1999/xlink">
    <title>ic_sort_down_lined</title>
    <g id="ic_sort_down_lined" stroke="none" stroke-width="1" fill="none" fill-rule="evenodd">
        <rect id="矩形" fill="#D8D8D8" fill-rule="nonzero" opacity="0" x="0" y="0" width="24" height="24"></rect>
        <path d="M10.5378223,20.4595993 L10.4086699,20.340022 L3.2348349,13.1661871 C2.94194168,12.8732939 2.94194168,12.3984201 3.2348349,12.1055269 C3.50109868,11.8392631 3.91775799,11.8150573 4.21136641,12.0329095 L4.29548953,12.1055325 L11.25,19.060189 L11.25,3.74996861 C11.25,3.33575501 11.5857864,2.99996861 12,2.99996861 C12.3796958,2.99996861 12.693491,3.28212251 12.7431534,3.64819801 L12.75,3.74996861 L12.75,19.061189 L19.7045458,12.1055679 C19.9707712,11.8393013 20.3874008,11.8150649 20.6810065,12.0328799 L20.765165,12.1055269 C21.0580582,12.3984201 21.0580582,12.8732939 20.765165,13.1661871 L13.5913301,20.340022 C13.1528193,20.7785328 12.5783942,20.9982551 12.0036796,20.9992941 C11.4813635,21.0000377 10.9588083,20.8201745 10.5378223,20.4595993 Z" id="形状结合" fill="#2070F3" fill-rule="nonzero"></path>
    </g>
</svg>