<svg xmlns="http://www.w3.org/2000/svg" xmlns:xlink="http://www.w3.org/1999/xlink" width="20px" height="20px" viewBox="0 0 20 20" version="1.1">
<title>20210702_Vk5g5NZR44ZYVMVhZgVo5Y44YFZN1ZVZUJVRZhUc</title>
<g id="页面-1" stroke="none" stroke-width="1" fill="none" fill-rule="evenodd">
  <g id="单用户详情-全网拓扑" transform="translate(-1878.000000, -890.000000)" fill-rule="nonzero">
    <g id="编组-11" transform="translate(1872.000000, 880.000000)">
      <g id="20210702_Vk5g5NZR44ZYVMVhZgVo5Y44YFZN1ZVZUJVRZhUc" transform="translate(6.000000, 10.000000)">
        <rect id="矩形" fill="#D8D8D8" opacity="0" x="0" y="0" width="20" height="20" />
        <path d="M10.5,3 C10.9273632,3 11.2795893,3.32170016 11.3277269,3.73614906 L11.3333333,3.83333333 L11.3333333,9.66666667 L17.1666667,9.66666667 C17.6269039,9.66666667 18,10.0397628 18,10.5 C18,10.9273632 17.6782998,11.2795893 17.2638509,11.3277269 L17.1666667,11.3333333 L11.3333333,11.3333333 L11.3333333,17.1666667 C11.3333333,17.6269039 10.9602373,18 10.5,18 C10.0726368,18 9.72041067,17.6782998 9.67227308,17.2638509 L9.66666667,17.1666667 L9.66666667,11.3333333 L3.83333333,11.3333333 C3.37309604,11.3333333 3,10.9602373 3,10.5 C3,10.0726368 3.32170016,9.72041067 3.73614906,9.67227308 L3.83333333,9.66666667 L9.66666667,9.66666667 L9.66666667,3.83333333 C9.66666667,3.37309604 10.0397628,3 10.5,3 Z" id="形状结合" fill="#FFFFFF" />
      </g>
    </g>
  </g>
</g>
</svg>