<svg width="64.000000" height="64.000000" viewBox="0 0 64 64" fill="none" xmlns="http://www.w3.org/2000/svg" xmlns:xlink="http://www.w3.org/1999/xlink">
	<desc>
			Created with Pixso.
	</desc>
	<defs>
		<filter id="filter_3_2428_dd" x="9.281738" y="45.281738" width="44.436523" height="8.436523" filterUnits="userSpaceOnUse" color-interpolation-filters="sRGB">
			<feFlood flood-opacity="0" result="BackgroundImageFix"/>
			<feBlend mode="normal" in="SourceGraphic" in2="BackgroundImageFix" result="shape"/>
			<feGaussianBlur stdDeviation="0.906093" result="effect_layerBlur_1"/>
		</filter>
		<filter id="filter_3_2441_dd" x="34.470947" y="11.470947" width="17.058105" height="39.058105" filterUnits="userSpaceOnUse" color-interpolation-filters="sRGB">
			<feFlood flood-opacity="0" result="BackgroundImageFix"/>
			<feBlend mode="normal" in="SourceGraphic" in2="BackgroundImageFix" result="shape"/>
			<feGaussianBlur stdDeviation="0.509677" result="effect_layerBlur_1"/>
		</filter>
		<filter id="filter_3_2442_dd" x="12.470947" y="11.470947" width="17.058105" height="39.058105" filterUnits="userSpaceOnUse" color-interpolation-filters="sRGB">
			<feFlood flood-opacity="0" result="BackgroundImageFix"/>
			<feBlend mode="normal" in="SourceGraphic" in2="BackgroundImageFix" result="shape"/>
			<feGaussianBlur stdDeviation="0.509677" result="effect_layerBlur_1"/>
		</filter>
		<clipPath id="clip3_34">
			<rect id="终端设备/IOT" width="64.000000" height="64.000000" fill="white" fill-opacity="0"/>
		</clipPath>
		<radialGradient gradientTransform="translate(31.5 50.1872) rotate(90) scale(1.5 22.9131)" cx="0.000000" cy="0.000000" r="1.000000" id="paint_radial_3_2428_0" gradientUnits="userSpaceOnUse">
			<stop stop-color="#73757F"/>
			<stop offset="1.000000" stop-color="#000000" stop-opacity="0.000000"/>
		</radialGradient>
		<linearGradient x1="32.000000" y1="13.000000" x2="32.000000" y2="49.000000" id="paint_linear_3_2431_0" gradientUnits="userSpaceOnUse">
			<stop stop-color="#D6D6D6"/>
			<stop offset="1.000000" stop-color="#A5A5A5"/>
		</linearGradient>
		<radialGradient gradientTransform="translate(27.3127 9.11622) rotate(86.6874) scale(22.3374 22.3374)" cx="0.000000" cy="0.000000" r="1.000000" id="paint_radial_3_2433_0" gradientUnits="userSpaceOnUse">
			<stop stop-color="#FFFFFF" stop-opacity="0.901961"/>
			<stop offset="1.000000" stop-color="#FFFFFF" stop-opacity="0.000000"/>
		</radialGradient>
		<radialGradient gradientTransform="translate(33.6513 13.6031) rotate(180) scale(18.3766 18.3766)" cx="0.000000" cy="0.000000" r="1.000000" id="paint_radial_3_2436_0" gradientUnits="userSpaceOnUse">
			<stop stop-color="#FFFFFF" stop-opacity="0.901961"/>
			<stop offset="1.000000" stop-color="#FFFFFF" stop-opacity="0.000000"/>
		</radialGradient>
		<radialGradient gradientTransform="translate(21.377 20.3102) rotate(168.111) scale(7.16722 7.16722)" cx="0.000000" cy="0.000000" r="1.000000" id="paint_radial_3_2439_0" gradientUnits="userSpaceOnUse">
			<stop stop-color="#FFFFFF" stop-opacity="0.901961"/>
			<stop offset="1.000000" stop-color="#FFFFFF" stop-opacity="0.000000"/>
		</radialGradient>
		<linearGradient x1="10.264267" y1="43.375000" x2="54.421333" y2="43.375000" id="paint_linear_3_2440_0" gradientUnits="userSpaceOnUse">
			<stop stop-color="#B7B7B7" stop-opacity="0.000000"/>
			<stop offset="0.484954" stop-color="#C5C5C5"/>
			<stop offset="1.000000" stop-color="#D8D8D8" stop-opacity="0.149020"/>
		</linearGradient>
		<linearGradient x1="7.000000" y1="18.015398" x2="0.000000" y2="18.015398" id="paint_linear_3_2441_0" gradientUnits="userSpaceOnUse">
			<stop stop-color="#D2D2D2" stop-opacity="0.000000"/>
			<stop offset="0.406974" stop-color="#C8C8C8" stop-opacity="0.423529"/>
			<stop offset="0.721600" stop-color="#D7D7D7" stop-opacity="0.800000"/>
			<stop offset="1.000000" stop-color="#E5E5E5" stop-opacity="0.000000"/>
		</linearGradient>
		<linearGradient x1="21.000000" y1="31.015398" x2="14.000000" y2="31.015398" id="paint_linear_3_2442_0" gradientUnits="userSpaceOnUse">
			<stop stop-color="#D2D2D2" stop-opacity="0.000000"/>
			<stop offset="0.406974" stop-color="#C8C8C8" stop-opacity="0.423529"/>
			<stop offset="0.721600" stop-color="#D7D7D7" stop-opacity="0.800000"/>
			<stop offset="1.000000" stop-color="#E5E5E5" stop-opacity="0.000000"/>
		</linearGradient>
	</defs>
	<rect id="终端设备/IOT" width="64.000000" height="64.000000" fill="#000000" fill-opacity="0"/>
	<g clip-path="url(#clip3_34)">
		<g opacity="0.000000">
			<rect id="矩形" x="8.000000" y="8.000000" width="48.000000" height="48.000000" fill="#D8D8D8" fill-opacity="1.000000"/>
			<rect id="矩形" x="8.500000" y="8.500000" width="47.000000" height="47.000000" stroke="#979797" stroke-opacity="0" stroke-width="1.000000"/>
		</g>
		<g opacity="0.705648" filter="url(#filter_3_2428_dd)">
			<ellipse id="椭圆形" cx="31.500000" cy="49.500000" rx="19.500000" ry="1.500000" fill="url(#paint_radial_3_2428_0)" fill-opacity="1.000000"/>
			<ellipse id="椭圆形" cx="31.500000" cy="49.500000" rx="19.000000" ry="1.000000" stroke="#979797" stroke-opacity="0" stroke-width="1.000000"/>
		</g>
		<rect id="矩形" x="14.000000" y="13.000000" rx="1.125000" width="36.000000" height="36.000000" fill="#D8D8D8" fill-opacity="0"/>
		<rect id="矩形" x="14.000000" y="13.000000" rx="1.125000" width="36.000000" height="36.000000" fill="#FFFFFF" fill-opacity="1.000000"/>
		<rect id="矩形" x="13.750000" y="12.750000" rx="1.125000" width="36.500000" height="36.500000" stroke="url(#paint_linear_3_2431_0)" stroke-opacity="1.000000" stroke-width="0.500000"/>
		<mask id="mask3_2432" mask-type="alpha" maskUnits="userSpaceOnUse" x="14.000000" y="13.000000" width="36.000000" height="36.000000">
			<rect id="矩形" x="14.000000" y="13.000000" rx="1.125000" width="36.000000" height="36.000000" fill="#D8D8D8" fill-opacity="0"/>
			<rect id="矩形" x="14.000000" y="13.000000" rx="1.125000" width="36.000000" height="36.000000" fill="#F8F8F8" fill-opacity="1.000000"/>
			<rect id="矩形" x="14.500000" y="13.500000" rx="1.125000" width="35.000000" height="35.000000" stroke="#979797" stroke-opacity="0" stroke-width="1.000000"/>
		</mask>
		<rect id="矩形" x="14.000000" y="13.000000" rx="1.125000" width="36.000000" height="36.000000" fill="#D8D8D8" fill-opacity="0"/>
		<rect id="矩形" x="14.000000" y="13.000000" rx="1.125000" width="36.000000" height="36.000000" fill="#F8F8F8" fill-opacity="1.000000"/>
		<rect id="矩形" x="14.500000" y="13.500000" rx="1.125000" width="35.000000" height="35.000000" stroke="#979797" stroke-opacity="0" stroke-width="1.000000"/>
		<g mask="url(#mask3_2432)">
			<g opacity="0.823049">
				<mask id="mask_3_2433" fill="white">
					<path id="椭圆形备份 18" d="M36.5 29.875C36.5 26.7683 34.2334 24.25 31.4375 24.25C28.6416 24.25 26.375 26.7683 26.375 29.875C26.375 32.9817 28.6416 35.5 31.4375 35.5C34.2334 35.5 36.5 32.9817 36.5 29.875ZM28.625 29.875C28.625 27.9197 29.9972 26.5 31.4375 26.5C32.8778 26.5 34.25 27.9197 34.25 29.875C34.25 31.8303 32.8778 33.25 31.4375 33.25C29.9972 33.25 28.625 31.8303 28.625 29.875Z" clip-rule="evenodd" fill="" fill-opacity="1.000000" fill-rule="evenodd"/>
				</mask>
				<path id="椭圆形备份 18" d="M36.5 29.875C36.5 26.7683 34.2334 24.25 31.4375 24.25C28.6416 24.25 26.375 26.7683 26.375 29.875C26.375 32.9817 28.6416 35.5 31.4375 35.5C34.2334 35.5 36.5 32.9817 36.5 29.875ZM28.625 29.875C28.625 27.9197 29.9972 26.5 31.4375 26.5C32.8778 26.5 34.25 27.9197 34.25 29.875C34.25 31.8303 32.8778 33.25 31.4375 33.25C29.9972 33.25 28.625 31.8303 28.625 29.875Z" clip-rule="evenodd" fill="#191919" fill-opacity="1.000000" fill-rule="evenodd" mask="url(#mask_3_2433)"/>
				<path id="椭圆形备份 18" d="M36.5 29.875C36.5 26.7683 34.2334 24.25 31.4375 24.25C28.6416 24.25 26.375 26.7683 26.375 29.875C26.375 32.9817 28.6416 35.5 31.4375 35.5C34.2334 35.5 36.5 32.9817 36.5 29.875ZM28.625 29.875C28.625 27.9197 29.9972 26.5 31.4375 26.5C32.8778 26.5 34.25 27.9197 34.25 29.875C34.25 31.8303 32.8778 33.25 31.4375 33.25C29.9972 33.25 28.625 31.8303 28.625 29.875Z" clip-rule="evenodd" fill="url(#paint_radial_3_2433_0)" fill-opacity="1.000000" fill-rule="evenodd" mask="url(#mask_3_2433)"/>
				<path id="椭圆形备份 18" d="M31.4375 24.25C34.2334 24.25 36.5 26.7683 36.5 29.875C36.5 32.9817 34.2334 35.5 31.4375 35.5C28.6416 35.5 26.375 32.9817 26.375 29.875C26.375 26.7683 28.6416 24.25 31.4375 24.25ZM35.8256 28.4645Q36 29.1475 36 29.875Q36 30.6025 35.8256 31.2855Q35.7476 31.5905 35.6349 31.8867Q35.3724 32.5761 34.9495 33.1465Q34.8067 33.3391 34.6456 33.5181Q34.141 34.0786 33.5196 34.4364Q33.3613 34.5275 33.1954 34.6055Q32.7309 34.8237 32.2423 34.9213Q31.8477 35 31.4375 35Q31.0273 35 30.6327 34.9213Q30.1441 34.8237 29.6796 34.6055Q29.5137 34.5275 29.3554 34.4364Q28.734 34.0786 28.2294 33.5181Q28.0683 33.3391 27.9255 33.1465Q27.5026 32.5761 27.2401 31.8867Q27.1274 31.5905 27.0494 31.2855Q26.875 30.6025 26.875 29.875Q26.875 29.1475 27.0494 28.4645Q27.1274 28.1595 27.2401 27.8633Q27.5026 27.1739 27.9255 26.6035Q28.0683 26.4109 28.2294 26.2319Q28.734 25.6714 29.3554 25.3136Q29.5137 25.2225 29.6796 25.1445Q30.1441 24.9263 30.6327 24.8287Q31.0273 24.75 31.4375 24.75Q31.8477 24.75 32.2423 24.8287Q32.7309 24.9263 33.1954 25.1445Q33.3613 25.2225 33.5196 25.3136Q34.141 25.6714 34.6456 26.2319Q34.8067 26.4109 34.9495 26.6035Q35.3724 27.1739 35.6349 27.8633Q35.7476 28.1595 35.8256 28.4645ZM28.3001 28.6297Q28.125 29.2267 28.125 29.875Q28.125 30.5233 28.3001 31.1203Q28.3416 31.262 28.3931 31.4009Q28.5943 31.9442 28.9259 32.3907Q29.0154 32.5111 29.1144 32.6245Q29.5126 33.0807 30.0098 33.3616Q30.0882 33.4059 30.1689 33.4458Q30.6236 33.6705 31.0987 33.7292Q31.2668 33.75 31.4375 33.75Q31.6082 33.75 31.7763 33.7292Q32.2514 33.6705 32.7061 33.4458Q32.7868 33.4059 32.8652 33.3616Q33.3624 33.0807 33.7606 32.6245Q33.8596 32.5111 33.9491 32.3907Q34.2807 31.9442 34.4819 31.4009Q34.5334 31.262 34.5749 31.1203Q34.75 30.5233 34.75 29.875Q34.75 29.2267 34.5749 28.6297Q34.5334 28.488 34.4819 28.3491Q34.2807 27.8058 33.9491 27.3593Q33.8596 27.2389 33.7606 27.1255Q33.3624 26.6693 32.8652 26.3884Q32.7868 26.3441 32.7061 26.3042Q32.2514 26.0795 31.7763 26.0208Q31.6082 26 31.4375 26Q31.2668 26 31.0987 26.0208Q30.6236 26.0795 30.1689 26.3042Q30.0882 26.3441 30.0098 26.3884Q29.5126 26.6693 29.1144 27.1255Q29.0154 27.2389 28.9259 27.3593Q28.5943 27.8058 28.3931 28.3491Q28.3416 28.488 28.3001 28.6297ZM31.4375 26.5C29.9972 26.5 28.625 27.9197 28.625 29.875C28.625 31.8303 29.9972 33.25 31.4375 33.25C32.8778 33.25 34.25 31.8303 34.25 29.875C34.25 27.9197 32.8778 26.5 31.4375 26.5Z" clip-rule="evenodd" fill="#2C2C2C" fill-opacity="1.000000" fill-rule="evenodd"/>
				<path id="椭圆形备份 18" d="M31.4375 24.25C34.2334 24.25 36.5 26.7683 36.5 29.875C36.5 32.9817 34.2334 35.5 31.4375 35.5C28.6416 35.5 26.375 32.9817 26.375 29.875C26.375 26.7683 28.6416 24.25 31.4375 24.25ZM35.8256 28.4645Q36 29.1475 36 29.875Q36 30.6025 35.8256 31.2855Q35.7476 31.5905 35.6349 31.8867Q35.3724 32.5761 34.9495 33.1465Q34.8067 33.3391 34.6456 33.5181Q34.141 34.0786 33.5196 34.4364Q33.3613 34.5275 33.1954 34.6055Q32.7309 34.8237 32.2423 34.9213Q31.8477 35 31.4375 35Q31.0273 35 30.6327 34.9213Q30.1441 34.8237 29.6796 34.6055Q29.5137 34.5275 29.3554 34.4364Q28.734 34.0786 28.2294 33.5181Q28.0683 33.3391 27.9255 33.1465Q27.5026 32.5761 27.2401 31.8867Q27.1274 31.5905 27.0494 31.2855Q26.875 30.6025 26.875 29.875Q26.875 29.1475 27.0494 28.4645Q27.1274 28.1595 27.2401 27.8633Q27.5026 27.1739 27.9255 26.6035Q28.0683 26.4109 28.2294 26.2319Q28.734 25.6714 29.3554 25.3136Q29.5137 25.2225 29.6796 25.1445Q30.1441 24.9263 30.6327 24.8287Q31.0273 24.75 31.4375 24.75Q31.8477 24.75 32.2423 24.8287Q32.7309 24.9263 33.1954 25.1445Q33.3613 25.2225 33.5196 25.3136Q34.141 25.6714 34.6456 26.2319Q34.8067 26.4109 34.9495 26.6035Q35.3724 27.1739 35.6349 27.8633Q35.7476 28.1595 35.8256 28.4645ZM28.3001 28.6297Q28.125 29.2267 28.125 29.875Q28.125 30.5233 28.3001 31.1203Q28.3416 31.262 28.3931 31.4009Q28.5943 31.9442 28.9259 32.3907Q29.0154 32.5111 29.1144 32.6245Q29.5126 33.0807 30.0098 33.3616Q30.0882 33.4059 30.1689 33.4458Q30.6236 33.6705 31.0987 33.7292Q31.2668 33.75 31.4375 33.75Q31.6082 33.75 31.7763 33.7292Q32.2514 33.6705 32.7061 33.4458Q32.7868 33.4059 32.8652 33.3616Q33.3624 33.0807 33.7606 32.6245Q33.8596 32.5111 33.9491 32.3907Q34.2807 31.9442 34.4819 31.4009Q34.5334 31.262 34.5749 31.1203Q34.75 30.5233 34.75 29.875Q34.75 29.2267 34.5749 28.6297Q34.5334 28.488 34.4819 28.3491Q34.2807 27.8058 33.9491 27.3593Q33.8596 27.2389 33.7606 27.1255Q33.3624 26.6693 32.8652 26.3884Q32.7868 26.3441 32.7061 26.3042Q32.2514 26.0795 31.7763 26.0208Q31.6082 26 31.4375 26Q31.2668 26 31.0987 26.0208Q30.6236 26.0795 30.1689 26.3042Q30.0882 26.3441 30.0098 26.3884Q29.5126 26.6693 29.1144 27.1255Q29.0154 27.2389 28.9259 27.3593Q28.5943 27.8058 28.3931 28.3491Q28.3416 28.488 28.3001 28.6297ZM31.4375 26.5C29.9972 26.5 28.625 27.9197 28.625 29.875C28.625 31.8303 29.9972 33.25 31.4375 33.25C32.8778 33.25 34.25 31.8303 34.25 29.875C34.25 27.9197 32.8778 26.5 31.4375 26.5Z" clip-rule="evenodd" fill="#191919" fill-opacity="0.000000" fill-rule="evenodd"/>
			</g>
		</g>
		<g mask="url(#mask3_2432)">
			<g opacity="0.823049">
				<mask id="mask_3_2436" fill="white">
					<path id="形状结合备份 109" d="M44.375 25.375C44.375 24.7537 43.8713 24.25 43.25 24.25L38.75 24.25C38.1287 24.25 37.625 24.7537 37.625 25.375C37.625 25.9963 38.1287 26.5 38.75 26.5L39.875 26.5L39.875 34.375C39.875 34.9963 40.3787 35.5 41 35.5C41.6213 35.5 42.125 34.9963 42.125 34.375L42.125 26.5L43.25 26.5C43.8713 26.5 44.375 25.9963 44.375 25.375Z" clip-rule="evenodd" fill="" fill-opacity="1.000000" fill-rule="evenodd"/>
				</mask>
				<path id="形状结合备份 109" d="M44.375 25.375C44.375 24.7537 43.8713 24.25 43.25 24.25L38.75 24.25C38.1287 24.25 37.625 24.7537 37.625 25.375C37.625 25.9963 38.1287 26.5 38.75 26.5L39.875 26.5L39.875 34.375C39.875 34.9963 40.3787 35.5 41 35.5C41.6213 35.5 42.125 34.9963 42.125 34.375L42.125 26.5L43.25 26.5C43.8713 26.5 44.375 25.9963 44.375 25.375Z" clip-rule="evenodd" fill="#191919" fill-opacity="1.000000" fill-rule="evenodd" mask="url(#mask_3_2436)"/>
				<path id="形状结合备份 109" d="M44.375 25.375C44.375 24.7537 43.8713 24.25 43.25 24.25L38.75 24.25C38.1287 24.25 37.625 24.7537 37.625 25.375C37.625 25.9963 38.1287 26.5 38.75 26.5L39.875 26.5L39.875 34.375C39.875 34.9963 40.3787 35.5 41 35.5C41.6213 35.5 42.125 34.9963 42.125 34.375L42.125 26.5L43.25 26.5C43.8713 26.5 44.375 25.9963 44.375 25.375Z" clip-rule="evenodd" fill="url(#paint_radial_3_2436_0)" fill-opacity="1.000000" fill-rule="evenodd" mask="url(#mask_3_2436)"/>
				<path id="形状结合备份 109" d="M42.625 26.5L43.25 26.5C43.8713 26.5 44.375 25.9963 44.375 25.375C44.375 24.7537 43.8713 24.25 43.25 24.25L38.75 24.25C38.1287 24.25 37.625 24.7537 37.625 25.375C37.625 25.9963 38.1287 26.5 38.75 26.5L39.875 26.5L39.875 34.375C39.875 34.9963 40.3787 35.5 41 35.5C41.6213 35.5 42.125 34.9963 42.125 34.375L42.125 26.5L42.625 26.5ZM43.8294 25.1356Q43.875 25.2459 43.875 25.375Q43.875 25.5041 43.8294 25.6144Q43.7836 25.7251 43.6919 25.8169Q43.6005 25.9084 43.4901 25.9542Q43.3795 26 43.25 26L41.625 26L41.625 34.375Q41.625 34.5041 41.5794 34.6144Q41.5336 34.7251 41.4419 34.8169Q41.3505 34.9084 41.2401 34.9542Q41.1295 35 41 35Q40.8705 35 40.7599 34.9542Q40.6495 34.9084 40.5581 34.8169Q40.4664 34.7251 40.4206 34.6144Q40.375 34.5041 40.375 34.375L40.375 26L38.75 26Q38.6205 26 38.5099 25.9542Q38.3995 25.9084 38.3081 25.8169Q38.2164 25.7251 38.1706 25.6144Q38.125 25.5041 38.125 25.375Q38.125 25.2459 38.1706 25.1356Q38.2164 25.0249 38.3081 24.9331Q38.3995 24.8416 38.5099 24.7958Q38.6205 24.75 38.75 24.75L43.25 24.75Q43.3795 24.75 43.4901 24.7958Q43.6005 24.8416 43.6919 24.9331Q43.7836 25.0249 43.8294 25.1356Z" clip-rule="evenodd" fill="#2C2C2C" fill-opacity="1.000000" fill-rule="evenodd"/>
				<path id="形状结合备份 109" d="M42.625 26.5L43.25 26.5C43.8713 26.5 44.375 25.9963 44.375 25.375C44.375 24.7537 43.8713 24.25 43.25 24.25L38.75 24.25C38.1287 24.25 37.625 24.7537 37.625 25.375C37.625 25.9963 38.1287 26.5 38.75 26.5L39.875 26.5L39.875 34.375C39.875 34.9963 40.3787 35.5 41 35.5C41.6213 35.5 42.125 34.9963 42.125 34.375L42.125 26.5L42.625 26.5ZM43.8294 25.1356Q43.875 25.2459 43.875 25.375Q43.875 25.5041 43.8294 25.6144Q43.7836 25.7251 43.6919 25.8169Q43.6005 25.9084 43.4901 25.9542Q43.3795 26 43.25 26L41.625 26L41.625 34.375Q41.625 34.5041 41.5794 34.6144Q41.5336 34.7251 41.4419 34.8169Q41.3505 34.9084 41.2401 34.9542Q41.1295 35 41 35Q40.8705 35 40.7599 34.9542Q40.6495 34.9084 40.5581 34.8169Q40.4664 34.7251 40.4206 34.6144Q40.375 34.5041 40.375 34.375L40.375 26L38.75 26Q38.6205 26 38.5099 25.9542Q38.3995 25.9084 38.3081 25.8169Q38.2164 25.7251 38.1706 25.6144Q38.125 25.5041 38.125 25.375Q38.125 25.2459 38.1706 25.1356Q38.2164 25.0249 38.3081 24.9331Q38.3995 24.8416 38.5099 24.7958Q38.6205 24.75 38.75 24.75L43.25 24.75Q43.3795 24.75 43.4901 24.7958Q43.6005 24.8416 43.6919 24.9331Q43.7836 25.0249 43.8294 25.1356Z" clip-rule="evenodd" fill="#191919" fill-opacity="0.000000" fill-rule="evenodd"/>
			</g>
		</g>
		<g mask="url(#mask3_2432)">
			<g opacity="0.823049">
				<rect id="矩形备份 34" x="20.750000" y="24.250000" rx="1.125000" width="2.250000" height="11.250000" fill="#191919" fill-opacity="1.000000"/>
				<rect id="矩形备份 34" x="20.750000" y="24.250000" rx="1.125000" width="2.250000" height="11.250000" fill="url(#paint_radial_3_2439_0)" fill-opacity="1.000000"/>
				<rect id="矩形备份 34" x="21.000000" y="24.500000" rx="0.875000" width="1.750000" height="10.750000" stroke="#2C2C2C" stroke-opacity="1.000000" stroke-width="0.500000"/>
				<rect id="矩形备份 34" x="21.000000" y="24.500000" rx="0.875000" width="1.750000" height="10.750000" stroke="#191919" stroke-opacity="0" stroke-width="0.500000"/>
			</g>
		</g>
		<g mask="url(#mask3_2432)">
			<g opacity="0.683514">
				<rect id="矩形" x="14.000000" y="43.375000" width="36.000000" height="1.125000" fill="url(#paint_linear_3_2440_0)" fill-opacity="1.000000"/>
				<rect id="矩形" x="14.500000" y="43.875000" width="35.000000" height="0.125000" stroke="#979797" stroke-opacity="0" stroke-width="1.000000"/>
			</g>
		</g>
		<g mask="url(#mask3_2432)">
			<g opacity="0.800000" filter="url(#filter_3_2441_dd)">
				<path id="矩形备份" d="M48.87 13L36 13L36 49L48.87 49C49.49 49 50 48.49 50 47.87L50 14.12C50 13.5 49.49 13 48.87 13Z" fill="url(#paint_linear_3_2441_0)" fill-opacity="1.000000" fill-rule="evenodd"/>
				<path id="矩形备份" d="M36 13L36 49L48.87 49C49.49 49 50 48.49 50 47.87L50 14.12C50 13.5 49.49 13 48.87 13L36 13ZM37 14L37 48L48.87 48C48.94 48 49 47.94 49 47.87L49 14.12C49 14.05 48.94 14 48.87 14L37 14Z" fill="#979797" fill-opacity="0" fill-rule="evenodd"/>
			</g>
		</g>
		<g mask="url(#mask3_2432)">
			<g opacity="0.800000" filter="url(#filter_3_2442_dd)">
				<path id="矩形备份 2" d="M15.12 13L28 13L28 49L15.12 49C14.5 49 14 48.49 14 47.87L14 14.12C14 13.5 14.5 13 15.12 13Z" fill="url(#paint_linear_3_2442_0)" fill-opacity="1.000000" fill-rule="evenodd"/>
				<path id="矩形备份 2" d="M28 13L28 49L15.12 49C14.5 49 14 48.49 14 47.87L14 14.12C14 13.5 14.5 13 15.12 13L28 13ZM27 14L27 48L15.12 48C15.05 48 15 47.94 15 47.87L15 14.12C15 14.05 15.05 14 15.12 14L27 14Z" fill="#979797" fill-opacity="0" fill-rule="evenodd"/>
			</g>
		</g>
	</g>
</svg>
