<svg width="64.000000" height="64.000000" viewBox="0 0 64 64" fill="none" xmlns="http://www.w3.org/2000/svg" xmlns:xlink="http://www.w3.org/1999/xlink">
	<desc>
			Created with Pixso.
	</desc>
	<defs>
		<filter id="filter_3_2306_dd" x="8.351074" y="46.866699" width="44.474854" height="7.958984" filterUnits="userSpaceOnUse" color-interpolation-filters="sRGB">
			<feFlood flood-opacity="0" result="BackgroundImageFix"/>
			<feBlend mode="normal" in="SourceGraphic" in2="BackgroundImageFix" result="shape"/>
			<feGaussianBlur stdDeviation="0.941889" result="effect_layerBlur_1"/>
		</filter>
		<filter id="filter_3_2317_dd" x="41.194946" y="6.964355" width="12.071411" height="48.071289" filterUnits="userSpaceOnUse" color-interpolation-filters="sRGB">
			<feFlood flood-opacity="0" result="BackgroundImageFix"/>
			<feBlend mode="normal" in="SourceGraphic" in2="BackgroundImageFix" result="shape"/>
			<feGaussianBlur stdDeviation="0.627295" result="effect_layerBlur_1"/>
		</filter>
		<filter id="filter_3_2322_dd" x="10.733521" y="6.964355" width="10.686768" height="48.071289" filterUnits="userSpaceOnUse" color-interpolation-filters="sRGB">
			<feFlood flood-opacity="0" result="BackgroundImageFix"/>
			<feBlend mode="normal" in="SourceGraphic" in2="BackgroundImageFix" result="shape"/>
			<feGaussianBlur stdDeviation="0.627295" result="effect_layerBlur_1"/>
		</filter>
		<filter id="filter_3_2323_dd" x="11.425781" y="10.425781" width="48.071411" height="9.302246" filterUnits="userSpaceOnUse" color-interpolation-filters="sRGB">
			<feFlood flood-opacity="0" result="BackgroundImageFix"/>
			<feBlend mode="normal" in="SourceGraphic" in2="BackgroundImageFix" result="shape"/>
			<feGaussianBlur stdDeviation="0.627295" result="effect_layerBlur_1"/>
		</filter>
		<clipPath id="clip3_28">
			<rect id="终端设备/其他" width="64.000000" height="64.000000" fill="white" fill-opacity="0"/>
		</clipPath>
		<radialGradient gradientTransform="translate(32.2231 49.6924) rotate(90) scale(1.4625 24.3732)" cx="0.000000" cy="0.000000" r="1.000000" id="paint_radial_3_2306_0" gradientUnits="userSpaceOnUse">
			<stop stop-color="#73757F"/>
			<stop offset="1.000000" stop-color="#000000" stop-opacity="0.000000"/>
		</radialGradient>
		<linearGradient x1="9.220019" y1="29.040344" x2="49.999908" y2="29.040344" id="paint_linear_3_2307_0" gradientUnits="userSpaceOnUse">
			<stop stop-color="#DBDBE3"/>
			<stop offset="0.245238" stop-color="#F8F8FC"/>
			<stop offset="1.000000" stop-color="#DADAE3"/>
		</linearGradient>
		<linearGradient x1="31.999950" y1="9.748274" x2="31.999950" y2="55.285011" id="paint_linear_3_2307_1" gradientUnits="userSpaceOnUse">
			<stop stop-color="#FFFFFF"/>
			<stop offset="0.210088" stop-color="#DBDBDB"/>
			<stop offset="0.799011" stop-color="#B0ABAB"/>
			<stop offset="1.000000" stop-color="#606060"/>
		</linearGradient>
		<linearGradient x1="29.872227" y1="59.291927" x2="29.872227" y2="14.800251" id="paint_linear_3_2312_0" gradientUnits="userSpaceOnUse">
			<stop stop-color="#C1C1C1"/>
			<stop offset="0.114895" stop-color="#DDDDDD"/>
			<stop offset="0.283591" stop-color="#EAE8E8"/>
			<stop offset="0.536561" stop-color="#F7F7F7"/>
			<stop offset="1.000000" stop-color="#FFFFFF"/>
		</linearGradient>
		<linearGradient x1="31.999952" y1="13.000000" x2="31.999952" y2="49.403408" id="paint_linear_3_2312_1" gradientUnits="userSpaceOnUse">
			<stop stop-color="#AAAAAA"/>
			<stop offset="0.695928" stop-color="#CBCBCB"/>
			<stop offset="1.000000" stop-color="#979797"/>
		</linearGradient>
		<linearGradient x1="4.153847" y1="22.172798" x2="0.000000" y2="22.172798" id="paint_linear_3_2317_0" gradientUnits="userSpaceOnUse">
			<stop stop-color="#D2D2D2" stop-opacity="0.000000"/>
			<stop offset="0.406974" stop-color="#C8C8C8" stop-opacity="0.423529"/>
			<stop offset="0.721600" stop-color="#D7D7D7" stop-opacity="0.800000"/>
			<stop offset="1.000000" stop-color="#E5E5E5" stop-opacity="0.000000"/>
		</linearGradient>
		<linearGradient x1="4.969005" y1="15.195960" x2="-2.230248" y2="15.195960" id="paint_linear_3_2318_0" gradientUnits="userSpaceOnUse">
			<stop stop-color="#FFFFFF"/>
			<stop offset="1.000000" stop-color="#A9A9A9"/>
		</linearGradient>
		<linearGradient x1="1.384615" y1="0.000000" x2="1.384615" y2="37.384617" id="paint_linear_3_2318_1" gradientUnits="userSpaceOnUse">
			<stop stop-color="#E2E2E2"/>
			<stop offset="1.000000" stop-color="#B7B6B6"/>
		</linearGradient>
		<linearGradient x1="43.183365" y1="27.983032" x2="38.006073" y2="14.823262" id="paint_linear_3_2319_0" gradientUnits="userSpaceOnUse">
			<stop stop-color="#E5E5E5"/>
			<stop offset="1.000000" stop-color="#FFFFFF"/>
		</linearGradient>
		<linearGradient x1="41.692215" y1="13.000000" x2="41.692215" y2="29.615385" id="paint_linear_3_2319_1" gradientUnits="userSpaceOnUse">
			<stop stop-color="#E2E2E2"/>
			<stop offset="1.000000" stop-color="#B7B6B6"/>
		</linearGradient>
		<linearGradient x1="41.692215" y1="11.615479" x2="41.692215" y2="28.230864" id="paint_linear_3_2320_0" gradientUnits="userSpaceOnUse">
			<stop stop-color="#E2E2E2"/>
			<stop offset="1.000000" stop-color="#B7B6B6"/>
		</linearGradient>
		<linearGradient x1="7.282543" y1="5.432224" x2="-1.509671" y2="5.432224" id="paint_linear_3_2321_0" gradientUnits="userSpaceOnUse">
			<stop stop-color="#F4F4F4"/>
			<stop offset="1.000000" stop-color="#AAA7A7"/>
		</linearGradient>
		<linearGradient x1="1.038462" y1="0.000000" x2="1.038462" y2="18.000000" id="paint_linear_3_2321_1" gradientUnits="userSpaceOnUse">
			<stop stop-color="#E2E2E2"/>
			<stop offset="1.000000" stop-color="#B7B6B6"/>
		</linearGradient>
		<linearGradient x1="16.076895" y1="31.018988" x2="12.615356" y2="31.018988" id="paint_linear_3_2322_0" gradientUnits="userSpaceOnUse">
			<stop stop-color="#D2D2D2" stop-opacity="0.000000"/>
			<stop offset="0.406974" stop-color="#C8C8C8" stop-opacity="0.423529"/>
			<stop offset="0.721600" stop-color="#D7D7D7" stop-opacity="0.800000"/>
			<stop offset="1.000000" stop-color="#E5E5E5" stop-opacity="0.000000"/>
		</linearGradient>
		<linearGradient x1="60.384586" y1="34.480415" x2="57.615356" y2="34.480415" id="paint_linear_3_2323_0" gradientUnits="userSpaceOnUse">
			<stop stop-color="#D2D2D2" stop-opacity="0.000000"/>
			<stop offset="0.406974" stop-color="#C8C8C8" stop-opacity="0.423529"/>
			<stop offset="0.721600" stop-color="#D7D7D7" stop-opacity="0.800000"/>
			<stop offset="1.000000" stop-color="#E5E5E5" stop-opacity="0.000000"/>
		</linearGradient>
	</defs>
	<rect id="终端设备/其他" width="64.000000" height="64.000000" fill="#000000" fill-opacity="0"/>
	<g clip-path="url(#clip3_28)">
		<g opacity="0.000000">
			<rect id="矩形" x="8.000000" y="8.000000" width="48.000000" height="48.000000" fill="#D8D8D8" fill-opacity="1.000000"/>
			<rect id="矩形" x="8.500000" y="8.500000" width="47.000000" height="47.000000" stroke="#979797" stroke-opacity="0" stroke-width="1.000000"/>
		</g>
		<g opacity="0.782734" filter="url(#filter_3_2306_dd)">
			<ellipse id="椭圆形" cx="30.588501" cy="50.846191" rx="19.411764" ry="1.153846" fill="url(#paint_radial_3_2306_0)" fill-opacity="1.000000"/>
			<ellipse id="椭圆形" cx="30.588501" cy="50.846191" rx="18.911764" ry="0.653846" stroke="#979797" stroke-opacity="0" stroke-width="1.000000"/>
		</g>
		<mask id="mask_3_2307" fill="white">
			<path id="形状结合" d="M27.8462 13L16.7693 13C15.2399 13 14 14.2397 14 15.7693L14 26.8462C14 28.3755 15.2399 29.6155 16.7693 29.6155L27.8462 29.6155C29.3756 29.6155 30.6154 28.3755 30.6154 26.8462L30.6154 15.7693C30.6154 14.2397 29.3756 13 27.8462 13ZM41.6923 29.6155C46.2762 29.6155 49.9999 25.8918 49.9999 21.3076C49.9999 16.7236 46.2762 13 41.6923 13C37.1082 13 33.3845 16.7236 33.3845 21.3076C33.3845 25.8918 37.1082 29.6155 41.6923 29.6155ZM16.7693 32.3845L27.8462 32.3845C29.3756 32.3845 30.6154 33.6245 30.6154 35.1538L30.6154 46.2307C30.6154 47.7603 29.3756 49 27.8462 49L16.7693 49C15.2399 49 14 47.7603 14 46.2307L14 35.1538C14 33.6245 15.2399 32.3845 16.7693 32.3845ZM47.2307 32.3845L36.1538 32.3845C34.6244 32.3845 33.3845 33.6245 33.3845 35.1538L33.3845 46.2307C33.3845 47.7603 34.6244 49 36.1538 49L47.2307 49C48.7601 49 49.9999 47.7603 49.9999 46.2307L49.9999 35.1538C49.9999 33.6245 48.7601 32.3845 47.2307 32.3845Z" clip-rule="evenodd" fill="" fill-opacity="1.000000" fill-rule="evenodd"/>
		</mask>
		<path id="形状结合" d="M27.8462 13L16.7693 13C15.2399 13 14 14.2397 14 15.7693L14 26.8462C14 28.3755 15.2399 29.6155 16.7693 29.6155L27.8462 29.6155C29.3756 29.6155 30.6154 28.3755 30.6154 26.8462L30.6154 15.7693C30.6154 14.2397 29.3756 13 27.8462 13ZM41.6923 29.6155C46.2762 29.6155 49.9999 25.8918 49.9999 21.3076C49.9999 16.7236 46.2762 13 41.6923 13C37.1082 13 33.3845 16.7236 33.3845 21.3076C33.3845 25.8918 37.1082 29.6155 41.6923 29.6155ZM16.7693 32.3845L27.8462 32.3845C29.3756 32.3845 30.6154 33.6245 30.6154 35.1538L30.6154 46.2307C30.6154 47.7603 29.3756 49 27.8462 49L16.7693 49C15.2399 49 14 47.7603 14 46.2307L14 35.1538C14 33.6245 15.2399 32.3845 16.7693 32.3845ZM47.2307 32.3845L36.1538 32.3845C34.6244 32.3845 33.3845 33.6245 33.3845 35.1538L33.3845 46.2307C33.3845 47.7603 34.6244 49 36.1538 49L47.2307 49C48.7601 49 49.9999 47.7603 49.9999 46.2307L49.9999 35.1538C49.9999 33.6245 48.7601 32.3845 47.2307 32.3845Z" clip-rule="evenodd" fill="url(#paint_linear_3_2307_0)" fill-opacity="1.000000" fill-rule="evenodd" mask="url(#mask_3_2307)"/>
		<path id="形状结合" d="M28.5914 12.3876Q28.2276 12.3076 27.8462 12.3076L16.7693 12.3076Q16.3871 12.3076 16.0225 12.388Q15.7158 12.4556 15.4216 12.5801Q15.1265 12.7049 14.8635 12.8784Q14.5729 13.0702 14.3215 13.3215Q14.0704 13.5727 13.8787 13.863Q13.7049 14.1262 13.58 14.4216Q13.4558 14.7152 13.3883 15.0213Q13.3077 15.3864 13.3077 15.7693L13.3077 26.8462Q13.3077 27.2291 13.3883 27.5942Q13.4558 27.9003 13.58 28.1938Q13.7049 28.4893 13.8787 28.7524Q14.0704 29.0428 14.3215 29.2939Q14.5729 29.5453 14.8635 29.7371Q15.1265 29.9106 15.4216 30.0354Q15.7152 30.1595 16.0213 30.2271Q16.3864 30.3076 16.7693 30.3076L27.8462 30.3076Q28.2282 30.3076 28.5926 30.2274Q28.8994 30.1598 29.1937 30.0354Q29.4889 29.9106 29.7518 29.7371Q30.0425 29.5453 30.2938 29.2939Q30.545 29.0428 30.7367 28.7524Q30.9104 28.4893 31.0354 28.1938Q31.1597 27.9 31.2273 27.5936Q31.3077 27.2288 31.3077 26.8462L31.3077 15.7693Q31.3077 15.3867 31.2273 15.0219Q31.1597 14.7155 31.0354 14.4216Q30.9104 14.1262 30.7367 13.863Q30.545 13.5727 30.2938 13.3215Q30.0425 13.0702 29.7518 12.8784Q29.4889 12.7049 29.1937 12.5801Q28.8988 12.4553 28.5914 12.3876ZM39.7509 30.0986Q40.6985 30.3076 41.6923 30.3076Q42.6852 30.3076 43.6321 30.0989Q44.4294 29.9231 45.1941 29.5994Q45.9516 29.2787 46.6278 28.8344Q47.3932 28.3315 48.0546 27.6702Q48.7175 27.0071 49.2213 26.2396Q49.6642 25.5649 49.984 24.8096Q50.3075 24.0456 50.4832 23.249Q50.6923 22.3014 50.6923 21.3076Q50.6923 20.3125 50.4826 19.3636Q50.3069 18.5685 49.984 17.8059Q49.6631 17.0479 49.2184 16.3712Q48.7156 15.6063 48.0546 14.9453Q47.3937 14.2844 46.6289 13.7817Q45.9522 13.3369 45.1941 13.0159Q44.4294 12.6921 43.6321 12.5164Q42.6852 12.3076 41.6923 12.3076Q40.6985 12.3076 39.7509 12.5167Q38.9543 12.6924 38.1903 13.0159Q37.4336 13.3363 36.7579 13.7802Q35.9918 14.2835 35.3298 14.9453Q34.6688 15.6063 34.166 16.3712Q33.7213 17.0479 33.4004 17.8059Q33.0777 18.5682 32.902 19.363Q32.6923 20.3121 32.6923 21.3076Q32.6923 22.3017 32.9014 23.2496Q33.0771 24.0459 33.4004 24.8096Q33.7202 25.5649 34.1631 26.2396Q34.6669 27.0071 35.3298 27.6702Q35.9922 28.3325 36.7589 28.8359Q37.4341 29.2792 38.1903 29.5994Q38.9543 29.9228 39.7509 30.0986ZM16.7693 13L27.8462 13C29.3756 13 30.6154 14.2397 30.6154 15.7693L30.6154 26.8462C30.6154 28.3755 29.3756 29.6155 27.8462 29.6155L16.7693 29.6155C15.2399 29.6155 14 28.3755 14 26.8462L14 15.7693C14 14.2397 15.2399 13 16.7693 13ZM49.9999 21.3076C49.9999 25.8918 46.2762 29.6155 41.6923 29.6155C37.1082 29.6155 33.3845 25.8918 33.3845 21.3076C33.3845 16.7236 37.1082 13 41.6923 13C46.2762 13 49.9999 16.7236 49.9999 21.3076ZM27.8462 31.6924L16.7693 31.6924Q16.3864 31.6924 16.0213 31.7729Q15.7152 31.8405 15.4216 31.9646Q15.1265 32.0894 14.8635 32.2629Q14.5729 32.4547 14.3215 32.7061Q14.0704 32.9572 13.8787 33.2476Q13.7049 33.5107 13.58 33.8062Q13.4558 34.0997 13.3883 34.4058Q13.3077 34.7709 13.3077 35.1538L13.3077 46.2307Q13.3077 46.6136 13.3883 46.9787Q13.4558 47.2848 13.58 47.5784Q13.7049 47.8738 13.8787 48.137Q14.0704 48.4273 14.3215 48.6785Q14.5729 48.9298 14.8635 49.1216Q15.1265 49.2951 15.4216 49.4199Q15.7158 49.5444 16.0225 49.612Q16.3871 49.6924 16.7693 49.6924L27.8462 49.6924Q28.2276 49.6924 28.5914 49.6124Q28.8988 49.5447 29.1937 49.4199Q29.4889 49.2951 29.7518 49.1216Q30.0425 48.9298 30.2938 48.6785Q30.545 48.4273 30.7367 48.137Q30.9104 47.8738 31.0354 47.5784Q31.1597 47.2845 31.2273 46.9781Q31.3077 46.6133 31.3077 46.2307L31.3077 35.1538Q31.3077 34.7712 31.2273 34.4064Q31.1597 34.1 31.0354 33.8062Q30.9104 33.5107 30.7367 33.2476Q30.545 32.9572 30.2938 32.7061Q30.0425 32.4547 29.7518 32.2629Q29.4889 32.0894 29.1937 31.9646Q28.8994 31.8402 28.5926 31.7726Q28.2282 31.6924 27.8462 31.6924ZM47.9771 31.7726Q47.6128 31.6924 47.2307 31.6924L36.1538 31.6924Q35.7709 31.6924 35.4058 31.7729Q35.0997 31.8405 34.8062 31.9646Q34.511 32.0894 34.2481 32.2629Q33.9574 32.4547 33.7061 32.7061Q33.4549 32.9572 33.2632 33.2476Q33.0894 33.5107 32.9645 33.8062Q32.8403 34.0997 32.7728 34.4058Q32.6923 34.7709 32.6923 35.1538L32.6923 46.2307Q32.6923 46.6136 32.7728 46.9787Q32.8403 47.2848 32.9645 47.5784Q33.0894 47.8738 33.2632 48.137Q33.4549 48.4273 33.7061 48.6785Q33.9574 48.9298 34.2481 49.1216Q34.511 49.2951 34.8062 49.4199Q35.1003 49.5444 35.4071 49.612Q35.7716 49.6924 36.1538 49.6924L47.2307 49.6924Q47.6121 49.6924 47.9759 49.6124Q48.2834 49.5447 48.5782 49.4199Q48.8734 49.2951 49.1363 49.1216Q49.427 48.9298 49.6783 48.6785Q49.9295 48.4273 50.1212 48.137Q50.295 47.8738 50.4199 47.5784Q50.5442 47.2845 50.6118 46.9781Q50.6923 46.6133 50.6923 46.2307L50.6923 35.1538Q50.6923 34.7712 50.6118 34.4064Q50.5442 34.1 50.4199 33.8062Q50.295 33.5107 50.1212 33.2476Q49.9295 32.9572 49.6783 32.7061Q49.427 32.4547 49.1363 32.2629Q48.8734 32.0894 48.5782 31.9646Q48.284 31.8402 47.9771 31.7726ZM27.8462 32.3845L16.7693 32.3845C15.2399 32.3845 14 33.6245 14 35.1538L14 46.2307C14 47.7603 15.2399 49 16.7693 49L27.8462 49C29.3756 49 30.6154 47.7603 30.6154 46.2307L30.6154 35.1538C30.6154 33.6245 29.3756 32.3845 27.8462 32.3845ZM36.1538 32.3845L47.2307 32.3845C48.7601 32.3845 49.9999 33.6245 49.9999 35.1538L49.9999 46.2307C49.9999 47.7603 48.7601 49 47.2307 49L36.1538 49C34.6244 49 33.3845 47.7603 33.3845 46.2307L33.3845 35.1538C33.3845 33.6245 34.6244 32.3845 36.1538 32.3845Z" clip-rule="evenodd" fill="url(#paint_linear_3_2307_1)" fill-opacity="1.000000" fill-rule="evenodd"/>
		<mask id="mask3_2312" mask-type="alpha" maskUnits="userSpaceOnUse" x="14.000000" y="13.000000" width="35.999878" height="36.000000">
			<mask id="mask_3_2312" fill="white">
				<path id="形状结合" d="M27.8462 13L16.7693 13C15.2399 13 14 14.2397 14 15.7693L14 26.8462C14 28.3755 15.2399 29.6155 16.7693 29.6155L27.8462 29.6155C29.3756 29.6155 30.6154 28.3755 30.6154 26.8462L30.6154 15.7693C30.6154 14.2397 29.3756 13 27.8462 13ZM41.6923 29.6155C46.2762 29.6155 49.9999 25.8918 49.9999 21.3076C49.9999 16.7236 46.2762 13 41.6923 13C37.1082 13 33.3845 16.7236 33.3845 21.3076C33.3845 25.8918 37.1082 29.6155 41.6923 29.6155ZM16.7693 32.3845L27.8462 32.3845C29.3756 32.3845 30.6154 33.6245 30.6154 35.1538L30.6154 46.2307C30.6154 47.7603 29.3756 49 27.8462 49L16.7693 49C15.2399 49 14 47.7603 14 46.2307L14 35.1538C14 33.6245 15.2399 32.3845 16.7693 32.3845ZM47.2307 32.3845L36.1538 32.3845C34.6244 32.3845 33.3845 33.6245 33.3845 35.1538L33.3845 46.2307C33.3845 47.7603 34.6244 49 36.1538 49L47.2307 49C48.7601 49 49.9999 47.7603 49.9999 46.2307L49.9999 35.1538C49.9999 33.6245 48.7601 32.3845 47.2307 32.3845Z" clip-rule="evenodd" fill="" fill-opacity="1.000000" fill-rule="evenodd"/>
			</mask>
			<path id="形状结合" d="M27.8462 13L16.7693 13C15.2399 13 14 14.2397 14 15.7693L14 26.8462C14 28.3755 15.2399 29.6155 16.7693 29.6155L27.8462 29.6155C29.3756 29.6155 30.6154 28.3755 30.6154 26.8462L30.6154 15.7693C30.6154 14.2397 29.3756 13 27.8462 13ZM41.6923 29.6155C46.2762 29.6155 49.9999 25.8918 49.9999 21.3076C49.9999 16.7236 46.2762 13 41.6923 13C37.1082 13 33.3845 16.7236 33.3845 21.3076C33.3845 25.8918 37.1082 29.6155 41.6923 29.6155ZM16.7693 32.3845L27.8462 32.3845C29.3756 32.3845 30.6154 33.6245 30.6154 35.1538L30.6154 46.2307C30.6154 47.7603 29.3756 49 27.8462 49L16.7693 49C15.2399 49 14 47.7603 14 46.2307L14 35.1538C14 33.6245 15.2399 32.3845 16.7693 32.3845ZM47.2307 32.3845L36.1538 32.3845C34.6244 32.3845 33.3845 33.6245 33.3845 35.1538L33.3845 46.2307C33.3845 47.7603 34.6244 49 36.1538 49L47.2307 49C48.7601 49 49.9999 47.7603 49.9999 46.2307L49.9999 35.1538C49.9999 33.6245 48.7601 32.3845 47.2307 32.3845Z" clip-rule="evenodd" fill="url(#paint_linear_3_2312_0)" fill-opacity="1.000000" fill-rule="evenodd" mask="url(#mask_3_2312)"/>
			<path id="形状结合" d="M28.5545 12.5765Q28.2088 12.5 27.8462 12.5L16.7693 12.5Q16.4066 12.5 16.0609 12.5765Q15.7729 12.6402 15.4966 12.7571Q15.218 12.875 14.9698 13.0388Q14.6951 13.22 14.4575 13.4575Q14.2203 13.6947 14.0392 13.9689Q13.8751 14.2175 13.7571 14.4966Q13.6402 14.7729 13.5765 15.0609Q13.5 15.4066 13.5 15.7693L13.5 26.8462Q13.5 27.2088 13.5765 27.5545Q13.6402 27.8426 13.7571 28.1189Q13.874 28.3953 14.0363 28.642Q14.2184 28.9187 14.4575 29.158Q14.6955 29.3959 14.9708 29.5773Q15.2186 29.7406 15.4966 29.8582Q15.7735 29.9754 16.0622 30.0392Q16.4073 30.1155 16.7693 30.1155L27.8462 30.1155Q28.2082 30.1155 28.5533 30.0392Q28.842 29.9754 29.1189 29.8582Q29.3961 29.7409 29.6434 29.5781Q29.9193 29.3964 30.1578 29.158Q30.397 28.9187 30.5791 28.642Q30.7413 28.3953 30.8583 28.1189Q30.9751 27.8426 31.0389 27.5545Q31.1154 27.2088 31.1154 26.8462L31.1154 15.7693Q31.1154 15.4066 31.0389 15.0609Q30.9751 14.7729 30.8583 14.4966Q30.7403 14.2175 30.5761 13.9689Q30.3951 13.6947 30.1578 13.4575Q29.9197 13.2195 29.6444 13.0379Q29.3967 12.8747 29.1189 12.7571Q28.8426 12.6402 28.5545 12.5765ZM39.7905 29.9105Q40.7188 30.1155 41.6923 30.1155Q42.6665 30.1155 43.5953 29.9102Q44.3731 29.7383 45.1191 29.4224Q45.8585 29.1094 46.5187 28.676Q47.2698 28.183 47.9186 27.5342Q48.5676 26.8851 49.0608 26.1337Q49.494 25.4737 49.8069 24.7346Q50.1229 23.9882 50.2948 23.21Q50.4999 22.2815 50.4999 21.3076Q50.4999 20.3324 50.2942 19.4026Q50.1223 18.6259 49.8069 17.8809Q49.494 17.1418 49.0608 16.4817Q48.5676 15.7304 47.9186 15.0813Q47.2698 14.4325 46.5187 13.9395Q45.8585 13.5061 45.1191 13.1931Q44.3731 12.8772 43.5953 12.7053Q42.6665 12.5 41.6923 12.5Q40.7188 12.5 39.7905 12.705Q39.012 12.8769 38.2653 13.1931Q37.5273 13.5055 36.868 13.938Q36.1156 14.4315 35.4658 15.0813Q34.8168 15.7304 34.3236 16.4817Q33.8904 17.1418 33.5775 17.8809Q33.2621 18.6259 33.0902 19.4026Q32.8845 20.3324 32.8845 21.3076Q32.8845 22.2815 33.0896 23.21Q33.2615 23.9882 33.5775 24.7346Q33.8904 25.4737 34.3236 26.1337Q34.8168 26.8851 35.4658 27.5342Q36.1146 28.183 36.8657 28.676Q37.5259 29.1094 38.2653 29.4224Q39.012 29.7385 39.7905 29.9105ZM16.7693 13L27.8462 13C29.3756 13 30.6154 14.2397 30.6154 15.7693L30.6154 26.8462C30.6154 28.3755 29.3756 29.6155 27.8462 29.6155L16.7693 29.6155C15.2399 29.6155 14 28.3755 14 26.8462L14 15.7693C14 14.2397 15.2399 13 16.7693 13ZM49.9999 21.3076C49.9999 25.8918 46.2762 29.6155 41.6923 29.6155C37.1082 29.6155 33.3845 25.8918 33.3845 21.3076C33.3845 16.7236 37.1082 13 41.6923 13C46.2762 13 49.9999 16.7236 49.9999 21.3076ZM27.8462 31.8845L16.7693 31.8845Q16.4073 31.8845 16.0622 31.9608Q15.7735 32.0246 15.4966 32.1418Q15.2186 32.2594 14.9708 32.4227Q14.6955 32.6041 14.4575 32.842Q14.2184 33.0813 14.0363 33.358Q13.874 33.6047 13.7571 33.8811Q13.6402 34.1574 13.5765 34.4455Q13.5 34.7912 13.5 35.1538L13.5 46.2307Q13.5 46.5934 13.5765 46.9391Q13.6402 47.2271 13.7571 47.5034Q13.8751 47.7825 14.0392 48.0311Q14.2203 48.3053 14.4575 48.5425Q14.6951 48.78 14.9698 48.9612Q15.218 49.125 15.4966 49.2429Q15.7729 49.3598 16.0609 49.4235Q16.4066 49.5 16.7693 49.5L27.8462 49.5Q28.2088 49.5 28.5545 49.4235Q28.8426 49.3598 29.1189 49.2429Q29.3967 49.1253 29.6444 48.9621Q29.9197 48.7805 30.1578 48.5425Q30.3951 48.3053 30.5761 48.0311Q30.7403 47.7825 30.8583 47.5034Q30.9751 47.2271 31.0389 46.9391Q31.1154 46.5934 31.1154 46.2307L31.1154 35.1538Q31.1154 34.7912 31.0389 34.4455Q30.9751 34.1574 30.8583 33.8811Q30.7413 33.6047 30.5791 33.358Q30.397 33.0813 30.1578 32.842Q29.9193 32.6036 29.6434 32.4219Q29.3961 32.2591 29.1189 32.1418Q28.842 32.0246 28.5533 31.9608Q28.2082 31.8845 27.8462 31.8845ZM47.9378 31.9608Q47.5927 31.8845 47.2307 31.8845L36.1538 31.8845Q35.7918 31.8845 35.4467 31.9608Q35.158 32.0246 34.8811 32.1418Q34.6031 32.2594 34.3553 32.4227Q34.08 32.6041 33.842 32.842Q33.6029 33.0813 33.4208 33.358Q33.2585 33.6047 33.1416 33.8811Q33.0248 34.1574 32.961 34.4455Q32.8845 34.7912 32.8845 35.1538L32.8845 46.2307Q32.8845 46.5934 32.961 46.9391Q33.0248 47.2271 33.1416 47.5034Q33.2596 47.7825 33.4238 48.0311Q33.6048 48.3053 33.842 48.5425Q34.0796 48.78 34.3543 48.9612Q34.6025 49.125 34.8811 49.2429Q35.1574 49.3598 35.4455 49.4235Q35.7912 49.5 36.1538 49.5L47.2307 49.5Q47.5934 49.5 47.9391 49.4235Q48.2271 49.3598 48.5034 49.2429Q48.7812 49.1253 49.0289 48.9621Q49.3042 48.7805 49.5424 48.5425Q49.7796 48.3053 49.9606 48.0311Q50.1248 47.7825 50.2428 47.5034Q50.3596 47.2271 50.4234 46.9391Q50.4999 46.5934 50.4999 46.2307L50.4999 35.1538Q50.4999 34.7912 50.4234 34.4455Q50.3596 34.1574 50.2428 33.8811Q50.1259 33.6047 49.9636 33.358Q49.7815 33.0813 49.5424 32.842Q49.3038 32.6036 49.0279 32.4219Q48.7807 32.2591 48.5034 32.1418Q48.2265 32.0246 47.9378 31.9608ZM27.8462 32.3845L16.7693 32.3845C15.2399 32.3845 14 33.6245 14 35.1538L14 46.2307C14 47.7603 15.2399 49 16.7693 49L27.8462 49C29.3756 49 30.6154 47.7603 30.6154 46.2307L30.6154 35.1538C30.6154 33.6245 29.3756 32.3845 27.8462 32.3845ZM36.1538 32.3845L47.2307 32.3845C48.7601 32.3845 49.9999 33.6245 49.9999 35.1538L49.9999 46.2307C49.9999 47.7603 48.7601 49 47.2307 49L36.1538 49C34.6244 49 33.3845 47.7603 33.3845 46.2307L33.3845 35.1538C33.3845 33.6245 34.6244 32.3845 36.1538 32.3845Z" clip-rule="evenodd" fill="url(#paint_linear_3_2312_1)" fill-opacity="1.000000" fill-rule="evenodd"/>
		</mask>
		<mask id="mask_3_2312" fill="white">
			<path id="形状结合" d="M27.8462 13L16.7693 13C15.2399 13 14 14.2397 14 15.7693L14 26.8462C14 28.3755 15.2399 29.6155 16.7693 29.6155L27.8462 29.6155C29.3756 29.6155 30.6154 28.3755 30.6154 26.8462L30.6154 15.7693C30.6154 14.2397 29.3756 13 27.8462 13ZM41.6923 29.6155C46.2762 29.6155 49.9999 25.8918 49.9999 21.3076C49.9999 16.7236 46.2762 13 41.6923 13C37.1082 13 33.3845 16.7236 33.3845 21.3076C33.3845 25.8918 37.1082 29.6155 41.6923 29.6155ZM16.7693 32.3845L27.8462 32.3845C29.3756 32.3845 30.6154 33.6245 30.6154 35.1538L30.6154 46.2307C30.6154 47.7603 29.3756 49 27.8462 49L16.7693 49C15.2399 49 14 47.7603 14 46.2307L14 35.1538C14 33.6245 15.2399 32.3845 16.7693 32.3845ZM47.2307 32.3845L36.1538 32.3845C34.6244 32.3845 33.3845 33.6245 33.3845 35.1538L33.3845 46.2307C33.3845 47.7603 34.6244 49 36.1538 49L47.2307 49C48.7601 49 49.9999 47.7603 49.9999 46.2307L49.9999 35.1538C49.9999 33.6245 48.7601 32.3845 47.2307 32.3845Z" clip-rule="evenodd" fill="" fill-opacity="1.000000" fill-rule="evenodd"/>
		</mask>
		<path id="形状结合" d="M27.8462 13L16.7693 13C15.2399 13 14 14.2397 14 15.7693L14 26.8462C14 28.3755 15.2399 29.6155 16.7693 29.6155L27.8462 29.6155C29.3756 29.6155 30.6154 28.3755 30.6154 26.8462L30.6154 15.7693C30.6154 14.2397 29.3756 13 27.8462 13ZM41.6923 29.6155C46.2762 29.6155 49.9999 25.8918 49.9999 21.3076C49.9999 16.7236 46.2762 13 41.6923 13C37.1082 13 33.3845 16.7236 33.3845 21.3076C33.3845 25.8918 37.1082 29.6155 41.6923 29.6155ZM16.7693 32.3845L27.8462 32.3845C29.3756 32.3845 30.6154 33.6245 30.6154 35.1538L30.6154 46.2307C30.6154 47.7603 29.3756 49 27.8462 49L16.7693 49C15.2399 49 14 47.7603 14 46.2307L14 35.1538C14 33.6245 15.2399 32.3845 16.7693 32.3845ZM47.2307 32.3845L36.1538 32.3845C34.6244 32.3845 33.3845 33.6245 33.3845 35.1538L33.3845 46.2307C33.3845 47.7603 34.6244 49 36.1538 49L47.2307 49C48.7601 49 49.9999 47.7603 49.9999 46.2307L49.9999 35.1538C49.9999 33.6245 48.7601 32.3845 47.2307 32.3845Z" clip-rule="evenodd" fill="url(#paint_linear_3_2312_0)" fill-opacity="1.000000" fill-rule="evenodd" mask="url(#mask_3_2312)"/>
		<path id="形状结合" d="M28.5545 12.5765Q28.2088 12.5 27.8462 12.5L16.7693 12.5Q16.4066 12.5 16.0609 12.5765Q15.7729 12.6402 15.4966 12.7571Q15.218 12.875 14.9698 13.0388Q14.6951 13.22 14.4575 13.4575Q14.2203 13.6947 14.0392 13.9689Q13.8751 14.2175 13.7571 14.4966Q13.6402 14.7729 13.5765 15.0609Q13.5 15.4066 13.5 15.7693L13.5 26.8462Q13.5 27.2088 13.5765 27.5545Q13.6402 27.8426 13.7571 28.1189Q13.874 28.3953 14.0363 28.642Q14.2184 28.9187 14.4575 29.158Q14.6955 29.3959 14.9708 29.5773Q15.2186 29.7406 15.4966 29.8582Q15.7735 29.9754 16.0622 30.0392Q16.4073 30.1155 16.7693 30.1155L27.8462 30.1155Q28.2082 30.1155 28.5533 30.0392Q28.842 29.9754 29.1189 29.8582Q29.3961 29.7409 29.6434 29.5781Q29.9193 29.3964 30.1578 29.158Q30.397 28.9187 30.5791 28.642Q30.7413 28.3953 30.8583 28.1189Q30.9751 27.8426 31.0389 27.5545Q31.1154 27.2088 31.1154 26.8462L31.1154 15.7693Q31.1154 15.4066 31.0389 15.0609Q30.9751 14.7729 30.8583 14.4966Q30.7403 14.2175 30.5761 13.9689Q30.3951 13.6947 30.1578 13.4575Q29.9197 13.2195 29.6444 13.0379Q29.3967 12.8747 29.1189 12.7571Q28.8426 12.6402 28.5545 12.5765ZM39.7905 29.9105Q40.7188 30.1155 41.6923 30.1155Q42.6665 30.1155 43.5953 29.9102Q44.3731 29.7383 45.1191 29.4224Q45.8585 29.1094 46.5187 28.676Q47.2698 28.183 47.9186 27.5342Q48.5676 26.8851 49.0608 26.1337Q49.494 25.4737 49.8069 24.7346Q50.1229 23.9882 50.2948 23.21Q50.4999 22.2815 50.4999 21.3076Q50.4999 20.3324 50.2942 19.4026Q50.1223 18.6259 49.8069 17.8809Q49.494 17.1418 49.0608 16.4817Q48.5676 15.7304 47.9186 15.0813Q47.2698 14.4325 46.5187 13.9395Q45.8585 13.5061 45.1191 13.1931Q44.3731 12.8772 43.5953 12.7053Q42.6665 12.5 41.6923 12.5Q40.7188 12.5 39.7905 12.705Q39.012 12.8769 38.2653 13.1931Q37.5273 13.5055 36.868 13.938Q36.1156 14.4315 35.4658 15.0813Q34.8168 15.7304 34.3236 16.4817Q33.8904 17.1418 33.5775 17.8809Q33.2621 18.6259 33.0902 19.4026Q32.8845 20.3324 32.8845 21.3076Q32.8845 22.2815 33.0896 23.21Q33.2615 23.9882 33.5775 24.7346Q33.8904 25.4737 34.3236 26.1337Q34.8168 26.8851 35.4658 27.5342Q36.1146 28.183 36.8657 28.676Q37.5259 29.1094 38.2653 29.4224Q39.012 29.7385 39.7905 29.9105ZM16.7693 13L27.8462 13C29.3756 13 30.6154 14.2397 30.6154 15.7693L30.6154 26.8462C30.6154 28.3755 29.3756 29.6155 27.8462 29.6155L16.7693 29.6155C15.2399 29.6155 14 28.3755 14 26.8462L14 15.7693C14 14.2397 15.2399 13 16.7693 13ZM49.9999 21.3076C49.9999 25.8918 46.2762 29.6155 41.6923 29.6155C37.1082 29.6155 33.3845 25.8918 33.3845 21.3076C33.3845 16.7236 37.1082 13 41.6923 13C46.2762 13 49.9999 16.7236 49.9999 21.3076ZM27.8462 31.8845L16.7693 31.8845Q16.4073 31.8845 16.0622 31.9608Q15.7735 32.0246 15.4966 32.1418Q15.2186 32.2594 14.9708 32.4227Q14.6955 32.6041 14.4575 32.842Q14.2184 33.0813 14.0363 33.358Q13.874 33.6047 13.7571 33.8811Q13.6402 34.1574 13.5765 34.4455Q13.5 34.7912 13.5 35.1538L13.5 46.2307Q13.5 46.5934 13.5765 46.9391Q13.6402 47.2271 13.7571 47.5034Q13.8751 47.7825 14.0392 48.0311Q14.2203 48.3053 14.4575 48.5425Q14.6951 48.78 14.9698 48.9612Q15.218 49.125 15.4966 49.2429Q15.7729 49.3598 16.0609 49.4235Q16.4066 49.5 16.7693 49.5L27.8462 49.5Q28.2088 49.5 28.5545 49.4235Q28.8426 49.3598 29.1189 49.2429Q29.3967 49.1253 29.6444 48.9621Q29.9197 48.7805 30.1578 48.5425Q30.3951 48.3053 30.5761 48.0311Q30.7403 47.7825 30.8583 47.5034Q30.9751 47.2271 31.0389 46.9391Q31.1154 46.5934 31.1154 46.2307L31.1154 35.1538Q31.1154 34.7912 31.0389 34.4455Q30.9751 34.1574 30.8583 33.8811Q30.7413 33.6047 30.5791 33.358Q30.397 33.0813 30.1578 32.842Q29.9193 32.6036 29.6434 32.4219Q29.3961 32.2591 29.1189 32.1418Q28.842 32.0246 28.5533 31.9608Q28.2082 31.8845 27.8462 31.8845ZM47.9378 31.9608Q47.5927 31.8845 47.2307 31.8845L36.1538 31.8845Q35.7918 31.8845 35.4467 31.9608Q35.158 32.0246 34.8811 32.1418Q34.6031 32.2594 34.3553 32.4227Q34.08 32.6041 33.842 32.842Q33.6029 33.0813 33.4208 33.358Q33.2585 33.6047 33.1416 33.8811Q33.0248 34.1574 32.961 34.4455Q32.8845 34.7912 32.8845 35.1538L32.8845 46.2307Q32.8845 46.5934 32.961 46.9391Q33.0248 47.2271 33.1416 47.5034Q33.2596 47.7825 33.4238 48.0311Q33.6048 48.3053 33.842 48.5425Q34.0796 48.78 34.3543 48.9612Q34.6025 49.125 34.8811 49.2429Q35.1574 49.3598 35.4455 49.4235Q35.7912 49.5 36.1538 49.5L47.2307 49.5Q47.5934 49.5 47.9391 49.4235Q48.2271 49.3598 48.5034 49.2429Q48.7812 49.1253 49.0289 48.9621Q49.3042 48.7805 49.5424 48.5425Q49.7796 48.3053 49.9606 48.0311Q50.1248 47.7825 50.2428 47.5034Q50.3596 47.2271 50.4234 46.9391Q50.4999 46.5934 50.4999 46.2307L50.4999 35.1538Q50.4999 34.7912 50.4234 34.4455Q50.3596 34.1574 50.2428 33.8811Q50.1259 33.6047 49.9636 33.358Q49.7815 33.0813 49.5424 32.842Q49.3038 32.6036 49.0279 32.4219Q48.7807 32.2591 48.5034 32.1418Q48.2265 32.0246 47.9378 31.9608ZM27.8462 32.3845L16.7693 32.3845C15.2399 32.3845 14 33.6245 14 35.1538L14 46.2307C14 47.7603 15.2399 49 16.7693 49L27.8462 49C29.3756 49 30.6154 47.7603 30.6154 46.2307L30.6154 35.1538C30.6154 33.6245 29.3756 32.3845 27.8462 32.3845ZM36.1538 32.3845L47.2307 32.3845C48.7601 32.3845 49.9999 33.6245 49.9999 35.1538L49.9999 46.2307C49.9999 47.7603 48.7601 49 47.2307 49L36.1538 49C34.6244 49 33.3845 47.7603 33.3845 46.2307L33.3845 35.1538C33.3845 33.6245 34.6244 32.3845 36.1538 32.3845Z" clip-rule="evenodd" fill="url(#paint_linear_3_2312_1)" fill-opacity="1.000000" fill-rule="evenodd"/>
		<g mask="url(#mask3_2312)">
			<g opacity="0.346722" filter="url(#filter_3_2317_dd)">
				<path id="矩形备份" d="M49.99 8.84L43.07 8.84L43.07 53.15L49.99 53.15C50.76 53.15 51.38 52.53 51.38 51.76L51.38 10.23C51.38 9.46 50.76 8.84 49.99 8.84Z" fill="url(#paint_linear_3_2317_0)" fill-opacity="1.000000" fill-rule="evenodd"/>
				<path id="矩形备份" d="M43.07 8.84L43.07 53.15L49.99 53.15C50.76 53.15 51.38 52.53 51.38 51.76L51.38 10.23C51.38 9.46 50.76 8.84 49.99 8.84L43.07 8.84ZM44.07 9.84L44.07 52.15L49.99 52.15C50.21 52.15 50.38 51.98 50.38 51.76L50.38 10.23C50.38 10.01 50.21 9.84 49.99 9.84L44.07 9.84Z" fill="#979797" fill-opacity="0" fill-rule="evenodd"/>
			</g>
		</g>
		<g mask="url(#mask3_2312)">
			<path id="矩形备份" d="M50.69 48.3L50.69 46.92L13.3 46.92L13.3 48.3C13.3 49.07 13.92 49.69 14.69 49.69L49.3 49.69C50.07 49.69 50.69 49.07 50.69 48.3Z" fill="url(#paint_linear_3_2318_0)" fill-opacity="1.000000" fill-rule="evenodd"/>
			<path id="矩形备份" d="M50.69 46.92L13.3 46.92L13.3 48.3C13.3 49.07 13.92 49.69 14.69 49.69L49.3 49.69C50.07 49.69 50.69 49.07 50.69 48.3L50.69 46.92ZM49.69 47.92L14.3 47.92L14.3 48.3C14.3 48.52 14.47 48.69 14.69 48.69L49.3 48.69C49.52 48.69 49.69 48.52 49.69 48.3L49.69 47.92Z" fill="url(#paint_linear_3_2318_1)" fill-opacity="0" fill-rule="evenodd"/>
		</g>
		<g mask="url(#mask3_2312)">
			<circle id="椭圆形" cx="41.692261" cy="21.307617" r="8.307693" fill="url(#paint_linear_3_2319_0)" fill-opacity="1.000000"/>
			<circle id="椭圆形" cx="41.692261" cy="21.307617" r="7.807693" stroke="url(#paint_linear_3_2319_1)" stroke-opacity="0" stroke-width="1.000000"/>
		</g>
		<g mask="url(#mask3_2312)">
			<circle id="椭圆形" cx="41.692261" cy="19.923096" r="8.307693" fill="#FFFFFF" fill-opacity="1.000000"/>
			<circle id="椭圆形" cx="41.692261" cy="19.923096" r="7.807693" stroke="url(#paint_linear_3_2320_0)" stroke-opacity="0" stroke-width="1.000000"/>
		</g>
		<g mask="url(#mask3_2312)">
			<g opacity="0.319826">
				<path id="矩形备份" d="M31.3 28.92L31.3 28.23L13.3 28.23L13.3 28.92C13.3 29.68 13.92 30.3 14.69 30.3L29.92 30.3C30.68 30.3 31.3 29.68 31.3 28.92Z" fill="url(#paint_linear_3_2321_0)" fill-opacity="1.000000" fill-rule="evenodd"/>
				<path id="矩形备份" d="M31.3 28.23L13.3 28.23L13.3 28.92C13.3 29.68 13.92 30.3 14.69 30.3L29.92 30.3C30.68 30.3 31.3 29.68 31.3 28.92L31.3 28.23ZM14.3 29.23C14.3 29.27 14.34 29.3 14.38 29.3L30.23 29.3C30.27 29.3 30.3 29.27 30.3 29.23L14.3 29.23Z" fill="url(#paint_linear_3_2321_1)" fill-opacity="0" fill-rule="evenodd"/>
			</g>
		</g>
		<g mask="url(#mask3_2312)">
			<g opacity="0.346722" filter="url(#filter_3_2322_dd)">
				<path id="矩形备份 2" d="M14 8.84L19.53 8.84L19.53 53.15L14 53.15C13.23 53.15 12.61 52.53 12.61 51.76L12.61 10.23C12.61 9.46 13.23 8.84 14 8.84Z" fill="url(#paint_linear_3_2322_0)" fill-opacity="1.000000" fill-rule="evenodd"/>
				<path id="矩形备份 2" d="M19.53 8.84L19.53 53.15L14 53.15C13.23 53.15 12.61 52.53 12.61 51.76L12.61 10.23C12.61 9.46 13.23 8.84 14 8.84L19.53 8.84ZM18.53 9.84L18.53 52.15L14 52.15C13.78 52.15 13.61 51.98 13.61 51.76L13.61 10.23C13.61 10.01 13.78 9.84 14 9.84L18.53 9.84Z" fill="#979797" fill-opacity="0" fill-rule="evenodd"/>
			</g>
		</g>
		<g mask="url(#mask3_2312)">
			<g opacity="0.346722" filter="url(#filter_3_2323_dd)">
				<path id="矩形备份 2" d="M57.61 13.69L57.61 17.84L13.3 17.84L13.3 13.69C13.3 12.92 13.92 12.3 14.69 12.3L56.23 12.3C56.99 12.3 57.61 12.92 57.61 13.69Z" fill="url(#paint_linear_3_2323_0)" fill-opacity="1.000000" fill-rule="evenodd"/>
				<path id="矩形备份 2" d="M57.61 17.84L13.3 17.84L13.3 13.69C13.3 12.92 13.92 12.3 14.69 12.3L56.23 12.3C56.99 12.3 57.61 12.92 57.61 13.69L57.61 17.84ZM56.61 16.84L14.3 16.84L14.3 13.69C14.3 13.47 14.47 13.3 14.69 13.3L56.23 13.3C56.44 13.3 56.61 13.47 56.61 13.69L56.61 16.84Z" fill="#979797" fill-opacity="0" fill-rule="evenodd"/>
			</g>
		</g>
	</g>
</svg>
