<svg width="64.000000" height="64.000000" viewBox="0 0 64 64" fill="none" xmlns="http://www.w3.org/2000/svg" xmlns:xlink="http://www.w3.org/1999/xlink">
	<desc>
			Created with Pixso.
	</desc>
	<defs>
		<filter id="filter_3_2327_dd" x="-10.042480" y="-11.042480" width="84.084717" height="84.084961" filterUnits="userSpaceOnUse" color-interpolation-filters="sRGB">
			<feFlood flood-opacity="0" result="BackgroundImageFix"/>
			<feColorMatrix in="SourceAlpha" type="matrix" values="0 0 0 0 0 0 0 0 0 0 0 0 0 0 0 0 0 0 127 0" result="hardAlpha"/>
			<feOffset dx="0" dy="0"/>
			<feGaussianBlur stdDeviation="7.78333"/>
			<feComposite in2="hardAlpha" operator="out" k2="-1" k3="1"/>
			<feColorMatrix type="matrix" values="0 0 0 0 0.9451 0 0 0 0 0.19216 0 0 0 0 0.27451 0 0 0 1 0"/>
			<feBlend mode="normal" in2="BackgroundImageFix" result="effect_dropShadow_1"/>
			<feBlend mode="normal" in="SourceGraphic" in2="effect_dropShadow_1" result="shape"/>
		</filter>
		<filter id="filter_3_2332_dd" x="8.351074" y="46.866699" width="44.474854" height="7.958984" filterUnits="userSpaceOnUse" color-interpolation-filters="sRGB">
			<feFlood flood-opacity="0" result="BackgroundImageFix"/>
			<feBlend mode="normal" in="SourceGraphic" in2="BackgroundImageFix" result="shape"/>
			<feGaussianBlur stdDeviation="0.941889" result="effect_layerBlur_1"/>
		</filter>
		<filter id="filter_3_2343_dd" x="41.195068" y="6.964355" width="12.071289" height="48.071289" filterUnits="userSpaceOnUse" color-interpolation-filters="sRGB">
			<feFlood flood-opacity="0" result="BackgroundImageFix"/>
			<feBlend mode="normal" in="SourceGraphic" in2="BackgroundImageFix" result="shape"/>
			<feGaussianBlur stdDeviation="0.627295" result="effect_layerBlur_1"/>
		</filter>
		<filter id="filter_3_2348_dd" x="10.733398" y="6.964355" width="10.686768" height="48.071289" filterUnits="userSpaceOnUse" color-interpolation-filters="sRGB">
			<feFlood flood-opacity="0" result="BackgroundImageFix"/>
			<feBlend mode="normal" in="SourceGraphic" in2="BackgroundImageFix" result="shape"/>
			<feGaussianBlur stdDeviation="0.627295" result="effect_layerBlur_1"/>
		</filter>
		<filter id="filter_3_2349_dd" x="11.425781" y="10.425781" width="48.071289" height="9.302246" filterUnits="userSpaceOnUse" color-interpolation-filters="sRGB">
			<feFlood flood-opacity="0" result="BackgroundImageFix"/>
			<feBlend mode="normal" in="SourceGraphic" in2="BackgroundImageFix" result="shape"/>
			<feGaussianBlur stdDeviation="0.627295" result="effect_layerBlur_1"/>
		</filter>
		<clipPath id="clip3_29">
			<rect id="终端设备/其他" width="64.000000" height="64.000000" fill="white" fill-opacity="0"/>
		</clipPath>
		<linearGradient x1="9.220019" y1="29.040344" x2="49.999908" y2="29.040344" id="paint_linear_3_2327_0" gradientUnits="userSpaceOnUse">
			<stop stop-color="#DBDBE3"/>
			<stop offset="0.245238" stop-color="#F8F8FC"/>
			<stop offset="1.000000" stop-color="#DADAE3"/>
		</linearGradient>
		<linearGradient x1="31.999950" y1="9.748274" x2="31.999950" y2="55.285011" id="paint_linear_3_2327_1" gradientUnits="userSpaceOnUse">
			<stop stop-color="#FFFFFF"/>
			<stop offset="0.210088" stop-color="#DBDBDB"/>
			<stop offset="0.799011" stop-color="#B0ABAB"/>
			<stop offset="1.000000" stop-color="#606060"/>
		</linearGradient>
		<radialGradient gradientTransform="translate(32.2231 49.6924) rotate(90) scale(1.4625 24.3732)" cx="0.000000" cy="0.000000" r="1.000000" id="paint_radial_3_2332_0" gradientUnits="userSpaceOnUse">
			<stop stop-color="#73757F"/>
			<stop offset="1.000000" stop-color="#000000" stop-opacity="0.000000"/>
		</radialGradient>
		<linearGradient x1="9.220019" y1="29.040344" x2="49.999908" y2="29.040344" id="paint_linear_3_2333_0" gradientUnits="userSpaceOnUse">
			<stop stop-color="#DBDBE3"/>
			<stop offset="0.245238" stop-color="#F8F8FC"/>
			<stop offset="1.000000" stop-color="#DADAE3"/>
		</linearGradient>
		<linearGradient x1="31.999950" y1="9.748274" x2="31.999950" y2="55.285011" id="paint_linear_3_2333_1" gradientUnits="userSpaceOnUse">
			<stop stop-color="#FFFFFF"/>
			<stop offset="0.210088" stop-color="#DBDBDB"/>
			<stop offset="0.799011" stop-color="#B0ABAB"/>
			<stop offset="1.000000" stop-color="#606060"/>
		</linearGradient>
		<linearGradient x1="29.872227" y1="59.291927" x2="29.872227" y2="14.800251" id="paint_linear_3_2338_0" gradientUnits="userSpaceOnUse">
			<stop stop-color="#C1C1C1"/>
			<stop offset="0.114895" stop-color="#DDDDDD"/>
			<stop offset="0.283591" stop-color="#EAE8E8"/>
			<stop offset="0.536561" stop-color="#F7F7F7"/>
			<stop offset="1.000000" stop-color="#FFFFFF"/>
		</linearGradient>
		<linearGradient x1="31.999952" y1="13.000000" x2="31.999952" y2="49.403408" id="paint_linear_3_2338_1" gradientUnits="userSpaceOnUse">
			<stop stop-color="#AAAAAA"/>
			<stop offset="0.695928" stop-color="#CBCBCB"/>
			<stop offset="1.000000" stop-color="#979797"/>
		</linearGradient>
		<linearGradient x1="4.153847" y1="22.172798" x2="0.000000" y2="22.172798" id="paint_linear_3_2343_0" gradientUnits="userSpaceOnUse">
			<stop stop-color="#D2D2D2" stop-opacity="0.000000"/>
			<stop offset="0.406974" stop-color="#C8C8C8" stop-opacity="0.423529"/>
			<stop offset="0.721600" stop-color="#D7D7D7" stop-opacity="0.800000"/>
			<stop offset="1.000000" stop-color="#E5E5E5" stop-opacity="0.000000"/>
		</linearGradient>
		<linearGradient x1="4.969005" y1="15.195960" x2="-2.230248" y2="15.195960" id="paint_linear_3_2344_0" gradientUnits="userSpaceOnUse">
			<stop stop-color="#FFFFFF"/>
			<stop offset="1.000000" stop-color="#A9A9A9"/>
		</linearGradient>
		<linearGradient x1="1.384615" y1="0.000000" x2="1.384615" y2="37.384617" id="paint_linear_3_2344_1" gradientUnits="userSpaceOnUse">
			<stop stop-color="#E2E2E2"/>
			<stop offset="1.000000" stop-color="#B7B6B6"/>
		</linearGradient>
		<linearGradient x1="43.183365" y1="27.983032" x2="38.006073" y2="14.823262" id="paint_linear_3_2345_0" gradientUnits="userSpaceOnUse">
			<stop stop-color="#E5E5E5"/>
			<stop offset="1.000000" stop-color="#FFFFFF"/>
		</linearGradient>
		<linearGradient x1="41.692215" y1="13.000000" x2="41.692215" y2="29.615385" id="paint_linear_3_2345_1" gradientUnits="userSpaceOnUse">
			<stop stop-color="#E2E2E2"/>
			<stop offset="1.000000" stop-color="#B7B6B6"/>
		</linearGradient>
		<linearGradient x1="41.692215" y1="11.615479" x2="41.692215" y2="28.230864" id="paint_linear_3_2346_0" gradientUnits="userSpaceOnUse">
			<stop stop-color="#E2E2E2"/>
			<stop offset="1.000000" stop-color="#B7B6B6"/>
		</linearGradient>
		<linearGradient x1="7.282543" y1="5.432224" x2="-1.509671" y2="5.432224" id="paint_linear_3_2347_0" gradientUnits="userSpaceOnUse">
			<stop stop-color="#F4F4F4"/>
			<stop offset="1.000000" stop-color="#AAA7A7"/>
		</linearGradient>
		<linearGradient x1="1.038462" y1="0.000000" x2="1.038462" y2="18.000000" id="paint_linear_3_2347_1" gradientUnits="userSpaceOnUse">
			<stop stop-color="#E2E2E2"/>
			<stop offset="1.000000" stop-color="#B7B6B6"/>
		</linearGradient>
		<linearGradient x1="16.076773" y1="31.018988" x2="12.615234" y2="31.018988" id="paint_linear_3_2348_0" gradientUnits="userSpaceOnUse">
			<stop stop-color="#D2D2D2" stop-opacity="0.000000"/>
			<stop offset="0.406974" stop-color="#C8C8C8" stop-opacity="0.423529"/>
			<stop offset="0.721600" stop-color="#D7D7D7" stop-opacity="0.800000"/>
			<stop offset="1.000000" stop-color="#E5E5E5" stop-opacity="0.000000"/>
		</linearGradient>
		<linearGradient x1="60.384464" y1="34.480415" x2="57.615234" y2="34.480415" id="paint_linear_3_2349_0" gradientUnits="userSpaceOnUse">
			<stop stop-color="#D2D2D2" stop-opacity="0.000000"/>
			<stop offset="0.406974" stop-color="#C8C8C8" stop-opacity="0.423529"/>
			<stop offset="0.721600" stop-color="#D7D7D7" stop-opacity="0.800000"/>
			<stop offset="1.000000" stop-color="#E5E5E5" stop-opacity="0.000000"/>
		</linearGradient>
	</defs>
	<rect id="终端设备/其他" width="64.000000" height="64.000000" fill="#000000" fill-opacity="0"/>
	<g clip-path="url(#clip3_29)">
		<g opacity="0.000000">
			<rect id="矩形" x="8.000000" y="8.000000" width="48.000000" height="48.000000" fill="#D8D8D8" fill-opacity="1.000000"/>
			<rect id="矩形" x="8.500000" y="8.500000" width="47.000000" height="47.000000" stroke="#979797" stroke-opacity="0" stroke-width="1.000000"/>
		</g>
		<g filter="url(#filter_3_2327_dd)">
			<mask id="mask_3_2327" fill="white">
				<path id="形状结合" d="M27.8462 13L16.7693 13C15.2397 13 14 14.2397 14 15.7693L14 26.8462C14 28.3755 15.2397 29.6155 16.7693 29.6155L27.8462 29.6155C29.3755 29.6155 30.6155 28.3755 30.6155 26.8462L30.6155 15.7693C30.6155 14.2397 29.3755 13 27.8462 13ZM41.6921 29.6155C46.2764 29.6155 50 25.8918 50 21.3076C50 16.7236 46.2764 13 41.6921 13C37.1082 13 33.3845 16.7236 33.3845 21.3076C33.3845 25.8918 37.1082 29.6155 41.6921 29.6155ZM16.7693 32.3845L27.8462 32.3845C29.3755 32.3845 30.6155 33.6245 30.6155 35.1538L30.6155 46.2307C30.6155 47.7603 29.3755 49 27.8462 49L16.7693 49C15.2397 49 14 47.7603 14 46.2307L14 35.1538C14 33.6245 15.2397 32.3845 16.7693 32.3845ZM47.2307 32.3845L36.1538 32.3845C34.6243 32.3845 33.3845 33.6245 33.3845 35.1538L33.3845 46.2307C33.3845 47.7603 34.6243 49 36.1538 49L47.2307 49C48.76 49 50 47.7603 50 46.2307L50 35.1538C50 33.6245 48.76 32.3845 47.2307 32.3845Z" clip-rule="evenodd" fill="" fill-opacity="1.000000" fill-rule="evenodd"/>
			</mask>
			<path id="形状结合" d="M27.8462 13L16.7693 13C15.2397 13 14 14.2397 14 15.7693L14 26.8462C14 28.3755 15.2397 29.6155 16.7693 29.6155L27.8462 29.6155C29.3755 29.6155 30.6155 28.3755 30.6155 26.8462L30.6155 15.7693C30.6155 14.2397 29.3755 13 27.8462 13ZM41.6921 29.6155C46.2764 29.6155 50 25.8918 50 21.3076C50 16.7236 46.2764 13 41.6921 13C37.1082 13 33.3845 16.7236 33.3845 21.3076C33.3845 25.8918 37.1082 29.6155 41.6921 29.6155ZM16.7693 32.3845L27.8462 32.3845C29.3755 32.3845 30.6155 33.6245 30.6155 35.1538L30.6155 46.2307C30.6155 47.7603 29.3755 49 27.8462 49L16.7693 49C15.2397 49 14 47.7603 14 46.2307L14 35.1538C14 33.6245 15.2397 32.3845 16.7693 32.3845ZM47.2307 32.3845L36.1538 32.3845C34.6243 32.3845 33.3845 33.6245 33.3845 35.1538L33.3845 46.2307C33.3845 47.7603 34.6243 49 36.1538 49L47.2307 49C48.76 49 50 47.7603 50 46.2307L50 35.1538C50 33.6245 48.76 32.3845 47.2307 32.3845Z" clip-rule="evenodd" fill="url(#paint_linear_3_2327_0)" fill-opacity="1.000000" fill-rule="evenodd" mask="url(#mask_3_2327)"/>
			<path id="形状结合" d="M28.5929 12.388Q28.2284 12.3076 27.8462 12.3076L16.7693 12.3076Q16.3871 12.3076 16.0225 12.388Q15.7158 12.4556 15.4216 12.5801Q15.1265 12.7049 14.8635 12.8784Q14.5729 13.0702 14.3215 13.3215Q14.0702 13.5729 13.8784 13.8635Q13.7049 14.1265 13.5801 14.4216Q13.4556 14.7158 13.388 15.0225Q13.3076 15.3871 13.3076 15.7693L13.3076 26.8462Q13.3076 27.2284 13.388 27.5929Q13.4556 27.8997 13.5801 28.1938Q13.7049 28.489 13.8784 28.7519Q14.0702 29.0426 14.3215 29.2939Q14.5729 29.5453 14.8635 29.7371Q15.1265 29.9106 15.4216 30.0354Q15.7152 30.1595 16.0213 30.2271Q16.3864 30.3076 16.7693 30.3076L27.8462 30.3076Q28.2291 30.3076 28.5942 30.2271Q28.9003 30.1595 29.1938 30.0354Q29.489 29.9106 29.7519 29.7371Q30.0426 29.5453 30.2939 29.2939Q30.5453 29.0426 30.7371 28.7519Q30.9106 28.489 31.0354 28.1938Q31.1595 27.9003 31.2271 27.5942Q31.3076 27.2291 31.3076 26.8462L31.3076 15.7693Q31.3076 15.3864 31.2271 15.0213Q31.1595 14.7152 31.0354 14.4216Q30.9106 14.1265 30.7371 13.8635Q30.5453 13.5729 30.2939 13.3215Q30.0426 13.0702 29.7519 12.8784Q29.489 12.7049 29.1938 12.5801Q28.8997 12.4556 28.5929 12.388ZM39.7481 30.098Q40.697 30.3076 41.6921 30.3076Q42.6859 30.3076 43.6335 30.0986Q44.4301 29.9228 45.1941 29.5994Q45.9497 29.2795 46.6246 28.8365Q47.3918 28.3329 48.0547 27.6702Q48.7174 27.0073 49.221 26.24Q49.664 25.5652 49.9839 24.8096Q50.3073 24.0456 50.4831 23.249Q50.6921 22.3014 50.6921 21.3076Q50.6921 20.3125 50.4825 19.3636Q50.3068 18.5685 49.9839 17.8059Q49.6629 17.0476 49.2181 16.3708Q48.7155 15.6061 48.0547 14.9453Q47.3923 14.283 46.6256 13.7796Q45.9503 13.3361 45.1941 13.0159Q44.4301 12.6924 43.6335 12.5167Q42.6859 12.3076 41.6921 12.3076Q40.697 12.3076 39.7481 12.5173Q38.953 12.693 38.1904 13.0159Q37.4316 13.3372 36.7543 13.7825Q35.9902 14.285 35.3298 14.9453Q34.6695 15.6056 34.167 16.3698Q33.7217 17.0471 33.4004 17.8059Q33.0775 18.5685 32.9018 19.3636Q32.6921 20.3125 32.6921 21.3076Q32.6921 22.3014 32.9012 23.249Q33.0769 24.0456 33.4004 24.8096Q33.7206 25.5658 34.1641 26.241Q34.6675 27.0077 35.3298 27.6702Q35.9906 28.3309 36.7553 28.8335Q37.4322 29.2784 38.1904 29.5994Q38.953 29.9223 39.7481 30.098ZM16.7693 13L27.8462 13C29.3755 13 30.6155 14.2397 30.6155 15.7693L30.6155 26.8462C30.6155 28.3755 29.3755 29.6155 27.8462 29.6155L16.7693 29.6155C15.2397 29.6155 14 28.3755 14 26.8462L14 15.7693C14 14.2397 15.2397 13 16.7693 13ZM50 21.3076C50 25.8918 46.2764 29.6155 41.6921 29.6155C37.1082 29.6155 33.3845 25.8918 33.3845 21.3076C33.3845 16.7236 37.1082 13 41.6921 13C46.2764 13 50 16.7236 50 21.3076ZM27.8462 31.6924L16.7693 31.6924Q16.3864 31.6924 16.0213 31.7729Q15.7152 31.8405 15.4216 31.9646Q15.1265 32.0894 14.8635 32.2629Q14.5729 32.4547 14.3215 32.7061Q14.0702 32.9574 13.8784 33.2481Q13.7049 33.511 13.5801 33.8062Q13.4556 34.1003 13.388 34.4071Q13.3076 34.7716 13.3076 35.1538L13.3076 46.2307Q13.3076 46.6129 13.388 46.9775Q13.4556 47.2842 13.5801 47.5784Q13.7049 47.8735 13.8784 48.1365Q14.0702 48.4271 14.3215 48.6785Q14.5729 48.9298 14.8635 49.1216Q15.1265 49.2951 15.4216 49.4199Q15.7158 49.5444 16.0225 49.612Q16.3871 49.6924 16.7693 49.6924L27.8462 49.6924Q28.2284 49.6924 28.5929 49.612Q28.8997 49.5444 29.1938 49.4199Q29.489 49.2951 29.7519 49.1216Q30.0426 48.9298 30.2939 48.6785Q30.5453 48.4271 30.7371 48.1365Q30.9106 47.8735 31.0354 47.5784Q31.1595 47.2848 31.2271 46.9787Q31.3076 46.6136 31.3076 46.2307L31.3076 35.1538Q31.3076 34.7709 31.2271 34.4058Q31.1595 34.0997 31.0354 33.8062Q30.9106 33.511 30.7371 33.2481Q30.5453 32.9574 30.2939 32.7061Q30.0426 32.4547 29.7519 32.2629Q29.489 32.0894 29.1938 31.9646Q28.9003 31.8405 28.5942 31.7729Q28.2291 31.6924 27.8462 31.6924ZM47.9787 31.7729Q47.6136 31.6924 47.2307 31.6924L36.1538 31.6924Q35.7709 31.6924 35.4058 31.7729Q35.0997 31.8405 34.8062 31.9646Q34.511 32.0894 34.2481 32.2629Q33.9574 32.4547 33.7061 32.7061Q33.4547 32.9574 33.2629 33.2481Q33.0894 33.511 32.9646 33.8062Q32.8401 34.1003 32.7725 34.4071Q32.6921 34.7716 32.6921 35.1538L32.6921 46.2307Q32.6921 46.6129 32.7725 46.9775Q32.8401 47.2842 32.9646 47.5784Q33.0894 47.8735 33.2629 48.1365Q33.4547 48.4271 33.7061 48.6785Q33.9574 48.9298 34.2481 49.1216Q34.511 49.2951 34.8062 49.4199Q35.1003 49.5444 35.4071 49.612Q35.7716 49.6924 36.1538 49.6924L47.2307 49.6924Q47.6129 49.6924 47.9775 49.612Q48.2842 49.5444 48.5784 49.4199Q48.8735 49.2951 49.1365 49.1216Q49.4271 48.9298 49.6785 48.6785Q49.9298 48.4271 50.1216 48.1365Q50.2951 47.8735 50.4199 47.5784Q50.5441 47.2848 50.6116 46.9787Q50.6921 46.6136 50.6921 46.2307L50.6921 35.1538Q50.6921 34.7709 50.6116 34.4058Q50.5441 34.0997 50.4199 33.8062Q50.2943 33.5094 50.1196 33.2452Q49.9284 32.9562 49.6785 32.7061Q49.4271 32.4547 49.1365 32.2629Q48.8735 32.0894 48.5784 31.9646Q48.2848 31.8405 47.9787 31.7729ZM27.8462 32.3845L16.7693 32.3845C15.2397 32.3845 14 33.6245 14 35.1538L14 46.2307C14 47.7603 15.2397 49 16.7693 49L27.8462 49C29.3755 49 30.6155 47.7603 30.6155 46.2307L30.6155 35.1538C30.6155 33.6245 29.3755 32.3845 27.8462 32.3845ZM36.1538 32.3845L47.2307 32.3845C48.76 32.3845 50 33.6245 50 35.1538L50 46.2307C50 47.7603 48.76 49 47.2307 49L36.1538 49C34.6243 49 33.3845 47.7603 33.3845 46.2307L33.3845 35.1538C33.3845 33.6245 34.6243 32.3845 36.1538 32.3845Z" clip-rule="evenodd" fill="url(#paint_linear_3_2327_1)" fill-opacity="1.000000" fill-rule="evenodd"/>
		</g>
		<g opacity="0.782734" filter="url(#filter_3_2332_dd)">
			<ellipse id="椭圆形" cx="30.588623" cy="50.846191" rx="19.411764" ry="1.153846" fill="url(#paint_radial_3_2332_0)" fill-opacity="1.000000"/>
			<ellipse id="椭圆形" cx="30.588623" cy="50.846191" rx="18.911764" ry="0.653846" stroke="#979797" stroke-opacity="0" stroke-width="1.000000"/>
		</g>
		<mask id="mask_3_2333" fill="white">
			<path id="形状结合" d="M27.8462 13L16.7693 13C15.2397 13 14 14.2397 14 15.7693L14 26.8462C14 28.3755 15.2397 29.6155 16.7693 29.6155L27.8462 29.6155C29.3755 29.6155 30.6155 28.3755 30.6155 26.8462L30.6155 15.7693C30.6155 14.2397 29.3755 13 27.8462 13ZM41.6921 29.6155C46.2764 29.6155 50 25.8918 50 21.3076C50 16.7236 46.2764 13 41.6921 13C37.1082 13 33.3845 16.7236 33.3845 21.3076C33.3845 25.8918 37.1082 29.6155 41.6921 29.6155ZM16.7693 32.3845L27.8462 32.3845C29.3755 32.3845 30.6155 33.6245 30.6155 35.1538L30.6155 46.2307C30.6155 47.7603 29.3755 49 27.8462 49L16.7693 49C15.2397 49 14 47.7603 14 46.2307L14 35.1538C14 33.6245 15.2397 32.3845 16.7693 32.3845ZM47.2307 32.3845L36.1538 32.3845C34.6243 32.3845 33.3845 33.6245 33.3845 35.1538L33.3845 46.2307C33.3845 47.7603 34.6243 49 36.1538 49L47.2307 49C48.76 49 50 47.7603 50 46.2307L50 35.1538C50 33.6245 48.76 32.3845 47.2307 32.3845Z" clip-rule="evenodd" fill="" fill-opacity="1.000000" fill-rule="evenodd"/>
		</mask>
		<path id="形状结合" d="M27.8462 13L16.7693 13C15.2397 13 14 14.2397 14 15.7693L14 26.8462C14 28.3755 15.2397 29.6155 16.7693 29.6155L27.8462 29.6155C29.3755 29.6155 30.6155 28.3755 30.6155 26.8462L30.6155 15.7693C30.6155 14.2397 29.3755 13 27.8462 13ZM41.6921 29.6155C46.2764 29.6155 50 25.8918 50 21.3076C50 16.7236 46.2764 13 41.6921 13C37.1082 13 33.3845 16.7236 33.3845 21.3076C33.3845 25.8918 37.1082 29.6155 41.6921 29.6155ZM16.7693 32.3845L27.8462 32.3845C29.3755 32.3845 30.6155 33.6245 30.6155 35.1538L30.6155 46.2307C30.6155 47.7603 29.3755 49 27.8462 49L16.7693 49C15.2397 49 14 47.7603 14 46.2307L14 35.1538C14 33.6245 15.2397 32.3845 16.7693 32.3845ZM47.2307 32.3845L36.1538 32.3845C34.6243 32.3845 33.3845 33.6245 33.3845 35.1538L33.3845 46.2307C33.3845 47.7603 34.6243 49 36.1538 49L47.2307 49C48.76 49 50 47.7603 50 46.2307L50 35.1538C50 33.6245 48.76 32.3845 47.2307 32.3845Z" clip-rule="evenodd" fill="url(#paint_linear_3_2333_0)" fill-opacity="1.000000" fill-rule="evenodd" mask="url(#mask_3_2333)"/>
		<path id="形状结合" d="M28.5929 12.388Q28.2284 12.3076 27.8462 12.3076L16.7693 12.3076Q16.3871 12.3076 16.0225 12.388Q15.7158 12.4556 15.4216 12.5801Q15.1265 12.7049 14.8635 12.8784Q14.5729 13.0702 14.3215 13.3215Q14.0702 13.5729 13.8784 13.8635Q13.7049 14.1265 13.5801 14.4216Q13.4556 14.7158 13.388 15.0225Q13.3076 15.3871 13.3076 15.7693L13.3076 26.8462Q13.3076 27.2284 13.388 27.5929Q13.4556 27.8997 13.5801 28.1938Q13.7049 28.489 13.8784 28.7519Q14.0702 29.0426 14.3215 29.2939Q14.5729 29.5453 14.8635 29.7371Q15.1265 29.9106 15.4216 30.0354Q15.7152 30.1595 16.0213 30.2271Q16.3864 30.3076 16.7693 30.3076L27.8462 30.3076Q28.2291 30.3076 28.5942 30.2271Q28.9003 30.1595 29.1938 30.0354Q29.489 29.9106 29.7519 29.7371Q30.0426 29.5453 30.2939 29.2939Q30.5453 29.0426 30.7371 28.7519Q30.9106 28.489 31.0354 28.1938Q31.1595 27.9003 31.2271 27.5942Q31.3076 27.2291 31.3076 26.8462L31.3076 15.7693Q31.3076 15.3864 31.2271 15.0213Q31.1595 14.7152 31.0354 14.4216Q30.9106 14.1265 30.7371 13.8635Q30.5453 13.5729 30.2939 13.3215Q30.0426 13.0702 29.7519 12.8784Q29.489 12.7049 29.1938 12.5801Q28.8997 12.4556 28.5929 12.388ZM39.7481 30.098Q40.697 30.3076 41.6921 30.3076Q42.6859 30.3076 43.6335 30.0986Q44.4301 29.9228 45.1941 29.5994Q45.9497 29.2795 46.6246 28.8365Q47.3918 28.3329 48.0547 27.6702Q48.7174 27.0073 49.221 26.24Q49.664 25.5652 49.9839 24.8096Q50.3073 24.0456 50.4831 23.249Q50.6921 22.3014 50.6921 21.3076Q50.6921 20.3125 50.4825 19.3636Q50.3068 18.5685 49.9839 17.8059Q49.6629 17.0476 49.2181 16.3708Q48.7155 15.6061 48.0547 14.9453Q47.3923 14.283 46.6256 13.7796Q45.9503 13.3361 45.1941 13.0159Q44.4301 12.6924 43.6335 12.5167Q42.6859 12.3076 41.6921 12.3076Q40.697 12.3076 39.7481 12.5173Q38.953 12.693 38.1904 13.0159Q37.4316 13.3372 36.7543 13.7825Q35.9902 14.285 35.3298 14.9453Q34.6695 15.6056 34.167 16.3698Q33.7217 17.0471 33.4004 17.8059Q33.0775 18.5685 32.9018 19.3636Q32.6921 20.3125 32.6921 21.3076Q32.6921 22.3014 32.9012 23.249Q33.0769 24.0456 33.4004 24.8096Q33.7206 25.5658 34.1641 26.241Q34.6675 27.0077 35.3298 27.6702Q35.9906 28.3309 36.7553 28.8335Q37.4322 29.2784 38.1904 29.5994Q38.953 29.9223 39.7481 30.098ZM16.7693 13L27.8462 13C29.3755 13 30.6155 14.2397 30.6155 15.7693L30.6155 26.8462C30.6155 28.3755 29.3755 29.6155 27.8462 29.6155L16.7693 29.6155C15.2397 29.6155 14 28.3755 14 26.8462L14 15.7693C14 14.2397 15.2397 13 16.7693 13ZM50 21.3076C50 25.8918 46.2764 29.6155 41.6921 29.6155C37.1082 29.6155 33.3845 25.8918 33.3845 21.3076C33.3845 16.7236 37.1082 13 41.6921 13C46.2764 13 50 16.7236 50 21.3076ZM27.8462 31.6924L16.7693 31.6924Q16.3864 31.6924 16.0213 31.7729Q15.7152 31.8405 15.4216 31.9646Q15.1265 32.0894 14.8635 32.2629Q14.5729 32.4547 14.3215 32.7061Q14.0702 32.9574 13.8784 33.2481Q13.7049 33.511 13.5801 33.8062Q13.4556 34.1003 13.388 34.4071Q13.3076 34.7716 13.3076 35.1538L13.3076 46.2307Q13.3076 46.6129 13.388 46.9775Q13.4556 47.2842 13.5801 47.5784Q13.7049 47.8735 13.8784 48.1365Q14.0702 48.4271 14.3215 48.6785Q14.5729 48.9298 14.8635 49.1216Q15.1265 49.2951 15.4216 49.4199Q15.7158 49.5444 16.0225 49.612Q16.3871 49.6924 16.7693 49.6924L27.8462 49.6924Q28.2284 49.6924 28.5929 49.612Q28.8997 49.5444 29.1938 49.4199Q29.489 49.2951 29.7519 49.1216Q30.0426 48.9298 30.2939 48.6785Q30.5453 48.4271 30.7371 48.1365Q30.9106 47.8735 31.0354 47.5784Q31.1595 47.2848 31.2271 46.9787Q31.3076 46.6136 31.3076 46.2307L31.3076 35.1538Q31.3076 34.7709 31.2271 34.4058Q31.1595 34.0997 31.0354 33.8062Q30.9106 33.511 30.7371 33.2481Q30.5453 32.9574 30.2939 32.7061Q30.0426 32.4547 29.7519 32.2629Q29.489 32.0894 29.1938 31.9646Q28.9003 31.8405 28.5942 31.7729Q28.2291 31.6924 27.8462 31.6924ZM47.9787 31.7729Q47.6136 31.6924 47.2307 31.6924L36.1538 31.6924Q35.7709 31.6924 35.4058 31.7729Q35.0997 31.8405 34.8062 31.9646Q34.511 32.0894 34.2481 32.2629Q33.9574 32.4547 33.7061 32.7061Q33.4547 32.9574 33.2629 33.2481Q33.0894 33.511 32.9646 33.8062Q32.8401 34.1003 32.7725 34.4071Q32.6921 34.7716 32.6921 35.1538L32.6921 46.2307Q32.6921 46.6129 32.7725 46.9775Q32.8401 47.2842 32.9646 47.5784Q33.0894 47.8735 33.2629 48.1365Q33.4547 48.4271 33.7061 48.6785Q33.9574 48.9298 34.2481 49.1216Q34.511 49.2951 34.8062 49.4199Q35.1003 49.5444 35.4071 49.612Q35.7716 49.6924 36.1538 49.6924L47.2307 49.6924Q47.6129 49.6924 47.9775 49.612Q48.2842 49.5444 48.5784 49.4199Q48.8735 49.2951 49.1365 49.1216Q49.4271 48.9298 49.6785 48.6785Q49.9298 48.4271 50.1216 48.1365Q50.2951 47.8735 50.4199 47.5784Q50.5441 47.2848 50.6116 46.9787Q50.6921 46.6136 50.6921 46.2307L50.6921 35.1538Q50.6921 34.7709 50.6116 34.4058Q50.5441 34.0997 50.4199 33.8062Q50.2943 33.5094 50.1196 33.2452Q49.9284 32.9562 49.6785 32.7061Q49.4271 32.4547 49.1365 32.2629Q48.8735 32.0894 48.5784 31.9646Q48.2848 31.8405 47.9787 31.7729ZM27.8462 32.3845L16.7693 32.3845C15.2397 32.3845 14 33.6245 14 35.1538L14 46.2307C14 47.7603 15.2397 49 16.7693 49L27.8462 49C29.3755 49 30.6155 47.7603 30.6155 46.2307L30.6155 35.1538C30.6155 33.6245 29.3755 32.3845 27.8462 32.3845ZM36.1538 32.3845L47.2307 32.3845C48.76 32.3845 50 33.6245 50 35.1538L50 46.2307C50 47.7603 48.76 49 47.2307 49L36.1538 49C34.6243 49 33.3845 47.7603 33.3845 46.2307L33.3845 35.1538C33.3845 33.6245 34.6243 32.3845 36.1538 32.3845Z" clip-rule="evenodd" fill="url(#paint_linear_3_2333_1)" fill-opacity="1.000000" fill-rule="evenodd"/>
		<mask id="mask3_2338" mask-type="alpha" maskUnits="userSpaceOnUse" x="14.000000" y="13.000000" width="36.000000" height="36.000000">
			<mask id="mask_3_2338" fill="white">
				<path id="形状结合" d="M27.8462 13L16.7693 13C15.2397 13 14 14.2397 14 15.7693L14 26.8462C14 28.3755 15.2397 29.6155 16.7693 29.6155L27.8462 29.6155C29.3755 29.6155 30.6155 28.3755 30.6155 26.8462L30.6155 15.7693C30.6155 14.2397 29.3755 13 27.8462 13ZM41.6921 29.6155C46.2764 29.6155 50 25.8918 50 21.3076C50 16.7236 46.2764 13 41.6921 13C37.1082 13 33.3845 16.7236 33.3845 21.3076C33.3845 25.8918 37.1082 29.6155 41.6921 29.6155ZM16.7693 32.3845L27.8462 32.3845C29.3755 32.3845 30.6155 33.6245 30.6155 35.1538L30.6155 46.2307C30.6155 47.7603 29.3755 49 27.8462 49L16.7693 49C15.2397 49 14 47.7603 14 46.2307L14 35.1538C14 33.6245 15.2397 32.3845 16.7693 32.3845ZM47.2307 32.3845L36.1538 32.3845C34.6243 32.3845 33.3845 33.6245 33.3845 35.1538L33.3845 46.2307C33.3845 47.7603 34.6243 49 36.1538 49L47.2307 49C48.76 49 50 47.7603 50 46.2307L50 35.1538C50 33.6245 48.76 32.3845 47.2307 32.3845Z" clip-rule="evenodd" fill="" fill-opacity="1.000000" fill-rule="evenodd"/>
			</mask>
			<path id="形状结合" d="M27.8462 13L16.7693 13C15.2397 13 14 14.2397 14 15.7693L14 26.8462C14 28.3755 15.2397 29.6155 16.7693 29.6155L27.8462 29.6155C29.3755 29.6155 30.6155 28.3755 30.6155 26.8462L30.6155 15.7693C30.6155 14.2397 29.3755 13 27.8462 13ZM41.6921 29.6155C46.2764 29.6155 50 25.8918 50 21.3076C50 16.7236 46.2764 13 41.6921 13C37.1082 13 33.3845 16.7236 33.3845 21.3076C33.3845 25.8918 37.1082 29.6155 41.6921 29.6155ZM16.7693 32.3845L27.8462 32.3845C29.3755 32.3845 30.6155 33.6245 30.6155 35.1538L30.6155 46.2307C30.6155 47.7603 29.3755 49 27.8462 49L16.7693 49C15.2397 49 14 47.7603 14 46.2307L14 35.1538C14 33.6245 15.2397 32.3845 16.7693 32.3845ZM47.2307 32.3845L36.1538 32.3845C34.6243 32.3845 33.3845 33.6245 33.3845 35.1538L33.3845 46.2307C33.3845 47.7603 34.6243 49 36.1538 49L47.2307 49C48.76 49 50 47.7603 50 46.2307L50 35.1538C50 33.6245 48.76 32.3845 47.2307 32.3845Z" clip-rule="evenodd" fill="url(#paint_linear_3_2338_0)" fill-opacity="1.000000" fill-rule="evenodd" mask="url(#mask_3_2338)"/>
			<path id="形状结合" d="M28.5545 12.5765Q28.2088 12.5 27.8462 12.5L16.7693 12.5Q16.4066 12.5 16.0609 12.5765Q15.7729 12.6402 15.4966 12.7571Q15.2167 12.8755 14.9674 13.0403Q14.694 13.221 14.4575 13.4575Q14.221 13.694 14.0403 13.9674Q13.8755 14.2167 13.7571 14.4966Q13.6402 14.7729 13.5765 15.0609Q13.5 15.4066 13.5 15.7693L13.5 26.8462Q13.5 27.2088 13.5765 27.5545Q13.6402 27.8426 13.7571 28.1189Q13.8744 28.3961 14.0373 28.6434Q14.219 28.9194 14.4575 29.158Q14.6945 29.3949 14.9685 29.5758Q15.2173 29.7401 15.4966 29.8582Q15.7735 29.9754 16.0622 30.0392Q16.4073 30.1155 16.7693 30.1155L27.8462 30.1155Q28.2082 30.1155 28.5533 30.0392Q28.842 29.9754 29.1189 29.8582Q29.3956 29.7412 29.6424 29.5788Q29.9189 29.3969 30.158 29.158Q30.3969 28.9189 30.5788 28.6424Q30.7412 28.3956 30.8582 28.1189Q30.9754 27.842 31.0392 27.5533Q31.1155 27.2082 31.1155 26.8462L31.1155 15.7693Q31.1155 15.4073 31.0392 15.0622Q30.9754 14.7735 30.8582 14.4966Q30.7401 14.2173 30.5758 13.9685Q30.3949 13.6945 30.158 13.4575Q29.9194 13.219 29.6434 13.0373Q29.3961 12.8744 29.1189 12.7571Q28.8426 12.6402 28.5545 12.5765ZM39.7878 29.9099Q40.7172 30.1155 41.6921 30.1155Q42.6656 30.1155 43.5939 29.9105Q44.3724 29.7385 45.1191 29.4224Q45.8579 29.1096 46.5178 28.6767Q47.2694 28.1835 47.9187 27.5342Q48.568 26.8849 49.0612 26.1332Q49.4942 25.4734 49.8069 24.7346Q50.1231 23.9879 50.295 23.2094Q50.5 22.2811 50.5 21.3076Q50.5 20.3327 50.2944 19.4033Q50.1225 18.6262 49.8069 17.8809Q49.4942 17.1421 49.0612 16.4822Q48.568 15.7306 47.9187 15.0813Q47.2694 14.432 46.5178 13.9388Q45.8579 13.5058 45.1191 13.1931Q44.3724 12.8769 43.5939 12.705Q42.6656 12.5 41.6921 12.5Q40.7172 12.5 39.7878 12.7056Q39.0107 12.8775 38.2654 13.1931Q37.5266 13.5058 36.8668 13.9388Q36.1151 14.432 35.4658 15.0813Q34.8165 15.7306 34.3233 16.4822Q33.8904 17.1421 33.5776 17.8809Q33.262 18.6262 33.0901 19.4033Q32.8845 20.3327 32.8845 21.3076Q32.8845 22.2811 33.0895 23.2094Q33.2615 23.9879 33.5776 24.7346Q33.8904 25.4734 34.3233 26.1332Q34.8165 26.8849 35.4658 27.5342Q36.1151 28.1835 36.8668 28.6767Q37.5266 29.1096 38.2654 29.4224Q39.0107 29.738 39.7878 29.9099ZM16.7693 13L27.8462 13C29.3755 13 30.6155 14.2397 30.6155 15.7693L30.6155 26.8462C30.6155 28.3755 29.3755 29.6155 27.8462 29.6155L16.7693 29.6155C15.2397 29.6155 14 28.3755 14 26.8462L14 15.7693C14 14.2397 15.2397 13 16.7693 13ZM50 21.3076C50 25.8918 46.2764 29.6155 41.6921 29.6155C37.1082 29.6155 33.3845 25.8918 33.3845 21.3076C33.3845 16.7236 37.1082 13 41.6921 13C46.2764 13 50 16.7236 50 21.3076ZM27.8462 31.8845L16.7693 31.8845Q16.4073 31.8845 16.0622 31.9608Q15.7735 32.0246 15.4966 32.1418Q15.2173 32.2599 14.9685 32.4242Q14.6945 32.6051 14.4575 32.842Q14.219 33.0806 14.0373 33.3566Q13.8744 33.6039 13.7571 33.8811Q13.6402 34.1574 13.5765 34.4455Q13.5 34.7912 13.5 35.1538L13.5 46.2307Q13.5 46.5934 13.5765 46.9391Q13.6402 47.2271 13.7571 47.5034Q13.8755 47.7833 14.0403 48.0326Q14.221 48.306 14.4575 48.5425Q14.694 48.779 14.9674 48.9597Q15.2167 49.1245 15.4966 49.2429Q15.7729 49.3598 16.0609 49.4235Q16.4066 49.5 16.7693 49.5L27.8462 49.5Q28.2088 49.5 28.5545 49.4235Q28.8426 49.3598 29.1189 49.2429Q29.3961 49.1256 29.6434 48.9627Q29.9194 48.7809 30.158 48.5425Q30.3949 48.3055 30.5758 48.0315Q30.7401 47.7827 30.8582 47.5034Q30.9754 47.2265 31.0392 46.9378Q31.1155 46.5927 31.1155 46.2307L31.1155 35.1538Q31.1155 34.7918 31.0392 34.4467Q30.9754 34.158 30.8582 33.8811Q30.7412 33.6044 30.5788 33.3576Q30.3969 33.0811 30.158 32.842Q29.9189 32.6031 29.6424 32.4212Q29.3956 32.2588 29.1189 32.1418Q28.842 32.0246 28.5533 31.9608Q28.2082 31.8845 27.8462 31.8845ZM47.9378 31.9608Q47.5927 31.8845 47.2307 31.8845L36.1538 31.8845Q35.7918 31.8845 35.4467 31.9608Q35.158 32.0246 34.8811 32.1418Q34.6018 32.2599 34.353 32.4242Q34.079 32.6051 33.842 32.842Q33.6036 33.0806 33.4218 33.3566Q33.2589 33.6039 33.1416 33.8811Q33.0248 34.1574 32.961 34.4455Q32.8845 34.7912 32.8845 35.1538L32.8845 46.2307Q32.8845 46.5934 32.961 46.9391Q33.0248 47.2271 33.1416 47.5034Q33.26 47.7833 33.4248 48.0326Q33.6055 48.306 33.842 48.5425Q34.0786 48.779 34.352 48.9597Q34.6012 49.1245 34.8811 49.2429Q35.1574 49.3598 35.4455 49.4235Q35.7912 49.5 36.1538 49.5L47.2307 49.5Q47.5934 49.5 47.9391 49.4235Q48.2271 49.3598 48.5034 49.2429Q48.7807 49.1256 49.0279 48.9627Q49.3039 48.7809 49.5425 48.5425Q49.7794 48.3055 49.9603 48.0315Q50.1246 47.7827 50.2427 47.5034Q50.3599 47.2265 50.4237 46.9378Q50.5 46.5927 50.5 46.2307L50.5 35.1538Q50.5 34.7918 50.4237 34.4467Q50.3599 34.158 50.2427 33.8811Q50.1257 33.6044 49.9633 33.3576Q49.7814 33.0811 49.5425 32.842Q49.3034 32.6031 49.0269 32.4212Q48.7801 32.2588 48.5034 32.1418Q48.2265 32.0246 47.9378 31.9608ZM27.8462 32.3845L16.7693 32.3845C15.2397 32.3845 14 33.6245 14 35.1538L14 46.2307C14 47.7603 15.2397 49 16.7693 49L27.8462 49C29.3755 49 30.6155 47.7603 30.6155 46.2307L30.6155 35.1538C30.6155 33.6245 29.3755 32.3845 27.8462 32.3845ZM36.1538 32.3845L47.2307 32.3845C48.76 32.3845 50 33.6245 50 35.1538L50 46.2307C50 47.7603 48.76 49 47.2307 49L36.1538 49C34.6243 49 33.3845 47.7603 33.3845 46.2307L33.3845 35.1538C33.3845 33.6245 34.6243 32.3845 36.1538 32.3845Z" clip-rule="evenodd" fill="url(#paint_linear_3_2338_1)" fill-opacity="1.000000" fill-rule="evenodd"/>
		</mask>
		<mask id="mask_3_2338" fill="white">
			<path id="形状结合" d="M27.8462 13L16.7693 13C15.2397 13 14 14.2397 14 15.7693L14 26.8462C14 28.3755 15.2397 29.6155 16.7693 29.6155L27.8462 29.6155C29.3755 29.6155 30.6155 28.3755 30.6155 26.8462L30.6155 15.7693C30.6155 14.2397 29.3755 13 27.8462 13ZM41.6921 29.6155C46.2764 29.6155 50 25.8918 50 21.3076C50 16.7236 46.2764 13 41.6921 13C37.1082 13 33.3845 16.7236 33.3845 21.3076C33.3845 25.8918 37.1082 29.6155 41.6921 29.6155ZM16.7693 32.3845L27.8462 32.3845C29.3755 32.3845 30.6155 33.6245 30.6155 35.1538L30.6155 46.2307C30.6155 47.7603 29.3755 49 27.8462 49L16.7693 49C15.2397 49 14 47.7603 14 46.2307L14 35.1538C14 33.6245 15.2397 32.3845 16.7693 32.3845ZM47.2307 32.3845L36.1538 32.3845C34.6243 32.3845 33.3845 33.6245 33.3845 35.1538L33.3845 46.2307C33.3845 47.7603 34.6243 49 36.1538 49L47.2307 49C48.76 49 50 47.7603 50 46.2307L50 35.1538C50 33.6245 48.76 32.3845 47.2307 32.3845Z" clip-rule="evenodd" fill="" fill-opacity="1.000000" fill-rule="evenodd"/>
		</mask>
		<path id="形状结合" d="M27.8462 13L16.7693 13C15.2397 13 14 14.2397 14 15.7693L14 26.8462C14 28.3755 15.2397 29.6155 16.7693 29.6155L27.8462 29.6155C29.3755 29.6155 30.6155 28.3755 30.6155 26.8462L30.6155 15.7693C30.6155 14.2397 29.3755 13 27.8462 13ZM41.6921 29.6155C46.2764 29.6155 50 25.8918 50 21.3076C50 16.7236 46.2764 13 41.6921 13C37.1082 13 33.3845 16.7236 33.3845 21.3076C33.3845 25.8918 37.1082 29.6155 41.6921 29.6155ZM16.7693 32.3845L27.8462 32.3845C29.3755 32.3845 30.6155 33.6245 30.6155 35.1538L30.6155 46.2307C30.6155 47.7603 29.3755 49 27.8462 49L16.7693 49C15.2397 49 14 47.7603 14 46.2307L14 35.1538C14 33.6245 15.2397 32.3845 16.7693 32.3845ZM47.2307 32.3845L36.1538 32.3845C34.6243 32.3845 33.3845 33.6245 33.3845 35.1538L33.3845 46.2307C33.3845 47.7603 34.6243 49 36.1538 49L47.2307 49C48.76 49 50 47.7603 50 46.2307L50 35.1538C50 33.6245 48.76 32.3845 47.2307 32.3845Z" clip-rule="evenodd" fill="url(#paint_linear_3_2338_0)" fill-opacity="1.000000" fill-rule="evenodd" mask="url(#mask_3_2338)"/>
		<path id="形状结合" d="M28.5545 12.5765Q28.2088 12.5 27.8462 12.5L16.7693 12.5Q16.4066 12.5 16.0609 12.5765Q15.7729 12.6402 15.4966 12.7571Q15.2167 12.8755 14.9674 13.0403Q14.694 13.221 14.4575 13.4575Q14.221 13.694 14.0403 13.9674Q13.8755 14.2167 13.7571 14.4966Q13.6402 14.7729 13.5765 15.0609Q13.5 15.4066 13.5 15.7693L13.5 26.8462Q13.5 27.2088 13.5765 27.5545Q13.6402 27.8426 13.7571 28.1189Q13.8744 28.3961 14.0373 28.6434Q14.219 28.9194 14.4575 29.158Q14.6945 29.3949 14.9685 29.5758Q15.2173 29.7401 15.4966 29.8582Q15.7735 29.9754 16.0622 30.0392Q16.4073 30.1155 16.7693 30.1155L27.8462 30.1155Q28.2082 30.1155 28.5533 30.0392Q28.842 29.9754 29.1189 29.8582Q29.3956 29.7412 29.6424 29.5788Q29.9189 29.3969 30.158 29.158Q30.3969 28.9189 30.5788 28.6424Q30.7412 28.3956 30.8582 28.1189Q30.9754 27.842 31.0392 27.5533Q31.1155 27.2082 31.1155 26.8462L31.1155 15.7693Q31.1155 15.4073 31.0392 15.0622Q30.9754 14.7735 30.8582 14.4966Q30.7401 14.2173 30.5758 13.9685Q30.3949 13.6945 30.158 13.4575Q29.9194 13.219 29.6434 13.0373Q29.3961 12.8744 29.1189 12.7571Q28.8426 12.6402 28.5545 12.5765ZM39.7878 29.9099Q40.7172 30.1155 41.6921 30.1155Q42.6656 30.1155 43.5939 29.9105Q44.3724 29.7385 45.1191 29.4224Q45.8579 29.1096 46.5178 28.6767Q47.2694 28.1835 47.9187 27.5342Q48.568 26.8849 49.0612 26.1332Q49.4942 25.4734 49.8069 24.7346Q50.1231 23.9879 50.295 23.2094Q50.5 22.2811 50.5 21.3076Q50.5 20.3327 50.2944 19.4033Q50.1225 18.6262 49.8069 17.8809Q49.4942 17.1421 49.0612 16.4822Q48.568 15.7306 47.9187 15.0813Q47.2694 14.432 46.5178 13.9388Q45.8579 13.5058 45.1191 13.1931Q44.3724 12.8769 43.5939 12.705Q42.6656 12.5 41.6921 12.5Q40.7172 12.5 39.7878 12.7056Q39.0107 12.8775 38.2654 13.1931Q37.5266 13.5058 36.8668 13.9388Q36.1151 14.432 35.4658 15.0813Q34.8165 15.7306 34.3233 16.4822Q33.8904 17.1421 33.5776 17.8809Q33.262 18.6262 33.0901 19.4033Q32.8845 20.3327 32.8845 21.3076Q32.8845 22.2811 33.0895 23.2094Q33.2615 23.9879 33.5776 24.7346Q33.8904 25.4734 34.3233 26.1332Q34.8165 26.8849 35.4658 27.5342Q36.1151 28.1835 36.8668 28.6767Q37.5266 29.1096 38.2654 29.4224Q39.0107 29.738 39.7878 29.9099ZM16.7693 13L27.8462 13C29.3755 13 30.6155 14.2397 30.6155 15.7693L30.6155 26.8462C30.6155 28.3755 29.3755 29.6155 27.8462 29.6155L16.7693 29.6155C15.2397 29.6155 14 28.3755 14 26.8462L14 15.7693C14 14.2397 15.2397 13 16.7693 13ZM50 21.3076C50 25.8918 46.2764 29.6155 41.6921 29.6155C37.1082 29.6155 33.3845 25.8918 33.3845 21.3076C33.3845 16.7236 37.1082 13 41.6921 13C46.2764 13 50 16.7236 50 21.3076ZM27.8462 31.8845L16.7693 31.8845Q16.4073 31.8845 16.0622 31.9608Q15.7735 32.0246 15.4966 32.1418Q15.2173 32.2599 14.9685 32.4242Q14.6945 32.6051 14.4575 32.842Q14.219 33.0806 14.0373 33.3566Q13.8744 33.6039 13.7571 33.8811Q13.6402 34.1574 13.5765 34.4455Q13.5 34.7912 13.5 35.1538L13.5 46.2307Q13.5 46.5934 13.5765 46.9391Q13.6402 47.2271 13.7571 47.5034Q13.8755 47.7833 14.0403 48.0326Q14.221 48.306 14.4575 48.5425Q14.694 48.779 14.9674 48.9597Q15.2167 49.1245 15.4966 49.2429Q15.7729 49.3598 16.0609 49.4235Q16.4066 49.5 16.7693 49.5L27.8462 49.5Q28.2088 49.5 28.5545 49.4235Q28.8426 49.3598 29.1189 49.2429Q29.3961 49.1256 29.6434 48.9627Q29.9194 48.7809 30.158 48.5425Q30.3949 48.3055 30.5758 48.0315Q30.7401 47.7827 30.8582 47.5034Q30.9754 47.2265 31.0392 46.9378Q31.1155 46.5927 31.1155 46.2307L31.1155 35.1538Q31.1155 34.7918 31.0392 34.4467Q30.9754 34.158 30.8582 33.8811Q30.7412 33.6044 30.5788 33.3576Q30.3969 33.0811 30.158 32.842Q29.9189 32.6031 29.6424 32.4212Q29.3956 32.2588 29.1189 32.1418Q28.842 32.0246 28.5533 31.9608Q28.2082 31.8845 27.8462 31.8845ZM47.9378 31.9608Q47.5927 31.8845 47.2307 31.8845L36.1538 31.8845Q35.7918 31.8845 35.4467 31.9608Q35.158 32.0246 34.8811 32.1418Q34.6018 32.2599 34.353 32.4242Q34.079 32.6051 33.842 32.842Q33.6036 33.0806 33.4218 33.3566Q33.2589 33.6039 33.1416 33.8811Q33.0248 34.1574 32.961 34.4455Q32.8845 34.7912 32.8845 35.1538L32.8845 46.2307Q32.8845 46.5934 32.961 46.9391Q33.0248 47.2271 33.1416 47.5034Q33.26 47.7833 33.4248 48.0326Q33.6055 48.306 33.842 48.5425Q34.0786 48.779 34.352 48.9597Q34.6012 49.1245 34.8811 49.2429Q35.1574 49.3598 35.4455 49.4235Q35.7912 49.5 36.1538 49.5L47.2307 49.5Q47.5934 49.5 47.9391 49.4235Q48.2271 49.3598 48.5034 49.2429Q48.7807 49.1256 49.0279 48.9627Q49.3039 48.7809 49.5425 48.5425Q49.7794 48.3055 49.9603 48.0315Q50.1246 47.7827 50.2427 47.5034Q50.3599 47.2265 50.4237 46.9378Q50.5 46.5927 50.5 46.2307L50.5 35.1538Q50.5 34.7918 50.4237 34.4467Q50.3599 34.158 50.2427 33.8811Q50.1257 33.6044 49.9633 33.3576Q49.7814 33.0811 49.5425 32.842Q49.3034 32.6031 49.0269 32.4212Q48.7801 32.2588 48.5034 32.1418Q48.2265 32.0246 47.9378 31.9608ZM27.8462 32.3845L16.7693 32.3845C15.2397 32.3845 14 33.6245 14 35.1538L14 46.2307C14 47.7603 15.2397 49 16.7693 49L27.8462 49C29.3755 49 30.6155 47.7603 30.6155 46.2307L30.6155 35.1538C30.6155 33.6245 29.3755 32.3845 27.8462 32.3845ZM36.1538 32.3845L47.2307 32.3845C48.76 32.3845 50 33.6245 50 35.1538L50 46.2307C50 47.7603 48.76 49 47.2307 49L36.1538 49C34.6243 49 33.3845 47.7603 33.3845 46.2307L33.3845 35.1538C33.3845 33.6245 34.6243 32.3845 36.1538 32.3845Z" clip-rule="evenodd" fill="url(#paint_linear_3_2338_1)" fill-opacity="1.000000" fill-rule="evenodd"/>
		<g mask="url(#mask3_2338)">
			<g opacity="0.346722" filter="url(#filter_3_2343_dd)">
				<path id="矩形备份" d="M50 8.84L43.07 8.84L43.07 53.15L50 53.15C50.76 53.15 51.38 52.53 51.38 51.76L51.38 10.23C51.38 9.46 50.76 8.84 50 8.84Z" fill="url(#paint_linear_3_2343_0)" fill-opacity="1.000000" fill-rule="evenodd"/>
				<path id="矩形备份" d="M43.07 8.84L43.07 53.15L50 53.15C50.76 53.15 51.38 52.53 51.38 51.76L51.38 10.23C51.38 9.46 50.76 8.84 50 8.84L43.07 8.84ZM44.07 9.84L44.07 52.15L50 52.15C50.21 52.15 50.38 51.98 50.38 51.76L50.38 10.23C50.38 10.01 50.21 9.84 50 9.84L44.07 9.84Z" fill="#979797" fill-opacity="0" fill-rule="evenodd"/>
			</g>
		</g>
		<g mask="url(#mask3_2338)">
			<path id="矩形备份" d="M50.69 48.3L50.69 46.92L13.3 46.92L13.3 48.3C13.3 49.07 13.92 49.69 14.69 49.69L49.3 49.69C50.07 49.69 50.69 49.07 50.69 48.3Z" fill="url(#paint_linear_3_2344_0)" fill-opacity="1.000000" fill-rule="evenodd"/>
			<path id="矩形备份" d="M50.69 46.92L13.3 46.92L13.3 48.3C13.3 49.07 13.92 49.69 14.69 49.69L49.3 49.69C50.07 49.69 50.69 49.07 50.69 48.3L50.69 46.92ZM49.69 47.92L14.3 47.92L14.3 48.3C14.3 48.52 14.48 48.69 14.69 48.69L49.3 48.69C49.52 48.69 49.69 48.52 49.69 48.3L49.69 47.92Z" fill="url(#paint_linear_3_2344_1)" fill-opacity="0" fill-rule="evenodd"/>
		</g>
		<g mask="url(#mask3_2338)">
			<circle id="椭圆形" cx="41.692139" cy="21.307617" r="8.307693" fill="url(#paint_linear_3_2345_0)" fill-opacity="1.000000"/>
			<circle id="椭圆形" cx="41.692139" cy="21.307617" r="7.807693" stroke="url(#paint_linear_3_2345_1)" stroke-opacity="0" stroke-width="1.000000"/>
		</g>
		<g mask="url(#mask3_2338)">
			<circle id="椭圆形" cx="41.692139" cy="19.923096" r="8.307693" fill="#FFFFFF" fill-opacity="1.000000"/>
			<circle id="椭圆形" cx="41.692139" cy="19.923096" r="7.807693" stroke="url(#paint_linear_3_2346_0)" stroke-opacity="0" stroke-width="1.000000"/>
		</g>
		<g mask="url(#mask3_2338)">
			<g opacity="0.319826">
				<path id="矩形备份" d="M31.3 28.92L31.3 28.23L13.3 28.23L13.3 28.92C13.3 29.68 13.92 30.3 14.69 30.3L29.92 30.3C30.68 30.3 31.3 29.68 31.3 28.92Z" fill="url(#paint_linear_3_2347_0)" fill-opacity="1.000000" fill-rule="evenodd"/>
				<path id="矩形备份" d="M31.3 28.23L13.3 28.23L13.3 28.92C13.3 29.68 13.92 30.3 14.69 30.3L29.92 30.3C30.68 30.3 31.3 29.68 31.3 28.92L31.3 28.23ZM14.3 29.23C14.3 29.27 14.34 29.3 14.38 29.3L30.23 29.3C30.27 29.3 30.3 29.27 30.3 29.23L14.3 29.23Z" fill="url(#paint_linear_3_2347_1)" fill-opacity="0" fill-rule="evenodd"/>
			</g>
		</g>
		<g mask="url(#mask3_2338)">
			<g opacity="0.346722" filter="url(#filter_3_2348_dd)">
				<path id="矩形备份 2" d="M13.99 8.84L19.53 8.84L19.53 53.15L13.99 53.15C13.23 53.15 12.61 52.53 12.61 51.76L12.61 10.23C12.61 9.46 13.23 8.84 13.99 8.84Z" fill="url(#paint_linear_3_2348_0)" fill-opacity="1.000000" fill-rule="evenodd"/>
				<path id="矩形备份 2" d="M19.53 8.84L19.53 53.15L13.99 53.15C13.23 53.15 12.61 52.53 12.61 51.76L12.61 10.23C12.61 9.46 13.23 8.84 13.99 8.84L19.53 8.84ZM18.53 9.84L18.53 52.15L13.99 52.15C13.78 52.15 13.61 51.98 13.61 51.76L13.61 10.23C13.61 10.01 13.78 9.84 13.99 9.84L18.53 9.84Z" fill="#979797" fill-opacity="0" fill-rule="evenodd"/>
			</g>
		</g>
		<g mask="url(#mask3_2338)">
			<g opacity="0.346722" filter="url(#filter_3_2349_dd)">
				<path id="矩形备份 2" d="M57.61 13.69L57.61 17.84L13.3 17.84L13.3 13.69C13.3 12.92 13.92 12.3 14.69 12.3L56.23 12.3C56.99 12.3 57.61 12.92 57.61 13.69Z" fill="url(#paint_linear_3_2349_0)" fill-opacity="1.000000" fill-rule="evenodd"/>
				<path id="矩形备份 2" d="M57.61 17.84L13.3 17.84L13.3 13.69C13.3 12.92 13.92 12.3 14.69 12.3L56.23 12.3C56.99 12.3 57.61 12.92 57.61 13.69L57.61 17.84ZM56.61 16.84L14.3 16.84L14.3 13.69C14.3 13.47 14.47 13.3 14.69 13.3L56.23 13.3C56.44 13.3 56.61 13.47 56.61 13.69L56.61 16.84Z" fill="#979797" fill-opacity="0" fill-rule="evenodd"/>
			</g>
		</g>
	</g>
</svg>
