<svg width="64.000000" height="64.000000" viewBox="0 0 64 64" fill="none" xmlns="http://www.w3.org/2000/svg" xmlns:xlink="http://www.w3.org/1999/xlink">
	<desc>
			Created with Pixso.
	</desc>
	<defs>
		<filter id="filter_3_1979_dd" x="-13.625000" y="-10.625000" width="91.250000" height="83.250977" filterUnits="userSpaceOnUse" color-interpolation-filters="sRGB">
			<feFlood flood-opacity="0" result="BackgroundImageFix"/>
			<feColorMatrix in="SourceAlpha" type="matrix" values="0 0 0 0 0 0 0 0 0 0 0 0 0 0 0 0 0 0 127 0" result="hardAlpha"/>
			<feOffset dx="0" dy="0"/>
			<feGaussianBlur stdDeviation="7.78333"/>
			<feComposite in2="hardAlpha" operator="out" k2="-1" k3="1"/>
			<feColorMatrix type="matrix" values="0 0 0 0 0.9451 0 0 0 0 0.19216 0 0 0 0 0.27451 0 0 0 1 0"/>
			<feBlend mode="normal" in2="BackgroundImageFix" result="effect_dropShadow_1"/>
			<feBlend mode="normal" in="SourceGraphic" in2="effect_dropShadow_1" result="shape"/>
		</filter>
		<filter id="filter_3_1982_dd" x="5.281738" y="45.281738" width="53.436523" height="8.436523" filterUnits="userSpaceOnUse" color-interpolation-filters="sRGB">
			<feFlood flood-opacity="0" result="BackgroundImageFix"/>
			<feBlend mode="normal" in="SourceGraphic" in2="BackgroundImageFix" result="shape"/>
			<feGaussianBlur stdDeviation="0.906093" result="effect_layerBlur_1"/>
		</filter>
		<filter id="filter_3_1987_dd" x="41.823975" y="4.544189" width="18.676025" height="38.901611" filterUnits="userSpaceOnUse" color-interpolation-filters="sRGB">
			<feFlood flood-opacity="0" result="BackgroundImageFix"/>
			<feBlend mode="normal" in="SourceGraphic" in2="BackgroundImageFix" result="shape"/>
			<feGaussianBlur stdDeviation="0.498351" result="effect_layerBlur_1"/>
		</filter>
		<filter id="filter_3_1988_dd" x="4.627197" y="5.579102" width="20.878662" height="39.074707" filterUnits="userSpaceOnUse" color-interpolation-filters="sRGB">
			<feFlood flood-opacity="0" result="BackgroundImageFix"/>
			<feBlend mode="normal" in="SourceGraphic" in2="BackgroundImageFix" result="shape"/>
			<feGaussianBlur stdDeviation="0.498351" result="effect_layerBlur_1"/>
		</filter>
		<filter id="filter_3_2000_dd" x="42.852539" y="28.959473" width="12.642822" height="21.535645" filterUnits="userSpaceOnUse" color-interpolation-filters="sRGB">
			<feFlood flood-opacity="0" result="BackgroundImageFix"/>
			<feBlend mode="normal" in="SourceGraphic" in2="BackgroundImageFix" result="shape"/>
			<feGaussianBlur stdDeviation="0.498351" result="effect_layerBlur_1"/>
		</filter>
		<filter id="filter_3_2001_dd" x="8.504883" y="28.959473" width="12.642822" height="21.535645" filterUnits="userSpaceOnUse" color-interpolation-filters="sRGB">
			<feFlood flood-opacity="0" result="BackgroundImageFix"/>
			<feBlend mode="normal" in="SourceGraphic" in2="BackgroundImageFix" result="shape"/>
			<feGaussianBlur stdDeviation="0.498351" result="effect_layerBlur_1"/>
		</filter>
		<clipPath id="clip3_17">
			<rect id="终端设备/OTT" width="64.000000" height="64.000000" fill="white" fill-opacity="0"/>
		</clipPath>
		<linearGradient x1="31.146002" y1="-5.630724" x2="31.146002" y2="49.000931" id="paint_linear_3_1979_0" gradientUnits="userSpaceOnUse">
			<stop stop-color="#CFCFCF"/>
			<stop offset="1.000000" stop-color="#F6F6F6"/>
		</linearGradient>
		<linearGradient x1="32.000000" y1="11.133348" x2="32.000000" y2="49.000931" id="paint_linear_3_1979_1" gradientUnits="userSpaceOnUse">
			<stop stop-color="#CFCFCF"/>
			<stop offset="1.000000" stop-color="#AEAEAE"/>
		</linearGradient>
		<radialGradient gradientTransform="translate(32 49.5) rotate(90) scale(1.5 24.5217)" cx="0.000000" cy="0.000000" r="1.000000" id="paint_radial_3_1982_0" gradientUnits="userSpaceOnUse">
			<stop stop-color="#73757F"/>
			<stop offset="1.000000" stop-color="#000000" stop-opacity="0.000000"/>
		</radialGradient>
		<linearGradient x1="56.683964" y1="18.734104" x2="22.347895" y2="18.763058" id="paint_linear_3_1985_0" gradientUnits="userSpaceOnUse">
			<stop stop-color="#DCDCDC"/>
			<stop offset="0.340847" stop-color="#F7F7F7"/>
			<stop offset="1.000000" stop-color="#FFFFFF"/>
		</linearGradient>
		<linearGradient x1="32.025845" y1="13.000000" x2="32.025845" y2="33.994492" id="paint_linear_3_1985_1" gradientUnits="userSpaceOnUse">
			<stop stop-color="#E2E2E2"/>
			<stop offset="1.000000" stop-color="#B7B6B6"/>
		</linearGradient>
		<linearGradient x1="11.961678" y1="28.136414" x2="53.788231" y2="28.136414" id="paint_linear_3_1986_0" gradientUnits="userSpaceOnUse">
			<stop stop-color="#B7B7B7" stop-opacity="0.000000"/>
			<stop offset="0.484954" stop-color="#C5C5C5"/>
			<stop offset="1.000000" stop-color="#D8D8D8" stop-opacity="0.149020"/>
		</linearGradient>
		<linearGradient x1="51.252689" y1="23.923683" x2="56.150768" y2="23.060017" id="paint_linear_3_1987_0" gradientUnits="userSpaceOnUse">
			<stop stop-color="#7D7D7D" stop-opacity="0.000000"/>
			<stop offset="0.406974" stop-color="#9F9E9E" stop-opacity="0.423529"/>
			<stop offset="0.721600" stop-color="#929292" stop-opacity="0.800000"/>
			<stop offset="1.000000" stop-color="#CBCACA" stop-opacity="0.000000"/>
		</linearGradient>
		<linearGradient x1="19.325010" y1="24.328672" x2="14.343261" y2="24.328672" id="paint_linear_3_1988_0" gradientUnits="userSpaceOnUse">
			<stop stop-color="#D2D2D2" stop-opacity="0.000000"/>
			<stop offset="0.406974" stop-color="#C8C8C8" stop-opacity="0.423529"/>
			<stop offset="0.721600" stop-color="#D7D7D7" stop-opacity="0.800000"/>
			<stop offset="1.000000" stop-color="#E5E5E5" stop-opacity="0.000000"/>
		</linearGradient>
		<linearGradient x1="31.146002" y1="20.857193" x2="31.146002" y2="49.000042" id="paint_linear_3_1989_0" gradientUnits="userSpaceOnUse">
			<stop stop-color="#CFCFCF"/>
			<stop offset="1.000000" stop-color="#F6F6F6"/>
		</linearGradient>
		<linearGradient x1="32.000000" y1="29.493006" x2="32.000000" y2="49.000046" id="paint_linear_3_1989_1" gradientUnits="userSpaceOnUse">
			<stop stop-color="#CFCFCF"/>
			<stop offset="1.000000" stop-color="#AEAEAE"/>
		</linearGradient>
		<linearGradient x1="31.293533" y1="18.949669" x2="31.293533" y2="47.909046" id="paint_linear_3_1990_0" gradientUnits="userSpaceOnUse">
			<stop stop-color="#CFCFCF"/>
			<stop offset="1.000000" stop-color="#F6F6F6"/>
		</linearGradient>
		<linearGradient x1="32.104832" y1="30.696955" x2="32.104832" y2="47.909046" id="paint_linear_3_1990_1" gradientUnits="userSpaceOnUse">
			<stop stop-color="#C3C0C0"/>
			<stop offset="1.000000" stop-color="#B7B6B6"/>
		</linearGradient>
		<radialGradient gradientTransform="translate(29.7238 20.0438) rotate(180) scale(24.6231 24.6231)" cx="0.000000" cy="0.000000" r="1.000000" id="paint_radial_3_1991_0" gradientUnits="userSpaceOnUse">
			<stop stop-color="#FFFFFF" stop-opacity="0.901961"/>
			<stop offset="1.000000" stop-color="#FFFFFF" stop-opacity="0.000000"/>
		</radialGradient>
		<radialGradient gradientTransform="translate(47.0201 20.0438) rotate(180) scale(21.1055 21.1055)" cx="0.000000" cy="0.000000" r="1.000000" id="paint_radial_3_1994_0" gradientUnits="userSpaceOnUse">
			<stop stop-color="#FFFFFF" stop-opacity="0.901961"/>
			<stop offset="1.000000" stop-color="#FFFFFF" stop-opacity="0.000000"/>
		</radialGradient>
		<radialGradient gradientTransform="translate(38.2203 20.0438) rotate(180) scale(21.1055 21.1055)" cx="0.000000" cy="0.000000" r="1.000000" id="paint_radial_3_1997_0" gradientUnits="userSpaceOnUse">
			<stop stop-color="#FFFFFF" stop-opacity="0.901961"/>
			<stop offset="1.000000" stop-color="#FFFFFF" stop-opacity="0.000000"/>
		</radialGradient>
		<linearGradient x1="4.826250" y1="9.280660" x2="0.000000" y2="9.280660" id="paint_linear_3_2000_0" gradientUnits="userSpaceOnUse">
			<stop stop-color="#DBDBE3" stop-opacity="0.000000"/>
			<stop offset="0.406974" stop-color="#D6D6D7" stop-opacity="0.423529"/>
			<stop offset="0.721600" stop-color="#B4B4B4" stop-opacity="0.800000"/>
			<stop offset="1.000000" stop-color="#565656" stop-opacity="0.000000"/>
		</linearGradient>
		<linearGradient x1="14.826250" y1="39.735249" x2="10.000000" y2="39.735249" id="paint_linear_3_2001_0" gradientUnits="userSpaceOnUse">
			<stop stop-color="#DBDBE3" stop-opacity="0.000000"/>
			<stop offset="0.406974" stop-color="#C2C2C2" stop-opacity="0.423529"/>
			<stop offset="0.721600" stop-color="#F8F8FF" stop-opacity="0.800000"/>
			<stop offset="1.000000" stop-color="#8B8B8B" stop-opacity="0.000000"/>
		</linearGradient>
	</defs>
	<rect id="终端设备/OTT" width="64.000000" height="64.000000" fill="#000000" fill-opacity="0"/>
	<g clip-path="url(#clip3_17)">
		<g opacity="0.000000">
			<rect id="矩形" x="8.000000" y="8.000000" width="48.000000" height="48.000000" fill="#D8D8D8" fill-opacity="1.000000"/>
			<rect id="矩形" x="8.500000" y="8.500000" width="47.000000" height="47.000000" stroke="#979797" stroke-opacity="0" stroke-width="1.000000"/>
		</g>
		<g filter="url(#filter_3_1979_dd)">
			<mask id="mask_3_1979" fill="white">
				<path id="合并" d="M18.3672 13L46.6455 13C48.8047 13 50.6448 14.5669 50.989 16.6985L53.6399 33.1094C53.8716 33.6448 54 34.2351 54 34.8555L54 44.6008C54 47.031 52.03 49.001 49.6001 49.001L14.3999 49.001C11.97 49.001 10 47.031 10 44.6008L10 34.8555C10 34.1404 10.1707 33.4651 10.4731 32.8682L14.0691 16.4583C14.5115 14.439 16.3 13 18.3672 13Z" clip-rule="evenodd" fill="" fill-opacity="1.000000" fill-rule="evenodd"/>
			</mask>
			<path id="合并" d="M18.3672 13L46.6455 13C48.8047 13 50.6448 14.5669 50.989 16.6985L53.6399 33.1094C53.8716 33.6448 54 34.2351 54 34.8555L54 44.6008C54 47.031 52.03 49.001 49.6001 49.001L14.3999 49.001C11.97 49.001 10 47.031 10 44.6008L10 34.8555C10 34.1404 10.1707 33.4651 10.4731 32.8682L14.0691 16.4583C14.5115 14.439 16.3 13 18.3672 13Z" clip-rule="evenodd" fill="url(#paint_linear_3_1979_0)" fill-opacity="1.000000" fill-rule="evenodd" mask="url(#mask_3_1979)"/>
			<path id="合并" d="M18.3672 12.7251L46.6455 12.7251Q47.4932 12.7251 48.283 13.0205Q49.0505 13.3079 49.676 13.8403Q50.3018 14.373 50.7078 15.085Q51.1255 15.8176 51.2605 16.6545L53.9114 33.0657L53.6399 33.1094L53.8923 33.0002Q54.2749 33.8845 54.2749 34.8555L54.2749 44.6008Q54.2749 45.5518 53.9075 46.4207Q53.5527 47.2598 52.9058 47.9067Q52.2588 48.5535 51.4199 48.9084Q50.551 49.2759 49.6001 49.2759L14.3999 49.2759Q13.449 49.2759 12.5801 48.9084Q11.7412 48.5535 11.0942 47.9067Q10.4473 47.2598 10.0925 46.4207Q9.7251 45.5518 9.7251 44.6008L9.7251 34.8555Q9.7251 33.7358 10.228 32.7439L10.4731 32.8682L10.2046 32.8093L13.8005 16.3994Q13.9744 15.6057 14.4036 14.9202Q14.8215 14.2524 15.4365 13.7576Q16.0515 13.2627 16.7932 12.9976Q17.5547 12.7251 18.3672 12.7251ZM18.3672 13.2749Q17.6501 13.2749 16.9783 13.5154Q16.3242 13.7493 15.7812 14.186Q15.2385 14.6228 14.8699 15.2119Q14.4912 15.8167 14.3376 16.5171L10.7344 32.9614L10.7185 32.9927Q10.2749 33.8672 10.2749 34.8555L10.2749 44.6008Q10.2749 45.4404 10.5991 46.2065Q10.9121 46.9468 11.4832 47.5178Q12.0542 48.0889 12.7944 48.4019Q13.5605 48.7258 14.3999 48.7258L49.6001 48.7258Q50.4395 48.7258 51.2056 48.4019Q51.9458 48.0889 52.5168 47.5178Q53.0879 46.9468 53.4009 46.2065Q53.7251 45.4404 53.7251 44.6008L53.7251 34.8555Q53.7251 33.9983 53.3877 33.2188L53.374 33.1873L50.7175 16.7422Q50.5984 16.0037 50.23 15.3574Q49.8718 14.7295 49.3196 14.2593Q48.7673 13.7891 48.0903 13.5356Q47.3936 13.2749 46.6455 13.2749L18.3672 13.2749Z" fill="url(#paint_linear_3_1979_1)" fill-opacity="1.000000" fill-rule="nonzero"/>
		</g>
		<g filter="url(#filter_3_1982_dd)">
			<ellipse id="椭圆形" cx="32.000000" cy="49.500000" rx="24.000000" ry="1.500000" fill="url(#paint_radial_3_1982_0)" fill-opacity="1.000000"/>
			<ellipse id="椭圆形" cx="32.000000" cy="49.500000" rx="23.500000" ry="1.000000" stroke="#979797" stroke-opacity="0" stroke-width="1.000000"/>
		</g>
		<mask id="mask3_1985" mask-type="alpha" maskUnits="userSpaceOnUse" x="10.269287" y="13.000000" width="43.513184" height="20.994385">
			<path id="矩形" d="M18.36 13L46.64 13C48.8 13 50.64 14.56 50.98 16.69L53.78 33.99L10.26 33.79L14.06 16.45C14.51 14.43 16.29 13 18.36 13Z" fill="url(#paint_linear_3_1985_0)" fill-opacity="1.000000" fill-rule="evenodd"/>
			<path id="矩形" d="M46.64 13C48.8 13 50.64 14.56 50.98 16.69L53.78 33.99L10.26 33.79L14.06 16.45C14.51 14.43 16.29 13 18.36 13L46.64 13Z" stroke="url(#paint_linear_3_1985_1)" stroke-opacity="1.000000" stroke-width="0.500000"/>
		</mask>
		<path id="矩形" d="M18.36 13L46.64 13C48.8 13 50.64 14.56 50.98 16.69L53.78 33.99L10.26 33.79L14.06 16.45C14.51 14.43 16.29 13 18.36 13Z" fill="url(#paint_linear_3_1985_0)" fill-opacity="1.000000" fill-rule="evenodd"/>
		<path id="矩形" d="M46.64 13C48.8 13 50.64 14.56 50.98 16.69L53.78 33.99L10.26 33.79L14.06 16.45C14.51 14.43 16.29 13 18.36 13L46.64 13Z" stroke="url(#paint_linear_3_1985_1)" stroke-opacity="1.000000" stroke-width="0.500000"/>
		<g mask="url(#mask3_1985)">
			<g opacity="0.528442">
				<rect id="矩形" x="15.500244" y="28.136475" width="34.099998" height="1.090909" fill="url(#paint_linear_3_1986_0)" fill-opacity="1.000000"/>
				<rect id="矩形" x="16.000244" y="28.636475" width="33.099998" height="0.090909" stroke="#979797" stroke-opacity="0" stroke-width="1.000000"/>
			</g>
		</g>
		<g mask="url(#mask3_1985)">
			<g opacity="0.600000" filter="url(#filter_3_1987_dd)">
				<path id="矩形备份" d="M51.98 6.05L43.31 7.57L49.43 41.95L58.09 40.43C58.69 40.33 59.09 39.75 58.98 39.15L53.26 6.94C53.15 6.35 52.58 5.95 51.98 6.05Z" fill="url(#paint_linear_3_1987_0)" fill-opacity="1.000000" fill-rule="evenodd"/>
				<path id="矩形备份" d="" fill="#979797" fill-opacity="0" fill-rule="evenodd"/>
			</g>
		</g>
		<g mask="url(#mask3_1985)">
			<g opacity="0.600000" filter="url(#filter_3_1988_dd)">
				<path id="矩形备份" d="M15.41 7.1L24.01 9.25L15.55 43.15L6.95 41.01C6.36 40.86 6 40.27 6.15 39.68L14.07 7.9C14.22 7.31 14.82 6.96 15.41 7.1Z" fill="url(#paint_linear_3_1988_0)" fill-opacity="1.000000" fill-rule="evenodd"/>
				<path id="矩形备份" d="M24.01 9.25L15.55 43.15L6.95 41.01C6.36 40.86 6 40.27 6.15 39.68L14.07 7.9C14.22 7.31 14.82 6.96 15.41 7.1L24.01 9.25ZM22.79 9.97L14.82 41.94L7.19 40.04C7.14 40.03 7.11 39.97 7.12 39.92L15.04 8.15C15.06 8.09 15.11 8.06 15.16 8.07L22.79 9.97Z" fill="#979797" fill-opacity="0" fill-rule="evenodd"/>
			</g>
		</g>
		<rect id="矩形" x="10.000000" y="30.454590" rx="4.400000" width="44.000000" height="18.545454" fill="url(#paint_linear_3_1989_0)" fill-opacity="1.000000"/>
		<rect id="矩形" x="10.000000" y="30.454590" rx="4.400000" width="44.000000" height="18.545454" stroke="url(#paint_linear_3_1989_1)" stroke-opacity="1.000000" stroke-width="0.550000"/>
		<g opacity="0.365002">
			<rect id="矩形" x="11.204834" y="31.545410" rx="4.400000" width="41.799999" height="16.363636" fill="url(#paint_linear_3_1990_0)" fill-opacity="0"/>
			<rect id="矩形" x="11.204834" y="31.545410" rx="4.400000" width="41.799999" height="16.363636" stroke="url(#paint_linear_3_1990_1)" stroke-opacity="1.000000" stroke-width="0.500000"/>
		</g>
		<g opacity="0.823049">
			<mask id="mask_3_1991" fill="white">
				<path id="椭圆形备份 18" d="M27.6001 40.2727C27.6001 37.8628 25.8765 35.9092 23.7502 35.9092C21.6238 35.9092 19.9001 37.8628 19.9001 40.2727C19.9001 42.6829 21.6238 44.6365 23.7502 44.6365C25.8765 44.6365 27.6001 42.6829 27.6001 40.2727ZM21.6113 40.2727C21.6113 38.7559 22.6548 37.6545 23.7502 37.6545C24.8455 37.6545 25.8889 38.7559 25.8889 40.2727C25.8889 41.7896 24.8455 42.8911 23.7502 42.8911C22.6548 42.8911 21.6113 41.7896 21.6113 40.2727Z" clip-rule="evenodd" fill="" fill-opacity="1.000000" fill-rule="evenodd"/>
			</mask>
			<path id="椭圆形备份 18" d="M27.6001 40.2727C27.6001 37.8628 25.8765 35.9092 23.7502 35.9092C21.6238 35.9092 19.9001 37.8628 19.9001 40.2727C19.9001 42.6829 21.6238 44.6365 23.7502 44.6365C25.8765 44.6365 27.6001 42.6829 27.6001 40.2727ZM21.6113 40.2727C21.6113 38.7559 22.6548 37.6545 23.7502 37.6545C24.8455 37.6545 25.8889 38.7559 25.8889 40.2727C25.8889 41.7896 24.8455 42.8911 23.7502 42.8911C22.6548 42.8911 21.6113 41.7896 21.6113 40.2727Z" clip-rule="evenodd" fill="#191919" fill-opacity="1.000000" fill-rule="evenodd" mask="url(#mask_3_1991)"/>
			<path id="椭圆形备份 18" d="M27.6001 40.2727C27.6001 37.8628 25.8765 35.9092 23.7502 35.9092C21.6238 35.9092 19.9001 37.8628 19.9001 40.2727C19.9001 42.6829 21.6238 44.6365 23.7502 44.6365C25.8765 44.6365 27.6001 42.6829 27.6001 40.2727ZM21.6113 40.2727C21.6113 38.7559 22.6548 37.6545 23.7502 37.6545C24.8455 37.6545 25.8889 38.7559 25.8889 40.2727C25.8889 41.7896 24.8455 42.8911 23.7502 42.8911C22.6548 42.8911 21.6113 41.7896 21.6113 40.2727Z" clip-rule="evenodd" fill="url(#paint_radial_3_1991_0)" fill-opacity="1.000000" fill-rule="evenodd" mask="url(#mask_3_1991)"/>
			<path id="椭圆形备份 18" d="M27.3501 40.2727Q27.3501 39.4302 27.0635 38.6616Q26.7874 37.9219 26.2852 37.3525Q25.7859 36.7869 25.1406 36.4775Q24.4766 36.1592 23.7502 36.1592Q23.0237 36.1592 22.3596 36.4775Q21.7146 36.7869 21.2153 37.3525Q20.7129 37.9219 20.437 38.6616Q20.1501 39.4302 20.1501 40.2727Q20.1501 41.1155 20.437 41.884Q20.7129 42.6238 21.2153 43.1929Q21.7146 43.7588 22.3596 44.0681Q23.0237 44.3865 23.7502 44.3865Q24.4766 44.3865 25.1406 44.0681Q25.7859 43.7588 26.2852 43.1929Q26.7874 42.6238 27.0635 41.884Q27.3501 41.1155 27.3501 40.2727ZM27.8501 40.2727Q27.8501 41.2058 27.5317 42.0588Q27.2234 42.8853 26.6599 43.5237Q26.0935 44.1658 25.3569 44.519Q24.5903 44.8865 23.7502 44.8865Q22.9102 44.8865 22.1436 44.519Q21.4067 44.1658 20.8403 43.5237Q20.2769 42.8853 19.9685 42.0588Q19.6501 41.2058 19.6501 40.2727Q19.6501 39.3398 19.9685 38.4868Q20.2769 37.6604 20.8403 37.022Q21.4067 36.3799 22.1436 36.0266Q22.9102 35.6592 23.7502 35.6592Q24.5903 35.6592 25.3567 36.0266Q26.0935 36.3799 26.6599 37.022Q27.2234 37.6604 27.5317 38.4868Q27.8501 39.3398 27.8501 40.2727ZM21.3613 40.2727Q21.3613 39.676 21.5564 39.1384Q21.7419 38.6274 22.0801 38.2324Q22.4131 37.843 22.8413 37.6272Q23.2827 37.4045 23.7502 37.4045Q24.2175 37.4045 24.6589 37.6272Q25.0872 37.843 25.4204 38.2324Q25.7583 38.6274 25.9438 39.1384Q26.1389 39.676 26.1389 40.2727Q26.1389 40.8696 25.9438 41.4072Q25.7583 41.9182 25.4204 42.3132Q25.0872 42.7026 24.6589 42.9185Q24.2175 43.1411 23.7502 43.1411Q23.2827 43.1411 22.8413 42.9185Q22.4131 42.7026 22.0801 42.3132Q21.7419 41.9182 21.5564 41.4072Q21.3613 40.8696 21.3613 40.2727ZM21.8613 40.2727Q21.8613 40.7817 22.0264 41.2366Q22.1809 41.6621 22.46 41.9883Q22.7278 42.3013 23.0664 42.4719Q23.4016 42.6411 23.7502 42.6411Q24.0986 42.6411 24.4338 42.4719Q24.7725 42.3013 25.0403 41.9883Q25.3193 41.6621 25.4739 41.2366Q25.6389 40.7817 25.6389 40.2727Q25.6389 39.7639 25.4739 39.3091Q25.3193 38.8833 25.0403 38.5574Q24.7725 38.2444 24.4338 38.0737Q24.0986 37.9045 23.7502 37.9045Q23.4016 37.9045 23.0664 38.0737Q22.7278 38.2444 22.46 38.5574Q22.1809 38.8833 22.0264 39.3091Q21.8613 39.7639 21.8613 40.2727Z" fill="#2C2C2C" fill-opacity="1.000000" fill-rule="nonzero"/>
			<path id="椭圆形备份 18" d="M27.3501 40.2727Q27.3501 39.4302 27.0635 38.6616Q26.7874 37.9219 26.2852 37.3525Q25.7859 36.7869 25.1406 36.4775Q24.4766 36.1592 23.7502 36.1592Q23.0237 36.1592 22.3596 36.4775Q21.7146 36.7869 21.2153 37.3525Q20.7129 37.9219 20.437 38.6616Q20.1501 39.4302 20.1501 40.2727Q20.1501 41.1155 20.437 41.884Q20.7129 42.6238 21.2153 43.1929Q21.7146 43.7588 22.3596 44.0681Q23.0237 44.3865 23.7502 44.3865Q24.4766 44.3865 25.1406 44.0681Q25.7859 43.7588 26.2852 43.1929Q26.7874 42.6238 27.0635 41.884Q27.3501 41.1155 27.3501 40.2727ZM27.8501 40.2727Q27.8501 41.2058 27.5317 42.0588Q27.2234 42.8853 26.6599 43.5237Q26.0935 44.1658 25.3569 44.519Q24.5903 44.8865 23.7502 44.8865Q22.9102 44.8865 22.1436 44.519Q21.4067 44.1658 20.8403 43.5237Q20.2769 42.8853 19.9685 42.0588Q19.6501 41.2058 19.6501 40.2727Q19.6501 39.3398 19.9685 38.4868Q20.2769 37.6604 20.8403 37.022Q21.4067 36.3799 22.1436 36.0266Q22.9102 35.6592 23.7502 35.6592Q24.5903 35.6592 25.3567 36.0266Q26.0935 36.3799 26.6599 37.022Q27.2234 37.6604 27.5317 38.4868Q27.8501 39.3398 27.8501 40.2727ZM21.3613 40.2727Q21.3613 39.676 21.5564 39.1384Q21.7419 38.6274 22.0801 38.2324Q22.4131 37.843 22.8413 37.6272Q23.2827 37.4045 23.7502 37.4045Q24.2175 37.4045 24.6589 37.6272Q25.0872 37.843 25.4204 38.2324Q25.7583 38.6274 25.9438 39.1384Q26.1389 39.676 26.1389 40.2727Q26.1389 40.8696 25.9438 41.4072Q25.7583 41.9182 25.4204 42.3132Q25.0872 42.7026 24.6589 42.9185Q24.2175 43.1411 23.7502 43.1411Q23.2827 43.1411 22.8413 42.9185Q22.4131 42.7026 22.0801 42.3132Q21.7419 41.9182 21.5564 41.4072Q21.3613 40.8696 21.3613 40.2727ZM21.8613 40.2727Q21.8613 40.7817 22.0264 41.2366Q22.1809 41.6621 22.46 41.9883Q22.7278 42.3013 23.0664 42.4719Q23.4016 42.6411 23.7502 42.6411Q24.0986 42.6411 24.4338 42.4719Q24.7725 42.3013 25.0403 41.9883Q25.3193 41.6621 25.4739 41.2366Q25.6389 40.7817 25.6389 40.2727Q25.6389 39.7639 25.4739 39.3091Q25.3193 38.8833 25.0403 38.5574Q24.7725 38.2444 24.4338 38.0737Q24.0986 37.9045 23.7502 37.9045Q23.4016 37.9045 23.0664 38.0737Q22.7278 38.2444 22.46 38.5574Q22.1809 38.8833 22.0264 39.3091Q21.8613 39.7639 21.8613 40.2727Z" fill="#191919" fill-opacity="0.000000" fill-rule="nonzero"/>
		</g>
		<g opacity="0.823049">
			<mask id="mask_3_1994" fill="white">
				<path id="形状结合备份 109" d="M44.1089 35.9092L39.6907 35.9092C39.0884 35.9092 38.5999 36.3977 38.5999 37C38.5999 37.6025 39.0884 38.0911 39.6907 38.0911L40.7998 38.0911L40.7998 43.5364C40.7998 44.144 41.2922 44.6365 41.8999 44.6365C42.5073 44.6365 42.9998 44.144 42.9998 43.5364L42.9998 38.0911L44.1089 38.0911C44.7114 38.0911 45.2 37.6025 45.2 37C45.2 36.3977 44.7114 35.9092 44.1089 35.9092Z" clip-rule="evenodd" fill="" fill-opacity="1.000000" fill-rule="evenodd"/>
			</mask>
			<path id="形状结合备份 109" d="M44.1089 35.9092L39.6907 35.9092C39.0884 35.9092 38.5999 36.3977 38.5999 37C38.5999 37.6025 39.0884 38.0911 39.6907 38.0911L40.7998 38.0911L40.7998 43.5364C40.7998 44.144 41.2922 44.6365 41.8999 44.6365C42.5073 44.6365 42.9998 44.144 42.9998 43.5364L42.9998 38.0911L44.1089 38.0911C44.7114 38.0911 45.2 37.6025 45.2 37C45.2 36.3977 44.7114 35.9092 44.1089 35.9092Z" clip-rule="evenodd" fill="#191919" fill-opacity="1.000000" fill-rule="evenodd" mask="url(#mask_3_1994)"/>
			<path id="形状结合备份 109" d="M44.1089 35.9092L39.6907 35.9092C39.0884 35.9092 38.5999 36.3977 38.5999 37C38.5999 37.6025 39.0884 38.0911 39.6907 38.0911L40.7998 38.0911L40.7998 43.5364C40.7998 44.144 41.2922 44.6365 41.8999 44.6365C42.5073 44.6365 42.9998 44.144 42.9998 43.5364L42.9998 38.0911L44.1089 38.0911C44.7114 38.0911 45.2 37.6025 45.2 37C45.2 36.3977 44.7114 35.9092 44.1089 35.9092Z" clip-rule="evenodd" fill="url(#paint_radial_3_1994_0)" fill-opacity="1.000000" fill-rule="evenodd" mask="url(#mask_3_1994)"/>
			<path id="形状结合备份 109" d="M43.4998 38.0911L44.1089 38.0911C44.7114 38.0911 45.2 37.6025 45.2 37C45.2 36.3977 44.7114 35.9092 44.1089 35.9092L39.6907 35.9092C39.0884 35.9092 38.5999 36.3977 38.5999 37C38.5999 37.6025 39.0884 38.0911 39.6907 38.0911L40.7998 38.0911L40.7998 43.5364C40.7998 44.144 41.2922 44.6365 41.8999 44.6365C42.5073 44.6365 42.9998 44.144 42.9998 43.5364L42.9998 38.0911L43.4998 38.0911ZM39.6907 36.4092L44.1089 36.4092Q44.2315 36.4092 44.336 36.4525Q44.4404 36.4958 44.5269 36.5823Q44.6136 36.669 44.6569 36.7737Q44.7 36.878 44.7 37Q44.7 37.1226 44.6566 37.2272Q44.6133 37.3315 44.5269 37.418Q44.4404 37.5044 44.336 37.5477Q44.2315 37.5911 44.1089 37.5911L42.4998 37.5911L42.4998 43.5364Q42.4998 43.6608 42.4557 43.7671Q42.4118 43.8729 42.3242 43.9607Q42.2363 44.0487 42.1301 44.0926Q42.0241 44.1365 41.8999 44.1365Q41.7757 44.1365 41.6697 44.0926Q41.5635 44.0487 41.4756 43.9607Q41.3876 43.8727 41.3437 43.7666Q41.2998 43.6605 41.2998 43.5364L41.2998 37.5911L39.6907 37.5911Q39.5686 37.5911 39.4644 37.548Q39.3597 37.5047 39.2729 37.418Q39.1865 37.3315 39.1432 37.2272Q39.0999 37.1226 39.0999 37Q39.0999 36.878 39.1429 36.7737Q39.1862 36.669 39.2729 36.5823Q39.3597 36.4955 39.4644 36.4523Q39.5686 36.4092 39.6907 36.4092Z" clip-rule="evenodd" fill="#2C2C2C" fill-opacity="1.000000" fill-rule="evenodd"/>
			<path id="形状结合备份 109" d="M43.4998 38.0911L44.1089 38.0911C44.7114 38.0911 45.2 37.6025 45.2 37C45.2 36.3977 44.7114 35.9092 44.1089 35.9092L39.6907 35.9092C39.0884 35.9092 38.5999 36.3977 38.5999 37C38.5999 37.6025 39.0884 38.0911 39.6907 38.0911L40.7998 38.0911L40.7998 43.5364C40.7998 44.144 41.2922 44.6365 41.8999 44.6365C42.5073 44.6365 42.9998 44.144 42.9998 43.5364L42.9998 38.0911L43.4998 38.0911ZM39.6907 36.4092L44.1089 36.4092Q44.2315 36.4092 44.336 36.4525Q44.4404 36.4958 44.5269 36.5823Q44.6136 36.669 44.6569 36.7737Q44.7 36.878 44.7 37Q44.7 37.1226 44.6566 37.2272Q44.6133 37.3315 44.5269 37.418Q44.4404 37.5044 44.336 37.5477Q44.2315 37.5911 44.1089 37.5911L42.4998 37.5911L42.4998 43.5364Q42.4998 43.6608 42.4557 43.7671Q42.4118 43.8729 42.3242 43.9607Q42.2363 44.0487 42.1301 44.0926Q42.0241 44.1365 41.8999 44.1365Q41.7757 44.1365 41.6697 44.0926Q41.5635 44.0487 41.4756 43.9607Q41.3876 43.8727 41.3437 43.7666Q41.2998 43.6605 41.2998 43.5364L41.2998 37.5911L39.6907 37.5911Q39.5686 37.5911 39.4644 37.548Q39.3597 37.5047 39.2729 37.418Q39.1865 37.3315 39.1432 37.2272Q39.0999 37.1226 39.0999 37Q39.0999 36.878 39.1429 36.7737Q39.1862 36.669 39.2729 36.5823Q39.3597 36.4955 39.4644 36.4523Q39.5686 36.4092 39.6907 36.4092Z" clip-rule="evenodd" fill="#191919" fill-opacity="0.000000" fill-rule="evenodd"/>
		</g>
		<g opacity="0.823049">
			<mask id="mask_3_1997" fill="white">
				<path id="形状结合备份 111" d="M35.3091 35.9092L30.8909 35.9092C30.2886 35.9092 29.8 36.3977 29.8 37C29.8 37.6025 30.2886 38.0911 30.8909 38.0911L32 38.0911L32 43.5364C32 44.144 32.4924 44.6365 33.1001 44.6365C33.7075 44.6365 34.2 44.144 34.2 43.5364L34.2 38.0911L35.3091 38.0911C35.9116 38.0911 36.4001 37.6025 36.4001 37C36.4001 36.3977 35.9116 35.9092 35.3091 35.9092Z" clip-rule="evenodd" fill="" fill-opacity="1.000000" fill-rule="evenodd"/>
			</mask>
			<path id="形状结合备份 111" d="M35.3091 35.9092L30.8909 35.9092C30.2886 35.9092 29.8 36.3977 29.8 37C29.8 37.6025 30.2886 38.0911 30.8909 38.0911L32 38.0911L32 43.5364C32 44.144 32.4924 44.6365 33.1001 44.6365C33.7075 44.6365 34.2 44.144 34.2 43.5364L34.2 38.0911L35.3091 38.0911C35.9116 38.0911 36.4001 37.6025 36.4001 37C36.4001 36.3977 35.9116 35.9092 35.3091 35.9092Z" clip-rule="evenodd" fill="#191919" fill-opacity="1.000000" fill-rule="evenodd" mask="url(#mask_3_1997)"/>
			<path id="形状结合备份 111" d="M35.3091 35.9092L30.8909 35.9092C30.2886 35.9092 29.8 36.3977 29.8 37C29.8 37.6025 30.2886 38.0911 30.8909 38.0911L32 38.0911L32 43.5364C32 44.144 32.4924 44.6365 33.1001 44.6365C33.7075 44.6365 34.2 44.144 34.2 43.5364L34.2 38.0911L35.3091 38.0911C35.9116 38.0911 36.4001 37.6025 36.4001 37C36.4001 36.3977 35.9116 35.9092 35.3091 35.9092Z" clip-rule="evenodd" fill="url(#paint_radial_3_1997_0)" fill-opacity="1.000000" fill-rule="evenodd" mask="url(#mask_3_1997)"/>
			<path id="形状结合备份 111" d="M34.7 38.0911L35.3091 38.0911C35.9116 38.0911 36.4001 37.6025 36.4001 37C36.4001 36.3977 35.9116 35.9092 35.3091 35.9092L30.8909 35.9092C30.2886 35.9092 29.8 36.3977 29.8 37C29.8 37.6025 30.2886 38.0911 30.8909 38.0911L32 38.0911L32 43.5364C32 44.144 32.4924 44.6365 33.1001 44.6365C33.7075 44.6365 34.2 44.144 34.2 43.5364L34.2 38.0911L34.7 38.0911ZM30.8909 36.4092L35.3091 36.4092Q35.4317 36.4092 35.5362 36.4525Q35.6406 36.4958 35.7271 36.5823Q35.8138 36.669 35.8571 36.7737Q35.9001 36.878 35.9001 37Q35.9001 37.1226 35.8568 37.2272Q35.8135 37.3315 35.7271 37.418Q35.6406 37.5044 35.5362 37.5477Q35.4317 37.5911 35.3091 37.5911L33.7 37.5911L33.7 43.5364Q33.7 43.6608 33.6559 43.7671Q33.612 43.8729 33.5244 43.9607Q33.4365 44.0487 33.3303 44.0926Q33.2243 44.1365 33.1001 44.1365Q32.9759 44.1365 32.8699 44.0926Q32.7637 44.0487 32.6758 43.9607Q32.5878 43.8727 32.5439 43.7666Q32.5 43.6605 32.5 43.5364L32.5 37.5911L30.8909 37.5911Q30.7688 37.5911 30.6646 37.548Q30.5599 37.5047 30.4731 37.418Q30.3867 37.3315 30.3434 37.2272Q30.3 37.1226 30.3 37Q30.3 36.878 30.3431 36.7737Q30.3864 36.669 30.4731 36.5823Q30.5599 36.4955 30.6646 36.4523Q30.7688 36.4092 30.8909 36.4092Z" clip-rule="evenodd" fill="#2C2C2C" fill-opacity="1.000000" fill-rule="evenodd"/>
			<path id="形状结合备份 111" d="M34.7 38.0911L35.3091 38.0911C35.9116 38.0911 36.4001 37.6025 36.4001 37C36.4001 36.3977 35.9116 35.9092 35.3091 35.9092L30.8909 35.9092C30.2886 35.9092 29.8 36.3977 29.8 37C29.8 37.6025 30.2886 38.0911 30.8909 38.0911L32 38.0911L32 43.5364C32 44.144 32.4924 44.6365 33.1001 44.6365C33.7075 44.6365 34.2 44.144 34.2 43.5364L34.2 38.0911L34.7 38.0911ZM30.8909 36.4092L35.3091 36.4092Q35.4317 36.4092 35.5362 36.4525Q35.6406 36.4958 35.7271 36.5823Q35.8138 36.669 35.8571 36.7737Q35.9001 36.878 35.9001 37Q35.9001 37.1226 35.8568 37.2272Q35.8135 37.3315 35.7271 37.418Q35.6406 37.5044 35.5362 37.5477Q35.4317 37.5911 35.3091 37.5911L33.7 37.5911L33.7 43.5364Q33.7 43.6608 33.6559 43.7671Q33.612 43.8729 33.5244 43.9607Q33.4365 44.0487 33.3303 44.0926Q33.2243 44.1365 33.1001 44.1365Q32.9759 44.1365 32.8699 44.0926Q32.7637 44.0487 32.6758 43.9607Q32.5878 43.8727 32.5439 43.7666Q32.5 43.6605 32.5 43.5364L32.5 37.5911L30.8909 37.5911Q30.7688 37.5911 30.6646 37.548Q30.5599 37.5047 30.4731 37.418Q30.3867 37.3315 30.3434 37.2272Q30.3 37.1226 30.3 37Q30.3 36.878 30.3431 36.7737Q30.3864 36.669 30.4731 36.5823Q30.5599 36.4955 30.6646 36.4523Q30.7688 36.4092 30.8909 36.4092Z" clip-rule="evenodd" fill="#191919" fill-opacity="0.000000" fill-rule="evenodd"/>
		</g>
		<g opacity="0.500000" filter="url(#filter_3_2000_dd)">
			<path id="矩形备份" d="M52.9 30.45L44.34 30.45L44.34 49L52.9 49C53.5 49 54 48.5 54 47.9L54 31.55C54 30.94 53.5 30.45 52.9 30.45Z" fill="url(#paint_linear_3_2000_0)" fill-opacity="1.000000" fill-rule="evenodd"/>
			<path id="矩形备份" d="M44.34 30.45L44.34 49L52.9 49C53.5 49 54 48.5 54 47.9L54 31.55C54 30.94 53.5 30.45 52.9 30.45L44.34 30.45ZM45.34 31.45L45.34 48L52.9 48C52.95 48 53 47.95 53 47.9L53 31.55C53 31.49 52.95 31.45 52.9 31.45L45.34 31.45Z" fill="#979797" fill-opacity="0" fill-rule="evenodd"/>
		</g>
		<g opacity="0.500000" filter="url(#filter_3_2001_dd)">
			<path id="矩形备份 2" d="M11.1 30.45L19.65 30.45L19.65 49L11.1 49C10.49 49 10 48.5 10 47.9L10 31.55C10 30.94 10.49 30.45 11.1 30.45Z" fill="url(#paint_linear_3_2001_0)" fill-opacity="1.000000" fill-rule="evenodd"/>
			<path id="矩形备份 2" d="M19.65 30.45L19.65 49L11.1 49C10.49 49 10 48.5 10 47.9L10 31.55C10 30.94 10.49 30.45 11.1 30.45L19.65 30.45ZM18.65 31.45L18.65 48L11.1 48C11.04 48 11 47.95 11 47.9L11 31.55C11 31.49 11.04 31.45 11.1 31.45L18.65 31.45Z" fill="#979797" fill-opacity="0" fill-rule="evenodd"/>
		</g>
	</g>
</svg>
