<svg width="64.000000" height="64.000000" viewBox="0 0 64 64" fill="none" xmlns="http://www.w3.org/2000/svg" xmlns:xlink="http://www.w3.org/1999/xlink">
	<desc>
			Created with Pixso.
	</desc>
	<defs>
		<filter id="filter_3_1957_dd" x="5.281738" y="45.281738" width="53.436523" height="8.436523" filterUnits="userSpaceOnUse" color-interpolation-filters="sRGB">
			<feFlood flood-opacity="0" result="BackgroundImageFix"/>
			<feBlend mode="normal" in="SourceGraphic" in2="BackgroundImageFix" result="shape"/>
			<feGaussianBlur stdDeviation="0.906093" result="effect_layerBlur_1"/>
		</filter>
		<filter id="filter_3_1962_dd" x="41.824219" y="4.544189" width="18.675903" height="38.901611" filterUnits="userSpaceOnUse" color-interpolation-filters="sRGB">
			<feFlood flood-opacity="0" result="BackgroundImageFix"/>
			<feBlend mode="normal" in="SourceGraphic" in2="BackgroundImageFix" result="shape"/>
			<feGaussianBlur stdDeviation="0.498351" result="effect_layerBlur_1"/>
		</filter>
		<filter id="filter_3_1963_dd" x="4.627563" y="5.579102" width="20.878296" height="39.074707" filterUnits="userSpaceOnUse" color-interpolation-filters="sRGB">
			<feFlood flood-opacity="0" result="BackgroundImageFix"/>
			<feBlend mode="normal" in="SourceGraphic" in2="BackgroundImageFix" result="shape"/>
			<feGaussianBlur stdDeviation="0.498351" result="effect_layerBlur_1"/>
		</filter>
		<filter id="filter_3_1975_dd" x="42.852661" y="28.959473" width="12.642456" height="21.535645" filterUnits="userSpaceOnUse" color-interpolation-filters="sRGB">
			<feFlood flood-opacity="0" result="BackgroundImageFix"/>
			<feBlend mode="normal" in="SourceGraphic" in2="BackgroundImageFix" result="shape"/>
			<feGaussianBlur stdDeviation="0.498351" result="effect_layerBlur_1"/>
		</filter>
		<filter id="filter_3_1976_dd" x="8.505005" y="28.959473" width="12.642456" height="21.535645" filterUnits="userSpaceOnUse" color-interpolation-filters="sRGB">
			<feFlood flood-opacity="0" result="BackgroundImageFix"/>
			<feBlend mode="normal" in="SourceGraphic" in2="BackgroundImageFix" result="shape"/>
			<feGaussianBlur stdDeviation="0.498351" result="effect_layerBlur_1"/>
		</filter>
		<clipPath id="clip3_16">
			<rect id="终端设备/OTT" width="64.000000" height="64.000000" fill="white" fill-opacity="0"/>
		</clipPath>
		<radialGradient gradientTransform="translate(32 49.5) rotate(90) scale(1.5 24.5217)" cx="0.000000" cy="0.000000" r="1.000000" id="paint_radial_3_1957_0" gradientUnits="userSpaceOnUse">
			<stop stop-color="#73757F"/>
			<stop offset="1.000000" stop-color="#000000" stop-opacity="0.000000"/>
		</radialGradient>
		<linearGradient x1="56.683964" y1="18.734104" x2="22.347895" y2="18.763058" id="paint_linear_3_1960_0" gradientUnits="userSpaceOnUse">
			<stop stop-color="#DCDCDC"/>
			<stop offset="0.340847" stop-color="#F7F7F7"/>
			<stop offset="1.000000" stop-color="#FFFFFF"/>
		</linearGradient>
		<linearGradient x1="32.025845" y1="13.000000" x2="32.025845" y2="33.994492" id="paint_linear_3_1960_1" gradientUnits="userSpaceOnUse">
			<stop stop-color="#E2E2E2"/>
			<stop offset="1.000000" stop-color="#B7B6B6"/>
		</linearGradient>
		<linearGradient x1="11.961678" y1="28.136414" x2="53.788231" y2="28.136414" id="paint_linear_3_1961_0" gradientUnits="userSpaceOnUse">
			<stop stop-color="#B7B7B7" stop-opacity="0.000000"/>
			<stop offset="0.484954" stop-color="#C5C5C5"/>
			<stop offset="1.000000" stop-color="#D8D8D8" stop-opacity="0.149020"/>
		</linearGradient>
		<linearGradient x1="51.252811" y1="23.923683" x2="56.150890" y2="23.060017" id="paint_linear_3_1962_0" gradientUnits="userSpaceOnUse">
			<stop stop-color="#7D7D7D" stop-opacity="0.000000"/>
			<stop offset="0.406974" stop-color="#9F9E9E" stop-opacity="0.423529"/>
			<stop offset="0.721600" stop-color="#929292" stop-opacity="0.800000"/>
			<stop offset="1.000000" stop-color="#CBCACA" stop-opacity="0.000000"/>
		</linearGradient>
		<linearGradient x1="19.325132" y1="24.328672" x2="14.343383" y2="24.328672" id="paint_linear_3_1963_0" gradientUnits="userSpaceOnUse">
			<stop stop-color="#D2D2D2" stop-opacity="0.000000"/>
			<stop offset="0.406974" stop-color="#C8C8C8" stop-opacity="0.423529"/>
			<stop offset="0.721600" stop-color="#D7D7D7" stop-opacity="0.800000"/>
			<stop offset="1.000000" stop-color="#E5E5E5" stop-opacity="0.000000"/>
		</linearGradient>
		<linearGradient x1="31.146124" y1="20.857193" x2="31.146124" y2="49.000042" id="paint_linear_3_1964_0" gradientUnits="userSpaceOnUse">
			<stop stop-color="#CFCFCF"/>
			<stop offset="1.000000" stop-color="#F6F6F6"/>
		</linearGradient>
		<linearGradient x1="32.000122" y1="29.493006" x2="32.000122" y2="49.000046" id="paint_linear_3_1964_1" gradientUnits="userSpaceOnUse">
			<stop stop-color="#CFCFCF"/>
			<stop offset="1.000000" stop-color="#AEAEAE"/>
		</linearGradient>
		<linearGradient x1="31.293533" y1="18.949669" x2="31.293533" y2="47.909046" id="paint_linear_3_1965_0" gradientUnits="userSpaceOnUse">
			<stop stop-color="#CFCFCF"/>
			<stop offset="1.000000" stop-color="#F6F6F6"/>
		</linearGradient>
		<linearGradient x1="32.104832" y1="30.696955" x2="32.104832" y2="47.909046" id="paint_linear_3_1965_1" gradientUnits="userSpaceOnUse">
			<stop stop-color="#C3C0C0"/>
			<stop offset="1.000000" stop-color="#B7B6B6"/>
		</linearGradient>
		<radialGradient gradientTransform="translate(29.7237 20.0438) rotate(180) scale(24.6231 24.6231)" cx="0.000000" cy="0.000000" r="1.000000" id="paint_radial_3_1966_0" gradientUnits="userSpaceOnUse">
			<stop stop-color="#FFFFFF" stop-opacity="0.901961"/>
			<stop offset="1.000000" stop-color="#FFFFFF" stop-opacity="0.000000"/>
		</radialGradient>
		<radialGradient gradientTransform="translate(47.0203 20.0438) rotate(180) scale(21.1055 21.1055)" cx="0.000000" cy="0.000000" r="1.000000" id="paint_radial_3_1969_0" gradientUnits="userSpaceOnUse">
			<stop stop-color="#FFFFFF" stop-opacity="0.901961"/>
			<stop offset="1.000000" stop-color="#FFFFFF" stop-opacity="0.000000"/>
		</radialGradient>
		<radialGradient gradientTransform="translate(38.2205 20.0438) rotate(180) scale(21.1055 21.1055)" cx="0.000000" cy="0.000000" r="1.000000" id="paint_radial_3_1972_0" gradientUnits="userSpaceOnUse">
			<stop stop-color="#FFFFFF" stop-opacity="0.901961"/>
			<stop offset="1.000000" stop-color="#FFFFFF" stop-opacity="0.000000"/>
		</radialGradient>
		<linearGradient x1="4.826250" y1="9.280660" x2="0.000000" y2="9.280660" id="paint_linear_3_1975_0" gradientUnits="userSpaceOnUse">
			<stop stop-color="#DBDBE3" stop-opacity="0.000000"/>
			<stop offset="0.406974" stop-color="#D6D6D7" stop-opacity="0.423529"/>
			<stop offset="0.721600" stop-color="#B4B4B4" stop-opacity="0.800000"/>
			<stop offset="1.000000" stop-color="#565656" stop-opacity="0.000000"/>
		</linearGradient>
		<linearGradient x1="14.826250" y1="39.735249" x2="10.000000" y2="39.735249" id="paint_linear_3_1976_0" gradientUnits="userSpaceOnUse">
			<stop stop-color="#DBDBE3" stop-opacity="0.000000"/>
			<stop offset="0.406974" stop-color="#C2C2C2" stop-opacity="0.423529"/>
			<stop offset="0.721600" stop-color="#F8F8FF" stop-opacity="0.800000"/>
			<stop offset="1.000000" stop-color="#8B8B8B" stop-opacity="0.000000"/>
		</linearGradient>
	</defs>
	<rect id="终端设备/OTT" width="64.000000" height="64.000000" fill="#000000" fill-opacity="0"/>
	<g clip-path="url(#clip3_16)">
		<g opacity="0.000000">
			<rect id="矩形" x="8.000000" y="8.000000" width="48.000000" height="48.000000" fill="#D8D8D8" fill-opacity="1.000000"/>
			<rect id="矩形" x="8.500000" y="8.500000" width="47.000000" height="47.000000" stroke="#979797" stroke-opacity="0" stroke-width="1.000000"/>
		</g>
		<g filter="url(#filter_3_1957_dd)">
			<ellipse id="椭圆形" cx="32.000000" cy="49.500000" rx="24.000000" ry="1.500000" fill="url(#paint_radial_3_1957_0)" fill-opacity="1.000000"/>
			<ellipse id="椭圆形" cx="32.000000" cy="49.500000" rx="23.500000" ry="1.000000" stroke="#979797" stroke-opacity="0" stroke-width="1.000000"/>
		</g>
		<mask id="mask3_1960" mask-type="alpha" maskUnits="userSpaceOnUse" x="10.269287" y="13.000000" width="43.513062" height="20.994385">
			<path id="矩形" d="M18.36 13L46.64 13C48.8 13 50.64 14.56 50.98 16.69L53.78 33.99L10.26 33.79L14.06 16.45C14.51 14.43 16.29 13 18.36 13Z" fill="url(#paint_linear_3_1960_0)" fill-opacity="1.000000" fill-rule="evenodd"/>
			<path id="矩形" d="M46.64 13C48.8 13 50.64 14.56 50.98 16.69L53.78 33.99L10.26 33.79L14.06 16.45C14.51 14.43 16.29 13 18.36 13L46.64 13Z" stroke="url(#paint_linear_3_1960_1)" stroke-opacity="1.000000" stroke-width="0.500000"/>
		</mask>
		<path id="矩形" d="M18.36 13L46.64 13C48.8 13 50.64 14.56 50.98 16.69L53.78 33.99L10.26 33.79L14.06 16.45C14.51 14.43 16.29 13 18.36 13Z" fill="url(#paint_linear_3_1960_0)" fill-opacity="1.000000" fill-rule="evenodd"/>
		<path id="矩形" d="M46.64 13C48.8 13 50.64 14.56 50.98 16.69L53.78 33.99L10.26 33.79L14.06 16.45C14.51 14.43 16.29 13 18.36 13L46.64 13Z" stroke="url(#paint_linear_3_1960_1)" stroke-opacity="1.000000" stroke-width="0.500000"/>
		<g mask="url(#mask3_1960)">
			<g opacity="0.528442">
				<rect id="矩形" x="15.500244" y="28.136475" width="34.099998" height="1.090909" fill="url(#paint_linear_3_1961_0)" fill-opacity="1.000000"/>
				<rect id="矩形" x="16.000244" y="28.636475" width="33.099998" height="0.090909" stroke="#979797" stroke-opacity="0" stroke-width="1.000000"/>
			</g>
		</g>
		<g mask="url(#mask3_1960)">
			<g opacity="0.600000" filter="url(#filter_3_1962_dd)">
				<path id="矩形备份" d="M51.98 6.05L43.31 7.57L49.43 41.95L58.09 40.43C58.69 40.33 59.09 39.75 58.98 39.15L53.26 6.94C53.15 6.35 52.58 5.95 51.98 6.05Z" fill="url(#paint_linear_3_1962_0)" fill-opacity="1.000000" fill-rule="evenodd"/>
				<path id="矩形备份" d="" fill="#979797" fill-opacity="0" fill-rule="evenodd"/>
			</g>
		</g>
		<g mask="url(#mask3_1960)">
			<g opacity="0.600000" filter="url(#filter_3_1963_dd)">
				<path id="矩形备份" d="M15.41 7.1L24.01 9.25L15.55 43.15L6.95 41.01C6.36 40.86 6 40.27 6.15 39.68L14.07 7.9C14.22 7.31 14.82 6.96 15.41 7.1Z" fill="url(#paint_linear_3_1963_0)" fill-opacity="1.000000" fill-rule="evenodd"/>
				<path id="矩形备份" d="M24.01 9.25L15.55 43.15L6.95 41.01C6.36 40.86 6 40.27 6.15 39.68L14.07 7.9C14.22 7.31 14.82 6.96 15.41 7.1L24.01 9.25ZM22.79 9.97L14.82 41.94L7.19 40.04C7.14 40.03 7.11 39.97 7.12 39.92L15.04 8.15C15.06 8.09 15.11 8.06 15.16 8.07L22.79 9.97Z" fill="#979797" fill-opacity="0" fill-rule="evenodd"/>
			</g>
		</g>
		<rect id="矩形" x="10.000122" y="30.454590" rx="4.400000" width="44.000000" height="18.545454" fill="url(#paint_linear_3_1964_0)" fill-opacity="1.000000"/>
		<rect id="矩形" x="10.000122" y="30.454590" rx="4.400000" width="44.000000" height="18.545454" stroke="url(#paint_linear_3_1964_1)" stroke-opacity="1.000000" stroke-width="0.550000"/>
		<g opacity="0.365002">
			<rect id="矩形" x="11.204834" y="31.545410" rx="4.400000" width="41.799999" height="16.363636" fill="url(#paint_linear_3_1965_0)" fill-opacity="0"/>
			<rect id="矩形" x="11.204834" y="31.545410" rx="4.400000" width="41.799999" height="16.363636" stroke="url(#paint_linear_3_1965_1)" stroke-opacity="1.000000" stroke-width="0.500000"/>
		</g>
		<g opacity="0.823049">
			<mask id="mask_3_1966" fill="white">
				<path id="椭圆形备份 18" d="M27.6 40.2727C27.6 37.8628 25.8763 35.9092 23.75 35.9092C21.6238 35.9092 19.9 37.8628 19.9 40.2727C19.9 42.6829 21.6238 44.6365 23.75 44.6365C25.8763 44.6365 27.6 42.6829 27.6 40.2727ZM21.6111 40.2727C21.6111 38.7559 22.6547 37.6545 23.75 37.6545C24.8453 37.6545 25.8889 38.7559 25.8889 40.2727C25.8889 41.7896 24.8453 42.8911 23.75 42.8911C22.6547 42.8911 21.6111 41.7896 21.6111 40.2727Z" clip-rule="evenodd" fill="" fill-opacity="1.000000" fill-rule="evenodd"/>
			</mask>
			<path id="椭圆形备份 18" d="M27.6 40.2727C27.6 37.8628 25.8763 35.9092 23.75 35.9092C21.6238 35.9092 19.9 37.8628 19.9 40.2727C19.9 42.6829 21.6238 44.6365 23.75 44.6365C25.8763 44.6365 27.6 42.6829 27.6 40.2727ZM21.6111 40.2727C21.6111 38.7559 22.6547 37.6545 23.75 37.6545C24.8453 37.6545 25.8889 38.7559 25.8889 40.2727C25.8889 41.7896 24.8453 42.8911 23.75 42.8911C22.6547 42.8911 21.6111 41.7896 21.6111 40.2727Z" clip-rule="evenodd" fill="#191919" fill-opacity="1.000000" fill-rule="evenodd" mask="url(#mask_3_1966)"/>
			<path id="椭圆形备份 18" d="M27.6 40.2727C27.6 37.8628 25.8763 35.9092 23.75 35.9092C21.6238 35.9092 19.9 37.8628 19.9 40.2727C19.9 42.6829 21.6238 44.6365 23.75 44.6365C25.8763 44.6365 27.6 42.6829 27.6 40.2727ZM21.6111 40.2727C21.6111 38.7559 22.6547 37.6545 23.75 37.6545C24.8453 37.6545 25.8889 38.7559 25.8889 40.2727C25.8889 41.7896 24.8453 42.8911 23.75 42.8911C22.6547 42.8911 21.6111 41.7896 21.6111 40.2727Z" clip-rule="evenodd" fill="url(#paint_radial_3_1966_0)" fill-opacity="1.000000" fill-rule="evenodd" mask="url(#mask_3_1966)"/>
			<path id="椭圆形备份 18" d="M27.35 40.2727Q27.35 39.4302 27.0632 38.6616Q26.7872 37.9219 26.2849 37.3525Q25.7856 36.7869 25.1405 36.4775Q24.4764 36.1592 23.75 36.1592Q23.0236 36.1592 22.3595 36.4775Q21.7144 36.7869 21.2151 37.3525Q20.7129 37.9219 20.4368 38.6616Q20.15 39.4302 20.15 40.2727Q20.15 41.1155 20.4368 41.884Q20.7129 42.6238 21.2151 43.1929Q21.7144 43.7588 22.3595 44.0681Q23.0236 44.3865 23.75 44.3865Q24.4764 44.3865 25.1405 44.0681Q25.7856 43.7588 26.2849 43.1929Q26.7872 42.6238 27.0632 41.884Q27.35 41.1155 27.35 40.2727ZM27.85 40.2727Q27.85 41.2058 27.5317 42.0588Q27.2233 42.8853 26.6598 43.5237Q26.0934 44.1658 25.3567 44.519Q24.5901 44.8865 23.75 44.8865Q22.9099 44.8865 22.1433 44.519Q21.4066 44.1658 20.8402 43.5237Q20.2767 42.8853 19.9684 42.0588Q19.65 41.2058 19.65 40.2727Q19.65 39.3398 19.9684 38.4868Q20.2767 37.6604 20.8402 37.022Q21.4066 36.3799 22.1433 36.0266Q22.9099 35.6592 23.75 35.6592Q24.5901 35.6592 25.3567 36.0266Q26.0934 36.3799 26.6598 37.022Q27.2233 37.6604 27.5317 38.4868Q27.85 39.3398 27.85 40.2727ZM21.3611 40.2727Q21.3611 39.676 21.5563 39.1384Q21.7419 38.6274 22.0798 38.2324Q22.4131 37.843 22.8412 37.6272Q23.2827 37.4045 23.75 37.4045Q24.2173 37.4045 24.6588 37.6272Q25.087 37.843 25.4202 38.2324Q25.7582 38.6274 25.9437 39.1384Q26.1389 39.676 26.1389 40.2727Q26.1389 40.8696 25.9437 41.4072Q25.7582 41.9182 25.4202 42.3132Q25.087 42.7026 24.6588 42.9185Q24.2173 43.1411 23.75 43.1411Q23.2827 43.1411 22.8412 42.9185Q22.4131 42.7026 22.0798 42.3132Q21.7419 41.9182 21.5563 41.4072Q21.3611 40.8696 21.3611 40.2727ZM21.8611 40.2727Q21.8611 40.7817 22.0262 41.2366Q22.1809 41.6621 22.4598 41.9883Q22.7277 42.3013 23.0663 42.4719Q23.4016 42.6411 23.75 42.6411Q24.0984 42.6411 24.4338 42.4719Q24.7723 42.3013 25.0403 41.9883Q25.3192 41.6621 25.4738 41.2366Q25.6389 40.7817 25.6389 40.2727Q25.6389 39.7639 25.4738 39.3091Q25.3192 38.8833 25.0403 38.5574Q24.7723 38.2444 24.4338 38.0737Q24.0984 37.9045 23.75 37.9045Q23.4016 37.9045 23.0663 38.0737Q22.7277 38.2444 22.4598 38.5574Q22.1809 38.8833 22.0262 39.3091Q21.8611 39.7639 21.8611 40.2727Z" fill="#2C2C2C" fill-opacity="1.000000" fill-rule="nonzero"/>
			<path id="椭圆形备份 18" d="M27.35 40.2727Q27.35 39.4302 27.0632 38.6616Q26.7872 37.9219 26.2849 37.3525Q25.7856 36.7869 25.1405 36.4775Q24.4764 36.1592 23.75 36.1592Q23.0236 36.1592 22.3595 36.4775Q21.7144 36.7869 21.2151 37.3525Q20.7129 37.9219 20.4368 38.6616Q20.15 39.4302 20.15 40.2727Q20.15 41.1155 20.4368 41.884Q20.7129 42.6238 21.2151 43.1929Q21.7144 43.7588 22.3595 44.0681Q23.0236 44.3865 23.75 44.3865Q24.4764 44.3865 25.1405 44.0681Q25.7856 43.7588 26.2849 43.1929Q26.7872 42.6238 27.0632 41.884Q27.35 41.1155 27.35 40.2727ZM27.85 40.2727Q27.85 41.2058 27.5317 42.0588Q27.2233 42.8853 26.6598 43.5237Q26.0934 44.1658 25.3567 44.519Q24.5901 44.8865 23.75 44.8865Q22.9099 44.8865 22.1433 44.519Q21.4066 44.1658 20.8402 43.5237Q20.2767 42.8853 19.9684 42.0588Q19.65 41.2058 19.65 40.2727Q19.65 39.3398 19.9684 38.4868Q20.2767 37.6604 20.8402 37.022Q21.4066 36.3799 22.1433 36.0266Q22.9099 35.6592 23.75 35.6592Q24.5901 35.6592 25.3567 36.0266Q26.0934 36.3799 26.6598 37.022Q27.2233 37.6604 27.5317 38.4868Q27.85 39.3398 27.85 40.2727ZM21.3611 40.2727Q21.3611 39.676 21.5563 39.1384Q21.7419 38.6274 22.0798 38.2324Q22.4131 37.843 22.8412 37.6272Q23.2827 37.4045 23.75 37.4045Q24.2173 37.4045 24.6588 37.6272Q25.087 37.843 25.4202 38.2324Q25.7582 38.6274 25.9437 39.1384Q26.1389 39.676 26.1389 40.2727Q26.1389 40.8696 25.9437 41.4072Q25.7582 41.9182 25.4202 42.3132Q25.087 42.7026 24.6588 42.9185Q24.2173 43.1411 23.75 43.1411Q23.2827 43.1411 22.8412 42.9185Q22.4131 42.7026 22.0798 42.3132Q21.7419 41.9182 21.5563 41.4072Q21.3611 40.8696 21.3611 40.2727ZM21.8611 40.2727Q21.8611 40.7817 22.0262 41.2366Q22.1809 41.6621 22.4598 41.9883Q22.7277 42.3013 23.0663 42.4719Q23.4016 42.6411 23.75 42.6411Q24.0984 42.6411 24.4338 42.4719Q24.7723 42.3013 25.0403 41.9883Q25.3192 41.6621 25.4738 41.2366Q25.6389 40.7817 25.6389 40.2727Q25.6389 39.7639 25.4738 39.3091Q25.3192 38.8833 25.0403 38.5574Q24.7723 38.2444 24.4338 38.0737Q24.0984 37.9045 23.75 37.9045Q23.4016 37.9045 23.0663 38.0737Q22.7277 38.2444 22.4598 38.5574Q22.1809 38.8833 22.0262 39.3091Q21.8611 39.7639 21.8611 40.2727Z" fill="#191919" fill-opacity="0.000000" fill-rule="nonzero"/>
		</g>
		<g opacity="0.823049">
			<mask id="mask_3_1969" fill="white">
				<path id="形状结合备份 109" d="M44.109 35.9092L39.6909 35.9092C39.0884 35.9092 38.6 36.3977 38.6 37C38.6 37.6025 39.0884 38.0911 39.6909 38.0911L40.7999 38.0911L40.7999 43.5364C40.7999 44.144 41.2925 44.6365 41.9 44.6365C42.5074 44.6365 43 44.144 43 43.5364L43 38.0911L44.109 38.0911C44.7115 38.0911 45.2 37.6025 45.2 37C45.2 36.3977 44.7115 35.9092 44.109 35.9092Z" clip-rule="evenodd" fill="" fill-opacity="1.000000" fill-rule="evenodd"/>
			</mask>
			<path id="形状结合备份 109" d="M44.109 35.9092L39.6909 35.9092C39.0884 35.9092 38.6 36.3977 38.6 37C38.6 37.6025 39.0884 38.0911 39.6909 38.0911L40.7999 38.0911L40.7999 43.5364C40.7999 44.144 41.2925 44.6365 41.9 44.6365C42.5074 44.6365 43 44.144 43 43.5364L43 38.0911L44.109 38.0911C44.7115 38.0911 45.2 37.6025 45.2 37C45.2 36.3977 44.7115 35.9092 44.109 35.9092Z" clip-rule="evenodd" fill="#191919" fill-opacity="1.000000" fill-rule="evenodd" mask="url(#mask_3_1969)"/>
			<path id="形状结合备份 109" d="M44.109 35.9092L39.6909 35.9092C39.0884 35.9092 38.6 36.3977 38.6 37C38.6 37.6025 39.0884 38.0911 39.6909 38.0911L40.7999 38.0911L40.7999 43.5364C40.7999 44.144 41.2925 44.6365 41.9 44.6365C42.5074 44.6365 43 44.144 43 43.5364L43 38.0911L44.109 38.0911C44.7115 38.0911 45.2 37.6025 45.2 37C45.2 36.3977 44.7115 35.9092 44.109 35.9092Z" clip-rule="evenodd" fill="url(#paint_radial_3_1969_0)" fill-opacity="1.000000" fill-rule="evenodd" mask="url(#mask_3_1969)"/>
			<path id="形状结合备份 109" d="M43.5 38.0911L44.109 38.0911C44.7115 38.0911 45.2 37.6025 45.2 37C45.2 36.3977 44.7115 35.9092 44.109 35.9092L39.6909 35.9092C39.0884 35.9092 38.6 36.3977 38.6 37C38.6 37.6025 39.0884 38.0911 39.6909 38.0911L40.7999 38.0911L40.7999 43.5364C40.7999 44.144 41.2925 44.6365 41.9 44.6365C42.5074 44.6365 43 44.144 43 43.5364L43 38.0911L43.5 38.0911ZM39.6909 36.4092L44.109 36.4092Q44.2317 36.4092 44.3364 36.4527Q44.4406 36.4959 44.5269 36.5823Q44.6136 36.669 44.6569 36.7737Q44.7 36.878 44.7 37Q44.7 37.1226 44.6566 37.2272Q44.6133 37.3315 44.5269 37.418Q44.4406 37.5043 44.3364 37.5476Q44.2317 37.5911 44.109 37.5911L42.5 37.5911L42.5 43.5364Q42.5 43.6605 42.4561 43.7666Q42.4122 43.8727 42.3242 43.9607Q42.2364 44.0485 42.1304 44.0925Q42.0243 44.1365 41.9 44.1365Q41.7759 44.1365 41.6698 44.0926Q41.5637 44.0487 41.4757 43.9607Q41.3877 43.8727 41.3438 43.7666Q41.2999 43.6605 41.2999 43.5364L41.2999 37.5911L39.6909 37.5911Q39.5686 37.5911 39.4642 37.5478Q39.3597 37.5046 39.2731 37.418Q39.1866 37.3315 39.1433 37.2272Q39.1 37.1226 39.1 37Q39.1 36.878 39.1431 36.7737Q39.1863 36.669 39.2731 36.5823Q39.3597 36.4957 39.4642 36.4524Q39.5686 36.4092 39.6909 36.4092Z" clip-rule="evenodd" fill="#2C2C2C" fill-opacity="1.000000" fill-rule="evenodd"/>
			<path id="形状结合备份 109" d="M43.5 38.0911L44.109 38.0911C44.7115 38.0911 45.2 37.6025 45.2 37C45.2 36.3977 44.7115 35.9092 44.109 35.9092L39.6909 35.9092C39.0884 35.9092 38.6 36.3977 38.6 37C38.6 37.6025 39.0884 38.0911 39.6909 38.0911L40.7999 38.0911L40.7999 43.5364C40.7999 44.144 41.2925 44.6365 41.9 44.6365C42.5074 44.6365 43 44.144 43 43.5364L43 38.0911L43.5 38.0911ZM39.6909 36.4092L44.109 36.4092Q44.2317 36.4092 44.3364 36.4527Q44.4406 36.4959 44.5269 36.5823Q44.6136 36.669 44.6569 36.7737Q44.7 36.878 44.7 37Q44.7 37.1226 44.6566 37.2272Q44.6133 37.3315 44.5269 37.418Q44.4406 37.5043 44.3364 37.5476Q44.2317 37.5911 44.109 37.5911L42.5 37.5911L42.5 43.5364Q42.5 43.6605 42.4561 43.7666Q42.4122 43.8727 42.3242 43.9607Q42.2364 44.0485 42.1304 44.0925Q42.0243 44.1365 41.9 44.1365Q41.7759 44.1365 41.6698 44.0926Q41.5637 44.0487 41.4757 43.9607Q41.3877 43.8727 41.3438 43.7666Q41.2999 43.6605 41.2999 43.5364L41.2999 37.5911L39.6909 37.5911Q39.5686 37.5911 39.4642 37.5478Q39.3597 37.5046 39.2731 37.418Q39.1866 37.3315 39.1433 37.2272Q39.1 37.1226 39.1 37Q39.1 36.878 39.1431 36.7737Q39.1863 36.669 39.2731 36.5823Q39.3597 36.4957 39.4642 36.4524Q39.5686 36.4092 39.6909 36.4092Z" clip-rule="evenodd" fill="#191919" fill-opacity="0.000000" fill-rule="evenodd"/>
		</g>
		<g opacity="0.823049">
			<mask id="mask_3_1972" fill="white">
				<path id="形状结合备份 111" d="M35.3092 35.9092L30.8911 35.9092C30.2886 35.9092 29.8002 36.3977 29.8002 37C29.8002 37.6025 30.2886 38.0911 30.8911 38.0911L32.0001 38.0911L32.0001 43.5364C32.0001 44.144 32.4927 44.6365 33.1002 44.6365C33.7076 44.6365 34.2002 44.144 34.2002 43.5364L34.2002 38.0911L35.3092 38.0911C35.9117 38.0911 36.4001 37.6025 36.4001 37C36.4001 36.3977 35.9117 35.9092 35.3092 35.9092Z" clip-rule="evenodd" fill="" fill-opacity="1.000000" fill-rule="evenodd"/>
			</mask>
			<path id="形状结合备份 111" d="M35.3092 35.9092L30.8911 35.9092C30.2886 35.9092 29.8002 36.3977 29.8002 37C29.8002 37.6025 30.2886 38.0911 30.8911 38.0911L32.0001 38.0911L32.0001 43.5364C32.0001 44.144 32.4927 44.6365 33.1002 44.6365C33.7076 44.6365 34.2002 44.144 34.2002 43.5364L34.2002 38.0911L35.3092 38.0911C35.9117 38.0911 36.4001 37.6025 36.4001 37C36.4001 36.3977 35.9117 35.9092 35.3092 35.9092Z" clip-rule="evenodd" fill="#191919" fill-opacity="1.000000" fill-rule="evenodd" mask="url(#mask_3_1972)"/>
			<path id="形状结合备份 111" d="M35.3092 35.9092L30.8911 35.9092C30.2886 35.9092 29.8002 36.3977 29.8002 37C29.8002 37.6025 30.2886 38.0911 30.8911 38.0911L32.0001 38.0911L32.0001 43.5364C32.0001 44.144 32.4927 44.6365 33.1002 44.6365C33.7076 44.6365 34.2002 44.144 34.2002 43.5364L34.2002 38.0911L35.3092 38.0911C35.9117 38.0911 36.4001 37.6025 36.4001 37C36.4001 36.3977 35.9117 35.9092 35.3092 35.9092Z" clip-rule="evenodd" fill="url(#paint_radial_3_1972_0)" fill-opacity="1.000000" fill-rule="evenodd" mask="url(#mask_3_1972)"/>
			<path id="形状结合备份 111" d="M34.7002 38.0911L35.3092 38.0911C35.9117 38.0911 36.4001 37.6025 36.4001 37C36.4001 36.3977 35.9117 35.9092 35.3092 35.9092L30.8911 35.9092C30.2886 35.9092 29.8002 36.3977 29.8002 37C29.8002 37.6025 30.2886 38.0911 30.8911 38.0911L32.0001 38.0911L32.0001 43.5364C32.0001 44.144 32.4927 44.6365 33.1002 44.6365C33.7076 44.6365 34.2002 44.144 34.2002 43.5364L34.2002 38.0911L34.7002 38.0911ZM30.8911 36.4092L35.3092 36.4092Q35.4319 36.4092 35.5366 36.4527Q35.6408 36.4959 35.7271 36.5823Q35.8138 36.669 35.8571 36.7737Q35.9001 36.878 35.9001 37Q35.9001 37.1226 35.8568 37.2272Q35.8135 37.3315 35.7271 37.418Q35.6408 37.5043 35.5366 37.5476Q35.4319 37.5911 35.3092 37.5911L33.7002 37.5911L33.7002 43.5364Q33.7002 43.6605 33.6563 43.7666Q33.6124 43.8727 33.5244 43.9607Q33.4366 44.0485 33.3306 44.0925Q33.2245 44.1365 33.1002 44.1365Q32.9761 44.1365 32.87 44.0926Q32.7639 44.0487 32.6759 43.9607Q32.5879 43.8727 32.544 43.7666Q32.5001 43.6605 32.5001 43.5364L32.5001 37.5911L30.8911 37.5911Q30.7688 37.5911 30.6644 37.5478Q30.5599 37.5046 30.4733 37.418Q30.3868 37.3315 30.3435 37.2272Q30.3002 37.1226 30.3002 37Q30.3002 36.878 30.3432 36.7737Q30.3865 36.669 30.4733 36.5823Q30.5599 36.4957 30.6644 36.4524Q30.7688 36.4092 30.8911 36.4092Z" clip-rule="evenodd" fill="#2C2C2C" fill-opacity="1.000000" fill-rule="evenodd"/>
			<path id="形状结合备份 111" d="M34.7002 38.0911L35.3092 38.0911C35.9117 38.0911 36.4001 37.6025 36.4001 37C36.4001 36.3977 35.9117 35.9092 35.3092 35.9092L30.8911 35.9092C30.2886 35.9092 29.8002 36.3977 29.8002 37C29.8002 37.6025 30.2886 38.0911 30.8911 38.0911L32.0001 38.0911L32.0001 43.5364C32.0001 44.144 32.4927 44.6365 33.1002 44.6365C33.7076 44.6365 34.2002 44.144 34.2002 43.5364L34.2002 38.0911L34.7002 38.0911ZM30.8911 36.4092L35.3092 36.4092Q35.4319 36.4092 35.5366 36.4527Q35.6408 36.4959 35.7271 36.5823Q35.8138 36.669 35.8571 36.7737Q35.9001 36.878 35.9001 37Q35.9001 37.1226 35.8568 37.2272Q35.8135 37.3315 35.7271 37.418Q35.6408 37.5043 35.5366 37.5476Q35.4319 37.5911 35.3092 37.5911L33.7002 37.5911L33.7002 43.5364Q33.7002 43.6605 33.6563 43.7666Q33.6124 43.8727 33.5244 43.9607Q33.4366 44.0485 33.3306 44.0925Q33.2245 44.1365 33.1002 44.1365Q32.9761 44.1365 32.87 44.0926Q32.7639 44.0487 32.6759 43.9607Q32.5879 43.8727 32.544 43.7666Q32.5001 43.6605 32.5001 43.5364L32.5001 37.5911L30.8911 37.5911Q30.7688 37.5911 30.6644 37.5478Q30.5599 37.5046 30.4733 37.418Q30.3868 37.3315 30.3435 37.2272Q30.3002 37.1226 30.3002 37Q30.3002 36.878 30.3432 36.7737Q30.3865 36.669 30.4733 36.5823Q30.5599 36.4957 30.6644 36.4524Q30.7688 36.4092 30.8911 36.4092Z" clip-rule="evenodd" fill="#191919" fill-opacity="0.000000" fill-rule="evenodd"/>
		</g>
		<g opacity="0.500000" filter="url(#filter_3_1975_dd)">
			<path id="矩形备份" d="M52.9 30.45L44.34 30.45L44.34 49L52.9 49C53.5 49 54 48.5 54 47.9L54 31.55C54 30.94 53.5 30.45 52.9 30.45Z" fill="url(#paint_linear_3_1975_0)" fill-opacity="1.000000" fill-rule="evenodd"/>
			<path id="矩形备份" d="M44.34 30.45L44.34 49L52.9 49C53.5 49 54 48.5 54 47.9L54 31.55C54 30.94 53.5 30.45 52.9 30.45L44.34 30.45ZM45.34 31.45L45.34 48L52.9 48C52.95 48 53 47.95 53 47.9L53 31.55C53 31.49 52.95 31.45 52.9 31.45L45.34 31.45Z" fill="#979797" fill-opacity="0" fill-rule="evenodd"/>
		</g>
		<g opacity="0.500000" filter="url(#filter_3_1976_dd)">
			<path id="矩形备份 2" d="M11.1 30.45L19.65 30.45L19.65 49L11.1 49C10.49 49 10 48.5 10 47.9L10 31.55C10 30.94 10.49 30.45 11.1 30.45Z" fill="url(#paint_linear_3_1976_0)" fill-opacity="1.000000" fill-rule="evenodd"/>
			<path id="矩形备份 2" d="M19.65 30.45L19.65 49L11.1 49C10.49 49 10 48.5 10 47.9L10 31.55C10 30.94 10.49 30.45 11.1 30.45L19.65 30.45ZM18.65 31.45L18.65 48L11.1 48C11.04 48 11 47.95 11 47.9L11 31.55C11 31.49 11.04 31.45 11.1 31.45L18.65 31.45Z" fill="#979797" fill-opacity="0" fill-rule="evenodd"/>
		</g>
	</g>
</svg>
