<svg width="64.000000" height="64.000000" viewBox="0 0 64 64" fill="none" xmlns="http://www.w3.org/2000/svg" xmlns:xlink="http://www.w3.org/1999/xlink">
	<desc>
			Created with Pixso.
	</desc>
	<defs>
		<filter id="filter_3_2184_dd" x="9.000000" y="47.509766" width="46.000000" height="5.000000" filterUnits="userSpaceOnUse" color-interpolation-filters="sRGB">
			<feFlood flood-opacity="0" result="BackgroundImageFix"/>
			<feBlend mode="normal" in="SourceGraphic" in2="BackgroundImageFix" result="shape"/>
			<feGaussianBlur stdDeviation="0" result="effect_layerBlur_1"/>
		</filter>
		<clipPath id="clip3_22">
			<rect id="终端设备/平板" width="64.000000" height="64.000000" fill="white" fill-opacity="0"/>
		</clipPath>
		<radialGradient gradientTransform="translate(32 49.4225) rotate(90) scale(2.5 24.4271)" cx="0.000000" cy="0.000000" r="1.000000" id="paint_radial_3_2184_0" gradientUnits="userSpaceOnUse">
			<stop stop-color="#000000" stop-opacity="0.278431"/>
			<stop offset="0.525180" stop-color="#37383C" stop-opacity="0.145098"/>
			<stop offset="1.000000" stop-color="#000000" stop-opacity="0.000000"/>
		</radialGradient>
		<linearGradient x1="32.000053" y1="17.000000" x2="32.000053" y2="48.000000" id="paint_linear_3_2188_0" gradientUnits="userSpaceOnUse">
			<stop stop-color="#E2E2E2"/>
			<stop offset="1.000000" stop-color="#A19E9E"/>
		</linearGradient>
		<radialGradient gradientTransform="translate(3.63553 -58.572) rotate(-10.5473) scale(117.349 117.349)" cx="0.000000" cy="0.000000" r="1.000000" id="paint_radial_3_2194_0" gradientUnits="userSpaceOnUse">
			<stop stop-color="#FFFFFF" stop-opacity="0.901961"/>
			<stop offset="1.000000" stop-color="#FFFFFF" stop-opacity="0.000000"/>
		</radialGradient>
	</defs>
	<rect id="终端设备/平板" width="64.000000" height="64.000000" fill="#000000" fill-opacity="0"/>
	<g clip-path="url(#clip3_22)">
		<g opacity="0.000000">
			<rect id="矩形" x="8.000000" y="8.000000" width="48.000000" height="48.000000" fill="#D8D8D8" fill-opacity="1.000000"/>
			<rect id="矩形" x="8.500000" y="8.500000" width="47.000000" height="47.000000" stroke="#979797" stroke-opacity="0" stroke-width="1.000000"/>
		</g>
		<g filter="url(#filter_3_2184_dd)">
			<path id="椭圆形备份 2" d="M32 52.5C44.7 52.5 55 51.39 55 50C55 48.62 44.7 47.5 32 47.5C19.29 47.5 9 48.62 9 50C9 51.39 19.29 52.5 32 52.5Z" fill="url(#paint_radial_3_2184_0)" fill-opacity="1.000000" fill-rule="evenodd"/>
			<path id="椭圆形备份 2" d="" fill="#979797" fill-opacity="0" fill-rule="evenodd"/>
		</g>
		<mask id="mask_3_2188" fill="white">
			<path id="形状结合" d="M10 19L10 46C10 47.1045 10.8954 48 12 48L51.4156 48C52.5203 48 53.4156 47.1045 53.4156 46L53.4156 30.219L53.8097 30.219C53.9148 30.219 54.0001 30.1338 54.0001 30.0286L54.0001 28.113C54.0001 28.0081 53.9148 27.9226 53.8097 27.9226L53.4156 27.9226L53.4156 25.6265L53.8097 25.6265C53.9148 25.6265 54.0001 25.541 54.0001 25.436L54.0001 21.2241C54.0001 21.1191 53.9148 21.0337 53.8097 21.0337L53.4156 21.0337L53.4156 19C53.4156 17.8955 52.5203 17 51.4156 17L12 17C10.8954 17 10 17.8955 10 19Z" clip-rule="evenodd" fill="" fill-opacity="1.000000" fill-rule="evenodd"/>
		</mask>
		<path id="形状结合" d="M10 19L10 46C10 47.1045 10.8954 48 12 48L51.4156 48C52.5203 48 53.4156 47.1045 53.4156 46L53.4156 30.219L53.8097 30.219C53.9148 30.219 54.0001 30.1338 54.0001 30.0286L54.0001 28.113C54.0001 28.0081 53.9148 27.9226 53.8097 27.9226L53.4156 27.9226L53.4156 25.6265L53.8097 25.6265C53.9148 25.6265 54.0001 25.541 54.0001 25.436L54.0001 21.2241C54.0001 21.1191 53.9148 21.0337 53.8097 21.0337L53.4156 21.0337L53.4156 19C53.4156 17.8955 52.5203 17 51.4156 17L12 17C10.8954 17 10 17.8955 10 19Z" clip-rule="evenodd" fill="#979797" fill-opacity="1.000000" fill-rule="evenodd" mask="url(#mask_3_2188)"/>
		<path id="形状结合" d="M9.06761 18.3624Q9 18.6739 9 19L9 46Q9 46.3261 9.06761 46.6376Q9.12637 46.9083 9.23621 47.168Q9.34543 47.4262 9.49761 47.656Q9.66282 47.9054 9.87866 48.1213Q10.0955 48.3382 10.3462 48.5039Q10.575 48.6552 10.8319 48.7639Q11.0905 48.8733 11.3602 48.932Q11.6727 49 12 49L51.4156 49Q51.7421 49 52.0539 48.9323Q52.3243 48.8736 52.5836 48.7639Q52.8413 48.6549 53.0707 48.5031Q53.3207 48.3377 53.537 48.1213Q53.7528 47.9054 53.918 47.656Q54.0702 47.4262 54.1794 47.168Q54.2893 46.9083 54.348 46.6376Q54.4156 46.3261 54.4156 46L54.4156 31.0535Q54.4446 31.0364 54.4725 31.0177Q54.5684 30.9535 54.6515 30.8704Q54.7339 30.7879 54.7978 30.6929Q54.8611 30.5987 54.9061 30.4922Q54.9526 30.3824 54.9761 30.2679Q55.0001 30.1507 55.0001 30.0286L55.0001 28.113Q55.0001 27.9909 54.9761 27.8737Q54.9526 27.7592 54.9061 27.6494Q54.8611 27.5429 54.7978 27.4487Q54.7339 27.3537 54.6515 27.2712Q54.5696 27.1895 54.4755 27.126Q54.4462 27.1062 54.4156 27.0882L54.4156 26.4608Q54.4452 26.4434 54.4736 26.4243Q54.5688 26.3603 54.6515 26.2776Q54.7331 26.1961 54.7965 26.1022Q54.8606 26.0072 54.9061 25.8997Q54.9526 25.7899 54.9761 25.6754Q55.0001 25.5582 55.0001 25.436L55.0001 21.2241Q55.0001 21.102 54.9761 20.9848Q54.9526 20.8703 54.9061 20.7605Q54.8606 20.6529 54.7965 20.5579Q54.7331 20.4641 54.6515 20.3826Q54.5688 20.2999 54.4736 20.2359Q54.4452 20.2168 54.4156 20.1994L54.4156 19Q54.4156 18.6739 54.348 18.3624Q54.2893 18.0917 54.1794 17.832Q54.0702 17.5738 53.918 17.344Q53.7528 17.0946 53.537 16.8787Q53.3207 16.6623 53.0707 16.4969Q52.8413 16.3451 52.5836 16.2361Q52.3243 16.1264 52.0539 16.0677Q51.7421 16 51.4156 16L12 16Q11.6727 16 11.3602 16.068Q11.0905 16.1267 10.8319 16.2361Q10.575 16.3448 10.3462 16.4961Q10.0955 16.6618 9.87866 16.8787Q9.66282 17.0946 9.49761 17.344Q9.34543 17.5738 9.23621 17.832Q9.12637 18.0917 9.06761 18.3624ZM53.8097 21.0337L53.4156 21.0337L53.4156 19C53.4156 17.8955 52.5203 17 51.4156 17L12 17C10.8954 17 10 17.8955 10 19L10 46C10 47.1045 10.8954 48 12 48L51.4156 48C52.5203 48 53.4156 47.1045 53.4156 46L53.4156 30.219L53.8097 30.219C53.9148 30.219 54.0001 30.1338 54.0001 30.0286L54.0001 28.113C54.0001 28.0081 53.9148 27.9226 53.8097 27.9226L53.4156 27.9226L53.4156 25.6265L53.8097 25.6265C53.9148 25.6265 54.0001 25.541 54.0001 25.436L54.0001 21.2241C54.0001 21.1191 53.9148 21.0337 53.8097 21.0337Z" clip-rule="evenodd" fill="url(#paint_linear_3_2188_0)" fill-opacity="1.000000" fill-rule="evenodd"/>
		<path id="Rectangle" d="M52.27 21.88L52.27 26.53C52.27 26.63 52.19 26.72 52.08 26.72L51.13 26.72L51.13 21.69L52.08 21.69C52.19 21.69 52.27 21.77 52.27 21.88Z" fill="#505259" fill-opacity="1.000000" fill-rule="evenodd"/>
		<path id="Rectangle" d="" fill="#2C2C41" fill-opacity="0" fill-rule="evenodd"/>
		<path id="Rectangle备份" d="M52.27 28.86L52.27 30.8C52.27 30.91 52.19 30.99 52.08 30.99L51.13 30.99L51.13 28.67L52.08 28.67C52.19 28.67 52.27 28.75 52.27 28.86Z" fill="#505259" fill-opacity="1.000000" fill-rule="evenodd"/>
		<path id="Rectangle备份" d="" fill="#2C2C41" fill-opacity="0" fill-rule="evenodd"/>
		<path id="screen" d="M11.14 45.9L11.14 19.12C11.14 18.56 11.59 18.12 12.14 18.12L51.27 18.12C51.83 18.12 52.27 18.56 52.27 19.12L52.27 45.9C52.27 46.45 51.83 46.9 51.27 46.9L12.14 46.9C11.59 46.9 11.14 46.45 11.14 45.9Z" fill="#191919" fill-opacity="1.000000" fill-rule="evenodd"/>
		<path id="screen" d="M11.14 45.9L11.14 19.12C11.14 18.56 11.59 18.12 12.14 18.12L51.27 18.12C51.83 18.12 52.27 18.56 52.27 19.12L52.27 45.9C52.27 46.45 51.83 46.9 51.27 46.9L12.14 46.9C11.59 46.9 11.14 46.45 11.14 45.9Z" fill="url(#paint_radial_3_2194_0)" fill-opacity="1.000000" fill-rule="evenodd"/>
		<path id="screen" d="M11.14 45.9L11.14 19.12C11.14 18.56 11.59 18.12 12.14 18.12L51.27 18.12C51.83 18.12 52.27 18.56 52.27 19.12L52.27 45.9C52.27 46.45 51.83 46.9 51.27 46.9L12.14 46.9C11.59 46.9 11.14 46.45 11.14 45.9ZM11.71 45.9L11.71 19.12C11.71 18.97 11.75 18.87 11.82 18.79C11.89 18.72 12 18.69 12.14 18.69L51.27 18.69C51.42 18.69 51.52 18.72 51.6 18.79C51.67 18.87 51.7 18.97 51.7 19.12L51.7 45.9C51.7 46.04 51.67 46.15 51.6 46.22C51.52 46.29 51.42 46.32 51.27 46.32L12.14 46.32C12 46.32 11.89 46.29 11.82 46.22C11.75 46.15 11.71 46.04 11.71 45.9Z" fill="#2C2C2C" fill-opacity="1.000000" fill-rule="evenodd"/>
		<path id="screen" d="M11.14 45.9L11.14 19.12C11.14 18.56 11.59 18.12 12.14 18.12L51.27 18.12C51.83 18.12 52.27 18.56 52.27 19.12L52.27 45.9C52.27 46.45 51.83 46.9 51.27 46.9L12.14 46.9C11.59 46.9 11.14 46.45 11.14 45.9ZM11.71 45.9L11.71 19.12C11.71 18.97 11.75 18.87 11.82 18.79C11.89 18.72 12 18.69 12.14 18.69L51.27 18.69C51.42 18.69 51.52 18.72 51.6 18.79C51.67 18.87 51.7 18.97 51.7 19.12L51.7 45.9C51.7 46.04 51.67 46.15 51.6 46.22C51.52 46.29 51.42 46.32 51.27 46.32L12.14 46.32C12 46.32 11.89 46.29 11.82 46.22C11.75 46.15 11.71 46.04 11.71 45.9Z" fill="#191919" fill-opacity="0" fill-rule="evenodd"/>
		<rect id="矩形" x="11.142578" y="18.148193" rx="1.000000" width="41.130604" height="28.703703" fill="#505259" fill-opacity="0"/>
		<rect id="矩形" x="10.856934" y="17.862549" rx="1.000000" width="41.701862" height="29.274961" stroke="#FFFFFF" stroke-opacity="0" stroke-width="0.571258"/>
		<rect id="矩形" x="10.856934" y="17.862549" rx="1.000000" width="41.701862" height="29.274961" stroke="#000000" stroke-opacity="1.000000" stroke-width="0.571258"/>
		<circle id="椭圆形" cx="14.327637" cy="21.344238" r="0.900000" fill="#101010" fill-opacity="1.000000"/>
		<circle id="椭圆形" cx="14.327637" cy="21.344238" r="0.400000" stroke="#000000" stroke-opacity="0" stroke-width="1.000000"/>
	</g>
</svg>
