<svg width="64.000000" height="64.000000" viewBox="0 0 64 64" fill="none" xmlns="http://www.w3.org/2000/svg" xmlns:xlink="http://www.w3.org/1999/xlink">
	<desc>
			Created with Pixso.
	</desc>
	<defs>
		<filter id="filter_3_2199_dd" x="-14.350098" y="-7.350098" width="92.700195" height="79.700195" filterUnits="userSpaceOnUse" color-interpolation-filters="sRGB">
			<feFlood flood-opacity="0" result="BackgroundImageFix"/>
			<feColorMatrix in="SourceAlpha" type="matrix" values="0 0 0 0 0 0 0 0 0 0 0 0 0 0 0 0 0 0 127 0" result="hardAlpha"/>
			<feOffset dx="0" dy="0"/>
			<feGaussianBlur stdDeviation="7.78333"/>
			<feComposite in2="hardAlpha" operator="out" k2="-1" k3="1"/>
			<feColorMatrix type="matrix" values="0 0 0 0 0.9451 0 0 0 0 0.19216 0 0 0 0 0.27451 0 0 0 1 0"/>
			<feBlend mode="normal" in2="BackgroundImageFix" result="effect_dropShadow_1"/>
			<feBlend mode="normal" in="SourceGraphic" in2="effect_dropShadow_1" result="shape"/>
		</filter>
		<filter id="filter_3_2203_dd" x="9.000000" y="47.509766" width="46.000000" height="5.000000" filterUnits="userSpaceOnUse" color-interpolation-filters="sRGB">
			<feFlood flood-opacity="0" result="BackgroundImageFix"/>
			<feBlend mode="normal" in="SourceGraphic" in2="BackgroundImageFix" result="shape"/>
			<feGaussianBlur stdDeviation="0" result="effect_layerBlur_1"/>
		</filter>
		<clipPath id="clip3_23">
			<rect id="终端设备/平板" width="64.000000" height="64.000000" fill="white" fill-opacity="0"/>
		</clipPath>
		<linearGradient x1="32.000053" y1="17.000000" x2="32.000053" y2="48.000000" id="paint_linear_3_2199_0" gradientUnits="userSpaceOnUse">
			<stop stop-color="#E2E2E2"/>
			<stop offset="1.000000" stop-color="#A19E9E"/>
		</linearGradient>
		<radialGradient gradientTransform="translate(32 49.4225) rotate(90) scale(2.5 24.4271)" cx="0.000000" cy="0.000000" r="1.000000" id="paint_radial_3_2203_0" gradientUnits="userSpaceOnUse">
			<stop stop-color="#000000" stop-opacity="0.278431"/>
			<stop offset="0.525180" stop-color="#37383C" stop-opacity="0.145098"/>
			<stop offset="1.000000" stop-color="#000000" stop-opacity="0.000000"/>
		</radialGradient>
		<linearGradient x1="32.000053" y1="17.000000" x2="32.000053" y2="48.000000" id="paint_linear_3_2207_0" gradientUnits="userSpaceOnUse">
			<stop stop-color="#E2E2E2"/>
			<stop offset="1.000000" stop-color="#A19E9E"/>
		</linearGradient>
		<radialGradient gradientTransform="translate(3.63553 -58.572) rotate(-10.5473) scale(117.349 117.349)" cx="0.000000" cy="0.000000" r="1.000000" id="paint_radial_3_2213_0" gradientUnits="userSpaceOnUse">
			<stop stop-color="#FFFFFF" stop-opacity="0.901961"/>
			<stop offset="1.000000" stop-color="#FFFFFF" stop-opacity="0.000000"/>
		</radialGradient>
	</defs>
	<rect id="终端设备/平板" width="64.000000" height="64.000000" fill="#000000" fill-opacity="0"/>
	<g clip-path="url(#clip3_23)">
		<g opacity="0.000000">
			<rect id="矩形" x="8.000000" y="8.000000" width="48.000000" height="48.000000" fill="#D8D8D8" fill-opacity="1.000000"/>
			<rect id="矩形" x="8.500000" y="8.500000" width="47.000000" height="47.000000" stroke="#979797" stroke-opacity="0" stroke-width="1.000000"/>
		</g>
		<g filter="url(#filter_3_2199_dd)">
			<mask id="mask_3_2199" fill="white">
				<path id="形状结合" d="M10 19L10 46C10 47.1045 10.8955 48 12 48L51.4155 48C52.5203 48 53.4155 47.1045 53.4155 46L53.4155 30.219L53.8096 30.219C53.9148 30.219 54 30.1338 54 30.0286L54 28.113C54 28.0081 53.9148 27.9226 53.8096 27.9226L53.4155 27.9226L53.4155 25.6265L53.8096 25.6265C53.9148 25.6265 54 25.541 54 25.436L54 21.2241C54 21.1191 53.9148 21.0337 53.8096 21.0337L53.4155 21.0337L53.4155 19C53.4155 17.8955 52.5203 17 51.4155 17L12 17C10.8955 17 10 17.8955 10 19Z" clip-rule="evenodd" fill="" fill-opacity="1.000000" fill-rule="evenodd"/>
			</mask>
			<path id="形状结合" d="M10 19L10 46C10 47.1045 10.8955 48 12 48L51.4155 48C52.5203 48 53.4155 47.1045 53.4155 46L53.4155 30.219L53.8096 30.219C53.9148 30.219 54 30.1338 54 30.0286L54 28.113C54 28.0081 53.9148 27.9226 53.8096 27.9226L53.4155 27.9226L53.4155 25.6265L53.8096 25.6265C53.9148 25.6265 54 25.541 54 25.436L54 21.2241C54 21.1191 53.9148 21.0337 53.8096 21.0337L53.4155 21.0337L53.4155 19C53.4155 17.8955 52.5203 17 51.4155 17L12 17C10.8955 17 10 17.8955 10 19Z" clip-rule="evenodd" fill="#979797" fill-opacity="1.000000" fill-rule="evenodd" mask="url(#mask_3_2199)"/>
			<path id="形状结合" d="M9.0677 18.3618Q9 18.6735 9 19L9 46Q9 46.3265 9.0677 46.6382Q9.12643 46.9086 9.23608 47.168Q9.34508 47.4257 9.49689 47.655Q9.66235 47.905 9.87866 48.1213Q10.095 48.3377 10.345 48.5031Q10.5743 48.6549 10.832 48.7639Q11.0914 48.8736 11.3618 48.9323Q11.6735 49 12 49L51.4155 49Q51.7437 49 52.0569 48.9317Q52.3258 48.873 52.5837 48.7639Q52.8425 48.6545 53.0727 48.5018Q53.3215 48.3368 53.5369 48.1213Q53.7532 47.905 53.9186 47.655Q54.0704 47.4257 54.1794 47.168Q54.2891 46.9086 54.3478 46.6382Q54.4155 46.3265 54.4155 46L54.4155 31.0535Q54.4432 31.0372 54.47 31.0194Q54.5672 30.9546 54.6514 30.8704Q54.734 30.7877 54.798 30.6925Q54.8612 30.5984 54.9062 30.4922Q54.9523 30.383 54.9758 30.2691Q55 30.1513 55 30.0286L55 28.113Q55 27.9903 54.9758 27.8725Q54.9523 27.7586 54.9062 27.6494Q54.8612 27.5432 54.798 27.4491Q54.734 27.3539 54.6514 27.2712Q54.5684 27.1884 54.4729 27.1243Q54.4448 27.1055 54.4155 27.0882L54.4155 26.4609Q54.4438 26.4442 54.471 26.426Q54.5676 26.3614 54.6514 26.2776Q54.7332 26.1959 54.7968 26.1018Q54.8608 26.007 54.9062 25.8997Q54.9523 25.7904 54.9758 25.6765Q55 25.5588 55 25.436L55 21.2241Q55 21.1014 54.9758 20.9836Q54.9523 20.8697 54.9062 20.7605Q54.8608 20.6532 54.7968 20.5584Q54.7332 20.4643 54.6514 20.3826Q54.5676 20.2988 54.471 20.2342Q54.4438 20.216 54.4155 20.1993L54.4155 19Q54.4155 18.6735 54.3478 18.3618Q54.2891 18.0914 54.1794 17.832Q54.0704 17.5743 53.9186 17.345Q53.7532 17.095 53.5369 16.8787Q53.3215 16.6632 53.0727 16.4982Q52.8425 16.3455 52.5837 16.2361Q52.3258 16.127 52.0569 16.0683Q51.7437 16 51.4155 16L12 16Q11.6735 16 11.3618 16.0677Q11.0914 16.1264 10.832 16.2361Q10.5743 16.3451 10.345 16.4969Q10.095 16.6623 9.87866 16.8787Q9.66235 17.095 9.49689 17.345Q9.34508 17.5743 9.23608 17.832Q9.12643 18.0914 9.0677 18.3618ZM53.8096 21.0337L53.4155 21.0337L53.4155 19C53.4155 17.8955 52.5203 17 51.4155 17L12 17C10.8955 17 10 17.8955 10 19L10 46C10 47.1045 10.8955 48 12 48L51.4155 48C52.5203 48 53.4155 47.1045 53.4155 46L53.4155 30.219L53.8096 30.219C53.9148 30.219 54 30.1338 54 30.0286L54 28.113C54 28.0081 53.9148 27.9226 53.8096 27.9226L53.4155 27.9226L53.4155 25.6265L53.8096 25.6265C53.9148 25.6265 54 25.541 54 25.436L54 21.2241C54 21.1191 53.9148 21.0337 53.8096 21.0337Z" clip-rule="evenodd" fill="url(#paint_linear_3_2199_0)" fill-opacity="1.000000" fill-rule="evenodd"/>
		</g>
		<g filter="url(#filter_3_2203_dd)">
			<path id="椭圆形备份 2" d="M32 52.5C44.7 52.5 55 51.39 55 50C55 48.62 44.7 47.5 32 47.5C19.29 47.5 9 48.62 9 50C9 51.39 19.29 52.5 32 52.5Z" fill="url(#paint_radial_3_2203_0)" fill-opacity="1.000000" fill-rule="evenodd"/>
			<path id="椭圆形备份 2" d="" fill="#979797" fill-opacity="0" fill-rule="evenodd"/>
		</g>
		<mask id="mask_3_2207" fill="white">
			<path id="形状结合" d="M10 19L10 46C10 47.1045 10.8955 48 12 48L51.4155 48C52.5203 48 53.4155 47.1045 53.4155 46L53.4155 30.219L53.8096 30.219C53.9148 30.219 54 30.1338 54 30.0286L54 28.113C54 28.0081 53.9148 27.9226 53.8096 27.9226L53.4155 27.9226L53.4155 25.6265L53.8096 25.6265C53.9148 25.6265 54 25.541 54 25.436L54 21.2241C54 21.1191 53.9148 21.0337 53.8096 21.0337L53.4155 21.0337L53.4155 19C53.4155 17.8955 52.5203 17 51.4155 17L12 17C10.8955 17 10 17.8955 10 19Z" clip-rule="evenodd" fill="" fill-opacity="1.000000" fill-rule="evenodd"/>
		</mask>
		<path id="形状结合" d="M10 19L10 46C10 47.1045 10.8955 48 12 48L51.4155 48C52.5203 48 53.4155 47.1045 53.4155 46L53.4155 30.219L53.8096 30.219C53.9148 30.219 54 30.1338 54 30.0286L54 28.113C54 28.0081 53.9148 27.9226 53.8096 27.9226L53.4155 27.9226L53.4155 25.6265L53.8096 25.6265C53.9148 25.6265 54 25.541 54 25.436L54 21.2241C54 21.1191 53.9148 21.0337 53.8096 21.0337L53.4155 21.0337L53.4155 19C53.4155 17.8955 52.5203 17 51.4155 17L12 17C10.8955 17 10 17.8955 10 19Z" clip-rule="evenodd" fill="#979797" fill-opacity="1.000000" fill-rule="evenodd" mask="url(#mask_3_2207)"/>
		<path id="形状结合" d="M9.0677 18.3618Q9 18.6735 9 19L9 46Q9 46.3265 9.0677 46.6382Q9.12643 46.9086 9.23608 47.168Q9.34508 47.4257 9.49689 47.655Q9.66235 47.905 9.87866 48.1213Q10.095 48.3377 10.345 48.5031Q10.5743 48.6549 10.832 48.7639Q11.0914 48.8736 11.3618 48.9323Q11.6735 49 12 49L51.4155 49Q51.7437 49 52.0569 48.9317Q52.3258 48.873 52.5837 48.7639Q52.8425 48.6545 53.0727 48.5018Q53.3215 48.3368 53.5369 48.1213Q53.7532 47.905 53.9186 47.655Q54.0704 47.4257 54.1794 47.168Q54.2891 46.9086 54.3478 46.6382Q54.4155 46.3265 54.4155 46L54.4155 31.0535Q54.4432 31.0372 54.47 31.0194Q54.5672 30.9546 54.6514 30.8704Q54.734 30.7877 54.798 30.6925Q54.8612 30.5984 54.9062 30.4922Q54.9523 30.383 54.9758 30.2691Q55 30.1513 55 30.0286L55 28.113Q55 27.9903 54.9758 27.8725Q54.9523 27.7586 54.9062 27.6494Q54.8612 27.5432 54.798 27.4491Q54.734 27.3539 54.6514 27.2712Q54.5684 27.1884 54.4729 27.1243Q54.4448 27.1055 54.4155 27.0882L54.4155 26.4609Q54.4438 26.4442 54.471 26.426Q54.5676 26.3614 54.6514 26.2776Q54.7332 26.1959 54.7968 26.1018Q54.8608 26.007 54.9062 25.8997Q54.9523 25.7904 54.9758 25.6765Q55 25.5588 55 25.436L55 21.2241Q55 21.1014 54.9758 20.9836Q54.9523 20.8697 54.9062 20.7605Q54.8608 20.6532 54.7968 20.5584Q54.7332 20.4643 54.6514 20.3826Q54.5676 20.2988 54.471 20.2342Q54.4438 20.216 54.4155 20.1993L54.4155 19Q54.4155 18.6735 54.3478 18.3618Q54.2891 18.0914 54.1794 17.832Q54.0704 17.5743 53.9186 17.345Q53.7532 17.095 53.5369 16.8787Q53.3215 16.6632 53.0727 16.4982Q52.8425 16.3455 52.5837 16.2361Q52.3258 16.127 52.0569 16.0683Q51.7437 16 51.4155 16L12 16Q11.6735 16 11.3618 16.0677Q11.0914 16.1264 10.832 16.2361Q10.5743 16.3451 10.345 16.4969Q10.095 16.6623 9.87866 16.8787Q9.66235 17.095 9.49689 17.345Q9.34508 17.5743 9.23608 17.832Q9.12643 18.0914 9.0677 18.3618ZM53.8096 21.0337L53.4155 21.0337L53.4155 19C53.4155 17.8955 52.5203 17 51.4155 17L12 17C10.8955 17 10 17.8955 10 19L10 46C10 47.1045 10.8955 48 12 48L51.4155 48C52.5203 48 53.4155 47.1045 53.4155 46L53.4155 30.219L53.8096 30.219C53.9148 30.219 54 30.1338 54 30.0286L54 28.113C54 28.0081 53.9148 27.9226 53.8096 27.9226L53.4155 27.9226L53.4155 25.6265L53.8096 25.6265C53.9148 25.6265 54 25.541 54 25.436L54 21.2241C54 21.1191 53.9148 21.0337 53.8096 21.0337Z" clip-rule="evenodd" fill="url(#paint_linear_3_2207_0)" fill-opacity="1.000000" fill-rule="evenodd"/>
		<path id="Rectangle" d="M52.27 21.88L52.27 26.53C52.27 26.63 52.19 26.72 52.08 26.72L51.13 26.72L51.13 21.69L52.08 21.69C52.19 21.69 52.27 21.77 52.27 21.88Z" fill="#505259" fill-opacity="1.000000" fill-rule="evenodd"/>
		<path id="Rectangle" d="" fill="#2C2C41" fill-opacity="0" fill-rule="evenodd"/>
		<path id="Rectangle备份" d="M52.27 28.86L52.27 30.8C52.27 30.91 52.19 30.99 52.08 30.99L51.13 30.99L51.13 28.67L52.08 28.67C52.19 28.67 52.27 28.75 52.27 28.86Z" fill="#505259" fill-opacity="1.000000" fill-rule="evenodd"/>
		<path id="Rectangle备份" d="" fill="#2C2C41" fill-opacity="0" fill-rule="evenodd"/>
		<path id="screen" d="M11.14 45.9L11.14 19.12C11.14 18.56 11.59 18.12 12.14 18.12L51.27 18.12C51.83 18.12 52.27 18.56 52.27 19.12L52.27 45.9C52.27 46.45 51.83 46.9 51.27 46.9L12.14 46.9C11.59 46.9 11.14 46.45 11.14 45.9Z" fill="#191919" fill-opacity="1.000000" fill-rule="evenodd"/>
		<path id="screen" d="M11.14 45.9L11.14 19.12C11.14 18.56 11.59 18.12 12.14 18.12L51.27 18.12C51.83 18.12 52.27 18.56 52.27 19.12L52.27 45.9C52.27 46.45 51.83 46.9 51.27 46.9L12.14 46.9C11.59 46.9 11.14 46.45 11.14 45.9Z" fill="url(#paint_radial_3_2213_0)" fill-opacity="1.000000" fill-rule="evenodd"/>
		<path id="screen" d="M11.14 45.9L11.14 19.12C11.14 18.56 11.59 18.12 12.14 18.12L51.27 18.12C51.83 18.12 52.27 18.56 52.27 19.12L52.27 45.9C52.27 46.45 51.83 46.9 51.27 46.9L12.14 46.9C11.59 46.9 11.14 46.45 11.14 45.9ZM11.71 45.9L11.71 19.12C11.71 18.97 11.75 18.87 11.82 18.79C11.89 18.72 12 18.69 12.14 18.69L51.27 18.69C51.42 18.69 51.52 18.72 51.6 18.79C51.67 18.87 51.7 18.97 51.7 19.12L51.7 45.9C51.7 46.04 51.67 46.15 51.6 46.22C51.52 46.29 51.42 46.32 51.27 46.32L12.14 46.32C12 46.32 11.89 46.29 11.82 46.22C11.75 46.15 11.71 46.04 11.71 45.9Z" fill="#2C2C2C" fill-opacity="1.000000" fill-rule="evenodd"/>
		<path id="screen" d="M11.14 45.9L11.14 19.12C11.14 18.56 11.59 18.12 12.14 18.12L51.27 18.12C51.83 18.12 52.27 18.56 52.27 19.12L52.27 45.9C52.27 46.45 51.83 46.9 51.27 46.9L12.14 46.9C11.59 46.9 11.14 46.45 11.14 45.9ZM11.71 45.9L11.71 19.12C11.71 18.97 11.75 18.87 11.82 18.79C11.89 18.72 12 18.69 12.14 18.69L51.27 18.69C51.42 18.69 51.52 18.72 51.6 18.79C51.67 18.87 51.7 18.97 51.7 19.12L51.7 45.9C51.7 46.04 51.67 46.15 51.6 46.22C51.52 46.29 51.42 46.32 51.27 46.32L12.14 46.32C12 46.32 11.89 46.29 11.82 46.22C11.75 46.15 11.71 46.04 11.71 45.9Z" fill="#191919" fill-opacity="0" fill-rule="evenodd"/>
		<rect id="矩形" x="11.142578" y="18.148193" rx="1.000000" width="41.130604" height="28.703703" fill="#505259" fill-opacity="0"/>
		<rect id="矩形" x="10.856934" y="17.862549" rx="1.000000" width="41.701862" height="29.274961" stroke="#FFFFFF" stroke-opacity="0" stroke-width="0.571258"/>
		<rect id="矩形" x="10.856934" y="17.862549" rx="1.000000" width="41.701862" height="29.274961" stroke="#000000" stroke-opacity="1.000000" stroke-width="0.571258"/>
		<circle id="椭圆形" cx="14.327393" cy="21.344238" r="0.900000" fill="#101010" fill-opacity="1.000000"/>
		<circle id="椭圆形" cx="14.327393" cy="21.344238" r="0.400000" stroke="#000000" stroke-opacity="0" stroke-width="1.000000"/>
	</g>
</svg>
