<svg width="64.000000" height="64.000000" viewBox="0 0 64 64" fill="none" xmlns="http://www.w3.org/2000/svg" xmlns:xlink="http://www.w3.org/1999/xlink">
	<desc>
			Created with Pixso.
	</desc>
	<defs>
		<filter id="filter_3_2610_dd" x="-13.991699" y="-12.850098" width="91.701416" height="88.700439" filterUnits="userSpaceOnUse" color-interpolation-filters="sRGB">
			<feFlood flood-opacity="0" result="BackgroundImageFix"/>
			<feColorMatrix in="SourceAlpha" type="matrix" values="0 0 0 0 0 0 0 0 0 0 0 0 0 0 0 0 0 0 127 0" result="hardAlpha"/>
			<feOffset dx="0" dy="0"/>
			<feGaussianBlur stdDeviation="7.78333"/>
			<feComposite in2="hardAlpha" operator="out" k2="-1" k3="1"/>
			<feColorMatrix type="matrix" values="0 0 0 0 0.9451 0 0 0 0 0.19216 0 0 0 0 0.27451 0 0 0 1 0"/>
			<feBlend mode="normal" in2="BackgroundImageFix" result="effect_dropShadow_1"/>
			<feBlend mode="normal" in="SourceGraphic" in2="effect_dropShadow_1" result="shape"/>
		</filter>
		<filter id="filter_3_2615_dd" x="5.281738" y="47.781738" width="53.436523" height="8.436523" filterUnits="userSpaceOnUse" color-interpolation-filters="sRGB">
			<feFlood flood-opacity="0" result="BackgroundImageFix"/>
			<feBlend mode="normal" in="SourceGraphic" in2="BackgroundImageFix" result="shape"/>
			<feGaussianBlur stdDeviation="0.906093" result="effect_layerBlur_1"/>
		</filter>
		<filter id="filter_3_2626_dd" x="39.714844" y="12.629883" width="18.318359" height="42.795166" filterUnits="userSpaceOnUse" color-interpolation-filters="sRGB">
			<feFlood flood-opacity="0" result="BackgroundImageFix"/>
			<feBlend mode="normal" in="SourceGraphic" in2="BackgroundImageFix" result="shape"/>
			<feGaussianBlur stdDeviation="0.538758" result="effect_layerBlur_1"/>
		</filter>
		<filter id="filter_3_2627_dd" x="5.960449" y="12.520508" width="22.812744" height="43.399170" filterUnits="userSpaceOnUse" color-interpolation-filters="sRGB">
			<feFlood flood-opacity="0" result="BackgroundImageFix"/>
			<feBlend mode="normal" in="SourceGraphic" in2="BackgroundImageFix" result="shape"/>
			<feGaussianBlur stdDeviation="0.538758" result="effect_layerBlur_1"/>
		</filter>
		<clipPath id="clip3_44">
			<rect id="终端设备/不可管理AP" width="64.000000" height="64.000000" fill="white" fill-opacity="0"/>
		</clipPath>
		<linearGradient x1="4.175526" y1="29.268293" x2="53.858067" y2="29.268293" id="paint_linear_3_2610_0" gradientUnits="userSpaceOnUse">
			<stop stop-color="#C8C8C8"/>
			<stop offset="0.532079" stop-color="#F8F8FC"/>
			<stop offset="1.000000" stop-color="#CECECE"/>
		</linearGradient>
		<linearGradient x1="31.928541" y1="0.398895" x2="31.928541" y2="52.000282" id="paint_linear_3_2610_1" gradientUnits="userSpaceOnUse">
			<stop stop-color="#B5B5B5"/>
			<stop offset="0.443085" stop-color="#D5D5D5"/>
			<stop offset="0.562241" stop-color="#E8E8E8"/>
			<stop offset="1.000000" stop-color="#9D9D9D"/>
		</linearGradient>
		<radialGradient gradientTransform="translate(32 52.6975) rotate(90) scale(1.70801 28.6627)" cx="0.000000" cy="0.000000" r="1.000000" id="paint_radial_3_2615_0" gradientUnits="userSpaceOnUse">
			<stop stop-color="#73757F"/>
			<stop offset="1.000000" stop-color="#000000" stop-opacity="0.000000"/>
		</radialGradient>
		<linearGradient x1="4.175770" y1="29.268049" x2="53.858311" y2="29.268049" id="paint_linear_3_2616_0" gradientUnits="userSpaceOnUse">
			<stop stop-color="#C8C8C8"/>
			<stop offset="0.532079" stop-color="#F8F8FC"/>
			<stop offset="1.000000" stop-color="#CECECE"/>
		</linearGradient>
		<linearGradient x1="31.928785" y1="0.398651" x2="31.928785" y2="52.000038" id="paint_linear_3_2616_1" gradientUnits="userSpaceOnUse">
			<stop stop-color="#B5B5B5"/>
			<stop offset="0.443085" stop-color="#D5D5D5"/>
			<stop offset="0.562241" stop-color="#E8E8E8"/>
			<stop offset="1.000000" stop-color="#9D9D9D"/>
		</linearGradient>
		<linearGradient x1="45.359741" y1="20.134329" x2="48.053917" y2="20.134329" id="paint_linear_3_2622_0" gradientUnits="userSpaceOnUse">
			<stop stop-color="#D4D4D4"/>
			<stop offset="0.532079" stop-color="#EEEEEE"/>
			<stop offset="1.000000" stop-color="#DBDBDB"/>
		</linearGradient>
		<linearGradient x1="15.630005" y1="20.134329" x2="18.324179" y2="20.134329" id="paint_linear_3_2623_0" gradientUnits="userSpaceOnUse">
			<stop stop-color="#D4D4D4"/>
			<stop offset="0.532079" stop-color="#EEEEEE"/>
			<stop offset="1.000000" stop-color="#DBDBDB"/>
		</linearGradient>
		<linearGradient x1="7.733934" y1="34.614136" x2="56.915039" y2="45.923973" id="paint_linear_3_2625_0" gradientUnits="userSpaceOnUse">
			<stop stop-color="#A7A7A7"/>
			<stop offset="0.122951" stop-color="#FFFFFF"/>
			<stop offset="0.893930" stop-color="#FAFAFA"/>
			<stop offset="1.000000" stop-color="#CECECE"/>
		</linearGradient>
		<radialGradient gradientTransform="translate(31.9998 29.3826) rotate(90) scale(19 67.5246)" cx="0.000000" cy="0.000000" r="1.000000" id="paint_radial_3_2625_1" gradientUnits="userSpaceOnUse">
			<stop stop-color="#FFFFFF" stop-opacity="0.537255"/>
			<stop offset="1.000000" stop-color="#F4F4F4"/>
		</radialGradient>
		<linearGradient x1="31.999756" y1="29.382568" x2="31.999756" y2="48.382568" id="paint_linear_3_2625_2" gradientUnits="userSpaceOnUse">
			<stop stop-color="#E2E2E2"/>
			<stop offset="1.000000" stop-color="#B7B6B6"/>
		</linearGradient>
		<linearGradient x1="45.532597" y1="34.322639" x2="52.750294" y2="32.788467" id="paint_linear_3_2626_0" gradientUnits="userSpaceOnUse">
			<stop stop-color="#AFAFAF" stop-opacity="0.000000"/>
			<stop offset="0.406974" stop-color="#C8C8C8" stop-opacity="0.423529"/>
			<stop offset="0.721600" stop-color="#D7D7D7" stop-opacity="0.800000"/>
			<stop offset="1.000000" stop-color="#E5E5E5" stop-opacity="0.000000"/>
		</linearGradient>
		<linearGradient x1="18.867136" y1="34.407654" x2="11.249461" y2="32.788467" id="paint_linear_3_2627_0" gradientUnits="userSpaceOnUse">
			<stop stop-color="#CCCBCB" stop-opacity="0.000000"/>
			<stop offset="0.406974" stop-color="#D4D1D1" stop-opacity="0.423529"/>
			<stop offset="0.721600" stop-color="#D7D7D7" stop-opacity="0.800000"/>
			<stop offset="1.000000" stop-color="#E5E5E5" stop-opacity="0.000000"/>
		</linearGradient>
		<linearGradient x1="31.906483" y1="46.609383" x2="31.906483" y2="52.000187" id="paint_linear_3_2628_0" gradientUnits="userSpaceOnUse">
			<stop stop-color="#D3D3D3"/>
			<stop offset="1.000000" stop-color="#BFBEBE"/>
		</linearGradient>
		<linearGradient x1="31.906481" y1="44.764893" x2="31.906481" y2="52.000187" id="paint_linear_3_2628_1" gradientUnits="userSpaceOnUse">
			<stop stop-color="#E2E2E2"/>
			<stop offset="1.000000" stop-color="#B7B6B6"/>
		</linearGradient>
		<linearGradient x1="10.230957" y1="47.847107" x2="53.211357" y2="47.847107" id="paint_linear_3_2629_0" gradientUnits="userSpaceOnUse">
			<stop stop-color="#C0C0C0"/>
			<stop offset="0.161218" stop-color="#B8BABC"/>
			<stop offset="0.496938" stop-color="#E1DDDD"/>
			<stop offset="0.866805" stop-color="#B8BABC"/>
			<stop offset="1.000000" stop-color="#E7E7E7"/>
		</linearGradient>
		<linearGradient x1="10.448730" y1="49.142944" x2="53.059380" y2="49.142944" id="paint_linear_3_2630_0" gradientUnits="userSpaceOnUse">
			<stop stop-color="#C0C0C0"/>
			<stop offset="0.161218" stop-color="#B8BABC"/>
			<stop offset="0.496938" stop-color="#E1DDDD"/>
			<stop offset="0.866805" stop-color="#B8BABC"/>
			<stop offset="1.000000" stop-color="#E7E7E7"/>
		</linearGradient>
		<linearGradient x1="10.877930" y1="50.439026" x2="52.648132" y2="50.439026" id="paint_linear_3_2631_0" gradientUnits="userSpaceOnUse">
			<stop stop-color="#C0C0C0"/>
			<stop offset="0.161218" stop-color="#B8BABC"/>
			<stop offset="0.496938" stop-color="#E1DDDD"/>
			<stop offset="0.866805" stop-color="#B8BABC"/>
			<stop offset="1.000000" stop-color="#E7E7E7"/>
		</linearGradient>
	</defs>
	<rect id="终端设备/不可管理AP" width="64.000000" height="64.000000" fill="#000000" fill-opacity="0"/>
	<g clip-path="url(#clip3_44)">
		<g opacity="0.000000">
			<rect id="矩形" x="8.000000" y="8.000000" width="48.000000" height="48.000000" fill="#D8D8D8" fill-opacity="1.000000"/>
			<rect id="矩形" x="8.500000" y="8.500000" width="47.000000" height="47.000000" stroke="#979797" stroke-opacity="0" stroke-width="1.000000"/>
		</g>
		<g filter="url(#filter_3_2610_dd)">
			<mask id="mask_3_2610" fill="white">
				<path id="形状结合" d="M16.7217 11.3438C16.7329 11.1506 16.8928 11 17.0862 11C17.2781 11 17.4373 11.1484 17.4507 11.3396L18.0601 20.02L18.3245 23.2087L18.3245 29.6443C22.1394 29.5227 27.635 29.3823 32.6575 29.3823C37.4817 29.3823 42.2944 29.512 45.6755 29.6296L45.6755 23.2087L45.9397 20.02L46.4512 11.3438C46.4624 11.1506 46.6223 11 46.8157 11C47.0076 11 47.1667 11.1484 47.1802 11.3396L47.7896 20.02L48.054 23.2087L48.054 29.7192C48.2163 29.7256 48.3711 29.7319 48.5181 29.7383C49.5852 29.7825 50.4858 30.5393 50.7209 31.5811L53.8296 45.3569C53.8789 45.5754 53.8635 45.7966 53.7878 45.9907C53.731 46.6934 53.5696 48.3384 53.239 49.3564C52.8101 50.6785 50.2358 52.0002 48.5195 52.0002L15.4834 52.0002C12.9092 52.0002 11.1929 50.2378 10.7639 49.3564C10.335 48.4751 9.99902 45.0603 9.99902 45.0603C9.99902 45.0603 10.0012 45.0625 10.0056 45.0671C10.0049 45.0549 10.0044 45.0435 10.0037 45.0327C10.0037 44.9524 10.01 44.8723 10.0281 44.7939L13.0767 31.5835C13.3171 30.5408 14.2246 29.7876 15.2939 29.748C15.4968 29.7407 15.7144 29.7327 15.946 29.7246L15.946 23.2087L16.2102 20.02L16.7217 11.3438Z" clip-rule="evenodd" fill="" fill-opacity="1.000000" fill-rule="evenodd"/>
			</mask>
			<path id="形状结合" d="M16.7217 11.3438C16.7329 11.1506 16.8928 11 17.0862 11C17.2781 11 17.4373 11.1484 17.4507 11.3396L18.0601 20.02L18.3245 23.2087L18.3245 29.6443C22.1394 29.5227 27.635 29.3823 32.6575 29.3823C37.4817 29.3823 42.2944 29.512 45.6755 29.6296L45.6755 23.2087L45.9397 20.02L46.4512 11.3438C46.4624 11.1506 46.6223 11 46.8157 11C47.0076 11 47.1667 11.1484 47.1802 11.3396L47.7896 20.02L48.054 23.2087L48.054 29.7192C48.2163 29.7256 48.3711 29.7319 48.5181 29.7383C49.5852 29.7825 50.4858 30.5393 50.7209 31.5811L53.8296 45.3569C53.8789 45.5754 53.8635 45.7966 53.7878 45.9907C53.731 46.6934 53.5696 48.3384 53.239 49.3564C52.8101 50.6785 50.2358 52.0002 48.5195 52.0002L15.4834 52.0002C12.9092 52.0002 11.1929 50.2378 10.7639 49.3564C10.335 48.4751 9.99902 45.0603 9.99902 45.0603C9.99902 45.0603 10.0012 45.0625 10.0056 45.0671C10.0049 45.0549 10.0044 45.0435 10.0037 45.0327C10.0037 44.9524 10.01 44.8723 10.0281 44.7939L13.0767 31.5835C13.3171 30.5408 14.2246 29.7876 15.2939 29.748C15.4968 29.7407 15.7144 29.7327 15.946 29.7246L15.946 23.2087L16.2102 20.02L16.7217 11.3438Z" clip-rule="evenodd" fill="url(#paint_linear_3_2610_0)" fill-opacity="1.000000" fill-rule="evenodd" mask="url(#mask_3_2610)"/>
			<path id="形状结合" d="M16.3 10.9984Q16.2325 11.1431 16.2224 11.3145L15.7118 19.9805L15.446 23.188L15.446 29.2423L15.2756 29.2485Q15.0186 29.258 14.7713 29.3118Q14.557 29.3584 14.3499 29.4385Q14.1451 29.5176 13.9569 29.6257Q13.7457 29.7469 13.5554 29.9045Q13.3712 30.0572 13.2167 30.2356Q13.0698 30.4053 12.9497 30.5981Q12.8328 30.7859 12.7469 30.9869Q12.6473 31.22 12.5894 31.4709L9.6956 44.0115L9.3584 43.6548L9.50146 45.1091Q9.58667 45.9753 9.72583 46.95Q10.012 48.9541 10.3145 49.5752Q10.5242 50.0063 10.9495 50.4766Q11.4248 51.0024 12.0366 51.4214Q12.5856 51.7972 13.1873 52.0452Q13.3712 52.121 13.5601 52.1848Q13.9882 52.3295 14.4281 52.4078Q14.9475 52.5002 15.4834 52.5002L48.5195 52.5002Q49.2239 52.5002 50.0623 52.2527Q50.075 52.2489 50.0878 52.2451Q50.8689 52.0113 51.6008 51.6133Q52.3711 51.1946 52.905 50.6909Q53.5198 50.1111 53.7146 49.5107Q53.9441 48.804 54.1111 47.6255Q54.2142 46.8977 54.2806 46.0981Q54.3258 45.9627 54.3451 45.8237Q54.3842 45.5426 54.3174 45.2468L51.2087 31.4709Q51.1516 31.2181 51.0522 30.9831Q50.9681 30.7841 50.8535 30.5979Q50.7324 30.4011 50.5835 30.2283Q50.4324 30.053 50.2527 29.9023Q50.0626 29.7431 49.8512 29.6205Q49.6649 29.5125 49.4622 29.4329Q49.2559 29.352 49.0423 29.3043Q48.8028 29.2509 48.554 29.2392L48.554 23.188L48.2883 19.9849L47.679 11.3047Q47.667 11.135 47.5989 10.9921Q47.5306 10.8488 47.4058 10.7324Q47.2811 10.6162 47.1336 10.5581Q46.9861 10.5 46.8157 10.5Q46.6439 10.5 46.4956 10.5589Q46.3472 10.6178 46.2222 10.7356Q46.0971 10.8536 46.0295 10.9984Q45.962 11.1431 45.9519 11.3145L45.4414 19.9788L45.4413 19.9805L45.1755 23.188L45.1755 29.1124Q38.3718 28.8823 32.6575 28.8823Q26.7327 28.8823 18.8245 29.1283L18.8245 23.188L18.5588 19.9849L17.9495 11.3047Q17.9375 11.135 17.8694 10.9921Q17.8011 10.8488 17.6763 10.7324Q17.5516 10.6162 17.4041 10.5581Q17.2566 10.5 17.0862 10.5Q16.9145 10.5 16.7661 10.5589Q16.6177 10.6178 16.4927 10.7356Q16.3676 10.8536 16.3 10.9984ZM18.8245 29.6286C18.6548 29.6338 18.4881 29.6391 18.3245 29.6443L18.3245 23.2087L18.0601 20.02L17.4507 11.3396C17.4373 11.1484 17.2781 11 17.0862 11C16.8928 11 16.7329 11.1506 16.7217 11.3438L16.2102 20.02L15.946 23.2087L15.946 29.7246C15.7144 29.7327 15.4968 29.7407 15.2939 29.748C14.2246 29.7876 13.3171 30.5408 13.0767 31.5835L10.108 44.4477L10.0281 44.7939C10.01 44.8723 10.0037 44.9524 10.0037 45.0327C10.0042 45.0412 10.0047 45.0502 10.0052 45.0597C10.0053 45.0621 10.0055 45.0646 10.0056 45.0671C10.0012 45.0625 9.99902 45.0603 9.99902 45.0603C9.99902 45.0603 9.99926 45.0627 9.99973 45.0675C10.0047 45.1177 10.036 45.4274 10.0881 45.8628C10.2155 46.9286 10.4675 48.7474 10.7639 49.3564C11.1929 50.2378 12.9092 52.0002 15.4834 52.0002L48.5195 52.0002C50.2358 52.0002 52.8101 50.6785 53.239 49.3564C53.5696 48.3384 53.731 46.6934 53.7878 45.9907C53.8635 45.7966 53.8789 45.5754 53.8296 45.3569L50.7209 31.5811C50.4858 30.5393 49.5852 29.7825 48.5181 29.7383C48.3711 29.7319 48.2163 29.7256 48.054 29.7192L48.054 23.2087L47.7896 20.02L47.1802 11.3396C47.1667 11.1484 47.0076 11 46.8157 11C46.6223 11 46.4624 11.1506 46.4512 11.3438L45.9397 20.02L45.6755 23.2087L45.6755 29.6296C45.5122 29.624 45.3454 29.6182 45.1755 29.6125C41.8293 29.4997 37.2486 29.3823 32.6575 29.3823C27.8504 29.3823 22.61 29.5109 18.8245 29.6286Z" clip-rule="evenodd" fill="#979797" fill-opacity="0.000000" fill-rule="evenodd"/>
			<path id="形状结合" d="M16.3 10.9984Q16.2325 11.1431 16.2224 11.3145L15.7118 19.9805L15.446 23.188L15.446 29.2423L15.2756 29.2485Q15.0186 29.258 14.7713 29.3118Q14.557 29.3584 14.3499 29.4385Q14.1451 29.5176 13.9569 29.6257Q13.7457 29.7469 13.5554 29.9045Q13.3712 30.0572 13.2167 30.2356Q13.0698 30.4053 12.9497 30.5981Q12.8328 30.7859 12.7469 30.9869Q12.6473 31.22 12.5894 31.4709L9.6956 44.0115L9.3584 43.6548L9.50146 45.1091Q9.58667 45.9753 9.72583 46.95Q10.012 48.9541 10.3145 49.5752Q10.5242 50.0063 10.9495 50.4766Q11.4248 51.0024 12.0366 51.4214Q12.5856 51.7972 13.1873 52.0452Q13.3712 52.121 13.5601 52.1848Q13.9882 52.3295 14.4281 52.4078Q14.9475 52.5002 15.4834 52.5002L48.5195 52.5002Q49.2239 52.5002 50.0623 52.2527Q50.075 52.2489 50.0878 52.2451Q50.8689 52.0113 51.6008 51.6133Q52.3711 51.1946 52.905 50.6909Q53.5198 50.1111 53.7146 49.5107Q53.9441 48.804 54.1111 47.6255Q54.2142 46.8977 54.2806 46.0981Q54.3258 45.9627 54.3451 45.8237Q54.3842 45.5426 54.3174 45.2468L51.2087 31.4709Q51.1516 31.2181 51.0522 30.9831Q50.9681 30.7841 50.8535 30.5979Q50.7324 30.4011 50.5835 30.2283Q50.4324 30.053 50.2527 29.9023Q50.0626 29.7431 49.8512 29.6205Q49.6649 29.5125 49.4622 29.4329Q49.2559 29.352 49.0423 29.3043Q48.8028 29.2509 48.554 29.2392L48.554 23.188L48.2883 19.9849L47.679 11.3047Q47.667 11.135 47.5989 10.9921Q47.5306 10.8488 47.4058 10.7324Q47.2811 10.6162 47.1336 10.5581Q46.9861 10.5 46.8157 10.5Q46.6439 10.5 46.4956 10.5589Q46.3472 10.6178 46.2222 10.7356Q46.0971 10.8536 46.0295 10.9984Q45.962 11.1431 45.9519 11.3145L45.4414 19.9788L45.4413 19.9805L45.1755 23.188L45.1755 29.1124Q38.3718 28.8823 32.6575 28.8823Q26.7327 28.8823 18.8245 29.1283L18.8245 23.188L18.5588 19.9849L17.9495 11.3047Q17.9375 11.135 17.8694 10.9921Q17.8011 10.8488 17.6763 10.7324Q17.5516 10.6162 17.4041 10.5581Q17.2566 10.5 17.0862 10.5Q16.9145 10.5 16.7661 10.5589Q16.6177 10.6178 16.4927 10.7356Q16.3676 10.8536 16.3 10.9984ZM18.8245 29.6286C18.6548 29.6338 18.4881 29.6391 18.3245 29.6443L18.3245 23.2087L18.0601 20.02L17.4507 11.3396C17.4373 11.1484 17.2781 11 17.0862 11C16.8928 11 16.7329 11.1506 16.7217 11.3438L16.2102 20.02L15.946 23.2087L15.946 29.7246C15.7144 29.7327 15.4968 29.7407 15.2939 29.748C14.2246 29.7876 13.3171 30.5408 13.0767 31.5835L10.108 44.4477L10.0281 44.7939C10.01 44.8723 10.0037 44.9524 10.0037 45.0327C10.0042 45.0412 10.0047 45.0502 10.0052 45.0597C10.0053 45.0621 10.0055 45.0646 10.0056 45.0671C10.0012 45.0625 9.99902 45.0603 9.99902 45.0603C9.99902 45.0603 9.99926 45.0627 9.99973 45.0675C10.0047 45.1177 10.036 45.4274 10.0881 45.8628C10.2155 46.9286 10.4675 48.7474 10.7639 49.3564C11.1929 50.2378 12.9092 52.0002 15.4834 52.0002L48.5195 52.0002C50.2358 52.0002 52.8101 50.6785 53.239 49.3564C53.5696 48.3384 53.731 46.6934 53.7878 45.9907C53.8635 45.7966 53.8789 45.5754 53.8296 45.3569L50.7209 31.5811C50.4858 30.5393 49.5852 29.7825 48.5181 29.7383C48.3711 29.7319 48.2163 29.7256 48.054 29.7192L48.054 23.2087L47.7896 20.02L47.1802 11.3396C47.1667 11.1484 47.0076 11 46.8157 11C46.6223 11 46.4624 11.1506 46.4512 11.3438L45.9397 20.02L45.6755 23.2087L45.6755 29.6296C45.5122 29.624 45.3454 29.6182 45.1755 29.6125C41.8293 29.4997 37.2486 29.3823 32.6575 29.3823C27.8504 29.3823 22.61 29.5109 18.8245 29.6286Z" clip-rule="evenodd" fill="url(#paint_linear_3_2610_1)" fill-opacity="1.000000" fill-rule="evenodd"/>
		</g>
		<g filter="url(#filter_3_2615_dd)">
			<path id="椭圆形" d="M32 53.5C45.25 53.5 56 52.82 56 52C56 51.17 45.25 50.5 32 50.5C18.74 50.5 8 51.17 8 52C8 52.82 18.74 53.5 32 53.5Z" fill="url(#paint_radial_3_2615_0)" fill-opacity="1.000000" fill-rule="evenodd"/>
			<path id="椭圆形" d="" fill="#979797" fill-opacity="0" fill-rule="evenodd"/>
		</g>
		<mask id="mask_3_2616" fill="white">
			<path id="形状结合" d="M16.7219 11.3435C16.7332 11.1504 16.8931 10.9998 17.0864 10.9998C17.2783 10.9998 17.4375 11.1482 17.4509 11.3394L18.0603 20.0198L18.3247 23.2085L18.3247 29.644C22.1396 29.5225 27.6353 29.3821 32.6577 29.3821C37.4819 29.3821 42.2947 29.5117 45.6758 29.6294L45.6758 23.2085L45.9399 20.0198L46.4514 11.3435C46.4626 11.1504 46.6226 10.9998 46.8159 10.9998C47.0078 10.9998 47.167 11.1482 47.1804 11.3394L47.7898 20.0198L48.0542 23.2085L48.0542 29.719C48.2166 29.7253 48.3713 29.7317 48.5183 29.738C49.5854 29.7822 50.4861 30.5391 50.7212 31.5808L53.8298 45.3567C53.8792 45.5752 53.8638 45.7964 53.7881 45.9905C53.7312 46.6931 53.5698 48.3381 53.2393 49.3562C52.8103 50.6782 50.2361 52 48.5198 52L15.4836 52C12.9094 52 11.1931 50.2375 10.7642 49.3562C10.3352 48.4749 9.99927 45.0601 9.99927 45.0601C9.99927 45.0601 10.0015 45.0623 10.0059 45.0669C10.0051 45.0547 10.0046 45.0432 10.0039 45.0325C10.0039 44.9521 10.0103 44.8721 10.0283 44.7937L13.0769 31.5833C13.3174 30.5405 14.2249 29.7874 15.2942 29.7478C15.4971 29.7405 15.7146 29.7324 15.9463 29.7244L15.9463 23.2085L16.2104 20.0198L16.7219 11.3435Z" clip-rule="evenodd" fill="" fill-opacity="1.000000" fill-rule="evenodd"/>
		</mask>
		<path id="形状结合" d="M16.7219 11.3435C16.7332 11.1504 16.8931 10.9998 17.0864 10.9998C17.2783 10.9998 17.4375 11.1482 17.4509 11.3394L18.0603 20.0198L18.3247 23.2085L18.3247 29.644C22.1396 29.5225 27.6353 29.3821 32.6577 29.3821C37.4819 29.3821 42.2947 29.5117 45.6758 29.6294L45.6758 23.2085L45.9399 20.0198L46.4514 11.3435C46.4626 11.1504 46.6226 10.9998 46.8159 10.9998C47.0078 10.9998 47.167 11.1482 47.1804 11.3394L47.7898 20.0198L48.0542 23.2085L48.0542 29.719C48.2166 29.7253 48.3713 29.7317 48.5183 29.738C49.5854 29.7822 50.4861 30.5391 50.7212 31.5808L53.8298 45.3567C53.8792 45.5752 53.8638 45.7964 53.7881 45.9905C53.7312 46.6931 53.5698 48.3381 53.2393 49.3562C52.8103 50.6782 50.2361 52 48.5198 52L15.4836 52C12.9094 52 11.1931 50.2375 10.7642 49.3562C10.3352 48.4749 9.99927 45.0601 9.99927 45.0601C9.99927 45.0601 10.0015 45.0623 10.0059 45.0669C10.0051 45.0547 10.0046 45.0432 10.0039 45.0325C10.0039 44.9521 10.0103 44.8721 10.0283 44.7937L13.0769 31.5833C13.3174 30.5405 14.2249 29.7874 15.2942 29.7478C15.4971 29.7405 15.7146 29.7324 15.9463 29.7244L15.9463 23.2085L16.2104 20.0198L16.7219 11.3435Z" clip-rule="evenodd" fill="url(#paint_linear_3_2616_0)" fill-opacity="1.000000" fill-rule="evenodd" mask="url(#mask_3_2616)"/>
		<path id="形状结合" d="M16.3003 10.9982Q16.2328 11.1428 16.2227 11.3142L15.712 19.9803L15.4463 23.1877L15.4463 29.2421L15.2759 29.2483Q15.0189 29.2577 14.7716 29.3115Q14.5572 29.3582 14.3501 29.4382Q14.1453 29.5174 13.9572 29.6254Q13.746 29.7467 13.5557 29.9043Q13.3714 30.057 13.2169 30.2354Q13.07 30.405 12.95 30.5979Q12.8331 30.7856 12.7472 30.9866Q12.6475 31.2198 12.5896 31.4707L9.69584 44.0113L9.35864 43.6545L9.50171 45.1089Q9.58691 45.9751 9.72607 46.9497Q10.0122 48.9539 10.3147 49.575Q10.5244 50.0061 10.9497 50.4763Q11.425 51.0022 12.0369 51.4211Q12.5859 51.797 13.1875 52.0449Q13.3715 52.1207 13.5603 52.1846Q13.9884 52.3292 14.4284 52.4075Q14.9478 52.5 15.4836 52.5L48.5198 52.5Q49.2241 52.5 50.0625 52.2524Q50.0753 52.2487 50.088 52.2449Q50.8691 52.0111 51.6011 51.613Q52.3713 51.1943 52.9053 50.6907Q53.52 50.1108 53.7148 49.5105Q53.9443 48.8037 54.1113 47.6252Q54.2144 46.8974 54.2809 46.0979Q54.3261 45.9625 54.3454 45.8234Q54.3844 45.5424 54.3176 45.2466L51.209 31.4707Q51.1519 31.2178 51.0525 30.9829Q50.9683 30.7839 50.8538 30.5977Q50.7327 30.4008 50.5838 30.228Q50.4327 30.0527 50.2529 29.9021Q50.0628 29.7429 49.8514 29.6202Q49.6652 29.5122 49.4624 29.4326Q49.2562 29.3518 49.0426 29.3041Q48.803 29.2507 48.5542 29.239L48.5542 23.1877L48.2886 19.9846L47.6792 11.3044Q47.6673 11.1348 47.5991 10.9919Q47.5308 10.8486 47.406 10.7322Q47.2814 10.616 47.1339 10.5579Q46.9863 10.4998 46.8159 10.4998Q46.6442 10.4998 46.4958 10.5586Q46.3474 10.6175 46.2224 10.7354Q46.0973 10.8534 46.0297 10.9982Q45.9623 11.1428 45.9521 11.3142L45.4416 19.9785L45.4415 19.9803L45.1758 23.1877L45.1758 29.1121Q38.372 28.8821 32.6577 28.8821Q26.733 28.8821 18.8247 29.128L18.8247 23.1877L18.5591 19.9846L17.9497 11.3044Q17.9378 11.1348 17.8696 10.9919Q17.8013 10.8486 17.6765 10.7322Q17.5519 10.616 17.4044 10.5579Q17.2568 10.4998 17.0864 10.4998Q16.9147 10.4998 16.7663 10.5586Q16.6179 10.6175 16.4929 10.7354Q16.3678 10.8534 16.3003 10.9982ZM18.8247 29.6283C18.6551 29.6336 18.4883 29.6388 18.3247 29.644L18.3247 23.2085L18.0603 20.0198L17.4509 11.3394C17.4375 11.1482 17.2783 10.9998 17.0864 10.9998C16.8931 10.9998 16.7332 11.1504 16.7219 11.3435L16.2104 20.0198L15.9463 23.2085L15.9463 29.7244C15.7146 29.7324 15.4971 29.7405 15.2942 29.7478C14.2249 29.7874 13.3174 30.5405 13.0769 31.5833L10.1082 44.4475L10.0283 44.7937C10.0103 44.8721 10.0039 44.9521 10.0039 45.0325C10.0045 45.041 10.0049 45.05 10.0054 45.0595C10.0056 45.0619 10.0057 45.0644 10.0059 45.0669C10.0015 45.0623 9.99927 45.0601 9.99927 45.0601C9.99927 45.0601 9.99951 45.0625 9.99998 45.0672C10.005 45.1174 10.0363 45.4272 10.0883 45.8626C10.2157 46.9284 10.4677 48.7472 10.7642 49.3562C11.1931 50.2375 12.9094 52 15.4836 52L48.5198 52C50.2361 52 52.8103 50.6782 53.2393 49.3562C53.5698 48.3381 53.7312 46.6931 53.7881 45.9905C53.8638 45.7964 53.8792 45.5752 53.8298 45.3567L50.7212 31.5808C50.4861 30.5391 49.5854 29.7822 48.5183 29.738C48.3713 29.7317 48.2166 29.7253 48.0542 29.719L48.0542 23.2085L47.7898 20.0198L47.1804 11.3394C47.167 11.1482 47.0078 10.9998 46.8159 10.9998C46.6226 10.9998 46.4626 11.1504 46.4514 11.3435L45.9399 20.0198L45.6758 23.2085L45.6758 29.6294C45.5124 29.6237 45.3457 29.618 45.1758 29.6123C41.8295 29.4995 37.2488 29.3821 32.6577 29.3821C27.8507 29.3821 22.6102 29.5107 18.8247 29.6283Z" clip-rule="evenodd" fill="#979797" fill-opacity="0.000000" fill-rule="evenodd"/>
		<path id="形状结合" d="M16.3003 10.9982Q16.2328 11.1428 16.2227 11.3142L15.712 19.9803L15.4463 23.1877L15.4463 29.2421L15.2759 29.2483Q15.0189 29.2577 14.7716 29.3115Q14.5572 29.3582 14.3501 29.4382Q14.1453 29.5174 13.9572 29.6254Q13.746 29.7467 13.5557 29.9043Q13.3714 30.057 13.2169 30.2354Q13.07 30.405 12.95 30.5979Q12.8331 30.7856 12.7472 30.9866Q12.6475 31.2198 12.5896 31.4707L9.69584 44.0113L9.35864 43.6545L9.50171 45.1089Q9.58691 45.9751 9.72607 46.9497Q10.0122 48.9539 10.3147 49.575Q10.5244 50.0061 10.9497 50.4763Q11.425 51.0022 12.0369 51.4211Q12.5859 51.797 13.1875 52.0449Q13.3715 52.1207 13.5603 52.1846Q13.9884 52.3292 14.4284 52.4075Q14.9478 52.5 15.4836 52.5L48.5198 52.5Q49.2241 52.5 50.0625 52.2524Q50.0753 52.2487 50.088 52.2449Q50.8691 52.0111 51.6011 51.613Q52.3713 51.1943 52.9053 50.6907Q53.52 50.1108 53.7148 49.5105Q53.9443 48.8037 54.1113 47.6252Q54.2144 46.8974 54.2809 46.0979Q54.3261 45.9625 54.3454 45.8234Q54.3844 45.5424 54.3176 45.2466L51.209 31.4707Q51.1519 31.2178 51.0525 30.9829Q50.9683 30.7839 50.8538 30.5977Q50.7327 30.4008 50.5838 30.228Q50.4327 30.0527 50.2529 29.9021Q50.0628 29.7429 49.8514 29.6202Q49.6652 29.5122 49.4624 29.4326Q49.2562 29.3518 49.0426 29.3041Q48.803 29.2507 48.5542 29.239L48.5542 23.1877L48.2886 19.9846L47.6792 11.3044Q47.6673 11.1348 47.5991 10.9919Q47.5308 10.8486 47.406 10.7322Q47.2814 10.616 47.1339 10.5579Q46.9863 10.4998 46.8159 10.4998Q46.6442 10.4998 46.4958 10.5586Q46.3474 10.6175 46.2224 10.7354Q46.0973 10.8534 46.0297 10.9982Q45.9623 11.1428 45.9521 11.3142L45.4416 19.9785L45.4415 19.9803L45.1758 23.1877L45.1758 29.1121Q38.372 28.8821 32.6577 28.8821Q26.733 28.8821 18.8247 29.128L18.8247 23.1877L18.5591 19.9846L17.9497 11.3044Q17.9378 11.1348 17.8696 10.9919Q17.8013 10.8486 17.6765 10.7322Q17.5519 10.616 17.4044 10.5579Q17.2568 10.4998 17.0864 10.4998Q16.9147 10.4998 16.7663 10.5586Q16.6179 10.6175 16.4929 10.7354Q16.3678 10.8534 16.3003 10.9982ZM18.8247 29.6283C18.6551 29.6336 18.4883 29.6388 18.3247 29.644L18.3247 23.2085L18.0603 20.0198L17.4509 11.3394C17.4375 11.1482 17.2783 10.9998 17.0864 10.9998C16.8931 10.9998 16.7332 11.1504 16.7219 11.3435L16.2104 20.0198L15.9463 23.2085L15.9463 29.7244C15.7146 29.7324 15.4971 29.7405 15.2942 29.7478C14.2249 29.7874 13.3174 30.5405 13.0769 31.5833L10.1082 44.4475L10.0283 44.7937C10.0103 44.8721 10.0039 44.9521 10.0039 45.0325C10.0045 45.041 10.0049 45.05 10.0054 45.0595C10.0056 45.0619 10.0057 45.0644 10.0059 45.0669C10.0015 45.0623 9.99927 45.0601 9.99927 45.0601C9.99927 45.0601 9.99951 45.0625 9.99998 45.0672C10.005 45.1174 10.0363 45.4272 10.0883 45.8626C10.2157 46.9284 10.4677 48.7472 10.7642 49.3562C11.1931 50.2375 12.9094 52 15.4836 52L48.5198 52C50.2361 52 52.8103 50.6782 53.2393 49.3562C53.5698 48.3381 53.7312 46.6931 53.7881 45.9905C53.8638 45.7964 53.8792 45.5752 53.8298 45.3567L50.7212 31.5808C50.4861 30.5391 49.5854 29.7822 48.5183 29.738C48.3713 29.7317 48.2166 29.7253 48.0542 29.719L48.0542 23.2085L47.7898 20.0198L47.1804 11.3394C47.167 11.1482 47.0078 10.9998 46.8159 10.9998C46.6226 10.9998 46.4626 11.1504 46.4514 11.3435L45.9399 20.0198L45.6758 23.2085L45.6758 29.6294C45.5124 29.6237 45.3457 29.618 45.1758 29.6123C41.8295 29.4995 37.2488 29.3821 32.6577 29.3821C27.8507 29.3821 22.6102 29.5107 18.8247 29.6283Z" clip-rule="evenodd" fill="url(#paint_linear_3_2616_1)" fill-opacity="1.000000" fill-rule="evenodd"/>
		<path id="矩形" d="M46.45 11.34C46.46 11.15 46.62 11 46.81 11C47 11 47.16 11.14 47.18 11.33L47.78 20.02L48.05 23.2L48.05 31.5L45.67 31.5L45.67 23.2L45.93 20.02L46.45 11.34Z" fill="#FF0000" fill-opacity="0" fill-rule="evenodd"/>
		<path id="矩形" d="M46.45 11.34C46.46 11.15 46.62 11 46.81 11C47 11 47.16 11.14 47.18 11.33L47.78 20.02L48.05 23.2L48.05 31.5L45.67 31.5L45.67 23.2L45.93 20.02L46.45 11.34Z" fill="url(#paint_linear_3_2622_0)" fill-opacity="1.000000" fill-rule="evenodd"/>
		<path id="矩形" d="" fill="#979797" fill-opacity="0" fill-rule="evenodd"/>
		<path id="矩形备份 18" d="M16.72 11.34C16.73 11.15 16.89 11 17.08 11C17.27 11 17.43 11.14 17.45 11.33L18.05 20.02L18.32 23.2L18.32 31.5L15.94 31.5L15.94 23.2L16.2 20.02L16.72 11.34Z" fill="#FF0000" fill-opacity="0" fill-rule="evenodd"/>
		<path id="矩形备份 18" d="M16.72 11.34C16.73 11.15 16.89 11 17.08 11C17.27 11 17.43 11.14 17.45 11.33L18.05 20.02L18.32 23.2L18.32 31.5L15.94 31.5L15.94 23.2L16.2 20.02L16.72 11.34Z" fill="url(#paint_linear_3_2623_0)" fill-opacity="1.000000" fill-rule="evenodd"/>
		<path id="矩形备份 18" d="" fill="#979797" fill-opacity="0" fill-rule="evenodd"/>
		<mask id="mask3_2625" mask-type="alpha" maskUnits="userSpaceOnUse" x="9.999756" y="29.382568" width="44.000000" height="19.000000">
			<path id="路径" d="M15.27 29.73C18.28 29.61 24.67 29.38 31.49 29.38C38.41 29.38 45.33 29.61 48.51 29.74C49.58 29.78 50.48 30.54 50.72 31.58L53.83 45.35C53.93 45.81 53.75 46.28 53.33 46.49C52.39 46.95 50.41 47.7 47.02 48.02C41.97 48.49 32.08 48.34 32.08 48.34C32.08 48.34 14.44 47.81 12.19 47.54C10.25 47.31 10.02 45.51 10 45.03C10 44.95 10.01 44.87 10.02 44.79L13.08 31.56C13.31 30.53 14.21 29.78 15.27 29.73Z" fill="url(#paint_linear_3_2625_0)" fill-opacity="1.000000" fill-rule="evenodd"/>
			<path id="路径" d="M15.27 29.73C18.28 29.61 24.67 29.38 31.49 29.38C38.41 29.38 45.33 29.61 48.51 29.74C49.58 29.78 50.48 30.54 50.72 31.58L53.83 45.35C53.93 45.81 53.75 46.28 53.33 46.49C52.39 46.95 50.41 47.7 47.02 48.02C41.97 48.49 32.08 48.34 32.08 48.34C32.08 48.34 14.44 47.81 12.19 47.54C10.25 47.31 10.02 45.51 10 45.03C10 44.95 10.01 44.87 10.02 44.79L13.08 31.56C13.31 30.53 14.21 29.78 15.27 29.73Z" fill="url(#paint_radial_3_2625_1)" fill-opacity="1.000000" fill-rule="evenodd"/>
			<path id="路径" d="" fill="#979797" fill-opacity="0" fill-rule="evenodd"/>
			<path id="路径" d="" fill="url(#paint_linear_3_2625_2)" fill-opacity="0" fill-rule="evenodd"/>
		</mask>
		<path id="路径" d="M15.27 29.73C18.28 29.61 24.67 29.38 31.49 29.38C38.41 29.38 45.33 29.61 48.51 29.74C49.58 29.78 50.48 30.54 50.72 31.58L53.83 45.35C53.93 45.81 53.75 46.28 53.33 46.49C52.39 46.95 50.41 47.7 47.02 48.02C41.97 48.49 32.08 48.34 32.08 48.34C32.08 48.34 14.44 47.81 12.19 47.54C10.25 47.31 10.02 45.51 10 45.03C10 44.95 10.01 44.87 10.02 44.79L13.08 31.56C13.31 30.53 14.21 29.78 15.27 29.73Z" fill="url(#paint_linear_3_2625_0)" fill-opacity="1.000000" fill-rule="evenodd"/>
		<path id="路径" d="M15.27 29.73C18.28 29.61 24.67 29.38 31.49 29.38C38.41 29.38 45.33 29.61 48.51 29.74C49.58 29.78 50.48 30.54 50.72 31.58L53.83 45.35C53.93 45.81 53.75 46.28 53.33 46.49C52.39 46.95 50.41 47.7 47.02 48.02C41.97 48.49 32.08 48.34 32.08 48.34C32.08 48.34 14.44 47.81 12.19 47.54C10.25 47.31 10.02 45.51 10 45.03C10 44.95 10.01 44.87 10.02 44.79L13.08 31.56C13.31 30.53 14.21 29.78 15.27 29.73Z" fill="url(#paint_radial_3_2625_1)" fill-opacity="1.000000" fill-rule="evenodd"/>
		<path id="路径" d="" fill="#979797" fill-opacity="0" fill-rule="evenodd"/>
		<path id="路径" d="" fill="url(#paint_linear_3_2625_2)" fill-opacity="0" fill-rule="evenodd"/>
		<g mask="url(#mask3_2625)">
			<g opacity="0.600000" filter="url(#filter_3_2626_dd)">
				<path id="矩形备份" d="M47.48 14.3L41.33 16.21L42.13 53.8L55.4 51.84C56.07 51.74 56.53 51.09 56.39 50.42L49 15.19C48.86 14.5 48.15 14.09 47.48 14.3Z" fill="url(#paint_linear_3_2626_0)" fill-opacity="1.000000" fill-rule="evenodd"/>
				<path id="矩形备份" d="" fill="#979797" fill-opacity="0" fill-rule="evenodd"/>
			</g>
		</g>
		<g mask="url(#mask3_2625)">
			<g opacity="0.749748" filter="url(#filter_3_2627_dd)">
				<path id="矩形备份" d="M16.43 14.16L27.15 16.47L22.6 54.3L8.56 51.86C7.9 51.75 7.46 51.1 7.6 50.45L15.01 15.08C15.15 14.43 15.78 14.02 16.43 14.16Z" fill="url(#paint_linear_3_2627_0)" fill-opacity="1.000000" fill-rule="evenodd"/>
				<path id="矩形备份" d="" fill="#979797" fill-opacity="0" fill-rule="evenodd"/>
			</g>
		</g>
		<path id="路径 12" d="M9.99 44.76C9.99 44.76 10.33 48.47 10.76 49.35C11.19 50.23 12.9 52 15.48 52C18.91 52 46.8 52 48.52 52C50.23 52 52.81 50.67 53.23 49.35C53.66 48.03 53.81 45.65 53.81 45.65C53.81 45.65 53.35 46.73 49.92 46.73C46.48 46.73 18.44 46.73 15.01 46.73C11.58 46.73 9.99 44.76 9.99 44.76Z" fill="url(#paint_linear_3_2628_0)" fill-opacity="1.000000" fill-rule="evenodd"/>
		<path id="路径 12" d="" fill="url(#paint_linear_3_2628_1)" fill-opacity="0" fill-rule="evenodd"/>
		<path id="路径 16备份" d="M10.26 46.88C10.26 46.88 11.94 48.07 14.22 48.21C16.5 48.36 48.73 48.45 50.34 48.28C52.35 48.23 53.62 47.2 53.62 47.2L53.62 47.03C53.62 47.03 52.52 47.91 50.34 48.11C48.73 48.28 18.62 48.37 14.55 48.07C11.78 47.94 10.23 46.58 10.23 46.58L10.26 46.88Z" fill="url(#paint_linear_3_2629_0)" fill-opacity="1.000000" fill-rule="evenodd"/>
		<path id="路径 16备份" d="" fill="#979797" fill-opacity="0" fill-rule="evenodd"/>
		<path id="路径 16备份" d="M10.48 48.38C10.48 48.38 11.73 49.17 14.22 49.42C15.84 49.59 48.73 49.65 50.34 49.48C52.71 49.32 53.47 48.47 53.47 48.47L53.47 48.3C53.47 48.3 52.6 49.11 50.34 49.31C48.73 49.48 18.62 49.57 14.55 49.27C12.17 49.18 10.44 48.07 10.44 48.07L10.48 48.38Z" fill="url(#paint_linear_3_2630_0)" fill-opacity="1.000000" fill-rule="evenodd"/>
		<path id="路径 16备份" d="" fill="#979797" fill-opacity="0" fill-rule="evenodd"/>
		<path id="路径 16备份" d="M11.14 49.91C11.14 49.91 12.23 50.52 14.22 50.62C15.83 50.79 48.73 50.86 50.34 50.69C51.91 50.59 52.93 49.91 52.93 49.91L53.05 49.72C53.05 49.72 52.05 50.35 50.34 50.52C48.73 50.69 18.62 50.78 14.55 50.48C12.52 50.4 10.87 49.58 10.87 49.58L11.14 49.91Z" fill="url(#paint_linear_3_2631_0)" fill-opacity="1.000000" fill-rule="evenodd"/>
		<path id="路径 16备份" d="" fill="#979797" fill-opacity="0" fill-rule="evenodd"/>
	</g>
</svg>
