<svg width="64.000000" height="64.000000" viewBox="0 0 64 64" fill="none" xmlns="http://www.w3.org/2000/svg" xmlns:xlink="http://www.w3.org/1999/xlink">
	<desc>
			Created with Pixso.
	</desc>
	<defs>
		<filter id="filter_3_2445_dd" x="-9.850098" y="-10.850098" width="83.700195" height="83.700195" filterUnits="userSpaceOnUse" color-interpolation-filters="sRGB">
			<feFlood flood-opacity="0" result="BackgroundImageFix"/>
			<feColorMatrix in="SourceAlpha" type="matrix" values="0 0 0 0 0 0 0 0 0 0 0 0 0 0 0 0 0 0 127 0" result="hardAlpha"/>
			<feOffset dx="0" dy="0"/>
			<feGaussianBlur stdDeviation="7.78333"/>
			<feComposite in2="hardAlpha" operator="out" k2="-1" k3="1"/>
			<feColorMatrix type="matrix" values="0 0 0 0 0.9451 0 0 0 0 0.19216 0 0 0 0 0.27451 0 0 0 1 0"/>
			<feBlend mode="normal" in2="BackgroundImageFix" result="effect_dropShadow_1"/>
			<feBlend mode="normal" in="SourceGraphic" in2="effect_dropShadow_1" result="shape"/>
		</filter>
		<filter id="filter_3_2446_dd" x="9.281738" y="45.281738" width="44.436523" height="8.436523" filterUnits="userSpaceOnUse" color-interpolation-filters="sRGB">
			<feFlood flood-opacity="0" result="BackgroundImageFix"/>
			<feBlend mode="normal" in="SourceGraphic" in2="BackgroundImageFix" result="shape"/>
			<feGaussianBlur stdDeviation="0.906093" result="effect_layerBlur_1"/>
		</filter>
		<filter id="filter_3_2459_dd" x="34.470947" y="11.470947" width="17.058105" height="39.058105" filterUnits="userSpaceOnUse" color-interpolation-filters="sRGB">
			<feFlood flood-opacity="0" result="BackgroundImageFix"/>
			<feBlend mode="normal" in="SourceGraphic" in2="BackgroundImageFix" result="shape"/>
			<feGaussianBlur stdDeviation="0.509677" result="effect_layerBlur_1"/>
		</filter>
		<filter id="filter_3_2460_dd" x="12.470947" y="11.470947" width="17.058105" height="39.058105" filterUnits="userSpaceOnUse" color-interpolation-filters="sRGB">
			<feFlood flood-opacity="0" result="BackgroundImageFix"/>
			<feBlend mode="normal" in="SourceGraphic" in2="BackgroundImageFix" result="shape"/>
			<feGaussianBlur stdDeviation="0.509677" result="effect_layerBlur_1"/>
		</filter>
		<clipPath id="clip3_35">
			<rect id="终端设备/IOT" width="64.000000" height="64.000000" fill="white" fill-opacity="0"/>
		</clipPath>
		<linearGradient x1="32.000000" y1="13.000000" x2="32.000000" y2="49.000000" id="paint_linear_3_2445_0" gradientUnits="userSpaceOnUse">
			<stop stop-color="#D6D6D6"/>
			<stop offset="1.000000" stop-color="#A5A5A5"/>
		</linearGradient>
		<radialGradient gradientTransform="translate(31.5 50.1872) rotate(90) scale(1.5 22.9131)" cx="0.000000" cy="0.000000" r="1.000000" id="paint_radial_3_2446_0" gradientUnits="userSpaceOnUse">
			<stop stop-color="#73757F"/>
			<stop offset="1.000000" stop-color="#000000" stop-opacity="0.000000"/>
		</radialGradient>
		<linearGradient x1="32.000000" y1="13.000000" x2="32.000000" y2="49.000000" id="paint_linear_3_2449_0" gradientUnits="userSpaceOnUse">
			<stop stop-color="#D6D6D6"/>
			<stop offset="1.000000" stop-color="#A5A5A5"/>
		</linearGradient>
		<radialGradient gradientTransform="translate(27.3127 9.11622) rotate(86.6874) scale(22.3374 22.3374)" cx="0.000000" cy="0.000000" r="1.000000" id="paint_radial_3_2451_0" gradientUnits="userSpaceOnUse">
			<stop stop-color="#FFFFFF" stop-opacity="0.901961"/>
			<stop offset="1.000000" stop-color="#FFFFFF" stop-opacity="0.000000"/>
		</radialGradient>
		<radialGradient gradientTransform="translate(33.6513 13.6031) rotate(180) scale(18.3766 18.3766)" cx="0.000000" cy="0.000000" r="1.000000" id="paint_radial_3_2454_0" gradientUnits="userSpaceOnUse">
			<stop stop-color="#FFFFFF" stop-opacity="0.901961"/>
			<stop offset="1.000000" stop-color="#FFFFFF" stop-opacity="0.000000"/>
		</radialGradient>
		<radialGradient gradientTransform="translate(21.377 20.3102) rotate(168.111) scale(7.16722 7.16722)" cx="0.000000" cy="0.000000" r="1.000000" id="paint_radial_3_2457_0" gradientUnits="userSpaceOnUse">
			<stop stop-color="#FFFFFF" stop-opacity="0.901961"/>
			<stop offset="1.000000" stop-color="#FFFFFF" stop-opacity="0.000000"/>
		</radialGradient>
		<linearGradient x1="10.264267" y1="43.375000" x2="54.421333" y2="43.375000" id="paint_linear_3_2458_0" gradientUnits="userSpaceOnUse">
			<stop stop-color="#B7B7B7" stop-opacity="0.000000"/>
			<stop offset="0.484954" stop-color="#C5C5C5"/>
			<stop offset="1.000000" stop-color="#D8D8D8" stop-opacity="0.149020"/>
		</linearGradient>
		<linearGradient x1="7.000000" y1="18.015398" x2="0.000000" y2="18.015398" id="paint_linear_3_2459_0" gradientUnits="userSpaceOnUse">
			<stop stop-color="#D2D2D2" stop-opacity="0.000000"/>
			<stop offset="0.406974" stop-color="#C8C8C8" stop-opacity="0.423529"/>
			<stop offset="0.721600" stop-color="#D7D7D7" stop-opacity="0.800000"/>
			<stop offset="1.000000" stop-color="#E5E5E5" stop-opacity="0.000000"/>
		</linearGradient>
		<linearGradient x1="21.000000" y1="31.015398" x2="14.000000" y2="31.015398" id="paint_linear_3_2460_0" gradientUnits="userSpaceOnUse">
			<stop stop-color="#D2D2D2" stop-opacity="0.000000"/>
			<stop offset="0.406974" stop-color="#C8C8C8" stop-opacity="0.423529"/>
			<stop offset="0.721600" stop-color="#D7D7D7" stop-opacity="0.800000"/>
			<stop offset="1.000000" stop-color="#E5E5E5" stop-opacity="0.000000"/>
		</linearGradient>
	</defs>
	<rect id="终端设备/IOT" width="64.000000" height="64.000000" fill="#000000" fill-opacity="0"/>
	<g clip-path="url(#clip3_35)">
		<g opacity="0.000000">
			<rect id="矩形" x="8.000000" y="8.000000" width="48.000000" height="48.000000" fill="#D8D8D8" fill-opacity="1.000000"/>
			<rect id="矩形" x="8.500000" y="8.500000" width="47.000000" height="47.000000" stroke="#979797" stroke-opacity="0" stroke-width="1.000000"/>
		</g>
		<g filter="url(#filter_3_2445_dd)">
			<rect id="矩形" x="14.000000" y="13.000000" rx="1.125000" width="36.000000" height="36.000000" fill="#D8D8D8" fill-opacity="0"/>
			<rect id="矩形" x="14.000000" y="13.000000" rx="1.125000" width="36.000000" height="36.000000" fill="#FFFFFF" fill-opacity="1.000000"/>
			<rect id="矩形" x="13.750000" y="12.750000" rx="1.125000" width="36.500000" height="36.500000" stroke="url(#paint_linear_3_2445_0)" stroke-opacity="1.000000" stroke-width="0.500000"/>
		</g>
		<g opacity="0.705648" filter="url(#filter_3_2446_dd)">
			<ellipse id="椭圆形" cx="31.500000" cy="49.500000" rx="19.500000" ry="1.500000" fill="url(#paint_radial_3_2446_0)" fill-opacity="1.000000"/>
			<ellipse id="椭圆形" cx="31.500000" cy="49.500000" rx="19.000000" ry="1.000000" stroke="#979797" stroke-opacity="0" stroke-width="1.000000"/>
		</g>
		<rect id="矩形" x="14.000000" y="13.000000" rx="1.125000" width="36.000000" height="36.000000" fill="#D8D8D8" fill-opacity="0"/>
		<rect id="矩形" x="14.000000" y="13.000000" rx="1.125000" width="36.000000" height="36.000000" fill="#FFFFFF" fill-opacity="1.000000"/>
		<rect id="矩形" x="13.750000" y="12.750000" rx="1.125000" width="36.500000" height="36.500000" stroke="url(#paint_linear_3_2449_0)" stroke-opacity="1.000000" stroke-width="0.500000"/>
		<mask id="mask3_2450" mask-type="alpha" maskUnits="userSpaceOnUse" x="14.000000" y="13.000000" width="36.000000" height="36.000000">
			<rect id="矩形" x="14.000000" y="13.000000" rx="1.125000" width="36.000000" height="36.000000" fill="#D8D8D8" fill-opacity="0"/>
			<rect id="矩形" x="14.000000" y="13.000000" rx="1.125000" width="36.000000" height="36.000000" fill="#F8F8F8" fill-opacity="1.000000"/>
			<rect id="矩形" x="14.500000" y="13.500000" rx="1.125000" width="35.000000" height="35.000000" stroke="#979797" stroke-opacity="0" stroke-width="1.000000"/>
		</mask>
		<rect id="矩形" x="14.000000" y="13.000000" rx="1.125000" width="36.000000" height="36.000000" fill="#D8D8D8" fill-opacity="0"/>
		<rect id="矩形" x="14.000000" y="13.000000" rx="1.125000" width="36.000000" height="36.000000" fill="#F8F8F8" fill-opacity="1.000000"/>
		<rect id="矩形" x="14.500000" y="13.500000" rx="1.125000" width="35.000000" height="35.000000" stroke="#979797" stroke-opacity="0" stroke-width="1.000000"/>
		<g mask="url(#mask3_2450)">
			<g opacity="0.823049">
				<mask id="mask_3_2451" fill="white">
					<path id="椭圆形备份 18" d="M36.5 29.875C36.5 26.7683 34.2334 24.25 31.4375 24.25C28.6416 24.25 26.375 26.7683 26.375 29.875C26.375 32.9817 28.6416 35.5 31.4375 35.5C34.2334 35.5 36.5 32.9817 36.5 29.875ZM28.625 29.875C28.625 27.9197 29.9973 26.5 31.4375 26.5C32.8777 26.5 34.25 27.9197 34.25 29.875C34.25 31.8303 32.8777 33.25 31.4375 33.25C29.9973 33.25 28.625 31.8303 28.625 29.875Z" clip-rule="evenodd" fill="" fill-opacity="1.000000" fill-rule="evenodd"/>
				</mask>
				<path id="椭圆形备份 18" d="M36.5 29.875C36.5 26.7683 34.2334 24.25 31.4375 24.25C28.6416 24.25 26.375 26.7683 26.375 29.875C26.375 32.9817 28.6416 35.5 31.4375 35.5C34.2334 35.5 36.5 32.9817 36.5 29.875ZM28.625 29.875C28.625 27.9197 29.9973 26.5 31.4375 26.5C32.8777 26.5 34.25 27.9197 34.25 29.875C34.25 31.8303 32.8777 33.25 31.4375 33.25C29.9973 33.25 28.625 31.8303 28.625 29.875Z" clip-rule="evenodd" fill="#191919" fill-opacity="1.000000" fill-rule="evenodd" mask="url(#mask_3_2451)"/>
				<path id="椭圆形备份 18" d="M36.5 29.875C36.5 26.7683 34.2334 24.25 31.4375 24.25C28.6416 24.25 26.375 26.7683 26.375 29.875C26.375 32.9817 28.6416 35.5 31.4375 35.5C34.2334 35.5 36.5 32.9817 36.5 29.875ZM28.625 29.875C28.625 27.9197 29.9973 26.5 31.4375 26.5C32.8777 26.5 34.25 27.9197 34.25 29.875C34.25 31.8303 32.8777 33.25 31.4375 33.25C29.9973 33.25 28.625 31.8303 28.625 29.875Z" clip-rule="evenodd" fill="url(#paint_radial_3_2451_0)" fill-opacity="1.000000" fill-rule="evenodd" mask="url(#mask_3_2451)"/>
				<path id="椭圆形备份 18" d="M31.4375 24.25C34.2334 24.25 36.5 26.7683 36.5 29.875C36.5 32.9817 34.2334 35.5 31.4375 35.5C28.6416 35.5 26.375 32.9817 26.375 29.875C26.375 26.7683 28.6416 24.25 31.4375 24.25ZM35.8257 28.4654Q36 29.148 36 29.875Q36 30.602 35.8257 31.2846Q35.7477 31.5901 35.6348 31.8867Q35.3733 32.5739 34.9522 33.1428Q34.8082 33.3374 34.6455 33.5181Q34.1419 34.0776 33.5218 34.435Q33.3624 34.5269 33.1953 34.6055Q32.7302 34.824 32.241 34.9215Q31.8471 35 31.4375 35Q31.0279 35 30.634 34.9215Q30.1448 34.824 29.6797 34.6055Q29.5126 34.5269 29.3532 34.435Q28.7331 34.0776 28.2295 33.5181Q28.0668 33.3374 27.9228 33.1428Q27.5017 32.5739 27.2402 31.8867Q27.1273 31.5901 27.0493 31.2846Q26.875 30.602 26.875 29.875Q26.875 29.148 27.0493 28.4654Q27.1273 28.1599 27.2402 27.8633Q27.5017 27.1761 27.9228 26.6072Q28.0668 26.4126 28.2295 26.2319Q28.7331 25.6724 29.3532 25.315Q29.5126 25.2231 29.6797 25.1445Q30.1448 24.926 30.634 24.8285Q31.0279 24.75 31.4375 24.75Q31.8471 24.75 32.241 24.8285Q32.7302 24.926 33.1953 25.1445Q33.3624 25.2231 33.5218 25.315Q34.1419 25.6724 34.6455 26.2319Q34.8082 26.4126 34.9522 26.6072Q35.3733 27.1761 35.6348 27.8633Q35.7477 28.1599 35.8257 28.4654ZM28.3001 28.6297Q28.125 29.2267 28.125 29.875Q28.125 30.5233 28.3001 31.1203Q28.3416 31.262 28.3931 31.4009Q28.5935 31.9423 28.9237 32.3876Q29.0142 32.5097 29.1145 32.6245Q29.5111 33.0791 30.0063 33.3597Q30.0863 33.405 30.1689 33.4458Q30.6236 33.6705 31.0987 33.7292Q31.2668 33.75 31.4375 33.75Q31.6082 33.75 31.7763 33.7292Q32.2514 33.6705 32.7061 33.4458Q32.7887 33.405 32.8687 33.3597Q33.3639 33.0791 33.7605 32.6245Q33.8608 32.5097 33.9513 32.3876Q34.2815 31.9423 34.4819 31.4009Q34.5334 31.262 34.5749 31.1203Q34.75 30.5233 34.75 29.875Q34.75 29.2267 34.5749 28.6297Q34.5334 28.488 34.4819 28.3491Q34.2815 27.8077 33.9513 27.3624Q33.8608 27.2403 33.7605 27.1255Q33.3639 26.6709 32.8687 26.3903Q32.7887 26.345 32.7061 26.3042Q32.2514 26.0795 31.7763 26.0208Q31.6082 26 31.4375 26Q31.2668 26 31.0987 26.0208Q30.6236 26.0795 30.1689 26.3042Q30.0863 26.345 30.0063 26.3903Q29.5111 26.6709 29.1145 27.1255Q29.0142 27.2403 28.9237 27.3624Q28.5935 27.8077 28.3931 28.3491Q28.3416 28.488 28.3001 28.6297ZM31.4375 26.5C29.9973 26.5 28.625 27.9197 28.625 29.875C28.625 31.8303 29.9973 33.25 31.4375 33.25C32.8777 33.25 34.25 31.8303 34.25 29.875C34.25 27.9197 32.8777 26.5 31.4375 26.5Z" clip-rule="evenodd" fill="#2C2C2C" fill-opacity="1.000000" fill-rule="evenodd"/>
				<path id="椭圆形备份 18" d="M31.4375 24.25C34.2334 24.25 36.5 26.7683 36.5 29.875C36.5 32.9817 34.2334 35.5 31.4375 35.5C28.6416 35.5 26.375 32.9817 26.375 29.875C26.375 26.7683 28.6416 24.25 31.4375 24.25ZM35.8257 28.4654Q36 29.148 36 29.875Q36 30.602 35.8257 31.2846Q35.7477 31.5901 35.6348 31.8867Q35.3733 32.5739 34.9522 33.1428Q34.8082 33.3374 34.6455 33.5181Q34.1419 34.0776 33.5218 34.435Q33.3624 34.5269 33.1953 34.6055Q32.7302 34.824 32.241 34.9215Q31.8471 35 31.4375 35Q31.0279 35 30.634 34.9215Q30.1448 34.824 29.6797 34.6055Q29.5126 34.5269 29.3532 34.435Q28.7331 34.0776 28.2295 33.5181Q28.0668 33.3374 27.9228 33.1428Q27.5017 32.5739 27.2402 31.8867Q27.1273 31.5901 27.0493 31.2846Q26.875 30.602 26.875 29.875Q26.875 29.148 27.0493 28.4654Q27.1273 28.1599 27.2402 27.8633Q27.5017 27.1761 27.9228 26.6072Q28.0668 26.4126 28.2295 26.2319Q28.7331 25.6724 29.3532 25.315Q29.5126 25.2231 29.6797 25.1445Q30.1448 24.926 30.634 24.8285Q31.0279 24.75 31.4375 24.75Q31.8471 24.75 32.241 24.8285Q32.7302 24.926 33.1953 25.1445Q33.3624 25.2231 33.5218 25.315Q34.1419 25.6724 34.6455 26.2319Q34.8082 26.4126 34.9522 26.6072Q35.3733 27.1761 35.6348 27.8633Q35.7477 28.1599 35.8257 28.4654ZM28.3001 28.6297Q28.125 29.2267 28.125 29.875Q28.125 30.5233 28.3001 31.1203Q28.3416 31.262 28.3931 31.4009Q28.5935 31.9423 28.9237 32.3876Q29.0142 32.5097 29.1145 32.6245Q29.5111 33.0791 30.0063 33.3597Q30.0863 33.405 30.1689 33.4458Q30.6236 33.6705 31.0987 33.7292Q31.2668 33.75 31.4375 33.75Q31.6082 33.75 31.7763 33.7292Q32.2514 33.6705 32.7061 33.4458Q32.7887 33.405 32.8687 33.3597Q33.3639 33.0791 33.7605 32.6245Q33.8608 32.5097 33.9513 32.3876Q34.2815 31.9423 34.4819 31.4009Q34.5334 31.262 34.5749 31.1203Q34.75 30.5233 34.75 29.875Q34.75 29.2267 34.5749 28.6297Q34.5334 28.488 34.4819 28.3491Q34.2815 27.8077 33.9513 27.3624Q33.8608 27.2403 33.7605 27.1255Q33.3639 26.6709 32.8687 26.3903Q32.7887 26.345 32.7061 26.3042Q32.2514 26.0795 31.7763 26.0208Q31.6082 26 31.4375 26Q31.2668 26 31.0987 26.0208Q30.6236 26.0795 30.1689 26.3042Q30.0863 26.345 30.0063 26.3903Q29.5111 26.6709 29.1145 27.1255Q29.0142 27.2403 28.9237 27.3624Q28.5935 27.8077 28.3931 28.3491Q28.3416 28.488 28.3001 28.6297ZM31.4375 26.5C29.9973 26.5 28.625 27.9197 28.625 29.875C28.625 31.8303 29.9973 33.25 31.4375 33.25C32.8777 33.25 34.25 31.8303 34.25 29.875C34.25 27.9197 32.8777 26.5 31.4375 26.5Z" clip-rule="evenodd" fill="#191919" fill-opacity="0.000000" fill-rule="evenodd"/>
			</g>
		</g>
		<g mask="url(#mask3_2450)">
			<g opacity="0.823049">
				<mask id="mask_3_2454" fill="white">
					<path id="形状结合备份 109" d="M44.375 25.375C44.375 24.7537 43.8713 24.25 43.25 24.25L38.75 24.25C38.1287 24.25 37.625 24.7537 37.625 25.375C37.625 25.9963 38.1287 26.5 38.75 26.5L39.875 26.5L39.875 34.375C39.875 34.9963 40.3787 35.5 41 35.5C41.6213 35.5 42.125 34.9963 42.125 34.375L42.125 26.5L43.25 26.5C43.8713 26.5 44.375 25.9963 44.375 25.375Z" clip-rule="evenodd" fill="" fill-opacity="1.000000" fill-rule="evenodd"/>
				</mask>
				<path id="形状结合备份 109" d="M44.375 25.375C44.375 24.7537 43.8713 24.25 43.25 24.25L38.75 24.25C38.1287 24.25 37.625 24.7537 37.625 25.375C37.625 25.9963 38.1287 26.5 38.75 26.5L39.875 26.5L39.875 34.375C39.875 34.9963 40.3787 35.5 41 35.5C41.6213 35.5 42.125 34.9963 42.125 34.375L42.125 26.5L43.25 26.5C43.8713 26.5 44.375 25.9963 44.375 25.375Z" clip-rule="evenodd" fill="#191919" fill-opacity="1.000000" fill-rule="evenodd" mask="url(#mask_3_2454)"/>
				<path id="形状结合备份 109" d="M44.375 25.375C44.375 24.7537 43.8713 24.25 43.25 24.25L38.75 24.25C38.1287 24.25 37.625 24.7537 37.625 25.375C37.625 25.9963 38.1287 26.5 38.75 26.5L39.875 26.5L39.875 34.375C39.875 34.9963 40.3787 35.5 41 35.5C41.6213 35.5 42.125 34.9963 42.125 34.375L42.125 26.5L43.25 26.5C43.8713 26.5 44.375 25.9963 44.375 25.375Z" clip-rule="evenodd" fill="url(#paint_radial_3_2454_0)" fill-opacity="1.000000" fill-rule="evenodd" mask="url(#mask_3_2454)"/>
				<path id="形状结合备份 109" d="M42.625 26.5L43.25 26.5C43.8713 26.5 44.375 25.9963 44.375 25.375C44.375 24.7537 43.8713 24.25 43.25 24.25L38.75 24.25C38.1287 24.25 37.625 24.7537 37.625 25.375C37.625 25.9963 38.1287 26.5 38.75 26.5L39.875 26.5L39.875 34.375C39.875 34.9963 40.3787 35.5 41 35.5C41.6213 35.5 42.125 34.9963 42.125 34.375L42.125 26.5L42.625 26.5ZM43.8294 25.1356Q43.875 25.2459 43.875 25.375Q43.875 25.5041 43.8294 25.6144Q43.7836 25.7251 43.6919 25.8169Q43.6001 25.9086 43.4894 25.9544Q43.3791 26 43.25 26L41.625 26L41.625 34.375Q41.625 34.5041 41.5794 34.6144Q41.5336 34.7251 41.4419 34.8169Q41.3501 34.9086 41.2394 34.9544Q41.1291 35 41 35Q40.8709 35 40.7606 34.9544Q40.6499 34.9086 40.5581 34.8169Q40.4664 34.7251 40.4206 34.6144Q40.375 34.5041 40.375 34.375L40.375 26L38.75 26Q38.6209 26 38.5106 25.9544Q38.3999 25.9086 38.3081 25.8169Q38.2164 25.7251 38.1706 25.6144Q38.125 25.5041 38.125 25.375Q38.125 25.2459 38.1706 25.1356Q38.2164 25.0249 38.3081 24.9331Q38.3999 24.8414 38.5106 24.7956Q38.6209 24.75 38.75 24.75L43.25 24.75Q43.3791 24.75 43.4894 24.7956Q43.6001 24.8414 43.6919 24.9331Q43.7836 25.0249 43.8294 25.1356Z" clip-rule="evenodd" fill="#2C2C2C" fill-opacity="1.000000" fill-rule="evenodd"/>
				<path id="形状结合备份 109" d="M42.625 26.5L43.25 26.5C43.8713 26.5 44.375 25.9963 44.375 25.375C44.375 24.7537 43.8713 24.25 43.25 24.25L38.75 24.25C38.1287 24.25 37.625 24.7537 37.625 25.375C37.625 25.9963 38.1287 26.5 38.75 26.5L39.875 26.5L39.875 34.375C39.875 34.9963 40.3787 35.5 41 35.5C41.6213 35.5 42.125 34.9963 42.125 34.375L42.125 26.5L42.625 26.5ZM43.8294 25.1356Q43.875 25.2459 43.875 25.375Q43.875 25.5041 43.8294 25.6144Q43.7836 25.7251 43.6919 25.8169Q43.6001 25.9086 43.4894 25.9544Q43.3791 26 43.25 26L41.625 26L41.625 34.375Q41.625 34.5041 41.5794 34.6144Q41.5336 34.7251 41.4419 34.8169Q41.3501 34.9086 41.2394 34.9544Q41.1291 35 41 35Q40.8709 35 40.7606 34.9544Q40.6499 34.9086 40.5581 34.8169Q40.4664 34.7251 40.4206 34.6144Q40.375 34.5041 40.375 34.375L40.375 26L38.75 26Q38.6209 26 38.5106 25.9544Q38.3999 25.9086 38.3081 25.8169Q38.2164 25.7251 38.1706 25.6144Q38.125 25.5041 38.125 25.375Q38.125 25.2459 38.1706 25.1356Q38.2164 25.0249 38.3081 24.9331Q38.3999 24.8414 38.5106 24.7956Q38.6209 24.75 38.75 24.75L43.25 24.75Q43.3791 24.75 43.4894 24.7956Q43.6001 24.8414 43.6919 24.9331Q43.7836 25.0249 43.8294 25.1356Z" clip-rule="evenodd" fill="#191919" fill-opacity="0.000000" fill-rule="evenodd"/>
			</g>
		</g>
		<g mask="url(#mask3_2450)">
			<g opacity="0.823049">
				<rect id="矩形备份 34" x="20.750000" y="24.250000" rx="1.125000" width="2.250000" height="11.250000" fill="#191919" fill-opacity="1.000000"/>
				<rect id="矩形备份 34" x="20.750000" y="24.250000" rx="1.125000" width="2.250000" height="11.250000" fill="url(#paint_radial_3_2457_0)" fill-opacity="1.000000"/>
				<rect id="矩形备份 34" x="21.000000" y="24.500000" rx="0.875000" width="1.750000" height="10.750000" stroke="#2C2C2C" stroke-opacity="1.000000" stroke-width="0.500000"/>
				<rect id="矩形备份 34" x="21.000000" y="24.500000" rx="0.875000" width="1.750000" height="10.750000" stroke="#191919" stroke-opacity="0" stroke-width="0.500000"/>
			</g>
		</g>
		<g mask="url(#mask3_2450)">
			<g opacity="0.683514">
				<rect id="矩形" x="14.000000" y="43.375000" width="36.000000" height="1.125000" fill="url(#paint_linear_3_2458_0)" fill-opacity="1.000000"/>
				<rect id="矩形" x="14.500000" y="43.875000" width="35.000000" height="0.125000" stroke="#979797" stroke-opacity="0" stroke-width="1.000000"/>
			</g>
		</g>
		<g mask="url(#mask3_2450)">
			<g opacity="0.800000" filter="url(#filter_3_2459_dd)">
				<path id="矩形备份" d="M48.87 13L36 13L36 49L48.87 49C49.49 49 50 48.49 50 47.87L50 14.12C50 13.5 49.49 13 48.87 13Z" fill="url(#paint_linear_3_2459_0)" fill-opacity="1.000000" fill-rule="evenodd"/>
				<path id="矩形备份" d="M36 13L36 49L48.87 49C49.49 49 50 48.49 50 47.87L50 14.12C50 13.5 49.49 13 48.87 13L36 13ZM37 14L37 48L48.87 48C48.94 48 49 47.94 49 47.87L49 14.12C49 14.05 48.94 14 48.87 14L37 14Z" fill="#979797" fill-opacity="0" fill-rule="evenodd"/>
			</g>
		</g>
		<g mask="url(#mask3_2450)">
			<g opacity="0.800000" filter="url(#filter_3_2460_dd)">
				<path id="矩形备份 2" d="M15.12 13L28 13L28 49L15.12 49C14.5 49 14 48.49 14 47.87L14 14.12C14 13.5 14.5 13 15.12 13Z" fill="url(#paint_linear_3_2460_0)" fill-opacity="1.000000" fill-rule="evenodd"/>
				<path id="矩形备份 2" d="M28 13L28 49L15.12 49C14.5 49 14 48.49 14 47.87L14 14.12C14 13.5 14.5 13 15.12 13L28 13ZM27 14L27 48L15.12 48C15.05 48 15 47.94 15 47.87L15 14.12C15 14.05 15.05 14 15.12 14L27 14Z" fill="#979797" fill-opacity="0" fill-rule="evenodd"/>
			</g>
		</g>
	</g>
</svg>
