<svg width="64.000000" height="64.000000" viewBox="0 0 64 64" fill="none" xmlns="http://www.w3.org/2000/svg" xmlns:xlink="http://www.w3.org/1999/xlink">
	<desc>
			Created with Pixso.
	</desc>
	<defs>
		<filter id="filter_3_2393_dd" x="-4.993896" y="-14.350098" width="74.568848" height="91.395508" filterUnits="userSpaceOnUse" color-interpolation-filters="sRGB">
			<feFlood flood-opacity="0" result="BackgroundImageFix"/>
			<feColorMatrix in="SourceAlpha" type="matrix" values="0 0 0 0 0 0 0 0 0 0 0 0 0 0 0 0 0 0 127 0" result="hardAlpha"/>
			<feOffset dx="0" dy="0"/>
			<feGaussianBlur stdDeviation="7.78333"/>
			<feComposite in2="hardAlpha" operator="out" k2="-1" k3="1"/>
			<feColorMatrix type="matrix" values="0 0 0 0 0.9451 0 0 0 0 0.19216 0 0 0 0 0.27451 0 0 0 1 0"/>
			<feBlend mode="normal" in2="BackgroundImageFix" result="effect_dropShadow_1"/>
			<feBlend mode="normal" in="SourceGraphic" in2="effect_dropShadow_1" result="shape"/>
		</filter>
		<filter id="filter_3_2397_dd" x="15.000000" y="52.317871" width="34.000000" height="3.000000" filterUnits="userSpaceOnUse" color-interpolation-filters="sRGB">
			<feFlood flood-opacity="0" result="BackgroundImageFix"/>
			<feBlend mode="normal" in="SourceGraphic" in2="BackgroundImageFix" result="shape"/>
			<feGaussianBlur stdDeviation="0" result="effect_layerBlur_1"/>
		</filter>
		<clipPath id="clip3_32">
			<rect id="终端设备/智能手机" width="64.000000" height="64.000000" fill="white" fill-opacity="0"/>
		</clipPath>
		<linearGradient x1="32.290291" y1="10.000000" x2="32.290291" y2="60.353897" id="paint_linear_3_2393_0" gradientUnits="userSpaceOnUse">
			<stop stop-color="#E2E2E2"/>
			<stop offset="1.000000" stop-color="#A9A5A5"/>
		</linearGradient>
		<radialGradient gradientTransform="translate(32 53.8179) rotate(90) scale(1.5 15.3796)" cx="0.000000" cy="0.000000" r="1.000000" id="paint_radial_3_2397_0" gradientUnits="userSpaceOnUse">
			<stop stop-color="#8C8C8C" stop-opacity="0.525490"/>
			<stop offset="0.525180" stop-color="#000000" stop-opacity="0.200000"/>
			<stop offset="1.000000" stop-color="#000000" stop-opacity="0.000000"/>
		</radialGradient>
		<linearGradient x1="32.290047" y1="10.000000" x2="32.290047" y2="60.353897" id="paint_linear_3_2398_0" gradientUnits="userSpaceOnUse">
			<stop stop-color="#E2E2E2"/>
			<stop offset="1.000000" stop-color="#A9A5A5"/>
		</linearGradient>
		<radialGradient gradientTransform="translate(-7.26367 -59.7891) rotate(81.3747) scale(114.727 114.727)" cx="0.000000" cy="0.000000" r="1.000000" id="paint_radial_3_2406_0" gradientUnits="userSpaceOnUse">
			<stop stop-color="#FFFFFF" stop-opacity="0.901961"/>
			<stop offset="1.000000" stop-color="#FFFFFF" stop-opacity="0.000000"/>
		</radialGradient>
	</defs>
	<rect id="终端设备/智能手机" width="64.000000" height="64.000000" fill="#000000" fill-opacity="0"/>
	<g clip-path="url(#clip3_32)">
		<g opacity="0.000000">
			<rect id="矩形" x="8.000000" y="8.000000" width="48.000000" height="48.000000" fill="#D8D8D8" fill-opacity="1.000000"/>
			<rect id="矩形" x="8.500000" y="8.500000" width="47.000000" height="47.000000" stroke="#979797" stroke-opacity="0" stroke-width="1.000000"/>
		</g>
		<g filter="url(#filter_3_2393_dd)">
			<mask id="mask_3_2393" fill="white">
				<path id="形状结合" d="M41.4561 10L22.5562 10C21.4341 10 20.873 10 20.4448 10.2185C20.0681 10.4106 19.7627 10.7178 19.5706 11.0945C19.3528 11.521 19.354 12.0828 19.3562 13.2063L19.4265 49.5015C19.4287 50.6182 19.4299 51.1765 19.6482 51.6057C19.8394 51.9817 20.146 52.2866 20.522 52.4778C20.9495 52.6953 21.5085 52.6953 22.6267 52.6953L41.5266 52.6953C42.6487 52.6953 43.2097 52.6953 43.6379 52.4768C44.0146 52.2844 44.3198 51.9775 44.5122 51.6008C44.7297 51.1743 44.7288 50.6125 44.7266 49.489L44.6865 28.8928L45.0332 28.8928C45.1392 28.8928 45.2249 28.8071 45.2249 28.7012L45.2249 25.6494C45.2249 25.5437 45.1392 25.4578 45.0332 25.4578L44.6799 25.4578L44.6765 23.7402L45.0127 23.7402C45.1187 23.7402 45.2043 23.6545 45.2043 23.5486L45.2043 18.8235C45.2043 18.7178 45.1187 18.6318 45.0127 18.6318L44.6667 18.6318L44.656 13.1938C44.6538 12.0769 44.6528 11.5186 44.4346 11.0896C44.2432 10.7136 43.9368 10.4087 43.5608 10.2175C43.1333 10 42.5742 10 41.4561 10Z" clip-rule="evenodd" fill="" fill-opacity="1.000000" fill-rule="evenodd"/>
			</mask>
			<path id="形状结合" d="M41.4561 10L22.5562 10C21.4341 10 20.873 10 20.4448 10.2185C20.0681 10.4106 19.7627 10.7178 19.5706 11.0945C19.3528 11.521 19.354 12.0828 19.3562 13.2063L19.4265 49.5015C19.4287 50.6182 19.4299 51.1765 19.6482 51.6057C19.8394 51.9817 20.146 52.2866 20.522 52.4778C20.9495 52.6953 21.5085 52.6953 22.6267 52.6953L41.5266 52.6953C42.6487 52.6953 43.2097 52.6953 43.6379 52.4768C44.0146 52.2844 44.3198 51.9775 44.5122 51.6008C44.7297 51.1743 44.7288 50.6125 44.7266 49.489L44.6865 28.8928L45.0332 28.8928C45.1392 28.8928 45.2249 28.8071 45.2249 28.7012L45.2249 25.6494C45.2249 25.5437 45.1392 25.4578 45.0332 25.4578L44.6799 25.4578L44.6765 23.7402L45.0127 23.7402C45.1187 23.7402 45.2043 23.6545 45.2043 23.5486L45.2043 18.8235C45.2043 18.7178 45.1187 18.6318 45.0127 18.6318L44.6667 18.6318L44.656 13.1938C44.6538 12.0769 44.6528 11.5186 44.4346 11.0896C44.2432 10.7136 43.9368 10.4087 43.5608 10.2175C43.1333 10 42.5742 10 41.4561 10Z" clip-rule="evenodd" fill="#979797" fill-opacity="1.000000" fill-rule="evenodd" mask="url(#mask_3_2393)"/>
			<path id="形状结合" d="M42.8489 9.03052Q42.4753 9 41.4561 9L22.5562 9Q21.5334 9 21.1587 9.03076Q20.4607 9.08765 19.9902 9.32788Q19.7856 9.43227 19.6013 9.56492Q19.4041 9.70684 19.2302 9.8811Q19.0717 10.0402 18.9398 10.2189Q18.7934 10.4173 18.6797 10.6399Q18.4399 11.1101 18.384 11.8096Q18.3542 12.1843 18.3562 13.2083L18.4265 49.5034Q18.4285 50.5212 18.4597 50.8948Q18.5178 51.5894 18.7568 52.0591Q18.8592 52.2602 18.9891 52.4417Q19.1326 52.6424 19.3098 52.8191Q19.4697 52.9787 19.6496 53.1111Q19.8471 53.2565 20.0686 53.3691Q20.5381 53.6079 21.2339 53.6648Q21.6074 53.6953 22.6267 53.6953L41.5266 53.6953Q42.5493 53.6953 42.9238 53.6646Q43.6221 53.6077 44.0925 53.3674Q44.2972 53.263 44.4815 53.1303Q44.6786 52.9883 44.8523 52.814Q45.0118 52.6541 45.1443 52.4744Q45.2898 52.2769 45.4028 52.0554Q45.6428 51.5852 45.6987 50.8857Q45.7285 50.511 45.7266 49.4871L45.6881 29.6971Q45.6942 29.6931 45.7003 29.6889Q45.7941 29.6255 45.8757 29.5439Q45.9591 29.4606 46.0235 29.3645Q46.0862 29.2709 46.1309 29.1653Q46.1773 29.0555 46.2008 28.941Q46.2249 28.8236 46.2249 28.7012L46.2249 25.6494Q46.2249 25.527 46.2008 25.4096Q46.1773 25.2951 46.1309 25.1853Q46.0857 25.0786 46.0222 24.9843Q45.9583 24.8893 45.8757 24.8069Q45.7933 24.7243 45.6984 24.6604Q45.6884 24.6537 45.6783 24.6472L45.6781 24.5376Q45.773 24.4737 45.8555 24.3914Q45.9379 24.3088 46.0018 24.2138Q46.0652 24.1194 46.1104 24.0127Q46.1568 23.9029 46.1802 23.7884Q46.2043 23.671 46.2043 23.5486L46.2043 18.8235Q46.2043 18.7011 46.1802 18.5837Q46.1568 18.4692 46.1104 18.3594Q46.0648 18.2516 46.0005 18.1564Q45.9371 18.0625 45.8555 17.981Q45.771 17.8965 45.6735 17.8315Q45.6693 17.8287 45.6652 17.826L45.656 13.1919Q45.6541 12.1738 45.6228 11.8005Q45.5647 11.106 45.3259 10.6362Q45.2218 10.4314 45.0891 10.2471Q44.9473 10.0499 44.7729 9.87622Q44.6101 9.71385 44.4267 9.57957Q44.232 9.43705 44.0142 9.32617Q43.5447 9.0874 42.8489 9.03052ZM44.6667 18.6318L44.656 13.1938C44.6538 12.0769 44.6528 11.5186 44.4346 11.0896C44.2432 10.7136 43.9368 10.4087 43.5608 10.2175C43.1333 10 42.5742 10 41.4561 10L22.5562 10C21.4341 10 20.873 10 20.4448 10.2185C20.0681 10.4106 19.7627 10.7178 19.5706 11.0945C19.3529 11.5208 19.354 12.0821 19.3562 13.2044L19.3562 13.2063L19.4265 49.5015C19.4287 50.6182 19.4299 51.1765 19.6482 51.6057C19.8394 51.9817 20.146 52.2866 20.522 52.4778C20.9495 52.6953 21.5085 52.6953 22.6267 52.6953L41.5266 52.6953C42.6487 52.6953 43.2097 52.6953 43.6379 52.4768C44.0146 52.2844 44.3198 51.9775 44.5122 51.6008C44.7297 51.1743 44.7288 50.6125 44.7266 49.489L44.6885 29.8928L44.6865 28.8928L45.0332 28.8928C45.0388 28.8928 45.0444 28.8926 45.0498 28.8921C45.148 28.8837 45.2249 28.8015 45.2249 28.7012L45.2249 25.6494C45.2249 25.5437 45.1392 25.4578 45.0332 25.4578L44.6799 25.4578L44.6785 24.7402L44.6765 23.7402L45.0127 23.7402C45.0182 23.7402 45.0237 23.74 45.0291 23.7395C45.1273 23.7313 45.2043 23.649 45.2043 23.5486L45.2043 18.8235C45.2043 18.7178 45.1187 18.6318 45.0127 18.6318L44.6667 18.6318Z" clip-rule="evenodd" fill="url(#paint_linear_3_2393_0)" fill-opacity="1.000000" fill-rule="evenodd"/>
		</g>
		<g filter="url(#filter_3_2397_dd)">
			<path id="椭圆形备份 2" d="M32 55.31C41.38 55.31 49 54.64 49 53.81C49 52.98 41.38 52.31 32 52.31C22.61 52.31 15 52.98 15 53.81C15 54.64 22.61 55.31 32 55.31Z" fill="url(#paint_radial_3_2397_0)" fill-opacity="1.000000" fill-rule="evenodd"/>
			<path id="椭圆形备份 2" d="" fill="#979797" fill-opacity="0" fill-rule="evenodd"/>
		</g>
		<mask id="mask_3_2398" fill="white">
			<path id="形状结合" d="M41.4558 10L22.5559 10C21.4338 10 20.8728 10 20.4446 10.2185C20.0679 10.4106 19.7625 10.7178 19.5703 11.0945C19.3525 11.521 19.3538 12.0828 19.356 13.2063L19.4263 49.5015C19.4285 50.6182 19.4297 51.1765 19.6479 51.6057C19.8391 51.9817 20.1458 52.2866 20.5217 52.4778C20.9492 52.6953 21.5083 52.6953 22.6265 52.6953L41.5264 52.6953C42.6484 52.6953 43.2095 52.6953 43.6377 52.4768C44.0144 52.2844 44.3198 51.9775 44.512 51.6008C44.7295 51.1743 44.7285 50.6125 44.7263 49.489L44.6863 28.8928L45.033 28.8928C45.1389 28.8928 45.2246 28.8071 45.2246 28.7012L45.2246 25.6494C45.2246 25.5437 45.1389 25.4578 45.033 25.4578L44.6797 25.4578L44.6763 23.7402L45.0125 23.7402C45.1184 23.7402 45.2041 23.6545 45.2041 23.5486L45.2041 18.8235C45.2041 18.7178 45.1184 18.6318 45.0125 18.6318L44.6665 18.6318L44.6558 13.1938C44.6536 12.0769 44.6526 11.5186 44.4343 11.0896C44.2429 10.7136 43.9365 10.4087 43.5605 10.2175C43.1331 10 42.574 10 41.4558 10Z" clip-rule="evenodd" fill="" fill-opacity="1.000000" fill-rule="evenodd"/>
		</mask>
		<path id="形状结合" d="M41.4558 10L22.5559 10C21.4338 10 20.8728 10 20.4446 10.2185C20.0679 10.4106 19.7625 10.7178 19.5703 11.0945C19.3525 11.521 19.3538 12.0828 19.356 13.2063L19.4263 49.5015C19.4285 50.6182 19.4297 51.1765 19.6479 51.6057C19.8391 51.9817 20.1458 52.2866 20.5217 52.4778C20.9492 52.6953 21.5083 52.6953 22.6265 52.6953L41.5264 52.6953C42.6484 52.6953 43.2095 52.6953 43.6377 52.4768C44.0144 52.2844 44.3198 51.9775 44.512 51.6008C44.7295 51.1743 44.7285 50.6125 44.7263 49.489L44.6863 28.8928L45.033 28.8928C45.1389 28.8928 45.2246 28.8071 45.2246 28.7012L45.2246 25.6494C45.2246 25.5437 45.1389 25.4578 45.033 25.4578L44.6797 25.4578L44.6763 23.7402L45.0125 23.7402C45.1184 23.7402 45.2041 23.6545 45.2041 23.5486L45.2041 18.8235C45.2041 18.7178 45.1184 18.6318 45.0125 18.6318L44.6665 18.6318L44.6558 13.1938C44.6536 12.0769 44.6526 11.5186 44.4343 11.0896C44.2429 10.7136 43.9365 10.4087 43.5605 10.2175C43.1331 10 42.574 10 41.4558 10Z" clip-rule="evenodd" fill="#979797" fill-opacity="1.000000" fill-rule="evenodd" mask="url(#mask_3_2398)"/>
		<path id="形状结合" d="M42.8486 9.03052Q42.4751 9 41.4558 9L22.5559 9Q21.5332 9 21.1584 9.03076Q20.4604 9.08765 19.99 9.32788Q19.7853 9.43227 19.601 9.56492Q19.4039 9.70684 19.23 9.8811Q19.0715 10.0402 18.9396 10.2189Q18.7931 10.4173 18.6794 10.6399Q18.4397 11.1101 18.3838 11.8096Q18.354 12.1843 18.356 13.2083L18.4263 49.5034Q18.4282 50.5212 18.4595 50.8948Q18.5176 51.5894 18.7566 52.0591Q18.859 52.2602 18.9888 52.4417Q19.1324 52.6424 19.3096 52.8191Q19.4695 52.9787 19.6494 53.1111Q19.8468 53.2565 20.0684 53.3691Q20.5378 53.6079 21.2336 53.6648Q21.6072 53.6953 22.6265 53.6953L41.5264 53.6953Q42.5491 53.6953 42.9236 53.6646Q43.6218 53.6077 44.0923 53.3674Q44.297 53.263 44.4812 53.1303Q44.6783 52.9883 44.8521 52.814Q45.0115 52.6541 45.144 52.4744Q45.2896 52.2769 45.4026 52.0554Q45.6426 51.5852 45.6985 50.8857Q45.7283 50.511 45.7263 49.4871L45.6878 29.6971Q45.694 29.6931 45.7 29.6889Q45.7939 29.6255 45.8755 29.5439Q45.9589 29.4606 46.0233 29.3645Q46.0859 29.2709 46.1306 29.1653Q46.177 29.0555 46.2005 28.941Q46.2246 28.8236 46.2246 28.7012L46.2246 25.6494Q46.2246 25.527 46.2005 25.4096Q46.177 25.2951 46.1306 25.1853Q46.0855 25.0786 46.022 24.9843Q45.958 24.8893 45.8755 24.8069Q45.7931 24.7243 45.6981 24.6604Q45.6882 24.6537 45.6781 24.6472L45.6779 24.5376Q45.7727 24.4737 45.8552 24.3914Q45.9376 24.3088 46.0015 24.2138Q46.065 24.1194 46.1101 24.0127Q46.1565 23.9029 46.18 23.7884Q46.2041 23.671 46.2041 23.5486L46.2041 18.8235Q46.2041 18.7011 46.18 18.5837Q46.1565 18.4692 46.1101 18.3594Q46.0645 18.2516 46.0002 18.1564Q45.9368 18.0625 45.8552 17.981Q45.7708 17.8965 45.6733 17.8315Q45.6691 17.8287 45.6649 17.826L45.6558 13.1919Q45.6538 12.1738 45.6226 11.8005Q45.5645 11.106 45.3257 10.6362Q45.2215 10.4314 45.0889 10.2471Q44.9471 10.0499 44.7727 9.87622Q44.6099 9.71385 44.4264 9.57957Q44.2318 9.43705 44.0139 9.32617Q43.5444 9.0874 42.8486 9.03052ZM44.6665 18.6318L44.6558 13.1938C44.6536 12.0769 44.6526 11.5186 44.4343 11.0896C44.2429 10.7136 43.9365 10.4087 43.5605 10.2175C43.1331 10 42.574 10 41.4558 10L22.5559 10C21.4338 10 20.8728 10 20.4446 10.2185C20.0679 10.4106 19.7625 10.7178 19.5703 11.0945C19.3527 11.5208 19.3538 12.0821 19.356 13.2044L19.356 13.2063L19.4263 49.5015C19.4285 50.6182 19.4297 51.1765 19.6479 51.6057C19.8391 51.9817 20.1458 52.2866 20.5217 52.4778C20.9492 52.6953 21.5083 52.6953 22.6265 52.6953L41.5264 52.6953C42.6484 52.6953 43.2095 52.6953 43.6377 52.4768C44.0144 52.2844 44.3198 51.9775 44.512 51.6008C44.7295 51.1743 44.7285 50.6125 44.7263 49.489L44.6882 29.8928L44.6863 28.8928L45.033 28.8928C45.0386 28.8928 45.0441 28.8926 45.0496 28.8921C45.1477 28.8837 45.2246 28.8015 45.2246 28.7012L45.2246 25.6494C45.2246 25.5437 45.1389 25.4578 45.033 25.4578L44.6797 25.4578L44.6783 24.7402L44.6763 23.7402L45.0125 23.7402C45.018 23.7402 45.0234 23.74 45.0288 23.7395C45.1271 23.7313 45.2041 23.649 45.2041 23.5486L45.2041 18.8235C45.2041 18.7178 45.1184 18.6318 45.0125 18.6318L44.6665 18.6318Z" clip-rule="evenodd" fill="url(#paint_linear_3_2398_0)" fill-opacity="1.000000" fill-rule="evenodd"/>
		<mask id="mask_3_2402" fill="white">
			<path id="形状结合" d="M44.6499 23.2239L44.6499 19.3518C44.6499 19.2458 44.5642 19.1602 44.4583 19.1602L43.5 19.1602L43.5 23.4155L44.4583 23.4155C44.5642 23.4155 44.6499 23.3296 44.6499 23.2239ZM44.6501 28.1467L44.6501 26.2402C44.6501 26.1343 44.5642 26.0486 44.4585 26.0486L43.666 26.0486L43.666 28.3386L44.4585 28.3386C44.5642 28.3386 44.6501 28.2527 44.6501 28.1467Z" clip-rule="evenodd" fill="" fill-opacity="1.000000" fill-rule="evenodd"/>
		</mask>
		<path id="形状结合" d="M44.6499 23.2239L44.6499 19.3518C44.6499 19.2458 44.5642 19.1602 44.4583 19.1602L43.5 19.1602L43.5 23.4155L44.4583 23.4155C44.5642 23.4155 44.6499 23.3296 44.6499 23.2239ZM44.6501 28.1467L44.6501 26.2402C44.6501 26.1343 44.5642 26.0486 44.4585 26.0486L43.666 26.0486L43.666 28.3386L44.4585 28.3386C44.5642 28.3386 44.6501 28.2527 44.6501 28.1467Z" clip-rule="evenodd" fill="#505259" fill-opacity="1.000000" fill-rule="evenodd" mask="url(#mask_3_2402)"/>
		<path id="形状结合" d="" clip-rule="evenodd" fill="#2C2C41" fill-opacity="0.000000" fill-rule="evenodd"/>
		<rect id="矩形" x="20.500000" y="11.145020" rx="1.000000" width="23.000000" height="40.440083" fill="#505259" fill-opacity="0"/>
		<rect id="矩形" x="20.212402" y="10.857422" rx="1.000000" width="23.575001" height="41.015083" stroke="#FFFFFF" stroke-opacity="0" stroke-width="0.575000"/>
		<rect id="矩形" x="20.212402" y="10.857422" rx="1.000000" width="23.575001" height="41.015083" stroke="#000000" stroke-opacity="1.000000" stroke-width="0.575000"/>
		<path id="矩形" d="M21.5 11.14L42.55 11.14C43.1 11.14 43.55 11.59 43.55 12.14L43.55 50.58C43.55 51.13 43.1 51.58 42.55 51.58L21.5 51.58C20.94 51.58 20.5 51.13 20.5 50.58L20.5 12.14C20.5 11.59 20.94 11.14 21.5 11.14Z" fill="#191919" fill-opacity="1.000000" fill-rule="evenodd"/>
		<path id="矩形" d="M21.5 11.14L42.55 11.14C43.1 11.14 43.55 11.59 43.55 12.14L43.55 50.58C43.55 51.13 43.1 51.58 42.55 51.58L21.5 51.58C20.94 51.58 20.5 51.13 20.5 50.58L20.5 12.14C20.5 11.59 20.94 11.14 21.5 11.14Z" fill="url(#paint_radial_3_2406_0)" fill-opacity="1.000000" fill-rule="evenodd"/>
		<path id="矩形" d="M21.5 11.14L42.55 11.14C43.1 11.14 43.55 11.59 43.55 12.14L43.55 50.58C43.55 51.13 43.1 51.58 42.55 51.58L21.5 51.58C20.94 51.58 20.5 51.13 20.5 50.58L20.5 12.14C20.5 11.59 20.94 11.14 21.5 11.14ZM21.5 11.72L42.55 11.72C42.69 11.72 42.8 11.75 42.87 11.82C42.94 11.89 42.97 12 42.97 12.14L42.97 50.58C42.97 50.72 42.94 50.83 42.87 50.9C42.8 50.97 42.69 51.01 42.55 51.01L21.5 51.01C21.35 51.01 21.25 50.97 21.18 50.9C21.11 50.83 21.07 50.72 21.07 50.58L21.07 12.14C21.07 12 21.11 11.89 21.18 11.82C21.25 11.75 21.35 11.72 21.5 11.72Z" fill="#2C2C2C" fill-opacity="1.000000" fill-rule="evenodd"/>
		<path id="矩形" d="M21.5 11.14L42.55 11.14C43.1 11.14 43.55 11.59 43.55 12.14L43.55 50.58C43.55 51.13 43.1 51.58 42.55 51.58L21.5 51.58C20.94 51.58 20.5 51.13 20.5 50.58L20.5 12.14C20.5 11.59 20.94 11.14 21.5 11.14ZM21.5 11.72L42.55 11.72C42.69 11.72 42.8 11.75 42.87 11.82C42.94 11.89 42.97 12 42.97 12.14L42.97 50.58C42.97 50.72 42.94 50.83 42.87 50.9C42.8 50.97 42.69 51.01 42.55 51.01L21.5 51.01C21.35 51.01 21.25 50.97 21.18 50.9C21.11 50.83 21.07 50.72 21.07 50.58L21.07 12.14C21.07 12 21.11 11.89 21.18 11.82C21.25 11.75 21.35 11.72 21.5 11.72Z" fill="#191919" fill-opacity="0" fill-rule="evenodd"/>
		<path id="椭圆形" d="M32 13.73C32.45 13.73 32.82 13.37 32.82 12.91C32.82 12.46 32.45 12.09 32 12.09C31.54 12.09 31.17 12.46 31.17 12.91C31.17 13.37 31.54 13.73 32 13.73Z" fill="#000000" fill-opacity="1.000000" fill-rule="evenodd"/>
		<path id="椭圆形" d="" fill="#979797" fill-opacity="0" fill-rule="evenodd"/>
	</g>
</svg>
