<svg width="64.000000" height="64.000000" viewBox="0 0 64 64" fill="none" xmlns="http://www.w3.org/2000/svg" xmlns:xlink="http://www.w3.org/1999/xlink">
	<desc>
			Created with Pixso.
	</desc>
	<defs>
		<filter id="filter_3_2379_dd" x="15.000000" y="52.317871" width="34.000000" height="3.000000" filterUnits="userSpaceOnUse" color-interpolation-filters="sRGB">
			<feFlood flood-opacity="0" result="BackgroundImageFix"/>
			<feBlend mode="normal" in="SourceGraphic" in2="BackgroundImageFix" result="shape"/>
			<feGaussianBlur stdDeviation="0" result="effect_layerBlur_1"/>
		</filter>
		<clipPath id="clip3_31">
			<rect id="终端设备/智能手机" width="64.000000" height="64.000000" fill="white" fill-opacity="0"/>
		</clipPath>
		<radialGradient gradientTransform="translate(32 53.8179) rotate(90) scale(1.5 15.3796)" cx="0.000000" cy="0.000000" r="1.000000" id="paint_radial_3_2379_0" gradientUnits="userSpaceOnUse">
			<stop stop-color="#8C8C8C" stop-opacity="0.525490"/>
			<stop offset="0.525180" stop-color="#000000" stop-opacity="0.200000"/>
			<stop offset="1.000000" stop-color="#000000" stop-opacity="0.000000"/>
		</radialGradient>
		<linearGradient x1="32.290047" y1="10.000000" x2="32.290047" y2="60.353897" id="paint_linear_3_2380_0" gradientUnits="userSpaceOnUse">
			<stop stop-color="#E2E2E2"/>
			<stop offset="1.000000" stop-color="#A9A5A5"/>
		</linearGradient>
		<radialGradient gradientTransform="translate(-7.26367 -59.7891) rotate(81.3747) scale(114.727 114.727)" cx="0.000000" cy="0.000000" r="1.000000" id="paint_radial_3_2388_0" gradientUnits="userSpaceOnUse">
			<stop stop-color="#FFFFFF" stop-opacity="0.901961"/>
			<stop offset="1.000000" stop-color="#FFFFFF" stop-opacity="0.000000"/>
		</radialGradient>
	</defs>
	<rect id="终端设备/智能手机" width="64.000000" height="64.000000" fill="#000000" fill-opacity="0"/>
	<g clip-path="url(#clip3_31)">
		<g opacity="0.000000">
			<rect id="矩形" x="8.000000" y="8.000000" width="48.000000" height="48.000000" fill="#D8D8D8" fill-opacity="1.000000"/>
			<rect id="矩形" x="8.500000" y="8.500000" width="47.000000" height="47.000000" stroke="#979797" stroke-opacity="0" stroke-width="1.000000"/>
		</g>
		<g filter="url(#filter_3_2379_dd)">
			<path id="椭圆形备份 2" d="M32 55.31C41.38 55.31 49 54.64 49 53.81C49 52.98 41.38 52.31 32 52.31C22.61 52.31 15 52.98 15 53.81C15 54.64 22.61 55.31 32 55.31Z" fill="url(#paint_radial_3_2379_0)" fill-opacity="1.000000" fill-rule="evenodd"/>
			<path id="椭圆形备份 2" d="" fill="#979797" fill-opacity="0" fill-rule="evenodd"/>
		</g>
		<mask id="mask_3_2380" fill="white">
			<path id="形状结合" d="M41.4558 10L22.5559 10C21.4338 10 20.8728 10 20.4445 10.2185C20.0679 10.4106 19.7625 10.7178 19.5703 11.0945C19.3527 11.521 19.3536 12.0828 19.3558 13.2063L19.4264 49.5015C19.4285 50.6182 19.4296 51.1765 19.6479 51.6057C19.8392 51.9817 20.1458 52.2866 20.5217 52.4778C20.9491 52.6953 21.5082 52.6953 22.6263 52.6953L41.5264 52.6953C42.6484 52.6953 43.2095 52.6953 43.6377 52.4768C44.0144 52.2844 44.3197 51.9775 44.512 51.6008C44.7296 51.1743 44.7285 50.6125 44.7263 49.489L44.6863 28.8928L45.033 28.8928C45.1388 28.8928 45.2246 28.8071 45.2246 28.7012L45.2246 25.6494C45.2246 25.5437 45.1388 25.4578 45.033 25.4578L44.6797 25.4578L44.6763 23.7402L45.0126 23.7402C45.1184 23.7402 45.2042 23.6545 45.2042 23.5486L45.2042 18.8235C45.2042 18.7178 45.1184 18.6318 45.0126 18.6318L44.6664 18.6318L44.6559 13.1938C44.6537 12.0769 44.6526 11.5186 44.4343 11.0896C44.243 10.7136 43.9364 10.4087 43.5604 10.2175C43.1331 10 42.574 10 41.4558 10Z" clip-rule="evenodd" fill="" fill-opacity="1.000000" fill-rule="evenodd"/>
		</mask>
		<path id="形状结合" d="M41.4558 10L22.5559 10C21.4338 10 20.8728 10 20.4445 10.2185C20.0679 10.4106 19.7625 10.7178 19.5703 11.0945C19.3527 11.521 19.3536 12.0828 19.3558 13.2063L19.4264 49.5015C19.4285 50.6182 19.4296 51.1765 19.6479 51.6057C19.8392 51.9817 20.1458 52.2866 20.5217 52.4778C20.9491 52.6953 21.5082 52.6953 22.6263 52.6953L41.5264 52.6953C42.6484 52.6953 43.2095 52.6953 43.6377 52.4768C44.0144 52.2844 44.3197 51.9775 44.512 51.6008C44.7296 51.1743 44.7285 50.6125 44.7263 49.489L44.6863 28.8928L45.033 28.8928C45.1388 28.8928 45.2246 28.8071 45.2246 28.7012L45.2246 25.6494C45.2246 25.5437 45.1388 25.4578 45.033 25.4578L44.6797 25.4578L44.6763 23.7402L45.0126 23.7402C45.1184 23.7402 45.2042 23.6545 45.2042 23.5486L45.2042 18.8235C45.2042 18.7178 45.1184 18.6318 45.0126 18.6318L44.6664 18.6318L44.6559 13.1938C44.6537 12.0769 44.6526 11.5186 44.4343 11.0896C44.243 10.7136 43.9364 10.4087 43.5604 10.2175C43.1331 10 42.574 10 41.4558 10Z" clip-rule="evenodd" fill="#979797" fill-opacity="1.000000" fill-rule="evenodd" mask="url(#mask_3_2380)"/>
		<path id="形状结合" d="M42.8485 9.03052Q42.475 9 41.4558 9L22.5559 9Q21.5332 9 21.1586 9.03076Q20.4604 9.08765 19.99 9.32788Q19.7846 9.43267 19.5996 9.56595Q19.4033 9.70747 19.2301 9.8811Q19.0694 10.0423 18.9361 10.2236Q18.7918 10.42 18.6796 10.6399Q18.4396 11.1101 18.3838 11.8096Q18.3539 12.1843 18.3558 13.2083L18.4264 49.5034Q18.4283 50.5212 18.4596 50.8948Q18.5176 51.5894 18.7566 52.0591Q18.8594 52.261 18.9898 52.4431Q19.133 52.643 19.3094 52.8191Q19.4723 52.9815 19.6557 53.1157Q19.8504 53.2583 20.0682 53.3691Q20.5377 53.6079 21.2336 53.6648Q21.6072 53.6953 22.6263 53.6953L41.5264 53.6953Q42.549 53.6953 42.9237 53.6646Q43.6217 53.6077 44.0922 53.3674Q44.2961 53.2634 44.4797 53.1313Q44.6776 52.989 44.8521 52.814Q45.0115 52.6541 45.144 52.4744Q45.2896 52.2769 45.4026 52.0554Q45.6426 51.5852 45.6984 50.8857Q45.7283 50.511 45.7263 49.4871L45.6878 29.6971Q45.6934 29.6934 45.6991 29.6896Q45.7935 29.6259 45.8756 29.5439Q45.9585 29.461 46.0226 29.3654Q46.0857 29.2714 46.1306 29.1653Q46.177 29.0555 46.2005 28.941Q46.2246 28.8236 46.2246 28.7012L46.2246 25.6494Q46.2246 25.527 46.2005 25.4096Q46.177 25.2951 46.1306 25.1853Q46.0852 25.0781 46.0213 24.9833Q45.9577 24.8889 45.8756 24.8069Q45.7927 24.7239 45.6972 24.6598Q45.6877 24.6534 45.6781 24.6472L45.6779 24.5376L45.6787 24.537Q45.7732 24.4734 45.8552 24.3914Q45.9384 24.3082 46.0026 24.2123Q46.0654 24.1186 46.1101 24.0127Q46.1567 23.9026 46.1802 23.7878Q46.2042 23.6707 46.2042 23.5486L46.2042 18.8235Q46.2042 18.7014 46.1802 18.5843Q46.1567 18.4695 46.1101 18.3594Q46.0649 18.2524 46.0013 18.1579Q45.9375 18.0632 45.8552 17.981Q45.7723 17.898 45.6768 17.8338Q45.6709 17.8299 45.6648 17.8259L45.6559 13.1919Q45.6538 12.1738 45.6227 11.8005Q45.5646 11.106 45.3256 10.6362Q45.221 10.4307 45.0878 10.2457Q44.9464 10.0493 44.7727 9.87622Q44.6113 9.71525 44.4297 9.5819Q44.2336 9.43795 44.0139 9.32617Q43.5444 9.0874 42.8485 9.03052ZM44.6664 18.6318L44.6559 13.1938C44.6537 12.0769 44.6526 11.5186 44.4343 11.0896C44.243 10.7136 43.9364 10.4087 43.5604 10.2175C43.1331 10 42.574 10 41.4558 10L22.5559 10C21.4338 10 20.8728 10 20.4445 10.2185C20.0679 10.4106 19.7625 10.7178 19.5703 11.0945C19.3527 11.521 19.3536 12.0828 19.3558 13.2063L19.4264 49.5015C19.4285 50.6182 19.4296 51.1765 19.6479 51.6057C19.8392 51.9817 20.1458 52.2866 20.5217 52.4778C20.9491 52.6953 21.5082 52.6953 22.6263 52.6953L41.5264 52.6953C42.6484 52.6953 43.2095 52.6953 43.6377 52.4768C44.0144 52.2844 44.3197 51.9775 44.512 51.6008C44.7296 51.1743 44.7285 50.6125 44.7263 49.489L44.6882 29.8928L44.6863 28.8928L45.033 28.8928C45.0386 28.8928 45.0441 28.8926 45.0496 28.8921C45.1476 28.8837 45.2246 28.8015 45.2246 28.7012L45.2246 25.6494C45.2246 25.5437 45.1388 25.4578 45.033 25.4578L44.6797 25.4578L44.6783 24.7402L44.6763 23.7402L45.0126 23.7402C45.0181 23.7402 45.0235 23.74 45.0289 23.7395C45.1271 23.7312 45.2042 23.649 45.2042 23.5486L45.2042 18.8235C45.2042 18.7178 45.1184 18.6318 45.0126 18.6318L44.6664 18.6318Z" clip-rule="evenodd" fill="url(#paint_linear_3_2380_0)" fill-opacity="1.000000" fill-rule="evenodd"/>
		<mask id="mask_3_2384" fill="white">
			<path id="形状结合" d="M44.6499 23.2239L44.6499 19.3518C44.6499 19.2458 44.5641 19.1602 44.4583 19.1602L43.4999 19.1602L43.4999 23.4155L44.4583 23.4155C44.5641 23.4155 44.6499 23.3296 44.6499 23.2239ZM44.65 28.1467L44.65 26.2402C44.65 26.1343 44.5642 26.0486 44.4584 26.0486L43.6658 26.0486L43.6658 28.3386L44.4584 28.3386C44.5642 28.3386 44.65 28.2527 44.65 28.1467Z" clip-rule="evenodd" fill="" fill-opacity="1.000000" fill-rule="evenodd"/>
		</mask>
		<path id="形状结合" d="M44.6499 23.2239L44.6499 19.3518C44.6499 19.2458 44.5641 19.1602 44.4583 19.1602L43.4999 19.1602L43.4999 23.4155L44.4583 23.4155C44.5641 23.4155 44.6499 23.3296 44.6499 23.2239ZM44.65 28.1467L44.65 26.2402C44.65 26.1343 44.5642 26.0486 44.4584 26.0486L43.6658 26.0486L43.6658 28.3386L44.4584 28.3386C44.5642 28.3386 44.65 28.2527 44.65 28.1467Z" clip-rule="evenodd" fill="#505259" fill-opacity="1.000000" fill-rule="evenodd" mask="url(#mask_3_2384)"/>
		<path id="形状结合" d="" clip-rule="evenodd" fill="#2C2C41" fill-opacity="0.000000" fill-rule="evenodd"/>
		<rect id="矩形" x="20.500000" y="11.145020" rx="1.000000" width="23.000000" height="40.440083" fill="#505259" fill-opacity="0"/>
		<rect id="矩形" x="20.212524" y="10.857422" rx="1.000000" width="23.575001" height="41.015083" stroke="#FFFFFF" stroke-opacity="0" stroke-width="0.575000"/>
		<rect id="矩形" x="20.212524" y="10.857422" rx="1.000000" width="23.575001" height="41.015083" stroke="#000000" stroke-opacity="1.000000" stroke-width="0.575000"/>
		<path id="矩形" d="M21.5 11.14L42.55 11.14C43.1 11.14 43.55 11.59 43.55 12.14L43.55 50.58C43.55 51.13 43.1 51.58 42.55 51.58L21.5 51.58C20.94 51.58 20.5 51.13 20.5 50.58L20.5 12.14C20.5 11.59 20.94 11.14 21.5 11.14Z" fill="#191919" fill-opacity="1.000000" fill-rule="evenodd"/>
		<path id="矩形" d="M21.5 11.14L42.55 11.14C43.1 11.14 43.55 11.59 43.55 12.14L43.55 50.58C43.55 51.13 43.1 51.58 42.55 51.58L21.5 51.58C20.94 51.58 20.5 51.13 20.5 50.58L20.5 12.14C20.5 11.59 20.94 11.14 21.5 11.14Z" fill="url(#paint_radial_3_2388_0)" fill-opacity="1.000000" fill-rule="evenodd"/>
		<path id="矩形" d="M21.5 11.14L42.55 11.14C43.1 11.14 43.55 11.59 43.55 12.14L43.55 50.58C43.55 51.13 43.1 51.58 42.55 51.58L21.5 51.58C20.94 51.58 20.5 51.13 20.5 50.58L20.5 12.14C20.5 11.59 20.94 11.14 21.5 11.14ZM21.5 11.72L42.55 11.72C42.69 11.72 42.8 11.75 42.87 11.82C42.94 11.89 42.97 12 42.97 12.14L42.97 50.58C42.97 50.72 42.94 50.83 42.87 50.9C42.8 50.97 42.69 51.01 42.55 51.01L21.5 51.01C21.35 51.01 21.25 50.97 21.18 50.9C21.11 50.83 21.07 50.72 21.07 50.58L21.07 12.14C21.07 12 21.11 11.89 21.18 11.82C21.25 11.75 21.35 11.72 21.5 11.72Z" fill="#2C2C2C" fill-opacity="1.000000" fill-rule="evenodd"/>
		<path id="矩形" d="M21.5 11.14L42.55 11.14C43.1 11.14 43.55 11.59 43.55 12.14L43.55 50.58C43.55 51.13 43.1 51.58 42.55 51.58L21.5 51.58C20.94 51.58 20.5 51.13 20.5 50.58L20.5 12.14C20.5 11.59 20.94 11.14 21.5 11.14ZM21.5 11.72L42.55 11.72C42.69 11.72 42.8 11.75 42.87 11.82C42.94 11.89 42.97 12 42.97 12.14L42.97 50.58C42.97 50.72 42.94 50.83 42.87 50.9C42.8 50.97 42.69 51.01 42.55 51.01L21.5 51.01C21.35 51.01 21.25 50.97 21.18 50.9C21.11 50.83 21.07 50.72 21.07 50.58L21.07 12.14C21.07 12 21.11 11.89 21.18 11.82C21.25 11.75 21.35 11.72 21.5 11.72Z" fill="#191919" fill-opacity="0" fill-rule="evenodd"/>
		<path id="椭圆形" d="M32 13.73C32.45 13.73 32.82 13.37 32.82 12.91C32.82 12.46 32.45 12.09 32 12.09C31.54 12.09 31.17 12.46 31.17 12.91C31.17 13.37 31.54 13.73 32 13.73Z" fill="#000000" fill-opacity="1.000000" fill-rule="evenodd"/>
		<path id="椭圆形" d="" fill="#979797" fill-opacity="0" fill-rule="evenodd"/>
	</g>
</svg>
