<?xml version="1.0" encoding="UTF-8"?>
<svg width="24px" height="24px" viewBox="0 0 24 24" version="1.1" xmlns="http://www.w3.org/2000/svg" xmlns:xlink="http://www.w3.org/1999/xlink">
    <title>ic_sort_up_lined</title>
    <g id="ic_sort_up_lined" stroke="none" stroke-width="1" fill="none" fill-rule="evenodd">
        <rect id="矩形" fill="#D8D8D8" fill-rule="nonzero" opacity="0" x="0" y="0" width="24" height="24"></rect>
        <path d="M13.4621776,3.53966106 L13.59133,3.65923837 L20.765165,10.8330733 C21.0580582,11.1259665 21.0580582,11.6008403 20.765165,11.8937335 C20.4989012,12.1599973 20.0822419,12.1842031 19.7886335,11.9663509 L19.7045104,11.8937279 L12.7499999,4.93907144 L12.7499999,20.2492918 C12.7499999,20.6635054 12.4142135,20.9992918 11.9999999,20.9992918 C11.6203041,20.9992918 11.3065089,20.7171379 11.2568465,20.3510624 L11.2499999,20.2492918 L11.2499999,4.93807144 L4.29545409,11.8936925 C4.02922869,12.1599591 3.61259908,12.1841955 3.31899344,11.9663805 L3.2348349,11.8937335 C2.94194168,11.6008403 2.94194168,11.1259665 3.2348349,10.8330733 L10.4086698,3.65923837 C10.8471806,3.22072761 11.4216057,3.0010053 11.9963203,2.99996861 C12.5186364,2.99922273 13.0411916,3.17908594 13.4621776,3.53966106 Z" id="形状结合" fill="#36C18D" fill-rule="nonzero"></path>
    </g>
</svg>