<svg width="64.000000" height="64.000000" viewBox="0 0 64 64" fill="none" xmlns="http://www.w3.org/2000/svg" xmlns:xlink="http://www.w3.org/1999/xlink">
	<desc>
			Created with Pixso.
	</desc>
	<defs>
		<filter id="filter_3_2238_dd" x="18.571289" y="53.000000" width="26.000000" height="3.000000" filterUnits="userSpaceOnUse" color-interpolation-filters="sRGB">
			<feFlood flood-opacity="0" result="BackgroundImageFix"/>
			<feBlend mode="normal" in="SourceGraphic" in2="BackgroundImageFix" result="shape"/>
			<feGaussianBlur stdDeviation="0" result="effect_layerBlur_1"/>
		</filter>
		<clipPath id="clip3_25">
			<rect id="终端设备/手表" width="64.000000" height="64.000000" fill="white" fill-opacity="0"/>
		</clipPath>
		<radialGradient gradientTransform="translate(31.5713 54.5) rotate(90) scale(0.656799 13.5649)" cx="0.000000" cy="0.000000" r="1.000000" id="paint_radial_3_2238_0" gradientUnits="userSpaceOnUse">
			<stop stop-color="#73757F" stop-opacity="0.313726"/>
			<stop offset="0.525180" stop-color="#37383C" stop-opacity="0.082353"/>
			<stop offset="1.000000" stop-color="#000000" stop-opacity="0.000000"/>
		</radialGradient>
		<linearGradient x1="31.999998" y1="54.942265" x2="31.999998" y2="10.000000" id="paint_linear_3_2239_0" gradientUnits="userSpaceOnUse">
			<stop stop-color="#919191"/>
			<stop offset="0.092175" stop-color="#F0F0F0"/>
			<stop offset="0.177856" stop-color="#B8B8B8"/>
			<stop offset="0.839653" stop-color="#B8B8B8"/>
			<stop offset="0.888575" stop-color="#F0F0F0"/>
			<stop offset="1.000000" stop-color="#E6E6E6"/>
		</linearGradient>
		<linearGradient x1="32.000000" y1="10.000000" x2="32.000000" y2="54.000000" id="paint_linear_3_2239_1" gradientUnits="userSpaceOnUse">
			<stop stop-color="#D8D7D7"/>
			<stop offset="1.000000" stop-color="#B7B6B6"/>
		</linearGradient>
		<radialGradient gradientTransform="translate(8.2507 -7.14766) rotate(62.6384) scale(59.7189 59.7189)" cx="0.000000" cy="0.000000" r="1.000000" id="paint_radial_3_2244_0" gradientUnits="userSpaceOnUse">
			<stop stop-color="#FFFFFF" stop-opacity="0.901961"/>
			<stop offset="1.000000" stop-color="#FFFFFF" stop-opacity="0.000000"/>
		</radialGradient>
	</defs>
	<rect id="终端设备/手表" width="64.000000" height="64.000000" fill="#000000" fill-opacity="0"/>
	<g clip-path="url(#clip3_25)">
		<g opacity="0.000000">
			<rect id="矩形" x="8.000000" y="8.000000" width="48.000000" height="48.000000" fill="#D8D8D8" fill-opacity="1.000000"/>
			<rect id="矩形" x="8.500000" y="8.500000" width="47.000000" height="47.000000" stroke="#979797" stroke-opacity="0" stroke-width="1.000000"/>
		</g>
		<g filter="url(#filter_3_2238_dd)">
			<path id="椭圆形备份 2" d="M31.57 56C38.75 56 44.57 55.52 44.57 54.56C44.57 53.6 38.75 53 31.57 53C24.39 53 18.57 53.6 18.57 54.56C18.57 55.52 24.39 56 31.57 56Z" fill="url(#paint_radial_3_2238_0)" fill-opacity="1.000000" fill-rule="evenodd"/>
			<path id="椭圆形备份 2" d="" fill="#979797" fill-opacity="0" fill-rule="evenodd"/>
		</g>
		<mask id="mask_3_2239" fill="white">
			<path id="形状" d="M37.665 10C38.8337 10 39.855 10.8528 39.9072 12.0225C39.9718 13.4709 40.2368 15.1792 40.6799 16.0195L40.8341 16.2883L41.125 16.7502C42.3518 17.6826 43.1428 19.1511 43.1428 20.803L43.1453 28.2466C43.6433 28.4224 44 28.8943 44 29.4487L44 34.5513C44 35.1057 43.6433 35.5776 43.1453 35.7534L43.1428 43.197C43.1428 44.8496 42.3511 46.3186 41.1233 47.2512L40.8341 47.7117C40.2981 48.5708 39.979 50.3682 39.9072 51.9775C39.855 53.1472 38.8337 54 37.665 54L25.4779 54C24.3092 54 23.2878 53.1472 23.2357 51.9775C23.1639 50.3682 22.8447 48.5708 22.3087 47.7117L22.0195 47.2512C20.7919 46.3186 20 44.8496 20 43.197L20 20.803C20 19.1511 20.7911 17.6826 22.0178 16.7502L22.3087 16.2883C22.8447 15.4292 23.1639 13.6318 23.2357 12.0225C23.2845 10.926 24.1853 10.1079 25.2606 10.0098L25.4779 10L37.665 10ZM25.1428 17.4014L38 17.4014L38.2559 17.4106C40.0299 17.5405 41.4286 19.0098 41.4286 20.803L41.4286 43.197L41.4192 43.4509C41.2882 45.2109 39.8075 46.5986 38 46.5986L25.1428 46.5986L24.887 46.5894C23.1129 46.4595 21.7142 44.9902 21.7142 43.197L21.7142 20.803L21.7236 20.5491C21.8546 18.7891 23.3353 17.4014 25.1428 17.4014Z" clip-rule="evenodd" fill="" fill-opacity="1.000000" fill-rule="evenodd"/>
		</mask>
		<path id="形状" d="M37.665 10C38.8337 10 39.855 10.8528 39.9072 12.0225C39.9718 13.4709 40.2368 15.1792 40.6799 16.0195L40.8341 16.2883L41.125 16.7502C42.3518 17.6826 43.1428 19.1511 43.1428 20.803L43.1453 28.2466C43.6433 28.4224 44 28.8943 44 29.4487L44 34.5513C44 35.1057 43.6433 35.5776 43.1453 35.7534L43.1428 43.197C43.1428 44.8496 42.3511 46.3186 41.1233 47.2512L40.8341 47.7117C40.2981 48.5708 39.979 50.3682 39.9072 51.9775C39.855 53.1472 38.8337 54 37.665 54L25.4779 54C24.3092 54 23.2878 53.1472 23.2357 51.9775C23.1639 50.3682 22.8447 48.5708 22.3087 47.7117L22.0195 47.2512C20.7919 46.3186 20 44.8496 20 43.197L20 20.803C20 19.1511 20.7911 17.6826 22.0178 16.7502L22.3087 16.2883C22.8447 15.4292 23.1639 13.6318 23.2357 12.0225C23.2845 10.926 24.1853 10.1079 25.2606 10.0098L25.4779 10L37.665 10ZM25.1428 17.4014L38 17.4014L38.2559 17.4106C40.0299 17.5405 41.4286 19.0098 41.4286 20.803L41.4286 43.197L41.4192 43.4509C41.2882 45.2109 39.8075 46.5986 38 46.5986L25.1428 46.5986L24.887 46.5894C23.1129 46.4595 21.7142 44.9902 21.7142 43.197L21.7142 20.803L21.7236 20.5491C21.8546 18.7891 23.3353 17.4014 25.1428 17.4014Z" clip-rule="evenodd" fill="url(#paint_linear_3_2239_0)" fill-opacity="1.000000" fill-rule="evenodd" mask="url(#mask_3_2239)"/>
		<path id="形状" d="M37.665 9.75Q38.144 9.75 38.5891 9.91748Q39.0262 10.082 39.37 10.385Q39.7206 10.6938 39.9231 11.1018Q40.1355 11.5295 40.157 12.0115Q40.2084 13.1641 40.3976 14.2043Q40.6041 15.3398 40.901 15.9028L40.6799 16.0195L40.8967 15.895L41.051 16.1638L40.8341 16.2883L41.0457 16.155L41.3365 16.6169L41.125 16.7502L41.2762 16.5513Q42.2599 17.2988 42.8168 18.3936Q43.3928 19.5259 43.3928 20.803L43.3953 28.2466L43.1453 28.2466L43.2284 28.0107Q43.6807 28.1704 43.9619 28.5591Q44.25 28.957 44.25 29.4487L44.25 34.5513Q44.25 35.043 43.9619 35.4409Q43.6807 35.8296 43.2284 35.9893L43.1453 35.7534L43.3953 35.7534L43.3928 43.197Q43.3928 44.4749 42.8163 45.6074Q42.2589 46.7026 41.2745 47.4502L41.1233 47.2512L41.335 47.384L41.0459 47.8445Q40.6868 48.4204 40.4414 49.6135Q40.2134 50.7234 40.157 51.9885Q40.1355 52.4705 39.9231 52.8982Q39.7206 53.3062 39.37 53.615Q39.0262 53.918 38.5891 54.0825Q38.144 54.25 37.665 54.25L25.4779 54.25Q24.9988 54.25 24.5537 54.0825Q24.1166 53.918 23.7728 53.615Q23.4224 53.3062 23.2197 52.8982Q23.0074 52.4705 22.986 51.9885Q22.9294 50.7234 22.7014 49.6135Q22.4562 48.4204 22.0966 47.844L21.8079 47.384L22.0195 47.2512L21.8684 47.4502Q20.884 46.7026 20.3265 45.6074Q19.75 44.4749 19.75 43.197L19.75 20.803Q19.75 19.5259 20.326 18.3936Q20.8829 17.2988 21.8666 16.5513L22.0178 16.7502L21.8063 16.6169L22.0972 16.155Q22.4562 15.5798 22.7014 14.3865Q22.9294 13.2766 22.986 12.0115Q23.0061 11.5596 23.1948 11.1538Q23.3751 10.7661 23.6895 10.4619Q23.9967 10.1648 24.3939 9.98389Q24.7953 9.80127 25.238 9.76099L25.2437 9.7605L25.4722 9.75L37.665 9.75ZM37.665 10.25L25.4779 10.25L25.4779 10L25.4893 10.2498L25.272 10.2595L25.2606 10.0098L25.2833 10.2588Q24.9252 10.2915 24.6011 10.439Q24.2823 10.584 24.0371 10.8213Q23.7894 11.061 23.6482 11.3647Q23.5012 11.6807 23.4855 12.0337Q23.4272 13.3384 23.1912 14.4871Q22.9279 15.7683 22.5203 16.4216L22.2052 16.9219L22.1692 16.9492Q21.2767 17.6277 20.7717 18.6201Q20.25 19.6458 20.25 20.803L20.25 43.197Q20.25 44.3547 20.7722 45.3806Q21.2776 46.3738 22.1708 47.052L22.207 47.0796L22.5208 47.5793Q22.9279 48.2317 23.1912 49.5129Q23.4272 50.6616 23.4855 51.9663Q23.5022 52.3425 23.6676 52.6758Q23.8265 52.9958 24.1034 53.2397Q24.3784 53.4822 24.7299 53.6145Q25.0898 53.75 25.4779 53.75L37.665 53.75Q38.053 53.75 38.413 53.6145Q38.7644 53.4822 39.0396 53.2397Q39.3164 52.9958 39.4752 52.6758Q39.6406 52.3425 39.6575 51.9663Q39.7156 50.6616 39.9517 49.5129Q40.215 48.2317 40.6224 47.5786L40.9358 47.0796L40.972 47.052Q41.8652 46.3738 42.3707 45.3806Q42.8928 44.355 42.8928 43.197L42.8953 35.5764L43.062 35.5176Q43.3671 35.4099 43.5569 35.1477Q43.75 34.8809 43.75 34.5513L43.75 29.4487Q43.75 29.1191 43.5569 28.8523Q43.3671 28.5901 43.062 28.4824L42.8953 28.4236L42.8928 20.803Q42.8928 19.6458 42.3711 18.6201Q41.8662 17.6277 40.9738 16.9492L40.9376 16.9219L40.6199 16.4172L40.4608 16.1401L40.4587 16.136Q40.126 15.5051 39.9056 14.2937Q39.7103 13.2202 39.6575 12.0337Q39.6406 11.6575 39.4752 11.3242Q39.3164 11.0042 39.0396 10.7603Q38.7644 10.5178 38.413 10.3855Q38.0531 10.25 37.665 10.25ZM25.1428 17.1514L38.0045 17.1514L38.2695 17.1609L38.2742 17.1614Q38.9771 17.2129 39.6089 17.5183Q40.2224 17.8149 40.6896 18.3118Q41.1586 18.8105 41.4139 19.4407Q41.6786 20.0935 41.6786 20.803L41.6786 43.2017L41.6688 43.4648L41.6685 43.4695Q41.6166 44.168 41.3082 44.7954Q41.009 45.4045 40.5081 45.8684Q40.0056 46.3333 39.371 46.5867Q38.7139 46.8486 38 46.8486L25.1382 46.8486L24.8733 46.8391L24.8687 46.8386Q24.1658 46.7871 23.5339 46.4817Q22.9204 46.1851 22.4532 45.6882Q21.9843 45.1895 21.7289 44.5593Q21.4642 43.9065 21.4642 43.197L21.4642 20.7983L21.474 20.5352L21.4744 20.5305Q21.5262 19.832 21.8346 19.2046Q22.1338 18.5955 22.6348 18.1316Q23.1372 17.6667 23.7719 17.4133Q24.429 17.1514 25.1428 17.1514ZM25.1428 17.6514Q24.5249 17.6514 23.9572 17.8779Q23.4087 18.0967 22.9744 18.4985Q22.5415 18.8992 22.2833 19.4248Q22.0177 19.9656 21.973 20.5676L21.7236 20.5491L21.9735 20.5583L21.9641 20.8123L21.7142 20.803L21.9642 20.803L21.9642 43.197Q21.9642 43.8091 22.1923 44.3716Q22.4125 44.915 22.8175 45.3457Q23.2213 45.7751 23.7516 46.0317Q24.2975 46.2954 24.9052 46.3401L24.887 46.5894L24.8961 46.3396L25.152 46.3489L25.1428 46.5986L25.1428 46.3486L38 46.3486Q38.6179 46.3486 39.1857 46.1221Q39.7341 45.9033 40.1685 45.5015Q40.6013 45.1008 40.8595 44.5752Q41.1251 44.0344 41.1698 43.4324L41.4192 43.4509L41.1693 43.4417L41.1787 43.1877L41.4286 43.197L41.1786 43.197L41.1786 20.803Q41.1786 20.1909 40.9506 19.6284Q40.7303 19.085 40.3253 18.6543Q39.9214 18.2249 39.3912 17.9683Q38.8453 17.7046 38.2375 17.6599L38.2559 17.4106L38.2467 17.6604L37.9908 17.6511L38 17.4014L38 17.6514L25.1428 17.6514Z" fill="url(#paint_linear_3_2239_1)" fill-opacity="1.000000" fill-rule="nonzero"/>
		<rect id="矩形" x="22.428589" y="18.110107" rx="2.857143" width="18.285715" height="27.780012" fill="#191919" fill-opacity="1.000000"/>
		<rect id="矩形" x="22.428589" y="18.110107" rx="2.857143" width="18.285715" height="27.780012" fill="url(#paint_radial_3_2244_0)" fill-opacity="1.000000"/>
		<rect id="矩形" x="22.000000" y="17.681641" rx="2.857143" width="19.142859" height="28.637156" stroke="#505259" stroke-opacity="1.000000" stroke-width="0.857143"/>
		<rect id="矩形" x="22.000000" y="17.681641" rx="2.857143" width="19.142859" height="28.637156" stroke="#191919" stroke-opacity="1.000000" stroke-width="0.857143"/>
	</g>
</svg>
