<svg xmlns="http://www.w3.org/2000/svg" xmlns:xlink="http://www.w3.org/1999/xlink" width="24px" height="24px" viewBox="0 0 24 24" version="1.1">
    <title>ic_shirt_lined</title>
    <g id="ic_shirt_lined" stroke="none" stroke-width="1" fill="none" fill-rule="evenodd">
        <g>
            <rect fill="#D8D8D8" opacity="0" x="0" y="0" width="24" height="24"></rect>
            <path d="M15.167,2.82 C16.6258021,2.82 18.0285936,3.36571717 19.1026659,4.34400507 L19.3001357,4.53247562 L22.0301357,7.26047562 C22.2336599,7.46385074 22.3007949,7.76289283 22.2109725,8.02988923 L22.1698916,8.1282613 L20.0578916,12.3232613 C19.8874598,12.6617847 19.4953607,12.8153413 19.1463733,12.6961052 L19.0524627,12.6567568 L16.9414627,11.6007568 C16.5710139,11.4154447 16.420931,10.9649115 16.6062432,10.5944627 C16.7761126,10.2548847 17.1688414,10.1004752 17.5184565,10.219836 L17.6125373,10.2592432 L19.054,10.98 L20.586,7.938 L18.2396699,5.59333009 C17.540796,4.89445623 16.6289463,4.45814402 15.6571722,4.34774612 L15.451,4.329 L15.3243397,4.43946806 C13.3986899,6.02917731 10.6013101,6.02917731 8.67566023,4.43946806 L8.54799999,4.329 L8.34249697,4.34774222 C7.4511827,4.44892778 6.61066083,4.8239523 5.93833586,5.42418138 L5.75923288,5.59342726 L3.41299999,7.938 L4.94399999,10.98 L6.3864627,10.2592432 C6.85397904,10.0253743 7.39898775,10.329465 7.4652876,10.827837 L7.47199999,10.93 L7.47199999,18.119 C7.47199999,18.9332831 8.09514205,19.6018494 8.89087637,19.6736213 L9.03299999,19.68 L14.966,19.68 C15.7804803,19.68 16.4488713,19.0566716 16.5206231,18.2610926 L16.527,18.119 L16.527,13.499 C16.527,13.0847864 16.8627864,12.749 17.277,12.749 C17.6566958,12.749 17.9704909,13.0311539 18.0201534,13.3972294 L18.027,13.499 L18.027,18.119 C18.027,19.7491335 16.7530338,21.0816996 15.1458943,21.1748036 L14.966,21.18 L9.03299999,21.18 C7.40247151,21.18 6.07027219,19.905653 5.97719485,18.2988535 L5.97199999,18.119 L5.97199999,12.143 L4.94653728,12.6567568 C4.60753099,12.8263403 4.20133392,12.7150694 3.99281338,12.4108274 L3.94104421,12.3231339 L1.83004421,8.12813388 C1.70075128,7.8712017 1.7308911,7.56631085 1.89991365,7.34105963 L1.96976709,7.26057274 L4.6986699,4.53266991 C5.79538361,3.43595621 7.28217445,2.82 8.83299999,2.82 C9.03191235,2.82 9.22267779,2.89901763 9.36333007,3.03966991 C10.8194369,4.4957767 13.1805631,4.4957767 14.6366699,3.03966991 C14.7773222,2.89901763 14.9680876,2.82 15.167,2.82 Z" id="Stroke-1" fill="#191919"></path>
        </g>
    </g>
</svg>