<?xml version="1.0" encoding="utf-8" standalone="no"?>
<svg version="1.1" id="图层_1" xmlns="http://www.w3.org/2000/svg" xmlns:xlink="http://www.w3.org/1999/xlink" x="0px" y="0px"
	 viewBox="0 0 247.61 315.51" style="enable-background:new 0 0 247.61 315.51;" xml:space="preserve">
	<style type="text/css">
	.st0{fill:#B28247;}
	.st1{fill:#00A0E9;}
	.st2{fill:#EA5514;}
	.st3{fill:#E72119;}
	.st4{fill:#6A3906;}
	.st5{fill:#7E318E;}
	.st6{fill:none;stroke:#000000;stroke-width:2;stroke-miterlimit:10;opacity:0}
	.st7{fill:none;stroke:#C9CACA;stroke-width:2;stroke-miterlimit:10;}
	</style>
	<g id="XMLID_1_">
	  // 房间各部分
		<g>
			<polygon name="主卧" class="st0" points="237.86,163.03 237.86,261.81 148.88,261.81 148.88,163.03 179.89,163.03 236.54,163.03 		"/>
			<polygon name="次卧" class="st1" points="237.86,16.83 237.86,110.43 236.54,110.43 179.89,110.43 145.66,110.43 145.66,16.83 		"/>
			<rect name="洗手间" x="179.89" y="110.43" class="st2" width="57.97" height="52.6"/>
			<polygon name="卧室" class="st3" points="179.89,110.43 179.89,163.03 148.88,163.03 148.88,261.81 142.36,261.81 142.36,269.27 41.61,269.27 
				41.61,156.15 6.93,156.15 6.93,121.32 61,121.32 61,40.1 145.66,40.1 145.66,110.43 		"/>
			<rect name="阳台1" x="61" y="16.83" class="st4" width="84.78" height="23.07"/>
			<rect name="阳台2" x="41.61" y="269.27" class="st4" width="100.75" height="32.49"/>
			<polygon name="厨房" class="st5" points="61,40.1 61,121.32 6.93,121.32 6.93,40.1 		"/>
			<!-- <image xlink:href='./image/Doc/main_wifi.png' x="45" y ="180" height="80" width="40"></image>
			<image xlink:href='./image/Doc/wifi.png' x="205" y ="210" height="50" width="30"></image> -->
			<!-- <polygon class="st6" points="61,16.83 61,40.1 6.93,40.1 6.93,156.15 41.61,156.15 41.61,301.76 142.36,301.76 142.36,261.81 237.86,261.81 237.86,16.83 "/> -->
		</g>
	</g>
	<g>
		<line class="st7" x1="61" y1="65.11" x2="61" y2="96.31"/>
		<line class="st7" x1="126.58" y1="269.27" x2="59.43" y2="269.27"/>
		<line class="st7" x1="127.51" y1="39.9" x2="79.25" y2="39.9"/>
		<line class="st7" x1="179.89" y1="138.73" x2="179.89" y2="159.76"/>
		<line class="st7" x1="168.45" y1="110.43" x2="148.39" y2="110.43"/>
		<line class="st7" x1="171.74" y1="163.05" x2="151.68" y2="163.05"/>
		<text style="fill:#000;font-size:8px;" transform="matrix(1 0 0 1 25.2979 80.3902)" class="st8 st9 st10">厨房</text>
		<text style="fill:#676767;font-size:8px;" transform="matrix(1 0 0 1 20.2979 90.3902)" class="st8 st9 st10">Kitchen</text>
		<text style="fill:#000;font-size:8px;" transform="matrix(1 0 0 1 185.8188 60.1073)" class="st8 st9 st10">次卧</text>
		<text style="fill:#676767;font-size:8px;" transform="matrix(1 0 0 1 170.8188 70.1073)" class="st8 st9 st10">Second Room</text>
		<text style="fill:#000;font-size:8px;" transform="matrix(1 0 0 1 95.0583 27.0453)" class="st8 st9 st10">阳台</text>
		<text style="fill:#676767;font-size:8px;" transform="matrix(1 0 0 1 89.0583 37.0453)" class="st8 st9 st10">Balcony</text>
		<text style="fill:#000;font-size:8px;" transform="matrix(1 0 0 1 195.4873 135.8679)" class="st8 st9 st10">洗手间</text>
		<text style="fill:#676767;font-size:8px;" transform="matrix(1 0 0 1 189.4873 145.8679)" class="st8 st9 st10">Bathroom</text>
		<text style="fill:#000;font-size:8px;" transform="matrix(1 0 0 1 185.3312 210.1973)" class="st8 st9 st10">主卧</text>
		<text style="fill:#676767;font-size:8px;" transform="matrix(1 0 0 1 170.3312 220.1973)" class="st8 st9 st10">Master Room</text>
		<text style="fill:#000;font-size:8px;" transform="matrix(1 0 0 1 82.2338 285.5386)" class="st8 st9 st10">阳台</text>
		<text style="fill:#676767;font-size:8px;" transform="matrix(1 0 0 1 75.2338 295.5386)" class="st8 st9 st10">Balcony</text>
		<text style="fill:#000;font-size:8px;" transform="matrix(1 0 0 1 85.9167 159.756)" class="st8 st9 st10">客厅</text>
		<text style="fill:#676767;font-size:8px;" transform="matrix(1 0 0 1 70.9167 169.756)" class="st8 st9 st10">Living room</text>
	</g>
	
</svg>
