<svg width="40.000000" height="40.000000" viewBox="0 0 40 40" fill="none" xmlns="http://www.w3.org/2000/svg" xmlns:xlink="http://www.w3.org/1999/xlink">
	<desc>
			Created with Pixso.
	</desc>
	<defs/>
	<g opacity="0.000000"/>
	<path id="矢量 210" d="M2.32837 32.8119L17.3428 4.56494C18.0881 3.1626 19.856 2.60834 21.3091 3.29187C21.887 3.56366 22.3606 4.00916 22.656 4.56494L37.6707 32.8119C38.437 34.2541 37.8162 36.0065 36.3237 36.7084C35.9153 36.9005 35.4673 37 35.0139 37L4.98486 37C3.35181 37 2 35.7284 2 34.1237C2 33.6668 2.11279 33.2173 2.32837 32.8119Z" fill="#2070F3" fill-opacity="1.000000" fill-rule="evenodd"/>
	<path id="矢量 250" d="M17.8408 15.3881C17.7129 14.1095 18.717 13 20.002 13C21.2871 13 22.291 14.1095 22.1631 15.3881L21.3215 23.806C21.2537 24.4838 20.6833 25 20.002 25C19.3208 25 18.7505 24.4838 18.6826 23.806L17.8408 15.3881ZM20.002 27.4C19.0078 27.4 18.2019 28.2059 18.2019 29.2C18.2019 30.1942 19.0078 31 20.002 31C20.9961 31 21.802 30.1942 21.802 29.2C21.802 28.2059 20.9961 27.4 20.002 27.4Z" fill="#FFFFFF" fill-opacity="1.000000" fill-rule="evenodd"/>
</svg>
