<?xml version="1.0" encoding="UTF-8"?>
<svg width="32px" height="36px" viewBox="0 0 32 36" version="1.1" xmlns="http://www.w3.org/2000/svg" xmlns:xlink="http://www.w3.org/1999/xlink">
    <title>多边形备份 57</title>
    <g id="页面-1" stroke="none" stroke-width="1" fill="none" fill-rule="evenodd" fill-opacity="0.1" stroke-opacity="0.901800836">
        <g id="7.5节点详情-诊断结果备份" transform="translate(-665.000000, -2106.000000)" fill="#F23030" stroke="#F23030" stroke-width="1.5">
            <g id="编组-3备份-2" transform="translate(519.000000, 2106.000000)">
                <path d="M160.375,1.80421959 C161.380553,1.22366301 162.619447,1.22366301 163.625,1.80421959 L163.625,1.80421959 L175.213457,8.49481851 C175.716234,8.78509681 176.122484,9.19846416 176.40304,9.68440108 C176.683596,10.170338 176.838457,10.7288445 176.838457,11.3094011 L176.838457,11.3094011 L176.838457,24.6905989 C176.838457,25.2711555 176.683596,25.829662 176.40304,26.3155989 C176.122484,26.8015358 175.716234,27.2149032 175.213457,27.5051815 L175.213457,27.5051815 L163.625,34.1957804 C162.619447,34.776337 161.380553,34.776337 160.375,34.1957804 L160.375,34.1957804 L148.786543,27.5051815 C148.283766,27.2149032 147.877516,26.8015358 147.59696,26.3155989 C147.316404,25.829662 147.161543,25.2711555 147.161543,24.6905989 L147.161543,24.6905989 L147.161543,11.3094011 C147.161543,10.7288445 147.316404,10.170338 147.59696,9.68440108 C147.877516,9.19846416 148.283766,8.78509681 148.786543,8.49481851 L148.786543,8.49481851 Z" id="多边形备份-57"></path>
            </g>
        </g>
    </g>
</svg>