<?xml version="1.0" encoding="UTF-8"?>
<svg width="32px" height="36px" viewBox="0 0 32 36" version="1.1" xmlns="http://www.w3.org/2000/svg" xmlns:xlink="http://www.w3.org/1999/xlink">
    <title>多边形备份 65</title>
    <g id="页面-1" stroke="none" stroke-width="1" fill="none" fill-rule="evenodd" fill-opacity="0.1" stroke-opacity="0.6">
        <g id="7.5节点详情-诊断结果备份" transform="translate(-737.000000, -2106.000000)" fill="#5CB300" stroke="#5CB300" stroke-width="1.5">
            <g id="编组-3备份-2" transform="translate(519.000000, 2106.000000)">
                <path d="M232.375,1.80421959 C233.380553,1.22366301 234.619447,1.22366301 235.625,1.80421959 L235.625,1.80421959 L235.625,1.80421959 L247.213457,8.49481851 C247.716234,8.78509681 248.122484,9.19846416 248.40304,9.68440108 C248.683596,10.170338 248.838457,10.7288445 248.838457,11.3094011 L248.838457,11.3094011 L248.838457,24.6905989 C248.838457,25.2711555 248.683596,25.829662 248.40304,26.3155989 C248.122484,26.8015358 247.716234,27.2149032 247.213457,27.5051815 L247.213457,27.5051815 L235.625,34.1957804 C234.619447,34.776337 233.380553,34.776337 232.375,34.1957804 L232.375,34.1957804 L220.786543,27.5051815 C220.283766,27.2149032 219.877516,26.8015358 219.59696,26.3155989 C219.316404,25.829662 219.161543,25.2711555 219.161543,24.6905989 L219.161543,24.6905989 L219.161543,11.3094011 C219.161543,10.7288445 219.316404,10.170338 219.59696,9.68440108 C219.877516,9.19846416 220.283766,8.78509681 220.786543,8.49481851 L220.786543,8.49481851 Z" id="多边形备份-65"></path>
            </g>
        </g>
    </g>
</svg>