<?xml version="1.0" encoding="UTF-8"?>
<svg width="12px" height="12px" viewBox="0 0 12 12" version="1.1" xmlns="http://www.w3.org/2000/svg" xmlns:xlink="http://www.w3.org/1999/xlink">
    <title>ic_jiantou_hong</title>
    <g id="最新页面" stroke="none" stroke-width="1" fill="none" fill-rule="evenodd">
        <g id="ic_jiantou_hong" fill-rule="nonzero">
            <rect id="矩形" fill="#D8D8D8" opacity="0" x="0" y="0" width="12" height="12"></rect>
            <path d="M5.59413145,10.3442486 C5.79350645,10.5197903 6.07732935,10.5470229 6.3031031,10.4255614 L6.36313145,10.3887486 L6.41963145,10.3447486 L10.285,7.01424865 C10.4205,6.89574865 10.5,6.72474865 10.5,6.54474865 C10.5,6.2428153 10.2870134,5.9905353 10.002102,5.9322227 L9.94,5.92274865 L9.875,5.91974865 L8.02363145,5.91974865 L8.02363145,2.25 C8.02363145,1.86035294 7.72599825,1.53979931 7.34582805,1.50343538 L7.27363145,1.5 L4.70313145,1.5 C4.3379752,1.5 4.03346348,1.76323242 3.96675083,2.10965881 L3.95663145,2.18 L3.95313145,2.25 L3.95313145,5.91974865 L2.125,5.91974865 C1.99042857,5.91974865 1.86210204,5.9630956 1.75607872,6.04191775 L1.705,6.08424865 L1.655,6.13174865 C1.45721429,6.35646295 1.45214031,6.6829221 1.62256396,6.91456515 L1.665,6.96624865 L1.71,7.01374865 L5.59413145,10.3442486 Z" id="Fill-1" fill="#E54545"></path>
        </g>
    </g>
</svg>