<!-- Generated by IcoMoon.io -->
<svg version="1.1" xmlns="http://www.w3.org/2000/svg" width="32" height="32" viewBox="0 0 32 32">
<title>search-line</title>
<path file="#1c1c1c" d="M13.347 2.029c6.234 0 11.287 5.058 11.287 11.298 0 2.639-0.904 5.066-2.418 6.989l8.072 8.074c0.521 0.521 0.521 1.365 0 1.886s-1.365 0.521-1.886 0l-8.072-8.071c-1.921 1.516-4.346 2.421-6.982 2.421-6.233 0-11.286-5.058-11.286-11.298s5.053-11.298 11.286-11.298zM13.347 4.029c-5.128 0-9.286 4.163-9.286 9.298s4.158 9.298 9.286 9.298c5.129 0 9.287-4.162 9.287-9.298s-4.158-9.298-9.287-9.298z"></path>
</svg>
