<svg xmlns="http://www.w3.org/2000/svg" xmlns:xlink="http://www.w3.org/1999/xlink" width="24px" height="24px" viewBox="0 0 24 24" version="1.1">
    <title>ic_close_filled</title>
    <g id="ic_close_filled" stroke="none" stroke-width="1" fill="none" fill-rule="evenodd">
        <g id="编组">
            <rect id="矩形" fill="#D8D8D8" opacity="0" x="0" y="0" width="24" height="24"/>
            <path d="M5.707,4.293125 L11.99975,10.585875 L18.293,4.293125 C18.684,3.902125 19.316,3.902125 19.707,4.293125 C20.098,4.684125 20.098,5.316125 19.707,5.707125 L13.41375,11.999875 L19.707,18.293125 C20.098,18.684125 20.098,19.316125 19.707,19.707125 C19.512,19.902125 19.256,20.000125 19,20.000125 C18.744,20.000125 18.488,19.902125 18.293,19.707125 L11.99975,13.413875 L5.707,19.707125 C5.512,19.902125 5.256,20.000125 5,20.000125 C4.744,20.000125 4.488,19.902125 4.293,19.707125 C3.902,19.316125 3.902,18.684125 4.293,18.293125 L10.58575,11.999875 L4.293,5.707125 C3.902,5.316125 3.902,4.684125 4.293,4.293125 C4.684,3.902125 5.316,3.902125 5.707,4.293125 Z" id="形状结合" fill="#1c1c1c"/>
        </g>
    </g>
</svg>