<?xml version="1.0" encoding="UTF-8"?>
<svg width="24px" height="24px" viewBox="0 0 24 24" version="1.1" xmlns="http://www.w3.org/2000/svg" xmlns:xlink="http://www.w3.org/1999/xlink">
    <title>ic_notice_lined</title>
    <g id="CRM详情页" stroke="none" stroke-width="1" fill="none" fill-rule="evenodd">
        <g id="1116详情页" transform="translate(-1295.000000, -12.000000)">
            <g id="编组" transform="translate(1045.000000, 10.000000)">
                <g id="编组" transform="translate(250.000000, 2.000000)">
                    <rect id="矩形" fill="#D8D8D8" opacity="0" x="0" y="0" width="24" height="24"></rect>
                    <path d="M14.8672905,20.24705 C14.3232905,21.28305 13.2492905,22.00005 12.0002905,22.00005 C10.7502905,22.00005 9.67629045,21.28305 9.13229045,20.24705 L9.13229045,20.24705 Z M12.0004905,1.99995 C12.3801862,1.99995 12.6939814,2.28210388 12.7436438,2.64817944 L12.7504905,2.74995 L12.7504845,3.04483024 C15.8487457,3.41547875 18.2499905,6.05202813 18.2499905,9.25025 L18.2499905,9.25025 L18.2499905,11.25025 C18.2499905,12.5518868 18.457128,13.9089149 18.9737045,15.3118536 C19.1986078,15.9219916 19.4569628,16.3697549 19.8217214,16.8392867 L19.8217214,16.8392867 L19.8707932,16.9018732 L20.4063945,17.5522376 C20.4775791,17.6402931 20.5397265,17.7197874 20.6002868,17.8006454 C20.9706449,18.2951346 20.6177969,19.00025 19.9999905,19.00025 L19.9999905,19.00025 L3.99999045,19.00025 C3.38615986,19.00025 3.03226456,18.303114 3.39454997,17.8075968 C3.47812057,17.6932928 3.56573194,17.579993 3.67612459,17.4419395 L3.67612459,17.4419395 L4.1732984,16.8152455 C4.54767656,16.3166065 4.81341193,15.8406538 5.0426084,15.1972095 C5.5294994,13.8326228 5.73497499,12.513363 5.74999045,11.25025 L5.74999045,11.25025 L5.74999045,9.25025 C5.74999045,6.0519212 8.15139577,3.41530246 11.2498071,3.04479307 L11.2504905,2.74995 C11.2504905,2.33573644 11.5862769,1.99995 12.0004905,1.99995 Z M11.9999905,4.50025 C9.37620401,4.50025 7.24999045,6.62646356 7.24999045,9.25025 L7.24999045,9.25025 L7.24993783,11.2591339 C7.23302078,12.6872152 7.00233316,14.1683493 6.45550711,15.7009129 C6.24341274,16.2963451 5.99968485,16.7867694 5.69665694,17.2537174 L5.69665694,17.2537174 L5.52919045,17.49945 L18.4431905,17.49945 L18.3175724,17.3185266 C18.0682403,16.9469085 17.8592336,16.5588564 17.67435,16.1084744 L17.67435,16.1084744 L17.566185,15.8303985 C16.9834936,14.2479025 16.7499905,12.7181444 16.7499905,11.25025 L16.7499905,11.25025 L16.7499905,9.25025 C16.7499905,6.62646356 14.6237769,4.50025 11.9999905,4.50025 Z" id="形状结合" fill="#FFFFFF"></path>
                </g>
            </g>
        </g>
    </g>
</svg>