<?xml version="1.0" encoding="UTF-8"?>
<svg width="16px" height="16px" viewBox="0 0 16 16" version="1.1" xmlns="http://www.w3.org/2000/svg" xmlns:xlink="http://www.w3.org/1999/xlink">
    <title>ic/UIicon/search/line备份</title>
    <g id="CRM详情页" stroke="none" stroke-width="1" fill="none" fill-rule="evenodd">
        <g id="1116详情页" transform="translate(-1251.000000, -16.000000)" fill="#BBBBBB">
            <g id="编组" transform="translate(1045.000000, 10.000000)">
                <g id="ic/UIicon/magnifyingglass/filled" transform="translate(206.000000, 6.000000)">
                    <path d="M7.10005,1.23336667 C10.1413833,1.23336667 12.6147167,3.70736667 12.6147167,6.7487 C12.6147167,7.6187 12.41805,8.45136667 12.0293833,9.22336667 C11.8633833,9.55336667 11.4607167,9.68336667 11.13405,9.52003333 C10.8047167,9.35403333 10.67205,8.95336667 10.8373833,8.6247 C11.1327167,8.03936667 11.2813833,7.4087 11.2813833,6.7487 C11.2813833,4.4427 9.40605,2.5667 7.10005,2.5667 C4.79405,2.5667 2.91871667,4.4427 2.91871667,6.7487 C2.91871667,9.0547 4.79405,10.9300333 7.10005,10.9300333 C8.05938333,10.9300333 8.99671667,10.5973667 9.73871667,9.9927 L9.75238333,9.98236667 L9.77116667,9.96776667 C9.78230897,9.95976667 9.79364211,9.95215128 9.80514768,9.94492051 L9.73871667,9.9927 C9.77190965,9.96568246 9.8068992,9.94240105 9.84318233,9.92279266 C9.86054844,9.91337732 9.87821364,9.90484798 9.8961473,9.89714095 C9.91082555,9.89083035 9.92533322,9.8851962 9.93996721,9.88009459 C9.95731913,9.87406307 9.97536991,9.86861463 9.99357864,9.86394555 C10.0098263,9.85975499 10.0259131,9.85627373 10.0420704,9.85339578 C10.0584186,9.85048656 10.0751292,9.84814356 10.0918914,9.84643333 C10.1084752,9.84477437 10.1248607,9.84372964 10.1412454,9.84328552 C10.1606983,9.84267703 10.1804457,9.84298666 10.2001496,9.84416621 C10.2142942,9.84512657 10.228588,9.84644967 10.2428244,9.84822784 C10.2616544,9.85044292 10.2800921,9.85353029 10.2983975,9.85739355 C10.3132541,9.86066896 10.3285655,9.86445321 10.3437384,9.86877696 C10.364038,9.87445024 10.3835373,9.88102272 10.4027572,9.88852083 C10.4144606,9.8931367 10.4268025,9.89834714 10.4389971,9.90393653 C10.4566314,9.9120572 10.4733648,9.92065887 10.4897838,9.9300147 C10.5050019,9.93853431 10.5200479,9.94787102 10.5347534,9.95784381 C10.5468823,9.96633069 10.559355,9.97545626 10.5715681,9.98506958 C10.5887185,9.99819136 10.6047865,10.012108 10.6202606,10.0268921 C10.6234722,10.0304126 10.6273118,10.0341618 10.6311167,10.0379667 L14.2191167,13.6286333 C14.4797833,13.8893 14.4797833,14.3113 14.2191167,14.5713 C14.0891167,14.7013 13.91845,14.7666333 13.7477833,14.7666333 C13.5771167,14.7666333 13.40645,14.7013 13.27645,14.5713 L10.0899442,11.3830505 C9.20316012,11.9539 8.16146667,12.2633667 7.10005,12.2633667 C4.05871667,12.2633667 1.58538333,9.78936667 1.58538333,6.7487 C1.58538333,3.70736667 4.05871667,1.23336667 7.10005,1.23336667 Z" id="形状结合"></path>
                </g>
            </g>
        </g>
    </g>
</svg>